<svg width="763" height="308" viewBox="0 0 763 308" fill="none" xmlns="http://www.w3.org/2000/svg">
<path d="M551.25 101.521L761.25 181.521V226.521L551.25 146.521V101.521Z" fill="url(#paint0_linear_2095_1179)" stroke="#3E4650" stroke-width="2.5" stroke-linejoin="round"/>
<path d="M1.25 181.521L551.25 101.521L761.25 181.521L211.25 261.521L1.25 181.521Z" fill="url(#paint1_linear_2095_1179)" stroke="#3E4650" stroke-width="2.5" stroke-linejoin="round"/>
<path d="M1.25 181.521L211.25 261.521V306.521L1.25 226.521V181.521Z" fill="url(#paint2_linear_2095_1179)" stroke="#3E4650" stroke-width="2.5" stroke-linejoin="round"/>
<path d="M211.25 261.521L761.25 181.521V226.521L211.25 306.521V261.521Z" fill="url(#paint3_linear_2095_1179)" stroke="#3E4650" stroke-width="2.5" stroke-linejoin="round"/>
<path d="M207.223 163.853C208.596 175.001 219.666 179.656 219.666 179.656L378.734 152.015C378.734 152.015 388.023 146.281 384.672 133.057C381.322 119.834 374.387 117.229 374.387 117.229L211.528 144.831C211.528 144.831 205.851 152.704 207.223 163.853Z" fill="white"/>
<path d="M377.417 116.787C379.699 116.395 382.845 123.629 384.443 132.945C386.042 142.259 385.487 150.129 383.206 150.52C380.924 150.912 377.777 143.678 376.179 134.363C374.58 125.047 375.135 117.178 377.417 116.787Z" stroke="#9C9B9B" stroke-width="3.59788" stroke-linecap="round" stroke-linejoin="round"/>
<path d="M245.765 143.155C247.551 142.849 250.012 148.509 251.263 155.799C252.514 163.088 252.08 169.246 250.295 169.552C248.509 169.859 246.047 164.197 244.797 156.908C243.546 149.619 243.979 143.462 245.765 143.155Z" fill="#EF3A50"/>
<path d="M246.358 156.907L389.349 132.37" stroke="#565655" stroke-width="2.39859" stroke-linecap="round" stroke-linejoin="round"/>
<path d="M389.86 132.282C390.292 134.797 392.68 136.486 395.195 136.054C397.709 135.623 399.398 133.234 398.966 130.719C398.535 128.205 396.146 126.517 393.632 126.948" stroke="#565655" stroke-width="2.39859" stroke-linecap="round" stroke-linejoin="round"/>
<path d="M247.872 155.432C247.999 155.41 248.246 155.846 248.369 156.562C248.505 157.352 248.405 157.771 248.278 157.793C248.151 157.815 247.956 157.304 247.844 156.651C247.732 156 247.745 155.453 247.872 155.432Z" fill="#565655"/>
<path d="M245.766 143.155C247.552 142.849 250.014 148.509 251.265 155.799C252.516 163.088 252.081 169.246 250.296 169.552" fill="#EF3A50"/>
<path d="M245.909 144.002C247.695 143.695 250.092 148.977 251.263 155.798C252.434 162.62 251.934 168.398 250.148 168.704" stroke="#813A50" stroke-width="1.79894" stroke-miterlimit="10" stroke-linecap="round"/>
<path d="M377.416 116.787C379.698 116.395 382.844 123.629 384.443 132.945C386.041 142.26 385.487 150.129 383.205 150.521" stroke="#1D1D1B" stroke-width="3.59788" stroke-linecap="round" stroke-linejoin="round"/>
<path d="M208.72 145.736L376.076 117.018" stroke="#1D1D1B" stroke-width="3.59788" stroke-linecap="round" stroke-linejoin="round"/>
<path d="M191.393 165.146L206.473 162.558" stroke="black" stroke-width="0.68"/>
<path d="M187.498 171.159C190.406 170.659 192.36 167.897 191.861 164.988C191.361 162.08 188.599 160.126 185.69 160.626C182.782 161.125 180.829 163.887 181.328 166.796C181.827 169.705 184.589 171.658 187.498 171.159Z" stroke="#F19100" stroke-width="1.79894" stroke-miterlimit="10" stroke-linecap="round"/>
<path d="M219.641 175.063C220.494 174.917 215.894 148.112 216.747 147.966C217.599 147.82 222.199 174.625 223.051 174.478C223.904 174.332 219.304 147.527 220.156 147.381C221.009 147.235 225.609 174.039 226.461 173.893C227.313 173.747 222.714 146.942 223.566 146.796C224.418 146.65 229.018 173.454 229.87 173.308C230.723 173.162 226.124 146.357 226.976 146.211C227.829 146.065 232.428 172.869 233.281 172.723C234.133 172.577 229.534 145.772 230.386 145.626C231.239 145.479 235.838 172.284 236.691 172.138C237.544 171.991 232.944 145.187 233.796 145.041C234.649 144.894 239.248 171.699 240.101 171.553C240.954 171.406 236.354 144.602 237.207 144.455C238.06 144.309 242.659 171.114 243.512 170.967C244.365 170.821 239.765 144.016 240.618 143.87" stroke="#858585" stroke-width="2.39859" stroke-linecap="round" stroke-linejoin="round"/>
<path d="M243.511 170.967C244.363 170.821 239.764 144.016 240.617 143.87C240.992 143.805 242.085 148.949 243.276 154.717C243.827 157.382 244.411 157.282 246.22 156.972" stroke="#565655" stroke-width="2.39859" stroke-linecap="round" stroke-linejoin="round"/>
<path d="M240.1 171.553C240.953 171.406 236.354 144.602 237.206 144.455" stroke="#565655" stroke-width="2.39859" stroke-linecap="round" stroke-linejoin="round"/>
<path d="M212.818 176.234C213.671 176.088 209.071 149.283 209.924 149.137C210.776 148.99 215.376 175.795 216.228 175.649C217.081 175.502 212.481 148.698 213.333 148.551C214.186 148.405 218.786 175.21 219.639 175.063C220.491 174.917 215.891 148.113 216.744 147.966C217.597 147.82 222.196 174.625 223.048 174.478C223.901 174.332 219.302 147.527 220.154 147.381C221.007 147.235 225.607 174.039 226.459 173.893C227.312 173.747 222.713 146.942 223.566 146.796" stroke="#858585" stroke-width="2.39859" stroke-linecap="round" stroke-linejoin="round"/>
<path d="M236.69 172.138C237.543 171.991 232.943 145.187 233.796 145.04" stroke="#565655" stroke-width="2.39859" stroke-linecap="round" stroke-linejoin="round"/>
<path d="M233.28 172.723C234.133 172.576 229.533 145.772 230.386 145.625" stroke="#565655" stroke-width="2.39859" stroke-linecap="round" stroke-linejoin="round"/>
<path d="M229.87 173.308C230.723 173.162 226.123 146.357 226.976 146.211" stroke="#565655" stroke-width="2.39859" stroke-linecap="round" stroke-linejoin="round"/>
<path d="M226.46 173.893C227.312 173.747 222.712 146.942 223.565 146.796" stroke="#565655" stroke-width="2.39859" stroke-linecap="round" stroke-linejoin="round"/>
<path d="M223.051 174.478C223.903 174.332 219.303 147.527 220.156 147.381" stroke="#565655" stroke-width="2.39859" stroke-linecap="round" stroke-linejoin="round"/>
<path d="M219.64 175.063C220.492 174.917 215.893 148.112 216.745 147.966" stroke="#565655" stroke-width="2.39859" stroke-linecap="round" stroke-linejoin="round"/>
<path d="M216.229 175.648C217.082 175.502 212.482 148.698 213.335 148.551" stroke="#565655" stroke-width="2.39859" stroke-linecap="round" stroke-linejoin="round"/>
<path d="M209.925 149.136C209.072 149.282 213.672 176.087 212.82 176.233C211.858 176.398 208.647 167.189 207.975 163.268" stroke="#565655" stroke-width="2.39859" stroke-linecap="round" stroke-linejoin="round"/>
<path d="M214.508 179.468C212.226 179.86 209.08 172.626 207.482 163.311C205.883 153.996 206.437 146.127 208.72 145.735" stroke="#1D1D1B" stroke-width="3.59788" stroke-linecap="round" stroke-linejoin="round"/>
<path d="M316.808 147.966C317.755 155.754 317.084 161.861 315.08 162.205" stroke="#FF8158" stroke-width="1.1993" stroke-linecap="round" stroke-linejoin="round"/>
<path d="M310.024 149.209C310.957 156.961 310.283 163.028 308.286 163.371" stroke="#FF8158" stroke-width="1.1993" stroke-linecap="round" stroke-linejoin="round"/>
<path d="M303.697 150.294C304.631 158.046 303.957 164.113 301.96 164.456" stroke="#FF8158" stroke-width="1.1993" stroke-linecap="round" stroke-linejoin="round"/>
<path d="M296.902 151.46C297.836 159.212 297.162 165.279 295.165 165.622" stroke="#FF8158" stroke-width="1.1993" stroke-linecap="round" stroke-linejoin="round"/>
<path d="M290.566 152.469C291.514 160.257 290.842 166.364 288.839 166.708" stroke="#FF8158" stroke-width="1.1993" stroke-linecap="round" stroke-linejoin="round"/>
<path d="M283.781 153.712C284.715 161.464 284.041 167.531 282.044 167.874" stroke="#FF8158" stroke-width="1.1993" stroke-linecap="round" stroke-linejoin="round"/>
<path d="M277.457 154.802C278.391 162.555 277.716 168.622 275.72 168.964" stroke="#FF8158" stroke-width="1.1993" stroke-linecap="round" stroke-linejoin="round"/>
<path d="M270.69 156.14C271.624 163.892 270.95 169.959 268.953 170.302" stroke="#FF8158" stroke-width="1.1993" stroke-linecap="round" stroke-linejoin="round"/>
<path d="M264.334 157.049C265.268 164.801 264.594 170.868 262.597 171.211" stroke="#FF8158" stroke-width="1.1993" stroke-linecap="round" stroke-linejoin="round"/>
<path d="M258.008 158.134C258.942 165.886 258.268 171.954 256.27 172.296" stroke="#FF8158" stroke-width="1.1993" stroke-linecap="round" stroke-linejoin="round"/>
<path d="M251.641 159.227C252.574 166.979 251.9 173.046 249.903 173.389" stroke="#FF8158" stroke-width="1.1993" stroke-linecap="round" stroke-linejoin="round"/>
<path d="M381.818 136.81C382.766 144.599 382.094 150.705 380.091 151.049" stroke="#FF8158" stroke-width="1.1993" stroke-linecap="round" stroke-linejoin="round"/>
<path d="M375.034 138.053C375.967 145.805 375.293 151.872 373.296 152.215" stroke="#FF8158" stroke-width="1.1993" stroke-linecap="round" stroke-linejoin="round"/>
<path d="M368.707 139.138C369.641 146.89 368.966 152.958 366.97 153.3" stroke="#FF8158" stroke-width="1.1993" stroke-linecap="round" stroke-linejoin="round"/>
<path d="M361.912 140.304C362.846 148.057 362.172 154.124 360.175 154.466" stroke="#FF8158" stroke-width="1.1993" stroke-linecap="round" stroke-linejoin="round"/>
<path d="M355.575 141.313C356.523 149.102 355.851 155.208 353.848 155.552" stroke="#FF8158" stroke-width="1.1993" stroke-linecap="round" stroke-linejoin="round"/>
<path d="M348.791 142.556C349.725 150.308 349.05 156.376 347.054 156.718" stroke="#FF8158" stroke-width="1.1993" stroke-linecap="round" stroke-linejoin="round"/>
<path d="M342.466 143.647C343.399 151.399 342.725 157.466 340.728 157.809" stroke="#FF8158" stroke-width="1.1993" stroke-linecap="round" stroke-linejoin="round"/>
<path d="M335.701 144.984C336.635 152.737 335.961 158.804 333.964 159.146" stroke="#FF8158" stroke-width="1.1993" stroke-linecap="round" stroke-linejoin="round"/>
<path d="M329.344 145.893C330.277 153.645 329.604 159.712 327.606 160.055" stroke="#FF8158" stroke-width="1.1993" stroke-linecap="round" stroke-linejoin="round"/>
<path d="M323.018 146.979C323.951 154.731 323.277 160.798 321.28 161.141" stroke="#FF8158" stroke-width="1.1993" stroke-linecap="round" stroke-linejoin="round"/>
<path d="M214.509 179.469L383.541 150.463" stroke="#1D1D1B" stroke-width="3.59788" stroke-linecap="round" stroke-linejoin="round"/>
<path d="M255.672 151.213L258.265 150.768L258.342 151.218L256.151 151.594L256.268 152.278L255.847 152.234L255.672 151.213ZM254.927 146.801L257.521 146.356L257.619 146.927L255.708 148.455L255.712 148.459C255.84 148.408 255.978 148.368 256.135 148.341L257.8 148.055L257.874 148.489L255.281 148.934L255.178 148.339L257.077 146.838L257.073 146.834C256.945 146.885 256.807 146.925 256.65 146.952L255.001 147.235L254.927 146.801Z" fill="#FF8158"/>
<path d="M250.159 151.525C250.565 151.455 250.907 151.492 251.183 151.631C251.456 151.77 251.617 151.987 251.668 152.284C251.718 152.578 251.639 152.84 251.429 153.062C251.215 153.285 250.904 153.43 250.498 153.499C250.092 153.569 249.751 153.536 249.479 153.397C249.206 153.257 249.045 153.041 248.994 152.743C248.943 152.446 249.023 152.188 249.237 151.965C249.447 151.742 249.753 151.595 250.159 151.525ZM249.396 152.674C249.452 153 249.831 153.158 250.422 153.057C251.013 152.955 251.322 152.679 251.266 152.353C251.209 152.02 250.83 151.865 250.235 151.967C249.644 152.069 249.339 152.34 249.396 152.674ZM248.225 147.95L250.819 147.505L250.917 148.076L249.006 149.605L249.011 149.608C249.139 149.557 249.277 149.517 249.433 149.49L251.098 149.204L251.173 149.639L248.579 150.084L248.477 149.489L250.376 147.987L250.371 147.984C250.243 148.035 250.105 148.075 249.949 148.102L248.3 148.385L248.225 147.95Z" fill="#FF8158"/>
<path d="M308.391 141.603C308.62 141.564 308.897 141.611 309.218 141.743L310.261 142.176L310.355 142.727L309.382 142.269L309.379 142.274C309.408 142.323 309.432 142.389 309.446 142.473C309.487 142.711 309.439 142.934 309.3 143.14C309.161 143.342 308.967 143.466 308.718 143.509C308.464 143.553 308.231 143.497 308.019 143.343C307.805 143.185 307.678 142.975 307.632 142.706C307.586 142.437 307.636 142.2 307.786 141.988C307.936 141.776 308.137 141.647 308.391 141.603ZM309.057 142.47C309.031 142.321 308.962 142.205 308.845 142.129C308.728 142.05 308.595 142.023 308.454 142.047C308.31 142.072 308.193 142.142 308.109 142.256C308.025 142.369 307.994 142.499 308.019 142.648C308.045 142.797 308.118 142.908 308.235 142.988C308.352 143.067 308.485 143.094 308.63 143.069C308.919 143.019 309.107 142.763 309.057 142.47ZM306.867 137.888L309.461 137.443L309.559 138.014L307.648 139.542L307.652 139.546C307.78 139.495 307.918 139.454 308.075 139.427L309.74 139.142L309.814 139.576L307.221 140.021L307.119 139.426L309.018 137.925L309.013 137.921C308.885 137.972 308.747 138.012 308.59 138.039L306.942 138.322L306.867 137.888Z" fill="#FF8158"/>
<path d="M281.403 146.375L281.785 146.309L281.975 147.415L282.607 147.385C282.503 147.283 282.438 147.145 282.408 146.972C282.366 146.727 282.415 146.507 282.552 146.314C282.688 146.117 282.882 145.997 283.136 145.953C283.381 145.911 283.605 145.964 283.813 146.11C284.019 146.253 284.144 146.451 284.186 146.696C284.257 147.106 284.139 147.433 283.834 147.68L283.539 147.387C283.748 147.231 283.831 147.034 283.79 146.797C283.742 146.52 283.514 146.348 283.224 146.397C282.935 146.447 282.762 146.696 282.816 147.006C282.849 147.199 282.947 147.335 283.114 147.418L282.972 147.749L281.652 147.822L281.403 146.375ZM280.729 142.373L283.323 141.928L283.421 142.499L281.51 144.027L281.514 144.031C281.642 143.98 281.78 143.939 281.937 143.913L283.602 143.627L283.676 144.061L281.083 144.506L280.981 143.911L282.88 142.41L282.875 142.406C282.747 142.457 282.609 142.497 282.452 142.524L280.804 142.807L280.729 142.373Z" fill="#FF8158"/>
<path d="M333.415 137.872L336.009 137.427L336.086 137.877L333.894 138.253L334.012 138.937L333.59 138.893L333.415 137.872ZM333.056 136.068C333.014 135.826 333.052 135.613 333.165 135.424C333.277 135.235 333.424 135.127 333.613 135.094C333.867 135.051 334.065 135.124 334.217 135.309C334.27 135.064 334.504 134.859 334.798 134.808C335.019 134.77 335.223 134.826 335.406 134.973C335.584 135.12 335.698 135.328 335.744 135.594C335.827 136.076 335.601 136.426 335.282 136.617L335.022 136.285C335.282 136.137 335.389 135.936 335.345 135.683C335.295 135.389 335.11 135.231 334.841 135.277C334.588 135.32 334.48 135.537 334.52 135.841L334.551 136.022L334.181 136.086C334.166 136.001 334.155 135.937 334.144 135.893C334.08 135.619 333.939 135.498 333.718 135.536C333.521 135.57 333.418 135.765 333.459 136.007C333.501 136.252 333.689 136.402 333.923 136.44L333.799 136.83C333.437 136.772 333.128 136.486 333.056 136.068ZM332.291 131.249L334.885 130.804L334.983 131.375L333.072 132.904L333.076 132.907C333.204 132.856 333.342 132.816 333.499 132.789L335.164 132.503L335.238 132.938L332.645 133.383L332.543 132.788L334.442 131.286L334.437 131.283C334.309 131.334 334.171 131.374 334.014 131.401L332.366 131.684L332.291 131.249Z" fill="#FF8158"/>
<path d="M359.888 133.329L362.482 132.884L362.559 133.334L360.368 133.71L360.485 134.394L360.064 134.35L359.888 133.329ZM359.43 130.656L359.79 130.561L362.208 131.168L362.295 131.675L359.908 131.033L360.113 132.227L359.711 132.296L359.43 130.656ZM358.771 126.746L361.365 126.301L361.463 126.872L359.552 128.4L359.556 128.403C359.684 128.352 359.822 128.312 359.979 128.285L361.644 128L361.718 128.434L359.125 128.879L359.023 128.284L360.922 126.782L360.917 126.779C360.789 126.83 360.651 126.87 360.494 126.897L358.846 127.18L358.771 126.746Z" fill="#FF8158"/>
<path d="M268.426 149.434C268.384 149.193 268.422 148.979 268.535 148.79C268.647 148.601 268.794 148.493 268.983 148.461C269.236 148.417 269.435 148.491 269.587 148.676C269.64 148.431 269.874 148.225 270.168 148.174C270.389 148.137 270.593 148.193 270.775 148.339C270.954 148.487 271.068 148.695 271.114 148.96C271.197 149.443 270.971 149.792 270.652 149.983L270.392 149.651C270.652 149.503 270.759 149.303 270.715 149.049C270.665 148.756 270.48 148.597 270.211 148.643C269.957 148.687 269.85 148.904 269.89 149.207L269.921 149.388L269.551 149.452C269.536 149.367 269.525 149.303 269.513 149.26C269.45 148.985 269.309 148.864 269.088 148.902C268.891 148.936 268.788 149.132 268.829 149.373C268.871 149.618 269.058 149.768 269.293 149.807L269.169 150.196C268.807 150.138 268.497 149.852 268.426 149.434ZM267.661 144.616L270.255 144.171L270.353 144.742L268.442 146.27L268.446 146.273C268.574 146.222 268.712 146.182 268.869 146.155L270.534 145.87L270.608 146.304L268.015 146.749L267.913 146.154L269.812 144.652L269.807 144.649C269.679 144.7 269.541 144.74 269.384 144.767L267.735 145.05L267.661 144.616Z" fill="#FF8158"/>
<path d="M320.347 140.115L322.941 139.67L323.018 140.12L320.827 140.496L320.944 141.18L320.523 141.136L320.347 140.115ZM319.968 137.904L322.562 137.459L322.639 137.909L320.447 138.285L320.565 138.969L320.143 138.925L319.968 137.904ZM319.223 133.492L321.817 133.047L321.915 133.618L320.004 135.146L320.009 135.15C320.136 135.099 320.274 135.059 320.431 135.032L322.096 134.746L322.171 135.18L319.577 135.625L319.475 135.03L321.374 133.529L321.369 133.525C321.241 133.576 321.103 133.616 320.946 133.643L319.298 133.926L319.223 133.492Z" fill="#FF8158"/>
<path d="M294.463 144.08L294.824 143.985L297.242 144.592L297.329 145.099L294.942 144.457L295.147 145.651L294.745 145.72L294.463 144.08ZM293.805 140.169L296.399 139.724L296.497 140.295L294.586 141.824L294.59 141.827C294.718 141.776 294.856 141.736 295.013 141.709L296.678 141.423L296.752 141.858L294.159 142.303L294.056 141.708L295.956 140.206L295.951 140.203C295.823 140.254 295.685 140.294 295.528 140.321L293.879 140.604L293.805 140.169Z" fill="#FF8158"/>
<path d="M346.483 135.629L349.077 135.184L349.154 135.635L346.962 136.011L347.08 136.694L346.658 136.651L346.483 135.629ZM346.033 133.008L346.415 132.943L346.605 134.049L347.237 134.019C347.133 133.917 347.068 133.779 347.038 133.606C346.996 133.36 347.045 133.141 347.182 132.948C347.318 132.751 347.512 132.63 347.766 132.587C348.011 132.545 348.235 132.597 348.443 132.744C348.649 132.886 348.774 133.084 348.816 133.33C348.887 133.74 348.769 134.066 348.464 134.313L348.169 134.02C348.378 133.864 348.461 133.668 348.42 133.431C348.372 133.153 348.144 132.981 347.854 133.031C347.565 133.081 347.392 133.33 347.446 133.639C347.479 133.832 347.577 133.969 347.744 134.052L347.602 134.383L346.282 134.456L346.033 133.008ZM345.359 129.007L347.953 128.562L348.051 129.133L346.14 130.661L346.144 130.664C346.272 130.613 346.41 130.573 346.567 130.546L348.232 130.261L348.306 130.695L345.713 131.14L345.611 130.545L347.51 129.043L347.505 129.04C347.377 129.091 347.239 129.131 347.082 129.158L345.433 129.441L345.359 129.007Z" fill="#FF8158"/>
<path d="M372.958 131.086L375.552 130.641L375.629 131.092L373.437 131.468L373.555 132.151L373.133 132.108L372.958 131.086ZM373.357 128.179C373.587 128.14 373.864 128.187 374.184 128.318L375.228 128.752L375.322 129.303L374.349 128.845L374.346 128.85C374.375 128.898 374.399 128.965 374.413 129.049C374.454 129.286 374.405 129.51 374.267 129.716C374.128 129.918 373.934 130.042 373.684 130.085C373.431 130.128 373.198 130.073 372.985 129.919C372.772 129.761 372.645 129.551 372.599 129.282C372.552 129.012 372.603 128.776 372.753 128.564C372.903 128.352 373.104 128.222 373.357 128.179ZM374.024 129.046C373.998 128.897 373.928 128.78 373.812 128.705C373.695 128.626 373.562 128.599 373.421 128.623C373.276 128.648 373.16 128.718 373.076 128.832C372.992 128.945 372.961 129.075 372.986 129.224C373.012 129.372 373.085 129.484 373.202 129.563C373.319 129.643 373.452 129.67 373.597 129.645C373.886 129.595 374.074 129.339 374.024 129.046ZM371.834 124.464L374.428 124.019L374.526 124.59L372.615 126.118L372.619 126.121C372.747 126.07 372.885 126.03 373.042 126.003L374.707 125.718L374.781 126.152L372.188 126.597L372.086 126.002L373.985 124.5L373.98 124.497C373.852 124.548 373.714 124.588 373.557 124.615L371.909 124.898L371.834 124.464Z" fill="#FF8158"/>
<path d="M262.059 150.531C262.016 150.277 262.052 150.052 262.172 149.857C262.291 149.663 262.462 149.547 262.683 149.509C262.896 149.472 263.111 149.518 263.32 149.648C263.458 149.732 263.584 149.814 263.694 149.898L264.342 150.396L264.149 149.27L264.551 149.201L264.844 150.906L264.452 150.985C264.026 150.653 263.726 150.427 263.557 150.307C263.401 150.197 263.257 150.106 263.121 150.034C262.997 149.964 262.87 149.945 262.742 149.971C262.545 150.008 262.417 150.204 262.464 150.474C262.506 150.719 262.692 150.886 262.932 150.911L262.813 151.304C262.439 151.248 262.131 150.949 262.059 150.531ZM261.294 145.708L263.888 145.263L263.986 145.834L262.075 147.363L262.079 147.366C262.207 147.315 262.345 147.275 262.502 147.248L264.167 146.962L264.241 147.397L261.648 147.842L261.546 147.247L263.445 145.745L263.44 145.742C263.312 145.793 263.174 145.833 263.017 145.86L261.369 146.143L261.294 145.708Z" fill="#FF8158"/>
<path d="M313.978 141.207L316.572 140.762L316.649 141.212L314.458 141.588L314.575 142.272L314.154 142.228L313.978 141.207ZM314.788 138.159C315.194 138.089 315.536 138.126 315.812 138.264C316.085 138.404 316.246 138.621 316.297 138.918C316.347 139.212 316.268 139.474 316.058 139.696C315.844 139.919 315.533 140.063 315.127 140.133C314.721 140.203 314.38 140.17 314.108 140.031C313.835 139.891 313.674 139.675 313.623 139.377C313.572 139.079 313.652 138.821 313.866 138.598C314.076 138.376 314.382 138.228 314.788 138.159ZM314.025 139.308C314.081 139.634 314.46 139.792 315.051 139.691C315.642 139.589 315.951 139.313 315.895 138.987C315.838 138.653 315.459 138.499 314.864 138.601C314.273 138.702 313.968 138.974 314.025 139.308ZM312.854 134.584L315.448 134.139L315.546 134.71L313.635 136.239L313.64 136.242C313.767 136.191 313.905 136.151 314.062 136.124L315.727 135.838L315.802 136.273L313.208 136.718L313.106 136.123L315.005 134.621L315 134.618C314.872 134.669 314.734 134.709 314.577 134.736L312.929 135.019L312.854 134.584Z" fill="#FF8158"/>
<path d="M288.156 145.51L289.128 145.969L289.132 145.964C289.103 145.915 289.079 145.849 289.064 145.764C289.024 145.527 289.072 145.303 289.212 145.102C289.35 144.896 289.544 144.771 289.793 144.728C290.047 144.685 290.28 144.74 290.493 144.898C290.706 145.052 290.833 145.262 290.879 145.532C290.925 145.801 290.875 146.041 290.726 146.253C290.576 146.465 290.374 146.591 290.12 146.635C289.891 146.674 289.614 146.626 289.293 146.495L288.25 146.061L288.156 145.51ZM289.454 145.768C289.48 145.917 289.553 146.032 289.67 146.112C289.787 146.187 289.916 146.214 290.057 146.19C290.201 146.165 290.318 146.096 290.402 145.982C290.486 145.868 290.517 145.739 290.492 145.59C290.466 145.441 290.393 145.329 290.276 145.25C290.159 145.171 290.026 145.144 289.881 145.169C289.592 145.218 289.404 145.474 289.454 145.768ZM287.432 141.223L290.026 140.778L290.124 141.349L288.213 142.878L288.218 142.881C288.346 142.83 288.484 142.79 288.64 142.763L290.305 142.477L290.38 142.912L287.786 143.357L287.684 142.761L289.583 141.26L289.578 141.257C289.45 141.308 289.313 141.348 289.156 141.375L287.507 141.658L287.432 141.223Z" fill="#FF8158"/>
<path d="M340.117 136.722L342.711 136.277L342.788 136.727L340.597 137.104L340.714 137.787L340.292 137.744L340.117 136.722ZM339.692 134.316L341.248 134.049L341.186 133.687L341.588 133.618L341.65 133.98L342.298 133.869L342.374 134.312L341.726 134.423L341.917 135.532L341.507 135.628L339.8 134.944L339.692 134.316ZM340.138 134.695L341.445 135.199L341.324 134.492L340.138 134.695ZM338.993 130.1L341.587 129.654L341.685 130.225L339.774 131.754L339.778 131.757C339.906 131.706 340.044 131.666 340.201 131.639L341.866 131.353L341.94 131.788L339.347 132.233L339.245 131.638L341.144 130.136L341.139 130.133C341.011 130.184 340.873 130.224 340.716 130.251L339.068 130.534L338.993 130.1Z" fill="#FF8158"/>
<path d="M366.591 132.179L369.185 131.734L369.262 132.184L367.071 132.561L367.188 133.244L366.766 133.201L366.591 132.179ZM366.789 129.426C366.994 129.391 367.178 129.446 367.331 129.59C367.433 129.32 367.633 129.157 367.927 129.107C368.172 129.065 368.384 129.119 368.571 129.269C368.759 129.419 368.872 129.623 368.917 129.885C368.962 130.146 368.924 130.38 368.797 130.584C368.671 130.788 368.489 130.91 368.243 130.953C367.942 131.004 367.7 130.922 367.526 130.703C367.432 130.881 367.277 130.99 367.064 131.027C366.867 131.06 366.689 131.012 366.525 130.879C366.358 130.746 366.257 130.569 366.219 130.348C366.181 130.127 366.217 129.926 366.331 129.745C366.441 129.565 366.592 129.46 366.789 129.426ZM366.994 130.596C367.199 130.56 367.326 130.385 367.289 130.164C367.252 129.951 367.073 129.825 366.868 129.86C366.671 129.894 366.55 130.08 366.585 130.285C366.62 130.49 366.797 130.629 366.994 130.596ZM368.168 130.51C368.292 130.489 368.393 130.426 368.466 130.318C368.538 130.211 368.563 130.086 368.539 129.95C368.516 129.817 368.453 129.712 368.348 129.635C368.244 129.557 368.127 129.528 368.003 129.549C367.745 129.593 367.575 129.834 367.622 130.107C367.669 130.38 367.91 130.554 368.168 130.51ZM365.467 125.556L368.061 125.111L368.159 125.682L366.248 127.211L366.252 127.214C366.38 127.163 366.518 127.123 366.675 127.096L368.34 126.81L368.414 127.245L365.821 127.69L365.719 127.095L367.618 125.593L367.613 125.59C367.485 125.641 367.347 125.681 367.19 125.708L365.542 125.991L365.467 125.556Z" fill="#FF8158"/>
<path d="M274.726 147.74L276.283 147.473L276.221 147.111L276.623 147.042L276.685 147.404L277.332 147.293L277.408 147.735L276.761 147.846L276.951 148.956L276.541 149.051L274.834 148.367L274.726 147.74ZM275.172 148.119L276.48 148.623L276.359 147.915L275.172 148.119ZM274.028 143.523L276.621 143.078L276.719 143.649L274.808 145.177L274.813 145.181C274.941 145.13 275.079 145.09 275.236 145.063L276.901 144.777L276.975 145.211L274.381 145.656L274.279 145.061L276.178 143.56L276.174 143.556C276.046 143.607 275.908 143.648 275.751 143.674L274.102 143.957L274.028 143.523Z" fill="#FF8158"/>
<path d="M326.714 139.022L329.308 138.577L329.385 139.027L327.193 139.403L327.311 140.087L326.889 140.043L326.714 139.022ZM326.355 137.221C326.312 136.968 326.348 136.743 326.467 136.548C326.587 136.354 326.758 136.238 326.979 136.2C327.192 136.163 327.407 136.209 327.615 136.339C327.754 136.423 327.88 136.504 327.99 136.589L328.638 137.086L328.445 135.96L328.847 135.891L329.139 137.596L328.747 137.676C328.322 137.343 328.022 137.118 327.853 136.998C327.697 136.888 327.553 136.796 327.417 136.725C327.293 136.655 327.165 136.635 327.037 136.661C326.841 136.699 326.713 136.895 326.759 137.164C326.802 137.41 326.987 137.577 327.228 137.602L327.109 137.995C326.735 137.939 326.427 137.64 326.355 137.221ZM325.59 132.399L328.184 131.954L328.282 132.525L326.371 134.054L326.375 134.057C326.503 134.006 326.641 133.966 326.798 133.939L328.463 133.653L328.537 134.087L325.944 134.533L325.841 133.937L327.74 132.436L327.736 132.433C327.608 132.483 327.47 132.524 327.313 132.551L325.664 132.834L325.59 132.399Z" fill="#FF8158"/>
<path d="M301.823 142.85C302.028 142.815 302.211 142.871 302.364 143.014C302.467 142.744 302.667 142.581 302.96 142.531C303.205 142.489 303.418 142.544 303.605 142.694C303.792 142.844 303.906 143.048 303.951 143.309C303.995 143.57 303.957 143.805 303.83 144.009C303.704 144.212 303.522 144.335 303.277 144.377C302.975 144.429 302.733 144.346 302.559 144.127C302.466 144.305 302.31 144.414 302.097 144.451C301.9 144.485 301.722 144.437 301.559 144.303C301.391 144.171 301.29 143.993 301.252 143.772C301.214 143.551 301.25 143.35 301.364 143.169C301.474 142.989 301.626 142.884 301.823 142.85ZM302.028 144.02C302.233 143.985 302.36 143.81 302.322 143.589C302.285 143.375 302.106 143.249 301.901 143.284C301.704 143.318 301.583 143.504 301.618 143.709C301.653 143.914 301.831 144.054 302.028 144.02ZM303.201 143.935C303.326 143.913 303.427 143.85 303.499 143.743C303.572 143.635 303.596 143.511 303.573 143.374C303.55 143.241 303.486 143.136 303.382 143.059C303.278 142.982 303.161 142.952 303.036 142.973C302.779 143.018 302.609 143.258 302.656 143.531C302.703 143.805 302.944 143.979 303.201 143.935ZM300.5 138.981L303.094 138.536L303.192 139.107L301.281 140.635L301.286 140.638C301.414 140.587 301.552 140.547 301.709 140.52L303.373 140.235L303.448 140.669L300.854 141.114L300.752 140.519L302.651 139.017L302.646 139.014C302.519 139.065 302.381 139.105 302.224 139.132L300.575 139.415L300.5 138.981Z" fill="#FF8158"/>
<path d="M353.186 134.479L355.78 134.034L355.857 134.485L353.666 134.861L353.783 135.544L353.361 135.501L353.186 134.479ZM352.785 132.144L353.758 132.602L353.761 132.597C353.732 132.548 353.709 132.482 353.694 132.398C353.653 132.161 353.702 131.937 353.841 131.735C353.98 131.529 354.174 131.405 354.423 131.362C354.676 131.318 354.909 131.374 355.123 131.532C355.335 131.686 355.462 131.896 355.509 132.165C355.555 132.434 355.505 132.675 355.355 132.887C355.205 133.099 355.003 133.225 354.75 133.268C354.521 133.307 354.244 133.26 353.923 133.128L352.88 132.695L352.785 132.144ZM354.084 132.401C354.109 132.55 354.183 132.666 354.3 132.745C354.417 132.82 354.545 132.848 354.686 132.824C354.831 132.799 354.947 132.729 355.031 132.615C355.115 132.502 355.147 132.372 355.121 132.223C355.096 132.074 355.023 131.963 354.906 131.884C354.789 131.804 354.656 131.777 354.511 131.802C354.221 131.852 354.033 132.108 354.084 132.401ZM352.062 127.857L354.656 127.412L354.754 127.983L352.843 129.511L352.847 129.514C352.975 129.464 353.113 129.423 353.27 129.396L354.935 129.111L355.009 129.545L352.416 129.99L352.314 129.395L354.213 127.893L354.208 127.89C354.08 127.941 353.942 127.981 353.785 128.008L352.137 128.291L352.062 127.857Z" fill="#FF8158"/>
<path d="M378.341 130.577C378.297 130.324 378.333 130.098 378.453 129.904C378.573 129.709 378.743 129.593 378.964 129.555C379.177 129.518 379.392 129.564 379.601 129.694C379.739 129.778 379.865 129.86 379.975 129.945L380.623 130.442L380.43 129.316L380.832 129.247L381.125 130.952L380.733 131.032C380.307 130.699 380.008 130.473 379.838 130.353C379.683 130.243 379.539 130.152 379.402 130.08C379.278 130.01 379.151 129.991 379.023 130.017C378.826 130.055 378.699 130.251 378.745 130.52C378.787 130.765 378.973 130.932 379.213 130.957L379.094 131.35C378.72 131.294 378.412 130.995 378.341 130.577ZM379.13 127.118C379.536 127.048 379.878 127.085 380.154 127.224C380.426 127.363 380.588 127.58 380.639 127.878C380.689 128.171 380.61 128.433 380.4 128.656C380.185 128.879 379.875 129.023 379.469 129.093C379.062 129.162 378.722 129.13 378.449 128.99C378.177 128.851 378.016 128.634 377.964 128.336C377.913 128.039 377.993 127.781 378.208 127.558C378.418 127.336 378.724 127.188 379.13 127.118ZM378.367 128.267C378.423 128.593 378.802 128.752 379.393 128.65C379.984 128.549 380.292 128.272 380.236 127.947C380.179 127.613 379.801 127.458 379.206 127.561C378.615 127.662 378.309 127.934 378.367 128.267ZM377.196 123.544L379.79 123.099L379.888 123.67L377.977 125.198L377.981 125.202C378.109 125.151 378.247 125.11 378.404 125.083L380.069 124.798L380.143 125.232L377.55 125.677L377.447 125.082L379.347 123.58L379.342 123.577C379.214 123.628 379.076 123.668 378.919 123.695L377.27 123.978L377.196 123.544Z" fill="#FF8158"/>
<path d="M244.58 131.484L291.91 123.494C296.267 122.758 299.203 118.63 298.467 114.274L296.47 102.441C295.734 98.0842 291.606 95.1492 287.25 95.8842L239.919 103.874C235.563 104.61 232.627 108.738 233.363 113.094L235.36 124.927C236.095 129.284 240.223 132.219 244.58 131.484Z" fill="white" stroke="#E8EAEF"/>
<path d="M260.537 122.284C259.695 122.435 258.933 122.36 258.252 122.061C257.573 121.76 257 121.25 256.531 120.531C256.066 119.811 255.734 118.903 255.537 117.807C255.337 116.715 255.328 115.754 255.509 114.926C255.695 114.097 256.052 113.426 256.582 112.915C257.114 112.4 257.799 112.065 258.637 111.912C259.475 111.758 260.232 111.828 260.909 112.122C261.59 112.415 262.164 112.917 262.631 113.626C263.097 114.333 263.428 115.232 263.625 116.325C263.827 117.424 263.835 118.393 263.652 119.232C263.472 120.07 263.118 120.75 262.59 121.271C262.062 121.792 261.378 122.13 260.537 122.284ZM260.215 120.528C260.789 120.423 261.194 120.051 261.431 119.411C261.667 118.771 261.678 117.875 261.464 116.721C261.325 115.962 261.131 115.343 260.882 114.867C260.636 114.389 260.348 114.05 260.018 113.847C259.691 113.644 259.336 113.578 258.955 113.648C258.384 113.752 257.98 114.121 257.742 114.754C257.505 115.388 257.488 116.273 257.693 117.412C257.834 118.181 258.029 118.809 258.276 119.296C258.526 119.78 258.817 120.124 259.148 120.33C259.478 120.532 259.834 120.598 260.215 120.528ZM275.839 108.902L277.673 118.917L275.844 119.252L270.333 113.747L270.259 113.761L271.414 120.064L269.296 120.452L267.462 110.437L269.32 110.096L274.797 115.603L274.885 115.587L273.731 109.288L275.839 108.902Z" fill="#171923"/>
<path d="M450.701 189.113L642.555 159.113V17.7471L596.421 0.771484L406.25 30.7715V172.137L450.701 189.113Z" fill="#F1A558"/>
<path d="M642.555 17.7471L450.701 47.7471M406.25 30.7715V172.137L450.701 189.113L642.555 159.113V17.7471L596.421 0.771484L406.25 30.7715ZM450.701 47.7471V189.113M450.701 47.7471L406.25 30.7715" stroke="#5C3A18" stroke-width="1.5"/>
<path d="M425.75 122.771L399.25 129.271" stroke="black"/>
<defs>
<linearGradient id="paint0_linear_2095_1179" x1="631.25" y1="141.521" x2="791.25" y2="281.521" gradientUnits="userSpaceOnUse">
<stop stop-color="#6B737D"/>
<stop offset="1" stop-color="#4F575F"/>
</linearGradient>
<linearGradient id="paint1_linear_2095_1179" x1="11.25" y1="101.521" x2="711.25" y2="241.521" gradientUnits="userSpaceOnUse">
<stop stop-color="#C8CDD4"/>
<stop offset="0.45" stop-color="#A8B0BA"/>
<stop offset="1" stop-color="#8E96A1"/>
</linearGradient>
<linearGradient id="paint2_linear_2095_1179" x1="-8.75" y1="241.521" x2="631.25" y2="301.521" gradientUnits="userSpaceOnUse">
<stop stop-color="#7A828C"/>
<stop offset="1" stop-color="#5E666F"/>
</linearGradient>
<linearGradient id="paint3_linear_2095_1179" x1="-8.75001" y1="241.521" x2="631.25" y2="301.521" gradientUnits="userSpaceOnUse">
<stop stop-color="#7A828C"/>
<stop offset="1" stop-color="#5E666F"/>
</linearGradient>
</defs>
</svg>
