<svg width="763" height="208" viewBox="0 0 763 208" fill="none" xmlns="http://www.w3.org/2000/svg">
<path d="M551.25 1.25L761.25 81.25V126.25L551.25 46.25V1.25Z" fill="url(#paint0_linear_2080_270)" stroke="#3E4650" stroke-width="2.5" stroke-linejoin="round"/>
<path d="M1.25 81.25L551.25 1.25L761.25 81.25L211.25 161.25L1.25 81.25Z" fill="url(#paint1_linear_2080_270)" stroke="#3E4650" stroke-width="2.5" stroke-linejoin="round"/>
<path d="M1.25 81.25L211.25 161.25V206.25L1.25 126.25V81.25Z" fill="url(#paint2_linear_2080_270)" stroke="#3E4650" stroke-width="2.5" stroke-linejoin="round"/>
<path d="M211.25 161.25L761.25 81.25V126.25L211.25 206.25V161.25Z" fill="url(#paint3_linear_2080_270)" stroke="#3E4650" stroke-width="2.5" stroke-linejoin="round"/>
<path d="M369.25 72.25L347.25 76.25" stroke="black"/>
<path d="M318.48 54.8096L365.912 81.7913L366.082 106.991L318.649 80.009L318.48 54.8096Z" fill="url(#paint4_linear_2080_270)" stroke="#5C3A18" stroke-width="2.31" stroke-linejoin="round"/>
<path d="M140.168 83.3091L318.48 54.8096L365.913 81.7913L187.6 110.291L140.168 83.3091Z" fill="url(#paint5_linear_2080_270)" stroke="#5C3A18" stroke-width="2.31" stroke-linejoin="round"/>
<path d="M140.168 83.3091L187.6 110.291L187.77 135.49L140.337 108.509L140.168 83.3091Z" fill="url(#paint6_linear_2080_270)" stroke="#5C3A18" stroke-width="2.31" stroke-linejoin="round"/>
<path d="M187.6 110.291L365.912 81.7913L366.082 106.991L187.769 135.49L187.6 110.291Z" fill="url(#paint7_linear_2080_270)" stroke="#5C3A18" stroke-width="2.31" stroke-linejoin="round"/>
<g opacity="0.28">
<path d="M161.181 85.2678C203.124 76.5856 255.58 69.9328 302.787 63.3153" stroke="#8B5A2B" stroke-width="1.365" stroke-linecap="round"/>
<path d="M169.637 93.6111C213.68 84.9148 264.036 78.2761 313.343 71.6444" stroke="#8B5A2B" stroke-width="1.365" stroke-linecap="round"/>
<path d="M178.094 101.955C224.236 93.2442 272.493 86.6196 323.899 79.9738" stroke="#8B5A2B" stroke-width="1.365" stroke-linecap="round"/>
</g>
<g opacity="0.35">
<path d="M346.918 94.8498C352.421 93.0208 354.806 85.2926 352.245 77.5884C349.685 69.8842 343.148 65.1214 337.645 66.9505C332.142 68.7795 329.756 76.5077 332.317 84.2119C334.878 91.9161 341.415 96.6788 346.918 94.8498Z" stroke="#6B4018" stroke-width="1.26"/>
<path d="M344.931 88.8716C347.682 87.9571 348.727 83.6469 347.263 79.2445C345.8 74.8421 342.383 72.0146 339.632 72.9291C336.88 73.8436 335.836 78.1538 337.299 82.5562C338.763 86.9586 342.179 89.7861 344.931 88.8716Z" stroke="#6B4018" stroke-width="1.26"/>
</g>
<path d="M588.617 34.0773C587.244 22.9289 576.173 18.2747 576.173 18.2747L417.106 45.9238C417.106 45.9238 407.818 51.6578 411.169 64.8815C414.521 78.1051 421.455 80.7093 421.455 80.7093L584.313 53.0994C584.313 53.0994 589.99 45.2257 588.617 34.0773Z" fill="white"/>
<path d="M418.426 81.1517C416.144 81.5434 412.997 74.3097 411.398 64.9943C409.799 55.6795 410.353 47.81 412.635 47.4183C414.917 47.0266 418.064 54.2608 419.663 63.5757C421.262 72.8911 420.708 80.76 418.426 81.1517Z" stroke="#9C9B9B" stroke-width="3.59788" stroke-linecap="round" stroke-linejoin="round"/>
<path d="M522.48 59.5134C520.694 59.8198 518.232 54.1596 516.981 46.8701C515.73 39.5812 516.163 33.4232 517.949 33.1168C519.735 32.8102 522.196 38.4712 523.448 45.7601C524.699 53.0495 524.266 59.2068 522.48 59.5134Z" fill="#EF3A50"/>
<path d="M521.887 45.7617L378.898 70.3061" stroke="#565655" stroke-width="2.39859" stroke-linecap="round" stroke-linejoin="round"/>
<path d="M378.386 70.3945C377.954 67.8798 375.566 66.1907 373.051 66.6223C370.536 67.054 368.848 69.4429 369.28 71.9576C369.711 74.4723 372.1 76.1602 374.614 75.7285" stroke="#565655" stroke-width="2.39859" stroke-linecap="round" stroke-linejoin="round"/>
<path d="M520.372 47.2375C520.245 47.2593 519.999 46.8233 519.876 46.1076C519.74 45.3169 519.84 44.8983 519.967 44.8765C520.094 44.8547 520.288 45.3653 520.4 46.0177C520.512 46.669 520.499 47.2157 520.372 47.2375Z" fill="#565655"/>
<path d="M522.48 59.5133C520.694 59.8198 518.231 54.1596 516.98 46.8701C515.729 39.5813 516.163 33.4232 517.949 33.1167" fill="#EF3A50"/>
<path d="M522.335 58.6673C520.549 58.9738 518.152 53.6924 516.981 46.871C515.81 40.0497 516.309 34.2716 518.095 33.9651" stroke="#813A50" stroke-width="1.79894" stroke-miterlimit="10" stroke-linecap="round"/>
<path d="M418.426 81.1519C416.144 81.5435 412.997 74.3098 411.398 64.9944C409.799 55.6796 410.354 47.8101 412.635 47.4185" stroke="#1D1D1B" stroke-width="3.59788" stroke-linecap="round" stroke-linejoin="round"/>
<path d="M587.121 52.1941L419.766 80.9209" stroke="#1D1D1B" stroke-width="3.59788" stroke-linecap="round" stroke-linejoin="round"/>
<path d="M604.447 32.783L589.367 35.3714" stroke="black" stroke-width="0.68"/>
<path d="M608.342 26.7707C605.434 27.2699 603.481 30.0322 603.98 32.9411C604.479 35.8495 607.242 37.8028 610.15 37.3036C613.059 36.8043 615.012 34.0415 614.513 31.1332C614.014 28.2242 611.251 26.2715 608.342 26.7707Z" stroke="#F19100" stroke-width="1.79894" stroke-miterlimit="10" stroke-linecap="round"/>
<path d="M568.96 24.1099C567.449 24.3692 572.05 51.1737 570.538 51.4333C569.027 51.6925 564.426 24.8881 562.914 25.1476C561.403 25.4071 566.004 52.2115 564.493 52.4708C562.982 52.7303 558.38 25.9258 556.87 26.1852C555.358 26.4446 559.959 53.249 558.448 53.5085C556.937 53.7678 552.336 26.9634 550.825 27.2227C549.313 27.4823 553.913 54.2868 552.401 54.5463C550.891 54.8057 546.29 28.0013 544.778 28.2607C543.267 28.5202 547.868 55.3246 546.357 55.5839C544.845 55.8434 540.244 29.039 538.732 29.2985C537.22 29.558 541.821 56.3624 540.311 56.6218C538.799 56.8812 534.198 30.0768 532.686 30.3363C531.175 30.5958 535.776 57.4002 534.264 57.6597C532.752 57.9193 528.151 31.1149 526.639 31.3744C525.126 31.634 529.727 58.4384 528.215 58.6979" stroke="#858585" stroke-width="2.39859" stroke-linecap="round" stroke-linejoin="round"/>
<path d="M526.639 31.3743C525.127 31.6338 529.727 58.4383 528.215 58.6979C527.55 58.812 526.298 53.6953 524.956 47.9535C524.335 45.3002 523.301 45.4779 520.092 46.0287" stroke="#565655" stroke-width="2.39859" stroke-linecap="round" stroke-linejoin="round"/>
<path d="M532.686 30.3362C531.174 30.5957 535.775 57.4001 534.264 57.6596" stroke="#565655" stroke-width="2.39859" stroke-linecap="round" stroke-linejoin="round"/>
<path d="M581.052 22.0342C579.541 22.2936 584.142 49.098 582.63 49.3575C581.118 49.6169 576.517 22.8125 575.006 23.0719C573.495 23.3314 578.096 50.1358 576.584 50.3952C575.073 50.6547 570.471 23.8503 568.959 24.1099C567.448 24.3692 572.049 51.1736 570.537 51.4332C569.026 51.6926 564.425 24.8882 562.914 25.1476C561.402 25.4071 566.003 52.2115 564.491 52.4711C562.98 52.7305 558.379 25.9261 556.866 26.1856C555.354 26.4452 559.955 53.2496 558.443 53.5091" stroke="#858585" stroke-width="2.39859" stroke-linecap="round" stroke-linejoin="round"/>
<path d="M538.732 29.2983C537.22 29.5579 541.821 56.3623 540.311 56.6216" stroke="#565655" stroke-width="2.39859" stroke-linecap="round" stroke-linejoin="round"/>
<path d="M544.778 28.2607C543.266 28.5202 547.867 55.3246 546.356 55.584" stroke="#565655" stroke-width="2.39859" stroke-linecap="round" stroke-linejoin="round"/>
<path d="M550.825 27.2227C549.313 27.4822 553.914 54.2866 552.402 54.5461" stroke="#565655" stroke-width="2.39859" stroke-linecap="round" stroke-linejoin="round"/>
<path d="M556.87 26.1853C555.359 26.4446 559.96 53.2491 558.448 53.5085" stroke="#565655" stroke-width="2.39859" stroke-linecap="round" stroke-linejoin="round"/>
<path d="M562.914 25.1477C561.402 25.4071 566.003 52.2116 564.492 52.471" stroke="#565655" stroke-width="2.39859" stroke-linecap="round" stroke-linejoin="round"/>
<path d="M568.961 24.1096C567.449 24.3692 572.05 51.1736 570.538 51.433" stroke="#565655" stroke-width="2.39859" stroke-linecap="round" stroke-linejoin="round"/>
<path d="M575.007 23.0718C573.495 23.3312 578.096 50.1356 576.584 50.3952" stroke="#565655" stroke-width="2.39859" stroke-linecap="round" stroke-linejoin="round"/>
<path d="M582.63 49.358C584.142 49.0984 579.541 22.2941 581.052 22.0347C582.758 21.7419 587.192 30.7409 587.865 34.6616" stroke="#565655" stroke-width="2.39859" stroke-linecap="round" stroke-linejoin="round"/>
<path d="M581.331 18.462C583.614 18.0702 586.76 25.3039 588.358 34.6188C589.957 43.9342 589.404 51.8031 587.121 52.1949" stroke="#1D1D1B" stroke-width="3.59788" stroke-linecap="round" stroke-linejoin="round"/>
<path d="M479.032 49.9697C478.084 42.1809 478.755 36.0746 480.759 35.7307" stroke="#FF8158" stroke-width="1.1993" stroke-linecap="round" stroke-linejoin="round"/>
<path d="M485.817 48.7264C484.883 40.9742 485.557 34.907 487.554 34.5642" stroke="#FF8158" stroke-width="1.1993" stroke-linecap="round" stroke-linejoin="round"/>
<path d="M492.144 47.6406C491.21 39.8885 491.884 33.8213 493.88 33.4785" stroke="#FF8158" stroke-width="1.1993" stroke-linecap="round" stroke-linejoin="round"/>
<path d="M498.939 46.4741C498.005 38.722 498.678 32.6548 500.675 32.312" stroke="#FF8158" stroke-width="1.1993" stroke-linecap="round" stroke-linejoin="round"/>
<path d="M505.274 45.4653C504.326 37.6765 504.997 31.5702 507.001 31.2263" stroke="#FF8158" stroke-width="1.1993" stroke-linecap="round" stroke-linejoin="round"/>
<path d="M512.06 44.2219C511.126 36.4698 511.8 30.4026 513.796 30.0598" stroke="#FF8158" stroke-width="1.1993" stroke-linecap="round" stroke-linejoin="round"/>
<path d="M518.385 43.1309C517.451 35.3787 518.125 29.3115 520.122 28.9688" stroke="#FF8158" stroke-width="1.1993" stroke-linecap="round" stroke-linejoin="round"/>
<path d="M525.151 41.793C524.217 34.0408 524.89 27.9736 526.887 27.6309" stroke="#FF8158" stroke-width="1.1993" stroke-linecap="round" stroke-linejoin="round"/>
<path d="M531.507 40.8838C530.573 33.1316 531.246 27.0645 533.244 26.7217" stroke="#FF8158" stroke-width="1.1993" stroke-linecap="round" stroke-linejoin="round"/>
<path d="M537.833 39.7978C536.899 32.0458 537.573 25.9786 539.57 25.6357" stroke="#FF8158" stroke-width="1.1993" stroke-linecap="round" stroke-linejoin="round"/>
<path d="M544.2 38.7051C543.266 30.953 543.939 24.8858 545.937 24.543" stroke="#FF8158" stroke-width="1.1993" stroke-linecap="round" stroke-linejoin="round"/>
<path d="M414.023 61.1286C413.075 53.3399 413.746 47.2336 415.75 46.8896" stroke="#FF8158" stroke-width="1.1993" stroke-linecap="round" stroke-linejoin="round"/>
<path d="M420.808 59.8853C419.874 52.1332 420.548 46.066 422.545 45.7231" stroke="#FF8158" stroke-width="1.1993" stroke-linecap="round" stroke-linejoin="round"/>
<path d="M427.134 58.7996C426.2 51.0474 426.874 44.9802 428.871 44.6375" stroke="#FF8158" stroke-width="1.1993" stroke-linecap="round" stroke-linejoin="round"/>
<path d="M433.929 57.6333C432.995 49.8811 433.668 43.814 435.666 43.4712" stroke="#FF8158" stroke-width="1.1993" stroke-linecap="round" stroke-linejoin="round"/>
<path d="M440.265 56.6242C439.317 48.8355 439.988 42.7292 441.992 42.3853" stroke="#FF8158" stroke-width="1.1993" stroke-linecap="round" stroke-linejoin="round"/>
<path d="M447.05 55.3809C446.116 47.6287 446.79 41.5615 448.787 41.2188" stroke="#FF8158" stroke-width="1.1993" stroke-linecap="round" stroke-linejoin="round"/>
<path d="M453.376 54.2898C452.442 46.5376 453.115 40.4704 455.112 40.1277" stroke="#FF8158" stroke-width="1.1993" stroke-linecap="round" stroke-linejoin="round"/>
<path d="M460.141 52.9519C459.207 45.1998 459.881 39.1326 461.878 38.7898" stroke="#FF8158" stroke-width="1.1993" stroke-linecap="round" stroke-linejoin="round"/>
<path d="M466.498 52.0427C465.564 44.2906 466.237 38.2234 468.234 37.8806" stroke="#FF8158" stroke-width="1.1993" stroke-linecap="round" stroke-linejoin="round"/>
<path d="M472.824 50.9568C471.89 43.2047 472.563 37.1375 474.561 36.7947" stroke="#FF8158" stroke-width="1.1993" stroke-linecap="round" stroke-linejoin="round"/>
<path d="M581.331 18.4614L412.3 47.4759" stroke="#1D1D1B" stroke-width="3.59788" stroke-linecap="round" stroke-linejoin="round"/>
<path d="M540.169 46.7197L537.576 47.1649L537.498 46.7145L539.69 46.3383L539.572 45.6547L539.994 45.6983L540.169 46.7197ZM540.914 51.1314L538.32 51.5766L538.222 51.0056L540.133 49.4771L540.129 49.4738C540.001 49.5247 539.863 49.565 539.706 49.5919L538.041 49.8776L537.967 49.4433L540.56 48.9981L540.663 49.5933L538.764 51.0949L538.768 51.0982C538.896 51.0473 539.034 51.0071 539.191 50.9802L540.84 50.6972L540.914 51.1314Z" fill="#FF8158"/>
<path d="M545.682 46.4067C545.276 46.4764 544.934 46.4398 544.658 46.301C544.386 46.1614 544.224 45.9449 544.173 45.6473C544.123 45.3538 544.202 45.0918 544.412 44.8694C544.627 44.6464 544.937 44.502 545.343 44.4323C545.749 44.3626 546.09 44.3951 546.363 44.5347C546.635 44.6742 546.796 44.8907 546.847 45.1883C546.898 45.4859 546.818 45.7438 546.604 45.9669C546.394 46.1893 546.088 46.337 545.682 46.4067ZM546.445 45.2573C546.389 44.9316 546.01 44.7732 545.419 44.8746C544.828 44.9761 544.519 45.2526 544.575 45.5783C544.633 45.9121 545.011 46.0665 545.606 45.9644C546.197 45.8629 546.503 45.5911 546.445 45.2573ZM547.616 49.981L545.023 50.4262L544.924 49.8552L546.835 48.3266L546.831 48.3233C546.703 48.3742 546.565 48.4145 546.408 48.4414L544.743 48.7272L544.669 48.2929L547.262 47.8477L547.365 48.4428L545.466 49.9444L545.47 49.9478C545.598 49.8968 545.736 49.8566 545.893 49.8297L547.542 49.5467L547.616 49.981Z" fill="#FF8158"/>
<path d="M487.45 56.3319C487.221 56.3713 486.944 56.3237 486.623 56.1924L485.58 55.7588L485.486 55.2079L486.458 55.666L486.462 55.6613C486.433 55.6124 486.409 55.5462 486.394 55.4617C486.354 55.2245 486.402 55.0009 486.541 54.7949C486.68 54.593 486.874 54.4687 487.123 54.4259C487.376 54.3824 487.609 54.4376 487.822 54.5915C488.036 54.7495 488.163 54.9595 488.209 55.2289C488.255 55.4983 488.205 55.7347 488.055 55.9467C487.905 56.1587 487.704 56.2884 487.45 56.3319ZM486.784 55.4652C486.81 55.614 486.879 55.7303 486.996 55.8056C487.113 55.8848 487.246 55.9117 487.386 55.8875C487.531 55.8627 487.648 55.793 487.732 55.6793C487.815 55.5655 487.847 55.4359 487.821 55.2871C487.796 55.1383 487.723 55.0267 487.606 54.9474C487.489 54.8682 487.356 54.8413 487.211 54.8661C486.922 54.9158 486.734 55.1716 486.784 55.4652ZM488.974 60.047L486.38 60.4922L486.282 59.9212L488.193 58.3927L488.188 58.3894C488.061 58.4403 487.923 58.4806 487.766 58.5075L486.101 58.7932L486.026 58.3589L488.62 57.9137L488.722 58.5089L486.823 60.0105L486.828 60.0138C486.956 59.9629 487.094 59.9227 487.251 59.8958L488.899 59.6128L488.974 60.047Z" fill="#FF8158"/>
<path d="M514.437 51.559L514.055 51.6246L513.865 50.5188L513.233 50.5487C513.337 50.6508 513.402 50.7887 513.432 50.9616C513.474 51.2069 513.425 51.4264 513.288 51.6196C513.152 51.8168 512.958 51.9371 512.705 51.9806C512.459 52.0227 512.235 51.9702 512.028 51.8236C511.821 51.6811 511.696 51.4831 511.654 51.2378C511.583 50.8277 511.701 50.5011 512.007 50.2541L512.301 50.5472C512.092 50.7031 512.01 50.8994 512.05 51.1366C512.098 51.4141 512.326 51.586 512.616 51.5363C512.905 51.4867 513.078 51.2376 513.025 50.928C512.992 50.735 512.894 50.5986 512.726 50.5156L512.868 50.1849L514.189 50.1114L514.437 51.559ZM515.112 55.5607L512.518 56.0059L512.42 55.4349L514.331 53.9063L514.326 53.903C514.198 53.9539 514.06 53.9942 513.903 54.0211L512.239 54.3069L512.164 53.8726L514.758 53.4274L514.86 54.0225L512.961 55.5241L512.966 55.5275C513.093 55.4765 513.231 55.4363 513.388 55.4094L515.037 55.1264L515.112 55.5607Z" fill="#FF8158"/>
<path d="M462.427 60.0644L459.833 60.5096L459.756 60.0592L461.947 59.683L461.83 58.9994L462.251 59.043L462.427 60.0644ZM462.786 61.8689C462.828 62.1102 462.79 62.3236 462.677 62.5127C462.565 62.7017 462.418 62.8097 462.229 62.8422C461.975 62.8857 461.776 62.8122 461.625 62.6271C461.572 62.8722 461.338 63.0779 461.044 63.1283C460.823 63.1662 460.619 63.1102 460.436 62.9635C460.258 62.8162 460.144 62.6081 460.098 62.3427C460.015 61.8602 460.241 61.511 460.56 61.3196L460.82 61.6517C460.56 61.7999 460.453 62.0003 460.497 62.2536C460.547 62.5471 460.732 62.7059 461.001 62.6596C461.254 62.6161 461.362 62.399 461.322 62.0953L461.291 61.9144L461.661 61.8509C461.676 61.9353 461.687 61.9996 461.698 62.0432C461.762 62.3179 461.903 62.4386 462.124 62.4006C462.321 62.3668 462.424 62.1711 462.383 61.9299C462.34 61.6846 462.153 61.5346 461.919 61.4961L462.043 61.1065C462.404 61.1644 462.714 61.4507 462.786 61.8689ZM463.551 66.687L460.957 67.1322L460.859 66.5612L462.77 65.0327L462.766 65.0293C462.638 65.0803 462.5 65.1205 462.343 65.1474L460.678 65.4332L460.604 64.9989L463.197 64.5537L463.299 65.1488L461.4 66.6505L461.405 66.6538C461.533 66.6029 461.671 66.5626 461.828 66.5357L463.476 66.2527L463.551 66.687Z" fill="#FF8158"/>
<path d="M435.953 64.6086L433.36 65.0538L433.282 64.6034L435.474 64.2272L435.357 63.5436L435.778 63.5872L435.953 64.6086ZM436.412 67.2819L436.052 67.3769L433.634 66.7695L433.547 66.2628L435.934 66.9046L435.729 65.7103L436.131 65.6413L436.412 67.2819ZM437.071 71.1919L434.477 71.6371L434.379 71.0661L436.29 69.5376L436.286 69.5343C436.158 69.5852 436.02 69.6254 435.863 69.6524L434.198 69.9381L434.124 69.5038L436.717 69.0586L436.819 69.6538L434.92 71.1554L434.925 71.1587C435.053 71.1078 435.191 71.0676 435.348 71.0406L436.997 70.7576L437.071 71.1919Z" fill="#FF8158"/>
<path d="M527.416 48.499C527.457 48.7403 527.419 48.9538 527.307 49.1428C527.194 49.3318 527.047 49.4399 526.858 49.4723C526.605 49.5158 526.406 49.4423 526.254 49.2572C526.201 49.5023 525.967 49.7081 525.674 49.7584C525.453 49.7964 525.248 49.7403 525.066 49.5937C524.887 49.4463 524.773 49.2382 524.727 48.9728C524.645 48.4903 524.87 48.1411 525.189 47.9497L525.449 48.2818C525.189 48.43 525.083 48.6304 525.126 48.8837C525.177 49.1773 525.361 49.336 525.63 49.2898C525.884 49.2463 525.991 49.0291 525.952 48.7254L525.921 48.5445L526.291 48.481C526.305 48.5654 526.316 48.6298 526.328 48.6733C526.391 48.948 526.532 49.0687 526.753 49.0308C526.95 48.9969 527.053 48.8013 527.012 48.56C526.97 48.3147 526.783 48.1647 526.548 48.1262L526.672 47.7366C527.034 47.7945 527.344 48.0808 527.416 48.499ZM528.181 53.3172L525.587 53.7624L525.489 53.1914L527.4 51.6628L527.395 51.6595C527.267 51.7104 527.129 51.7507 526.972 51.7776L525.308 52.0634L525.233 51.6291L527.827 51.1839L527.929 51.779L526.03 53.2806L526.035 53.284C526.162 53.233 526.3 53.1928 526.457 53.1659L528.106 52.8829L528.181 53.3172Z" fill="#FF8158"/>
<path d="M475.495 57.8212L472.902 58.2664L472.824 57.8161L475.016 57.4399L474.899 56.7563L475.32 56.7998L475.495 57.8212ZM475.875 60.0321L473.281 60.4773L473.204 60.0269L475.396 59.6508L475.278 58.9672L475.7 59.0107L475.875 60.0321ZM476.62 64.4439L474.026 64.8891L473.928 64.3181L475.839 62.7895L475.834 62.7862C475.706 62.8371 475.569 62.8774 475.412 62.9043L473.747 63.19L473.672 62.7558L476.266 62.3106L476.368 62.9057L474.469 64.4073L474.474 64.4107C474.602 64.3597 474.74 64.3195 474.897 64.2926L476.545 64.0096L476.62 64.4439Z" fill="#FF8158"/>
<path d="M501.377 53.8545L501.017 53.9495L498.599 53.3421L498.512 52.8354L500.899 53.4772L500.694 52.2829L501.096 52.2139L501.377 53.8545ZM502.036 57.7646L499.442 58.2098L499.344 57.6388L501.255 56.1102L501.251 56.1069C501.123 56.1578 500.985 56.1981 500.828 56.225L499.163 56.5108L499.089 56.0765L501.682 55.6313L501.784 56.2264L499.885 57.728L499.89 57.7314C500.018 57.6804 500.156 57.6402 500.313 57.6133L501.962 57.3303L502.036 57.7646Z" fill="#FF8158"/>
<path d="M449.358 62.3078L446.764 62.753L446.687 62.3026L448.878 61.9265L448.761 61.2429L449.182 61.2864L449.358 62.3078ZM449.808 64.9288L449.426 64.9944L449.236 63.8886L448.603 63.9185C448.708 64.0206 448.773 64.1585 448.803 64.3314C448.845 64.5767 448.796 64.7962 448.659 64.9894C448.523 65.1866 448.328 65.3069 448.075 65.3504C447.83 65.3925 447.606 65.34 447.398 65.1934C447.192 65.0509 447.067 64.8529 447.024 64.6076C446.954 64.1975 447.072 63.8709 447.377 63.6239L447.672 63.917C447.463 64.0729 447.38 64.2692 447.421 64.5064C447.469 64.7839 447.697 64.9558 447.986 64.9061C448.276 64.8565 448.448 64.6074 448.395 64.2978C448.362 64.1048 448.264 63.9684 448.097 63.8854L448.239 63.5547L449.559 63.4812L449.808 64.9288ZM450.482 68.9304L447.888 69.3756L447.79 68.8046L449.701 67.2761L449.697 67.2728C449.569 67.3237 449.431 67.3639 449.274 67.3909L447.609 67.6766L447.535 67.2423L450.128 66.7971L450.23 67.3923L448.331 68.8939L448.336 68.8972C448.464 68.8463 448.602 68.8061 448.759 68.7791L450.408 68.4961L450.482 68.9304Z" fill="#FF8158"/>
<path d="M422.885 66.8517L420.291 67.2969L420.214 66.8466L422.405 66.4704L422.288 65.7868L422.709 65.8303L422.885 66.8517ZM422.485 69.7593C422.256 69.7986 421.979 69.751 421.658 69.6197L420.615 69.1861L420.521 68.6352L421.494 69.0933L421.497 69.0886C421.468 69.0398 421.444 68.9735 421.429 68.8891C421.389 68.6518 421.437 68.4282 421.576 68.2223C421.715 68.0204 421.909 67.896 422.158 67.8532C422.412 67.8097 422.645 67.865 422.857 68.0189C423.071 68.1768 423.198 68.3868 423.244 68.6562C423.29 68.9257 423.24 69.162 423.09 69.374C422.94 69.586 422.739 69.7158 422.485 69.7593ZM421.819 68.8925C421.845 69.0413 421.914 69.1577 422.031 69.2329C422.148 69.3122 422.281 69.339 422.422 69.3149C422.566 69.29 422.683 69.2204 422.767 69.1066C422.851 68.9928 422.882 68.8632 422.857 68.7145C422.831 68.5657 422.758 68.454 422.641 68.3748C422.524 68.2955 422.391 68.2686 422.246 68.2935C421.957 68.3432 421.769 68.599 421.819 68.8925ZM424.009 73.4744L421.415 73.9196L421.317 73.3486L423.228 71.82L423.224 71.8167C423.096 71.8676 422.958 71.9079 422.801 71.9348L421.136 72.2205L421.062 71.7863L423.655 71.3411L423.757 71.9362L421.858 73.4378L421.863 73.4412C421.991 73.3902 422.129 73.35 422.286 73.3231L423.934 73.0401L424.009 73.4744Z" fill="#FF8158"/>
<path d="M533.782 47.402C533.825 47.6553 533.79 47.8809 533.67 48.0753C533.55 48.2698 533.379 48.3859 533.158 48.4239C532.945 48.4605 532.73 48.4146 532.522 48.2848C532.383 48.201 532.257 48.1191 532.148 48.0344L531.499 47.5372L531.692 48.6631L531.29 48.7321L530.998 47.0271L531.39 46.9474C531.815 47.2801 532.115 47.506 532.284 47.6259C532.44 47.7358 532.584 47.827 532.72 47.8988C532.844 47.9686 532.972 47.9882 533.1 47.962C533.296 47.9242 533.424 47.7284 533.378 47.459C533.336 47.2137 533.15 47.0469 532.909 47.0219L533.028 46.6289C533.402 46.6848 533.71 46.9838 533.782 47.402ZM534.547 52.2242L531.954 52.6694L531.856 52.0984L533.767 50.5699L533.762 50.5665C533.634 50.6175 533.496 50.6577 533.339 50.6846L531.675 50.9704L531.6 50.5361L534.194 50.0909L534.296 50.686L532.397 52.1877L532.402 52.191C532.529 52.1401 532.667 52.0998 532.824 52.0729L534.473 51.7899L534.547 52.2242Z" fill="#FF8158"/>
<path d="M481.862 56.7283L479.269 57.1735L479.191 56.7231L481.383 56.3469L481.266 55.6633L481.687 55.7069L481.862 56.7283ZM481.053 59.7767C480.647 59.8464 480.305 59.8098 480.029 59.671C479.756 59.5314 479.595 59.3149 479.544 59.0173C479.493 58.7238 479.573 58.4618 479.783 58.2394C479.997 58.0163 480.308 57.872 480.714 57.8023C481.12 57.7325 481.461 57.7651 481.733 57.9046C482.006 58.0442 482.167 58.2607 482.218 58.5583C482.269 58.8559 482.189 59.1138 481.975 59.3369C481.765 59.5592 481.459 59.7069 481.053 59.7767ZM481.816 58.6273C481.76 58.3016 481.381 58.1431 480.79 58.2446C480.199 58.3461 479.89 58.6226 479.946 58.9483C480.003 59.282 480.382 59.4365 480.977 59.3343C481.568 59.2329 481.873 58.9611 481.816 58.6273ZM482.987 63.3509L480.393 63.7961L480.295 63.2251L482.206 61.6966L482.201 61.6932C482.074 61.7442 481.936 61.7844 481.779 61.8113L480.114 62.0971L480.039 61.6628L482.633 61.2176L482.735 61.8127L480.836 63.3144L480.841 63.3177C480.969 63.2668 481.107 63.2265 481.264 63.1996L482.912 62.9166L482.987 63.3509Z" fill="#FF8158"/>
<path d="M507.686 52.4239L506.713 51.9658L506.71 51.9705C506.739 52.0193 506.763 52.0856 506.777 52.17C506.818 52.4073 506.769 52.6309 506.63 52.8328C506.492 53.0387 506.298 53.1631 506.048 53.2059C505.795 53.2494 505.562 53.1941 505.349 53.0362C505.136 52.8823 505.009 52.6723 504.963 52.4029C504.916 52.1334 504.966 51.8931 505.116 51.6811C505.266 51.469 505.468 51.3433 505.721 51.2998C505.951 51.2605 506.228 51.3081 506.548 51.4394L507.591 51.873L507.686 52.4239ZM506.388 52.1666C506.362 52.0178 506.288 51.9021 506.171 51.8228C506.055 51.7476 505.926 51.7201 505.785 51.7442C505.64 51.7691 505.524 51.8387 505.44 51.9525C505.356 52.0663 505.325 52.1959 505.35 52.3446C505.376 52.4934 505.449 52.6051 505.566 52.6843C505.683 52.7636 505.816 52.7905 505.961 52.7656C506.25 52.7159 506.438 52.4601 506.388 52.1666ZM508.41 56.711L505.816 57.1562L505.718 56.5852L507.629 55.0567L507.624 55.0533C507.496 55.1043 507.358 55.1445 507.201 55.1714L505.537 55.4572L505.462 55.0229L508.056 54.5777L508.158 55.1728L506.259 56.6745L506.264 56.6778C506.391 56.6269 506.529 56.5866 506.686 56.5597L508.335 56.2767L508.41 56.711Z" fill="#FF8158"/>
<path d="M455.725 61.2149L453.131 61.6601L453.054 61.2097L455.245 60.8336L455.128 60.15L455.549 60.1935L455.725 61.2149ZM456.15 63.6208L454.594 63.8879L454.656 64.2498L454.254 64.3188L454.192 63.9569L453.544 64.068L453.468 63.6257L454.116 63.5146L453.925 62.4047L454.335 62.3095L456.042 62.9934L456.15 63.6208ZM455.704 63.2419L454.396 62.7378L454.518 63.4455L455.704 63.2419ZM456.849 67.8375L454.255 68.2827L454.157 67.7117L456.068 66.1832L456.063 66.1799C455.936 66.2308 455.798 66.271 455.641 66.298L453.976 66.5837L453.902 66.1494L456.495 65.7042L456.597 66.2994L454.698 67.801L454.703 67.8043C454.831 67.7534 454.969 67.7132 455.126 67.6862L456.774 67.4032L456.849 67.8375Z" fill="#FF8158"/>
<path d="M429.252 65.7589L426.658 66.2041L426.581 65.7537L428.772 65.3775L428.655 64.6939L429.076 64.7375L429.252 65.7589ZM429.054 68.5118C428.848 68.547 428.665 68.4916 428.512 68.3481C428.409 68.6183 428.21 68.7809 427.916 68.8313C427.671 68.8734 427.459 68.8187 427.271 68.6687C427.084 68.5187 426.971 68.3147 426.926 68.0533C426.881 67.7919 426.919 67.5576 427.046 67.3538C427.172 67.1499 427.354 67.0277 427.599 66.9855C427.901 66.9338 428.143 67.0164 428.317 67.2349C428.411 67.0574 428.566 66.948 428.779 66.9114C428.976 66.8776 429.154 66.9257 429.317 67.059C429.485 67.1917 429.586 67.369 429.624 67.5901C429.662 67.8113 429.626 68.012 429.512 68.193C429.402 68.3733 429.251 68.478 429.054 68.5118ZM428.849 67.3424C428.644 67.3776 428.516 67.5526 428.554 67.7737C428.591 67.9869 428.77 68.1134 428.975 68.0782C429.172 68.0444 429.293 67.858 429.258 67.653C429.223 67.4479 429.046 67.3085 428.849 67.3424ZM427.675 67.4279C427.551 67.4493 427.45 67.5121 427.377 67.6198C427.304 67.7275 427.28 67.8517 427.304 67.9884C427.326 68.1211 427.39 68.2261 427.494 68.3034C427.599 68.3807 427.716 68.4103 427.84 68.3889C428.098 68.3448 428.267 68.1045 428.221 67.831C428.174 67.5576 427.933 67.3837 427.675 67.4279ZM430.376 72.3815L427.782 72.8267L427.684 72.2557L429.595 70.7272L429.591 70.7238C429.463 70.7748 429.325 70.815 429.168 70.8419L427.503 71.1277L427.429 70.6934L430.022 70.2482L430.124 70.8433L428.225 72.345L428.23 72.3483C428.358 72.2974 428.496 72.2571 428.653 72.2302L430.301 71.9472L430.376 72.3815Z" fill="#FF8158"/>
<path d="M521.115 50.1933L519.559 50.4604L519.621 50.8223L519.219 50.8913L519.156 50.5294L518.509 50.6405L518.433 50.1982L519.081 50.0871L518.89 48.9772L519.3 48.882L521.007 49.5659L521.115 50.1933ZM520.669 49.8144L519.361 49.3103L519.483 50.018L520.669 49.8144ZM521.814 54.4101L519.22 54.8553L519.122 54.2843L521.033 52.7557L521.028 52.7524C520.9 52.8033 520.763 52.8436 520.606 52.8705L518.941 53.1563L518.866 52.722L521.46 52.2768L521.562 52.8719L519.663 54.3735L519.668 54.3769C519.796 54.3259 519.934 54.2857 520.091 54.2588L521.739 53.9758L521.814 54.4101Z" fill="#FF8158"/>
<path d="M469.128 58.914L466.535 59.3592L466.457 58.9088L468.649 58.5326L468.532 57.849L468.953 57.8926L469.128 58.914ZM469.487 60.7145C469.531 60.9678 469.495 61.1933 469.375 61.3878C469.255 61.5822 469.085 61.6984 468.864 61.7364C468.65 61.773 468.436 61.727 468.227 61.5973C468.088 61.5134 467.963 61.4315 467.853 61.3469L467.204 60.8496L467.398 61.9756L466.996 62.0446L466.703 60.3396L467.095 60.2599C467.52 60.5925 467.82 60.8185 467.99 60.9384C468.145 61.0483 468.289 61.1395 468.426 61.2113C468.549 61.2811 468.677 61.3006 468.805 61.2745C469.001 61.2367 469.129 61.0408 469.083 60.7714C469.041 60.5261 468.855 60.3593 468.615 60.3344L468.733 59.9414C469.107 59.9973 469.415 60.2963 469.487 60.7145ZM470.253 65.5366L467.659 65.9818L467.561 65.4108L469.472 63.8823L469.467 63.879C469.339 63.9299 469.201 63.9701 469.045 63.997L467.38 64.2828L467.305 63.8485L469.899 63.4033L470.001 63.9984L468.102 65.5001L468.107 65.5034C468.235 65.4525 468.373 65.4122 468.529 65.3853L470.178 65.1023L470.253 65.5366Z" fill="#FF8158"/>
<path d="M494.019 55.0846C493.813 55.1198 493.63 55.0644 493.477 54.9209C493.374 55.1911 493.175 55.3536 492.881 55.404C492.636 55.4461 492.424 55.3915 492.236 55.2415C492.049 55.0915 491.936 54.8874 491.891 54.6261C491.846 54.3647 491.884 54.1304 492.011 53.9266C492.137 53.7227 492.319 53.6004 492.564 53.5583C492.866 53.5065 493.108 53.5892 493.282 53.8077C493.376 53.6302 493.531 53.5208 493.744 53.4842C493.941 53.4504 494.119 53.4985 494.283 53.6318C494.45 53.7645 494.551 53.9417 494.589 54.1629C494.627 54.3841 494.591 54.5848 494.477 54.7658C494.367 54.9461 494.216 55.0508 494.019 55.0846ZM493.814 53.9151C493.609 53.9503 493.481 54.1254 493.519 54.3465C493.556 54.5596 493.735 54.6862 493.94 54.651C494.137 54.6172 494.258 54.4308 494.223 54.2257C494.188 54.0206 494.011 53.8813 493.814 53.9151ZM492.64 54.0006C492.516 54.022 492.415 54.0849 492.342 54.1926C492.269 54.3003 492.245 54.4245 492.269 54.5612C492.291 54.6939 492.355 54.7989 492.459 54.8762C492.564 54.9535 492.681 54.9831 492.805 54.9617C493.063 54.9175 493.232 54.6772 493.186 54.4038C493.139 54.1304 492.898 53.9565 492.64 54.0006ZM495.341 58.9543L492.747 59.3995L492.649 58.8285L494.56 57.3L494.556 57.2966C494.428 57.3476 494.29 57.3878 494.133 57.4147L492.468 57.7005L492.394 57.2662L494.987 56.821L495.089 57.4161L493.19 58.9178L493.195 58.9211C493.323 58.8702 493.461 58.8299 493.618 58.803L495.266 58.52L495.341 58.9543Z" fill="#FF8158"/>
<path d="M442.656 63.4582L440.062 63.9034L439.985 63.453L442.176 63.0768L442.059 62.3932L442.48 62.4368L442.656 63.4582ZM443.056 65.7937L442.084 65.3356L442.08 65.3403C442.109 65.3892 442.133 65.4555 442.148 65.5399C442.188 65.7771 442.14 66.0007 442.001 66.2026C441.862 66.4086 441.668 66.5329 441.419 66.5757C441.166 66.6192 440.933 66.564 440.719 66.4061C440.506 66.2521 440.379 66.0421 440.333 65.7727C440.287 65.5033 440.337 65.2629 440.487 65.0509C440.636 64.8389 440.838 64.7132 441.092 64.6697C441.321 64.6303 441.598 64.678 441.919 64.8092L442.962 65.2428L443.056 65.7937ZM441.758 65.5364C441.732 65.3876 441.659 65.272 441.542 65.1927C441.425 65.1175 441.296 65.0899 441.156 65.1141C441.011 65.1389 440.894 65.2086 440.811 65.3223C440.727 65.4361 440.695 65.5657 440.721 65.7145C440.746 65.8633 440.819 65.9749 440.936 66.0542C441.053 66.1335 441.186 66.1603 441.331 66.1355C441.62 66.0858 441.808 65.83 441.758 65.5364ZM443.78 70.0808L441.186 70.526L441.088 69.955L442.999 68.4265L442.995 68.4232C442.867 68.4741 442.729 68.5143 442.572 68.5412L440.907 68.827L440.833 68.3927L443.426 67.9475L443.528 68.5427L441.629 70.0443L441.634 70.0476C441.762 69.9967 441.9 69.9564 442.057 69.9295L443.705 69.6465L443.78 70.0808Z" fill="#FF8158"/>
<path d="M417.503 67.3617C417.546 67.6151 417.51 67.8406 417.39 68.035C417.271 68.2295 417.1 68.3457 416.879 68.3836C416.666 68.4202 416.451 68.3743 416.242 68.2445C416.104 68.1607 415.978 68.0788 415.868 67.9941L415.22 67.4969L415.413 68.6228L415.011 68.6918L414.718 66.9869L415.11 66.9071C415.536 67.2398 415.836 67.4657 416.005 67.5856C416.161 67.6956 416.305 67.7868 416.441 67.8585C416.565 67.9284 416.692 67.9479 416.82 67.9218C417.017 67.8839 417.145 67.6881 417.098 67.4187C417.056 67.1734 416.87 67.0066 416.63 66.9816L416.749 66.5886C417.123 66.6445 417.431 66.9435 417.503 67.3617ZM416.714 70.8205C416.307 70.8902 415.966 70.8536 415.69 70.7148C415.417 70.5753 415.256 70.3587 415.205 70.0612C415.154 69.7676 415.234 69.5056 415.444 69.2833C415.658 69.0602 415.969 68.9158 416.375 68.8461C416.781 68.7764 417.122 68.809 417.394 68.9485C417.666 69.088 417.828 69.3046 417.879 69.6021C417.93 69.8997 417.85 70.1577 417.636 70.3807C417.426 70.6031 417.12 70.7508 416.714 70.8205ZM417.477 69.6712C417.421 69.3454 417.042 69.187 416.451 69.2884C415.859 69.3899 415.551 69.6664 415.607 69.9921C415.664 70.3259 416.043 70.4803 416.638 70.3782C417.229 70.2767 417.534 70.0049 417.477 69.6712ZM418.648 74.3948L416.054 74.84L415.956 74.2689L417.867 72.7404L417.862 72.7371C417.734 72.788 417.596 72.8283 417.44 72.8552L415.775 73.1409L415.7 72.7067L418.294 72.2615L418.396 72.8566L416.497 74.3582L416.502 74.3616C416.63 74.3106 416.768 74.2704 416.924 74.2435L418.573 73.9605L418.648 74.3948Z" fill="#FF8158"/>
<path d="M508.584 70.4504L461.254 78.4403C456.897 79.1758 453.961 83.3037 454.697 87.6604L456.694 99.4929C457.43 103.85 461.558 106.785 465.914 106.05L513.245 98.0597C517.601 97.3243 520.537 93.1963 519.801 88.8397L517.804 77.0071C517.069 72.6504 512.941 69.7149 508.584 70.4504Z" fill="white" stroke="#E8EAEF"/>
<path d="M477.094 93.2199L476.812 91.5483L479.889 84.2374L481.33 83.9941L481.721 86.3079L480.868 86.4519L478.931 91.0796L478.944 91.158L484.901 90.1526L485.188 91.8536L477.094 93.2199ZM482.211 94.1712L481.827 91.8966L481.741 91.1497L480.555 84.1249L482.546 83.7889L484.241 93.8286L482.211 94.1712ZM496.857 81.373L498.551 91.4128L496.718 91.7223L491.283 86.1407L491.21 86.1531L492.277 92.4721L490.154 92.8304L488.459 82.7906L490.322 82.4761L495.721 88.0587L495.81 88.0438L494.744 81.7297L496.857 81.373Z" fill="#171923"/>
<defs>
<linearGradient id="paint0_linear_2080_270" x1="631.25" y1="41.25" x2="791.25" y2="181.25" gradientUnits="userSpaceOnUse">
<stop stop-color="#6B737D"/>
<stop offset="1" stop-color="#4F575F"/>
</linearGradient>
<linearGradient id="paint1_linear_2080_270" x1="11.25" y1="1.25001" x2="711.25" y2="141.25" gradientUnits="userSpaceOnUse">
<stop stop-color="#C8CDD4"/>
<stop offset="0.45" stop-color="#A8B0BA"/>
<stop offset="1" stop-color="#8E96A1"/>
</linearGradient>
<linearGradient id="paint2_linear_2080_270" x1="-8.75" y1="141.25" x2="631.25" y2="201.25" gradientUnits="userSpaceOnUse">
<stop stop-color="#7A828C"/>
<stop offset="1" stop-color="#5E666F"/>
</linearGradient>
<linearGradient id="paint3_linear_2080_270" x1="-8.75001" y1="141.25" x2="631.25" y2="201.25" gradientUnits="userSpaceOnUse">
<stop stop-color="#7A828C"/>
<stop offset="1" stop-color="#5E666F"/>
</linearGradient>
<linearGradient id="paint4_linear_2080_270" x1="318.536" y1="63.2094" x2="371.459" y2="125.855" gradientUnits="userSpaceOnUse">
<stop stop-color="#A06C35"/>
<stop offset="1" stop-color="#7A4F24"/>
</linearGradient>
<linearGradient id="paint5_linear_2080_270" x1="150.47" y1="53.8392" x2="339.819" y2="105.067" gradientUnits="userSpaceOnUse">
<stop stop-color="#E8C48A"/>
<stop offset="0.5" stop-color="#D4A86A"/>
<stop offset="1" stop-color="#C49252"/>
</linearGradient>
<linearGradient id="paint6_linear_2080_270" x1="161.252" y1="95.7676" x2="319.031" y2="136.708" gradientUnits="userSpaceOnUse">
<stop stop-color="#B07A3E"/>
<stop offset="1" stop-color="#8F5F2E"/>
</linearGradient>
<linearGradient id="paint7_linear_2080_270" x1="161.252" y1="95.7677" x2="319.031" y2="136.708" gradientUnits="userSpaceOnUse">
<stop stop-color="#B07A3E"/>
<stop offset="1" stop-color="#8F5F2E"/>
</linearGradient>
</defs>
</svg>
