<svg width="763" height="224" viewBox="0 0 763 224" fill="none" xmlns="http://www.w3.org/2000/svg">
<path d="M551.25 21.25L761.25 101.25V146.25L551.25 66.25V21.25Z" fill="url(#paint0_linear_2095_869)" stroke="#3E4650" stroke-width="2.5" stroke-linejoin="round"/>
<path d="M1.25 101.25L681.25 1.25L891.25 81.25L211.25 181.25L1.25 101.25Z" fill="url(#paint1_linear_2095_869)" stroke="#3E4650" stroke-width="2.5" stroke-linejoin="round"/>
<path d="M1.25 101.25L211.25 181.25V226.25L1.25 146.25V101.25Z" fill="url(#paint2_linear_2095_869)" stroke="#3E4650" stroke-width="2.5" stroke-linejoin="round"/>
<path d="M211.25 181.25L891.25 81.25V126.25L211.25 226.25V181.25Z" fill="url(#paint3_linear_2095_869)" stroke="#3E4650" stroke-width="2.5" stroke-linejoin="round"/>
<path d="M 650.5 102 L 460 131.9996 L 354.25 89 V 35.25 L 544 5.25 L 650.5 48.25 V 102 Z" fill="#F1A558"/>
<path d="M 354.25 35.25 L 544 5.25 L 650.5 48.25 V 102 L 460 131.9996 L 354.25 89 V 35.25 Z M 460 131.9996 V 78.25 M 460 78.25 L 650.5 48.25 M 460 78.25 L 354.25 35.25" stroke="#5C3A18" stroke-width="1.5"/>
<path d="M 399.75 84.25 L 373.25 90.75" stroke="black"/>
<path d="M 181.223 123.3366 C 182.596 134.4846 193.666 139.1396 193.666 139.1396 L 352.734 111.4986 C 352.734 111.4986 362.023 105.7656 358.672 92.5414 C 355.322 79.3176 348.387 76.713 348.387 76.713 L 185.528 104.3145 C 185.528 104.3145 179.851 112.1876 181.223 123.3366 Z" fill="white"/>
<path d="M 351.417 76.2706 C 353.699 75.8791 356.845 83.113 358.443 92.4285 C 360.042 101.7434 359.487 109.6126 357.206 110.0046 C 354.924 110.3956 351.777 103.1616 350.179 93.8467 C 348.58 84.5312 349.135 76.6622 351.417 76.2706 Z" stroke="#9C9B9B" stroke-width="3.59788" stroke-linecap="round" stroke-linejoin="round"/>
<path d="M 219.765 102.6391 C 221.551 102.3328 224.012 107.9936 225.263 115.2826 C 226.514 122.5716 226.08 128.7296 224.295 129.0356 C 222.509 129.3426 220.047 123.6816 218.797 116.3926 C 217.546 109.1026 217.979 102.9456 219.765 102.6391 Z" fill="#EF3A50"/>
<path d="M 220.358 116.3916 L 363.349 91.854" stroke="#565655" stroke-width="2.39859" stroke-linecap="round" stroke-linejoin="round"/>
<path d="M 363.86 91.7658 C 364.292 94.2805 366.68 95.9698 369.195 95.5382 C 371.709 95.1067 373.398 92.7179 372.966 90.2032 C 372.535 87.6885 370.146 86.0005 367.632 86.432" stroke="#565655" stroke-width="2.39859" stroke-linecap="round" stroke-linejoin="round"/>
<path d="M 221.872 114.9156 C 221.999 114.8936 222.246 115.3296 222.369 116.0456 C 222.505 116.8366 222.405 117.2546 222.278 117.2766 C 222.151 117.2986 221.956 116.7876 221.844 116.1356 C 221.732 115.4846 221.745 114.9376 221.872 114.9156 Z" fill="#565655"/>
<path d="M 219.766 102.6394 C 221.552 102.333 224.014 107.9936 225.265 115.2826 C 226.516 122.5716 226.081 128.7296 224.296 129.0366" fill="#EF3A50"/>
<path d="M 219.909 103.4856 C 221.695 103.1792 224.092 108.4606 225.263 115.2826 C 226.434 122.1036 225.934 127.8816 224.148 128.1876" stroke="#813A50" stroke-width="1.79894" stroke-miterlimit="10" stroke-linecap="round"/>
<path d="M 351.416 76.2707 C 353.698 75.8791 356.844 83.113 358.443 92.4285 C 360.041 101.7434 359.487 109.6126 357.205 110.0046" stroke="#1D1D1B" stroke-width="3.59788" stroke-linecap="round" stroke-linejoin="round"/>
<path d="M 182.72 105.2196 L 350.076 76.5016" stroke="#1D1D1B" stroke-width="3.59788" stroke-linecap="round" stroke-linejoin="round"/>
<path d="M 165.393 124.6296 L 180.473 122.0426" stroke="black" stroke-width="0.68"/>
<path d="M 161.498 130.6426 C 164.406 130.1436 166.36 127.3816 165.861 124.4726 C 165.361 121.5636 162.599 119.6106 159.69 120.1096 C 156.782 120.6086 154.829 123.3716 155.328 126.2796 C 155.827 129.1886 158.589 131.1416 161.498 130.6426 Z" stroke="#F19100" stroke-width="1.79894" stroke-miterlimit="10" stroke-linecap="round"/>
<path d="M 193.641 134.5476 C 194.494 134.4016 189.894 107.5966 190.747 107.4496 C 191.599 107.3036 196.199 134.1086 197.051 133.9626 C 197.904 133.8156 193.304 107.0116 194.156 106.8646 C 195.009 106.7186 199.609 133.5236 200.461 133.3776 C 201.313 133.2306 196.714 106.4266 197.566 106.2796 C 198.418 106.1336 203.018 132.9386 203.87 132.7926 C 204.723 132.6456 200.124 105.8416 200.976 105.6946 C 201.829 105.5486 206.428 132.3536 207.281 132.2066 C 208.133 132.0606 203.534 105.2556 204.386 105.1096 C 205.239 104.9636 209.838 131.7676 210.691 131.6216 C 211.544 131.4756 206.944 104.6706 207.796 104.5246 C 208.649 104.3782 213.248 131.1826 214.101 131.0366 C 214.954 130.8906 210.354 104.0856 211.207 103.9392 C 212.06 103.7929 216.659 130.5976 217.512 130.4516 C 218.365 130.3046 213.765 103.5002 214.618 103.3538" stroke="#858585" stroke-width="2.39859" stroke-linecap="round" stroke-linejoin="round"/>
<path d="M 217.511 130.4516 C 218.363 130.3046 213.764 103.5001 214.617 103.3538 C 214.992 103.2894 216.085 108.4336 217.276 114.2016 C 217.827 116.8666 218.411 116.7666 220.22 116.4556" stroke="#565655" stroke-width="2.39859" stroke-linecap="round" stroke-linejoin="round"/>
<path d="M 214.1 131.0366 C 214.953 130.8906 210.354 104.0857 211.206 103.9394" stroke="#565655" stroke-width="2.39859" stroke-linecap="round" stroke-linejoin="round"/>
<path d="M 186.818 135.7176 C 187.671 135.5716 183.071 108.7666 183.924 108.6206 C 184.776 108.4746 189.376 135.2786 190.228 135.1326 C 191.081 134.9866 186.481 108.1816 187.333 108.0356 C 188.186 107.8896 192.786 134.6936 193.639 134.5476 C 194.491 134.4016 189.891 107.5966 190.744 107.4506 C 191.597 107.3036 196.196 134.1086 197.048 133.9626 C 197.901 133.8156 193.302 107.0116 194.154 106.8646 C 195.007 106.7186 199.607 133.5236 200.459 133.3766 C 201.312 133.2306 196.713 106.4256 197.566 106.2796" stroke="#858585" stroke-width="2.39859" stroke-linecap="round" stroke-linejoin="round"/>
<path d="M 210.69 131.6216 C 211.543 131.4756 206.943 104.6706 207.796 104.5246" stroke="#565655" stroke-width="2.39859" stroke-linecap="round" stroke-linejoin="round"/>
<path d="M 207.28 132.2066 C 208.133 132.0606 203.533 105.2556 204.386 105.1096" stroke="#565655" stroke-width="2.39859" stroke-linecap="round" stroke-linejoin="round"/>
<path d="M 203.87 132.7916 C 204.723 132.6456 200.123 105.8406 200.976 105.6946" stroke="#565655" stroke-width="2.39859" stroke-linecap="round" stroke-linejoin="round"/>
<path d="M 200.46 133.3766 C 201.312 133.2306 196.712 106.4256 197.565 106.2796" stroke="#565655" stroke-width="2.39859" stroke-linecap="round" stroke-linejoin="round"/>
<path d="M 197.051 133.9616 C 197.903 133.8156 193.303 107.0106 194.156 106.8646" stroke="#565655" stroke-width="2.39859" stroke-linecap="round" stroke-linejoin="round"/>
<path d="M 193.64 134.5476 C 194.492 134.4006 189.893 107.5966 190.745 107.4496" stroke="#565655" stroke-width="2.39859" stroke-linecap="round" stroke-linejoin="round"/>
<path d="M 190.229 135.1326 C 191.082 134.9856 186.482 108.1816 187.335 108.0346" stroke="#565655" stroke-width="2.39859" stroke-linecap="round" stroke-linejoin="round"/>
<path d="M 183.925 108.6196 C 183.072 108.7666 187.672 135.5706 186.82 135.7166 C 185.858 135.8826 182.647 126.6726 181.975 122.7526" stroke="#565655" stroke-width="2.39859" stroke-linecap="round" stroke-linejoin="round"/>
<path d="M 188.508 138.9526 C 186.226 139.3436 183.08 132.1096 181.482 122.7946 C 179.883 113.4796 180.437 105.6106 182.72 105.2186" stroke="#1D1D1B" stroke-width="3.59788" stroke-linecap="round" stroke-linejoin="round"/>
<path d="M 290.808 107.4496 C 291.755 115.2386 291.084 121.3446 289.08 121.6886" stroke="#FF8158" stroke-width="1.1993" stroke-linecap="round" stroke-linejoin="round"/>
<path d="M 284.024 108.6926 C 284.957 116.4446 284.283 122.5116 282.286 122.8546" stroke="#FF8158" stroke-width="1.1993" stroke-linecap="round" stroke-linejoin="round"/>
<path d="M 277.697 109.7776 C 278.631 117.5306 277.957 123.5976 275.96 123.9396" stroke="#FF8158" stroke-width="1.1993" stroke-linecap="round" stroke-linejoin="round"/>
<path d="M 270.902 110.9436 C 271.836 118.6956 271.162 124.7636 269.165 125.1056" stroke="#FF8158" stroke-width="1.1993" stroke-linecap="round" stroke-linejoin="round"/>
<path d="M 264.566 111.9526 C 265.514 119.7416 264.842 125.8476 262.839 126.1916" stroke="#FF8158" stroke-width="1.1993" stroke-linecap="round" stroke-linejoin="round"/>
<path d="M 257.781 113.1956 C 258.715 120.9476 258.041 127.0146 256.044 127.3576" stroke="#FF8158" stroke-width="1.1993" stroke-linecap="round" stroke-linejoin="round"/>
<path d="M 251.457 114.2866 C 252.391 122.0386 251.716 128.1056 249.72 128.4486" stroke="#FF8158" stroke-width="1.1993" stroke-linecap="round" stroke-linejoin="round"/>
<path d="M 244.69 115.6236 C 245.624 123.3756 244.95 129.4426 242.953 129.7856" stroke="#FF8158" stroke-width="1.1993" stroke-linecap="round" stroke-linejoin="round"/>
<path d="M 238.334 116.5326 C 239.268 124.2846 238.594 130.3526 236.597 130.6946" stroke="#FF8158" stroke-width="1.1993" stroke-linecap="round" stroke-linejoin="round"/>
<path d="M 232.008 117.6186 C 232.942 125.3706 232.268 131.4376 230.27 131.7806" stroke="#FF8158" stroke-width="1.1993" stroke-linecap="round" stroke-linejoin="round"/>
<path d="M 225.641 118.7106 C 226.574 126.4636 225.9 132.5306 223.903 132.8726" stroke="#FF8158" stroke-width="1.1993" stroke-linecap="round" stroke-linejoin="round"/>
<path d="M 355.818 96.294 C 356.766 104.0827 356.094 110.1886 354.091 110.5326" stroke="#FF8158" stroke-width="1.1993" stroke-linecap="round" stroke-linejoin="round"/>
<path d="M 349.034 97.5368 C 349.967 105.2886 349.293 111.3556 347.296 111.6986" stroke="#FF8158" stroke-width="1.1993" stroke-linecap="round" stroke-linejoin="round"/>
<path d="M 342.707 98.6222 C 343.641 106.3746 342.966 112.4416 340.97 112.7846" stroke="#FF8158" stroke-width="1.1993" stroke-linecap="round" stroke-linejoin="round"/>
<path d="M 335.912 99.7882 C 336.846 107.5406 336.172 113.6076 334.175 113.9506" stroke="#FF8158" stroke-width="1.1993" stroke-linecap="round" stroke-linejoin="round"/>
<path d="M 329.575 100.7969 C 330.523 108.5856 329.851 114.6916 327.848 115.0356" stroke="#FF8158" stroke-width="1.1993" stroke-linecap="round" stroke-linejoin="round"/>
<path d="M 322.791 102.0401 C 323.725 109.7926 323.05 115.8596 321.054 116.2026" stroke="#FF8158" stroke-width="1.1993" stroke-linecap="round" stroke-linejoin="round"/>
<path d="M 316.466 103.1309 C 317.399 110.8836 316.725 116.9506 314.728 117.2926" stroke="#FF8158" stroke-width="1.1993" stroke-linecap="round" stroke-linejoin="round"/>
<path d="M 309.701 104.4683 C 310.635 112.2206 309.961 118.2876 307.964 118.6306" stroke="#FF8158" stroke-width="1.1993" stroke-linecap="round" stroke-linejoin="round"/>
<path d="M 303.344 105.3766 C 304.277 113.1296 303.604 119.1966 301.606 119.5386" stroke="#FF8158" stroke-width="1.1993" stroke-linecap="round" stroke-linejoin="round"/>
<path d="M 297.018 106.4626 C 297.951 114.2146 297.277 120.2816 295.28 120.6246" stroke="#FF8158" stroke-width="1.1993" stroke-linecap="round" stroke-linejoin="round"/>
<path d="M 188.509 138.9526 L 357.541 109.9466" stroke="#1D1D1B" stroke-width="3.59788" stroke-linecap="round" stroke-linejoin="round"/>
<path d="M 229.672 110.6966 L 232.265 110.2516 L 232.342 110.7016 L 230.151 111.0786 L 230.268 111.7616 L 229.847 111.7186 L 229.672 110.6966 Z M 228.927 106.2846 L 231.521 105.8396 L 231.619 106.4106 L 229.708 107.9396 L 229.712 107.9426 C 229.84 107.8916 229.978 107.8516 230.135 107.8246 L 231.8 107.5386 L 231.874 107.9736 L 229.281 108.4186 L 229.178 107.8236 L 231.077 106.3216 L 231.073 106.3186 C 230.945 106.3696 230.807 106.4096 230.65 106.4366 L 229.001 106.7196 L 228.927 106.2846 Z" fill="#FF8158"/>
<path d="M 224.159 111.0086 C 224.565 110.9386 224.907 110.9756 225.183 111.1146 C 225.456 111.2536 225.617 111.4706 225.668 111.7686 C 225.718 112.0616 225.639 112.3236 225.429 112.5456 C 225.215 112.7696 224.904 112.9136 224.498 112.9836 C 224.092 113.0526 223.751 113.0206 223.479 112.8806 C 223.206 112.7416 223.045 112.5246 222.994 112.2266 C 222.943 111.9296 223.023 111.6716 223.237 111.4486 C 223.447 111.2266 223.753 111.0786 224.159 111.0086 Z M 223.396 112.1576 C 223.452 112.4836 223.831 112.6426 224.422 112.5406 C 225.013 112.4396 225.322 112.1626 225.266 111.8376 C 225.209 111.5036 224.83 111.3486 224.235 111.4506 C 223.644 111.5526 223.339 111.8246 223.396 112.1576 Z M 222.225 107.4346 L 224.819 106.9896 L 224.917 107.5606 L 223.006 109.0886 L 223.011 109.0916 C 223.139 109.0416 223.277 109.0006 223.433 108.9736 L 225.098 108.6886 L 225.173 109.1226 L 222.579 109.5676 L 222.477 108.9726 L 224.376 107.4706 L 224.371 107.4676 C 224.243 107.5186 224.105 107.5586 223.949 107.5856 L 222.3 107.8686 L 222.225 107.4346 Z" fill="#FF8158"/>
<path d="M 282.391 101.0869 C 282.62 101.0476 282.897 101.0952 283.218 101.2265 L 284.261 101.6602 L 284.355 102.2111 L 283.382 101.7529 L 283.379 101.7576 C 283.408 101.8064 283.432 101.8727 283.446 101.9572 C 283.487 102.1944 283.439 102.418 283.3 102.6239 C 283.161 102.8258 282.967 102.9502 282.718 102.993 C 282.464 103.0364 282.231 102.9812 282.019 102.8273 C 281.805 102.6693 281.678 102.4593 281.632 102.1899 C 281.586 101.9205 281.636 101.6841 281.786 101.4721 C 281.936 101.2601 282.137 101.1304 282.391 101.0869 Z M 283.057 101.9537 C 283.031 101.8049 282.962 101.6885 282.845 101.6133 C 282.728 101.534 282.595 101.5072 282.454 101.5313 C 282.31 101.5561 282.193 101.6258 282.109 101.7396 C 282.025 101.8533 281.994 101.9829 282.019 102.1317 C 282.045 102.2805 282.118 102.3922 282.235 102.4714 C 282.352 102.5507 282.485 102.5775 282.63 102.5527 C 282.919 102.503 283.107 102.2472 283.057 101.9537 Z M 280.867 97.3717 L 283.461 96.9266 L 283.559 97.4977 L 281.648 99.0261 L 281.652 99.0294 C 281.78 98.9785 281.918 98.9383 282.075 98.9113 L 283.74 98.6257 L 283.814 99.06 L 281.221 99.505 L 281.119 98.9099 L 283.018 97.4084 L 283.013 97.405 C 282.885 97.4559 282.747 97.4962 282.59 97.5231 L 280.942 97.806 L 280.867 97.3717 Z" fill="#FF8158"/>
<path d="M 255.403 105.8586 L 255.785 105.7926 L 255.975 106.8986 L 256.607 106.8686 C 256.503 106.7666 256.438 106.6286 256.408 106.4556 C 256.366 106.2106 256.415 105.9916 256.552 105.7976 C 256.688 105.6006 256.882 105.4806 257.136 105.4366 C 257.381 105.3946 257.605 105.4476 257.813 105.5936 C 258.019 105.7366 258.144 105.9346 258.186 106.1796 C 258.257 106.5896 258.139 106.9166 257.834 107.1636 L 257.539 106.8706 C 257.748 106.7146 257.831 106.5186 257.79 106.2806 C 257.742 106.0036 257.514 105.8316 257.224 105.8816 C 256.935 105.9306 256.762 106.1796 256.816 106.4896 C 256.849 106.6826 256.947 106.8186 257.114 106.9016 L 256.972 107.2326 L 255.652 107.3066 L 255.403 105.8586 Z M 254.729 101.8569 L 257.323 101.4118 L 257.421 101.9828 L 255.51 103.5112 L 255.514 103.5146 C 255.642 103.4637 255.78 103.4234 255.937 103.3965 L 257.602 103.1108 L 257.676 103.5451 L 255.083 103.9902 L 254.981 103.3951 L 256.88 101.8935 L 256.875 101.8902 C 256.747 101.9411 256.609 101.9813 256.452 102.0083 L 254.804 102.2912 L 254.729 101.8569 Z" fill="#FF8158"/>
<path d="M 307.415 97.3559 L 310.009 96.9108 L 310.086 97.3612 L 307.894 97.7373 L 308.012 98.4209 L 307.59 98.3773 L 307.415 97.3559 Z M 307.056 95.5514 C 307.014 95.3101 307.052 95.0966 307.165 94.9076 C 307.277 94.7186 307.424 94.6105 307.613 94.5781 C 307.867 94.5346 308.065 94.6081 308.217 94.7932 C 308.27 94.5481 308.504 94.3424 308.798 94.2921 C 309.019 94.2541 309.223 94.3101 309.406 94.4568 C 309.584 94.6042 309.698 94.8123 309.744 95.0777 C 309.827 95.5602 309.601 95.9094 309.282 96.1008 L 309.022 95.7686 C 309.282 95.6205 309.389 95.4201 309.345 95.1668 C 309.295 94.8732 309.11 94.7145 308.841 94.7607 C 308.588 94.8042 308.48 95.0213 308.52 95.325 L 308.551 95.506 L 308.181 95.5694 C 308.166 95.485 308.155 95.4207 308.144 95.3771 C 308.08 95.1024 307.939 94.9817 307.718 95.0196 C 307.521 95.0534 307.418 95.2491 307.459 95.4904 C 307.501 95.7357 307.689 95.8857 307.923 95.9242 L 307.799 96.3138 C 307.437 96.2558 307.128 95.9696 307.056 95.5514 Z M 306.291 90.7332 L 308.885 90.2881 L 308.983 90.8591 L 307.072 92.3876 L 307.076 92.3909 C 307.204 92.34 307.342 92.2997 307.499 92.2728 L 309.164 91.9872 L 309.238 92.4214 L 306.645 92.8665 L 306.543 92.2714 L 308.442 90.7698 L 308.437 90.7665 C 308.309 90.8174 308.171 90.8577 308.014 90.8846 L 306.366 91.1675 L 306.291 90.7332 Z" fill="#FF8158"/>
<path d="M 333.888 92.813 L 336.482 92.3679 L 336.559 92.8183 L 334.368 93.1944 L 334.485 93.878 L 334.064 93.8344 L 333.888 92.813 Z M 333.43 90.1396 L 333.79 90.0447 L 336.208 90.6522 L 336.295 91.1589 L 333.908 90.517 L 334.113 91.7113 L 333.711 91.7803 L 333.43 90.1396 Z M 332.771 86.2296 L 335.365 85.7845 L 335.463 86.3555 L 333.552 87.884 L 333.556 87.8873 C 333.684 87.8364 333.822 87.7961 333.979 87.7692 L 335.644 87.4835 L 335.718 87.9178 L 333.125 88.3629 L 333.023 87.7678 L 334.922 86.2662 L 334.917 86.2629 C 334.789 86.3138 334.651 86.3541 334.494 86.381 L 332.846 86.6639 L 332.771 86.2296 Z" fill="#FF8158"/>
<path d="M 242.426 108.9176 C 242.384 108.6766 242.422 108.4626 242.535 108.2736 C 242.647 108.0846 242.794 107.9766 242.983 107.9446 C 243.236 107.9006 243.435 107.9746 243.587 108.1596 C 243.64 107.9146 243.874 107.7086 244.168 107.6586 C 244.389 107.6206 244.593 107.6766 244.775 107.8236 C 244.954 107.9706 245.068 108.1786 245.114 108.4446 C 245.197 108.9266 244.971 109.2756 244.652 109.4676 L 244.392 109.1356 C 244.652 108.9866 244.759 108.7866 244.715 108.5336 C 244.665 108.2396 244.48 108.0806 244.211 108.1276 C 243.957 108.1706 243.85 108.3876 243.89 108.6916 L 243.921 108.8726 L 243.551 108.9356 C 243.536 108.8516 243.525 108.7876 243.513 108.7436 C 243.45 108.4686 243.309 108.3486 243.088 108.3866 C 242.891 108.4196 242.788 108.6156 242.829 108.8566 C 242.871 109.1026 243.058 109.2526 243.293 109.2906 L 243.169 109.6806 C 242.807 109.6226 242.497 109.3356 242.426 108.9176 Z M 241.661 104.0996 L 244.255 103.6545 L 244.353 104.2255 L 242.442 105.7536 L 242.446 105.7576 C 242.574 105.7066 242.712 105.6666 242.869 105.6396 L 244.534 105.3536 L 244.608 105.7876 L 242.015 106.2326 L 241.913 105.6376 L 243.812 104.1362 L 243.807 104.1329 C 243.679 104.1838 243.541 104.2241 243.384 104.251 L 241.735 104.5336 L 241.661 104.0996 Z" fill="#FF8158"/>
<path d="M 294.347 99.5986 L 296.941 99.1536 L 297.018 99.6039 L 294.827 99.98 L 294.944 100.6636 L 294.523 100.62 L 294.347 99.5986 Z M 293.968 97.3877 L 296.562 96.9427 L 296.639 97.393 L 294.447 97.7691 L 294.565 98.4527 L 294.143 98.4091 L 293.968 97.3877 Z M 293.223 92.976 L 295.817 92.5309 L 295.915 93.1019 L 294.004 94.6303 L 294.009 94.6337 C 294.136 94.5827 294.274 94.5425 294.431 94.5156 L 296.096 94.2299 L 296.171 94.6642 L 293.577 95.1093 L 293.475 94.5141 L 295.374 93.0126 L 295.369 93.0093 C 295.241 93.0602 295.103 93.1004 294.946 93.1273 L 293.298 93.4103 L 293.223 92.976 Z" fill="#FF8158"/>
<path d="M 268.463 103.5634 L 268.824 103.4685 L 271.242 104.076 L 271.329 104.5826 L 268.942 103.9408 L 269.147 105.1356 L 268.745 105.2046 L 268.463 103.5634 Z M 267.805 99.6533 L 270.399 99.2083 L 270.497 99.7793 L 268.586 101.3077 L 268.59 101.311 C 268.718 101.2601 268.856 101.2199 269.013 101.193 L 270.678 100.9073 L 270.752 101.3416 L 268.159 101.7867 L 268.056 101.1915 L 269.956 99.69 L 269.951 99.6867 C 269.823 99.7376 269.685 99.7778 269.528 99.8047 L 267.879 100.0876 L 267.805 99.6533 Z" fill="#FF8158"/>
<path d="M 320.483 95.1133 L 323.077 94.6682 L 323.154 95.1186 L 320.962 95.4947 L 321.08 96.1783 L 320.658 96.1347 L 320.483 95.1133 Z M 320.033 92.4922 L 320.415 92.4267 L 320.605 93.5325 L 321.237 93.5026 C 321.133 93.4005 321.068 93.2627 321.038 93.0897 C 320.996 92.8444 321.045 92.6249 321.182 92.4317 C 321.318 92.2345 321.512 92.1142 321.766 92.0707 C 322.011 92.0286 322.235 92.0812 322.443 92.2278 C 322.649 92.3703 322.774 92.5683 322.816 92.8136 C 322.887 93.2237 322.769 93.5503 322.464 93.7973 L 322.169 93.5042 C 322.378 93.3483 322.461 93.152 322.42 92.9148 C 322.372 92.6373 322.144 92.4653 321.854 92.515 C 321.565 92.5647 321.392 92.8137 321.446 93.1233 C 321.479 93.3164 321.577 93.4527 321.744 93.5358 L 321.602 93.8665 L 320.282 93.9399 L 320.033 92.4922 Z M 319.359 88.4906 L 321.953 88.0455 L 322.051 88.6165 L 320.14 90.145 L 320.144 90.1483 C 320.272 90.0974 320.41 90.0571 320.567 90.0302 L 322.232 89.7446 L 322.306 90.1789 L 319.713 90.6239 L 319.611 90.0288 L 321.51 88.5272 L 321.505 88.5239 C 321.377 88.5748 321.239 88.6151 321.082 88.642 L 319.433 88.9249 L 319.359 88.4906 Z" fill="#FF8158"/>
<path d="M 346.958 90.5703 L 349.552 90.1253 L 349.629 90.5756 L 347.437 90.9517 L 347.555 91.6353 L 347.133 91.5917 L 346.958 90.5703 Z M 347.357 87.6628 C 347.587 87.6235 347.864 87.6711 348.184 87.8024 L 349.228 88.2361 L 349.322 88.787 L 348.349 88.3288 L 348.346 88.3335 C 348.375 88.3824 348.399 88.4486 348.413 88.5331 C 348.454 88.7703 348.405 88.9939 348.267 89.1998 C 348.128 89.4017 347.934 89.5261 347.684 89.5689 C 347.431 89.6123 347.198 89.5571 346.985 89.4032 C 346.772 89.2453 346.645 89.0352 346.599 88.7658 C 346.552 88.4964 346.603 88.2601 346.753 88.048 C 346.903 87.836 347.104 87.7063 347.357 87.6628 Z M 348.024 88.5296 C 347.998 88.3808 347.928 88.2644 347.812 88.1892 C 347.695 88.1099 347.562 88.0831 347.421 88.1072 C 347.276 88.1321 347.16 88.2017 347.076 88.3155 C 346.992 88.4292 346.961 88.5588 346.986 88.7076 C 347.012 88.8564 347.085 88.9681 347.202 89.0473 C 347.319 89.1266 347.452 89.1535 347.597 89.1286 C 347.886 89.0789 348.074 88.8231 348.024 88.5296 Z M 345.834 83.9477 L 348.428 83.5026 L 348.526 84.0736 L 346.615 85.602 L 346.619 85.6054 C 346.747 85.5544 346.885 85.5142 347.042 85.4873 L 348.707 85.2016 L 348.781 85.6359 L 346.188 86.081 L 346.086 85.4858 L 347.985 83.9843 L 347.98 83.981 C 347.852 84.0319 347.714 84.0721 347.557 84.099 L 345.909 84.3819 L 345.834 83.9477 Z" fill="#FF8158"/>
<path d="M 236.059 110.0146 C 236.016 109.7616 236.052 109.5356 236.172 109.3416 C 236.291 109.1466 236.462 109.0306 236.683 108.9926 C 236.896 108.9556 237.111 109.0016 237.32 109.1316 C 237.458 109.2156 237.584 109.2976 237.694 109.3826 L 238.342 109.8796 L 238.149 108.7536 L 238.551 108.6846 L 238.844 110.3896 L 238.452 110.4696 C 238.026 110.1366 237.726 109.9106 237.557 109.7906 C 237.401 109.6806 237.257 109.5896 237.121 109.5176 C 236.997 109.4476 236.87 109.4286 236.742 109.4546 C 236.545 109.4926 236.417 109.6886 236.464 109.9576 C 236.506 110.2026 236.692 110.3696 236.932 110.3946 L 236.813 110.7876 C 236.439 110.7316 236.131 110.4326 236.059 110.0146 Z M 235.294 105.1926 L 237.888 104.7476 L 237.986 105.3186 L 236.075 106.8466 L 236.079 106.8496 C 236.207 106.7986 236.345 106.7586 236.502 106.7316 L 238.167 106.4466 L 238.241 106.8806 L 235.648 107.3256 L 235.546 106.7306 L 237.445 105.2286 L 237.44 105.2256 C 237.312 105.2766 237.174 105.3166 237.017 105.3436 L 235.369 105.6266 L 235.294 105.1926 Z" fill="#FF8158"/>
<path d="M 287.978 100.691 L 290.572 100.2459 L 290.649 100.6963 L 288.458 101.0723 L 288.575 101.7559 L 288.154 101.7124 L 287.978 100.691 Z M 288.788 97.6426 C 289.194 97.5729 289.536 97.6095 289.812 97.7484 C 290.085 97.8879 290.246 98.1045 290.297 98.4021 C 290.347 98.6956 290.268 98.9576 290.058 99.1799 C 289.844 99.403 289.533 99.5473 289.127 99.617 C 288.721 99.6867 288.38 99.6542 288.108 99.5146 C 287.835 99.3751 287.674 99.1585 287.623 98.8609 C 287.572 98.5634 287.652 98.3054 287.866 98.0824 C 288.076 97.86 288.382 97.7123 288.788 97.6426 Z M 288.025 98.7919 C 288.081 99.1176 288.46 99.2761 289.051 99.1747 C 289.642 99.0733 289.951 98.7968 289.895 98.4711 C 289.838 98.1373 289.459 97.9828 288.864 98.085 C 288.273 98.1864 287.968 98.4582 288.025 98.7919 Z M 286.854 94.0683 L 289.448 93.6232 L 289.546 94.1942 L 287.635 95.7226 L 287.64 95.726 C 287.767 95.6751 287.905 95.6348 288.062 95.6079 L 289.727 95.3222 L 289.802 95.7565 L 287.208 96.2016 L 287.106 95.6065 L 289.005 94.1049 L 289 94.1016 C 288.872 94.1525 288.734 94.1927 288.577 94.2197 L 286.929 94.5026 L 286.854 94.0683 Z" fill="#FF8158"/>
<path d="M 262.156 104.9946 L 263.128 105.4526 L 263.132 105.4476 C 263.103 105.3986 263.079 105.3326 263.064 105.2486 C 263.024 105.0106 263.072 104.7876 263.212 104.5856 C 263.35 104.3796 263.544 104.2552 263.793 104.2124 C 264.047 104.169 264.28 104.2242 264.493 104.3822 C 264.706 104.5356 264.833 104.7456 264.879 105.0156 C 264.925 105.2846 264.875 105.5256 264.726 105.7376 C 264.576 105.9496 264.374 106.0746 264.12 106.1186 C 263.891 106.1576 263.614 106.1106 263.293 105.9786 L 262.25 105.5456 L 262.156 104.9946 Z M 263.454 105.2516 C 263.48 105.4006 263.553 105.5166 263.67 105.5956 C 263.787 105.6706 263.916 105.6986 264.057 105.6736 C 264.201 105.6496 264.318 105.5796 264.402 105.4656 C 264.486 105.3516 264.517 105.2226 264.492 105.0736 C 264.466 104.9246 264.393 104.8136 264.276 104.7336 C 264.159 104.6546 264.026 104.6276 263.881 104.6526 C 263.592 104.7026 263.404 104.9586 263.454 105.2516 Z M 261.432 100.7072 L 264.026 100.2622 L 264.124 100.8332 L 262.213 102.3616 L 262.218 102.3649 C 262.346 102.314 262.484 102.2738 262.64 102.2469 L 264.305 101.9612 L 264.38 102.3955 L 261.786 102.8405 L 261.684 102.2454 L 263.583 100.7439 L 263.578 100.7405 C 263.45 100.7915 263.313 100.8317 263.156 100.8586 L 261.507 101.1415 L 261.432 100.7072 Z" fill="#FF8158"/>
<path d="M 314.117 96.2055 L 316.711 95.7605 L 316.788 96.2108 L 314.597 96.5869 L 314.714 97.2705 L 314.292 97.2269 L 314.117 96.2055 Z M 313.692 93.7997 L 315.248 93.5326 L 315.186 93.1707 L 315.588 93.1017 L 315.65 93.4636 L 316.298 93.3525 L 316.374 93.7949 L 315.726 93.906 L 315.917 95.0158 L 315.507 95.111 L 313.8 94.427 L 313.692 93.7997 Z M 314.138 94.1785 L 315.445 94.6827 L 315.324 93.975 L 314.138 94.1785 Z M 312.993 89.5829 L 315.587 89.1378 L 315.685 89.7088 L 313.774 91.2372 L 313.778 91.2406 C 313.906 91.1896 314.044 91.1494 314.201 91.1225 L 315.866 90.8368 L 315.94 91.2711 L 313.347 91.7162 L 313.245 91.121 L 315.144 89.6195 L 315.139 89.6162 C 315.011 89.6671 314.873 89.7073 314.716 89.7342 L 313.068 90.0172 L 312.993 89.5829 Z" fill="#FF8158"/>
<path d="M 340.591 91.6631 L 343.185 91.218 L 343.262 91.6684 L 341.071 92.0445 L 341.188 92.7281 L 340.766 92.6845 L 340.591 91.6631 Z M 340.789 88.9101 C 340.994 88.8749 341.178 88.9304 341.331 89.0739 C 341.433 88.8038 341.633 88.6411 341.927 88.5908 C 342.172 88.5487 342.384 88.6033 342.571 88.7534 C 342.759 88.9034 342.872 89.1074 342.917 89.3688 C 342.962 89.6302 342.924 89.8644 342.797 90.0683 C 342.671 90.2721 342.489 90.3944 342.243 90.4365 C 341.942 90.4883 341.7 90.4056 341.526 90.1871 C 341.432 90.3646 341.277 90.474 341.064 90.5106 C 340.867 90.5444 340.689 90.4963 340.525 90.3629 C 340.358 90.2302 340.257 90.053 340.219 89.8318 C 340.181 89.6106 340.217 89.4099 340.331 89.2289 C 340.441 89.0486 340.592 88.9439 340.789 88.9101 Z M 340.994 90.0796 C 341.199 90.0444 341.326 89.8694 341.289 89.6483 C 341.252 89.4351 341.073 89.3085 340.868 89.3437 C 340.671 89.3776 340.55 89.5639 340.585 89.769 C 340.62 89.9741 340.797 90.1134 340.994 90.0796 Z M 342.168 89.9942 C 342.292 89.9728 342.393 89.9099 342.466 89.8023 C 342.538 89.6946 342.563 89.5704 342.539 89.4337 C 342.516 89.301 342.453 89.196 342.348 89.1186 C 342.244 89.0413 342.127 89.0117 342.003 89.0331 C 341.745 89.0773 341.575 89.3175 341.622 89.591 C 341.669 89.8644 341.91 90.0383 342.168 89.9942 Z M 339.467 85.0404 L 342.061 84.5953 L 342.159 85.1664 L 340.248 86.6948 L 340.252 86.6981 C 340.38 86.6472 340.518 86.607 340.675 86.58 L 342.34 86.2944 L 342.414 86.7287 L 339.821 87.1737 L 339.719 86.5786 L 341.618 85.0771 L 341.613 85.0737 C 341.485 85.1246 341.347 85.1649 341.19 85.1918 L 339.542 85.4747 L 339.467 85.0404 Z" fill="#FF8158"/>
<path d="M 248.726 107.2236 L 250.283 106.9566 L 250.221 106.5946 L 250.623 106.5256 L 250.685 106.8876 L 251.332 106.7766 L 251.408 107.2186 L 250.761 107.3306 L 250.951 108.4396 L 250.541 108.5356 L 248.834 107.8516 L 248.726 107.2236 Z M 249.172 107.6026 L 250.48 108.1066 L 250.359 107.3996 L 249.172 107.6026 Z M 248.028 103.007 L 250.621 102.562 L 250.719 103.133 L 248.808 104.6616 L 248.813 104.6646 C 248.941 104.6136 249.079 104.5736 249.236 104.5466 L 250.901 104.261 L 250.975 104.6956 L 248.381 105.1406 L 248.279 104.5456 L 250.178 103.0437 L 250.174 103.0403 C 250.046 103.0913 249.908 103.1315 249.751 103.1584 L 248.102 103.4413 L 248.028 103.007 Z" fill="#FF8158"/>
<path d="M 300.714 98.5058 L 303.308 98.0607 L 303.385 98.5111 L 301.193 98.8872 L 301.311 99.5708 L 300.889 99.5272 L 300.714 98.5058 Z M 300.355 96.7053 C 300.312 96.4519 300.348 96.2264 300.467 96.032 C 300.587 95.8376 300.758 95.7214 300.979 95.6834 C 301.192 95.6468 301.407 95.6928 301.615 95.8226 C 301.754 95.9064 301.88 95.9883 301.99 96.073 L 302.638 96.5703 L 302.445 95.4443 L 302.847 95.3753 L 303.139 97.0803 L 302.747 97.16 C 302.322 96.8273 302.022 96.6014 301.853 96.4815 C 301.697 96.3715 301.553 96.2803 301.417 96.2085 C 301.293 96.1387 301.165 96.1192 301.037 96.1453 C 300.841 96.1831 300.713 96.3789 300.759 96.6483 C 300.802 96.8936 300.987 97.0604 301.228 97.0854 L 301.109 97.4784 C 300.735 97.4225 300.427 97.1235 300.355 96.7053 Z M 299.59 91.8831 L 302.184 91.438 L 302.282 92.009 L 300.371 93.5375 L 300.375 93.5408 C 300.503 93.4899 300.641 93.4496 300.798 93.4227 L 302.463 93.1371 L 302.537 93.5713 L 299.944 94.0164 L 299.841 93.4213 L 301.74 91.9197 L 301.736 91.9164 C 301.608 91.9673 301.47 92.0076 301.313 92.0345 L 299.664 92.3174 L 299.59 91.8831 Z" fill="#FF8158"/>
<path d="M 275.823 102.3344 C 276.028 102.2992 276.211 102.3547 276.364 102.4982 C 276.467 102.228 276.667 102.0654 276.96 102.015 C 277.205 101.973 277.418 102.0276 277.605 102.1776 C 277.792 102.3277 277.906 102.5317 277.951 102.7931 C 277.995 103.0544 277.957 103.2887 277.83 103.4926 C 277.704 103.6964 277.522 103.8187 277.277 103.8608 C 276.975 103.9125 276.733 103.8299 276.559 103.6114 C 276.466 103.7889 276.31 103.8983 276.097 103.9349 C 275.9 103.9687 275.722 103.9206 275.559 103.7872 C 275.391 103.6545 275.29 103.4773 275.252 103.2561 C 275.214 103.0349 275.25 102.8342 275.364 102.6532 C 275.474 102.4729 275.626 102.3682 275.823 102.3344 Z M 276.028 103.5039 C 276.233 103.4687 276.36 103.2937 276.322 103.0725 C 276.285 102.8594 276.106 102.7328 275.901 102.768 C 275.704 102.8018 275.583 102.9882 275.618 103.1933 C 275.653 103.3984 275.831 103.5377 276.028 103.5039 Z M 277.201 103.4185 C 277.326 103.3971 277.427 103.3342 277.499 103.2265 C 277.572 103.1189 277.596 102.9947 277.573 102.8579 C 277.55 102.7252 277.486 102.6202 277.382 102.5429 C 277.278 102.4656 277.161 102.436 277.036 102.4574 C 276.779 102.5015 276.609 102.7418 276.656 103.0153 C 276.703 103.2887 276.944 103.4626 277.201 103.4185 Z M 274.5 98.4647 L 277.094 98.0196 L 277.192 98.5906 L 275.281 100.119 L 275.286 100.1224 C 275.414 100.0714 275.552 100.0312 275.709 100.0043 L 277.373 99.7186 L 277.448 100.1529 L 274.854 100.598 L 274.752 100.0028 L 276.651 98.5013 L 276.646 98.498 C 276.519 98.5489 276.381 98.5891 276.224 98.616 L 274.575 98.899 L 274.5 98.4647 Z" fill="#FF8158"/>
<path d="M 327.186 93.9634 L 329.78 93.5183 L 329.857 93.9687 L 327.666 94.3448 L 327.783 95.0284 L 327.361 94.9848 L 327.186 93.9634 Z M 326.785 91.6278 L 327.758 92.086 L 327.761 92.0813 C 327.732 92.0324 327.709 91.9662 327.694 91.8817 C 327.653 91.6445 327.702 91.4209 327.841 91.219 C 327.98 91.0131 328.174 90.8887 328.423 90.8459 C 328.676 90.8024 328.909 90.8577 329.123 91.0156 C 329.335 91.1695 329.462 91.3796 329.509 91.649 C 329.555 91.9184 329.505 92.1588 329.355 92.3708 C 329.205 92.5828 329.003 92.7085 328.75 92.752 C 328.521 92.7913 328.244 92.7437 327.923 92.6124 L 326.88 92.1787 L 326.785 91.6278 Z M 328.084 91.8852 C 328.109 92.034 328.183 92.1497 328.3 92.2289 C 328.417 92.3042 328.545 92.3317 328.686 92.3076 C 328.831 92.2827 328.947 92.2131 329.031 92.0993 C 329.115 91.9856 329.147 91.856 329.121 91.7072 C 329.096 91.5584 329.023 91.4467 328.906 91.3675 C 328.789 91.2882 328.656 91.2613 328.511 91.2862 C 328.221 91.3359 328.033 91.5917 328.084 91.8852 Z M 326.062 87.3407 L 328.656 86.8956 L 328.754 87.4666 L 326.843 88.9951 L 326.847 88.9984 C 326.975 88.9475 327.113 88.9072 327.27 88.8803 L 328.935 88.5947 L 329.009 89.0289 L 326.416 89.474 L 326.314 88.8789 L 328.213 87.3773 L 328.208 87.374 C 328.08 87.4249 327.942 87.4652 327.785 87.4921 L 326.137 87.775 L 326.062 87.3407 Z" fill="#FF8158"/>
<path d="M 352.341 90.0609 C 352.297 89.8075 352.333 89.582 352.453 89.3876 C 352.573 89.1931 352.743 89.077 352.964 89.039 C 353.177 89.0024 353.392 89.0484 353.601 89.1782 C 353.739 89.262 353.865 89.3439 353.975 89.4286 L 354.623 89.9258 L 354.43 88.7999 L 354.832 88.7309 L 355.125 90.4359 L 354.733 90.5156 C 354.307 90.1829 354.008 89.957 353.838 89.837 C 353.683 89.7271 353.539 89.6359 353.402 89.5641 C 353.278 89.4943 353.151 89.4748 353.023 89.5009 C 352.826 89.5387 352.699 89.7345 352.745 90.0039 C 352.787 90.2492 352.973 90.416 353.213 90.441 L 353.094 90.834 C 352.72 90.7781 352.412 90.4791 352.341 90.0609 Z M 353.13 86.6021 C 353.536 86.5324 353.878 86.569 354.154 86.7079 C 354.426 86.8474 354.588 87.064 354.639 87.3616 C 354.689 87.6551 354.61 87.9171 354.4 88.1395 C 354.185 88.3625 353.875 88.5069 353.469 88.5766 C 353.062 88.6462 352.722 88.6137 352.449 88.4741 C 352.177 88.3346 352.016 88.118 351.964 87.8204 C 351.913 87.5229 351.993 87.2649 352.208 87.0419 C 352.418 86.8195 352.724 86.6718 353.13 86.6021 Z M 352.367 87.7514 C 352.423 88.0772 352.802 88.2357 353.393 88.1342 C 353.984 88.0328 354.292 87.7563 354.236 87.4306 C 354.179 87.0968 353.801 86.9423 353.206 87.0445 C 352.615 87.1459 352.309 87.4177 352.367 87.7514 Z M 351.196 83.0278 L 353.79 82.5827 L 353.888 83.1537 L 351.977 84.6822 L 351.981 84.6855 C 352.109 84.6346 352.247 84.5943 352.404 84.5674 L 354.069 84.2817 L 354.143 84.716 L 351.55 85.1611 L 351.447 84.566 L 353.347 83.0644 L 353.342 83.0611 C 353.214 83.112 353.076 83.1523 352.919 83.1792 L 351.27 83.4621 L 351.196 83.0278 Z" fill="#FF8158"/>
<path d="M 233.661 91.9623 L 280.991 83.9724 C 285.348 83.2369 288.284 79.109 287.548 74.7523 L 285.551 62.9198 C 284.815 58.5627 280.687 55.6277 276.331 56.3627 L 229 64.353 C 224.644 65.0884 221.708 69.2164 222.444 73.573 L 224.441 85.4056 C 225.176 89.7623 229.304 92.6978 233.661 91.9623 Z" fill="white" stroke="#E8EAEF"/>
<path d="M 249.603 82.7502 C 248.761 82.8993 248 82.8232 247.319 82.5221 C 246.641 82.2204 246.068 81.7093 245.601 80.9888 C 245.137 80.2678 244.808 79.3591 244.613 78.2627 C 244.415 77.1701 244.408 76.2098 244.591 75.3816 C 244.778 74.5529 245.137 73.8834 245.668 73.373 C 246.201 72.8588 246.887 72.5258 247.725 72.3741 C 248.563 72.2224 249.321 72.2941 249.997 72.5893 C 250.677 72.8839 251.25 73.3865 251.715 74.0972 C 252.18 74.8046 252.51 75.7049 252.704 76.798 C 252.903 77.8971 252.91 78.8659 252.725 79.7044 C 252.543 80.5423 252.188 81.2214 251.659 81.7415 C 251.13 82.2617 250.445 82.5979 249.603 82.7502 Z M 249.285 80.994 C 249.859 80.8901 250.265 80.5185 250.503 79.8792 C 250.741 79.24 250.754 78.3434 250.542 77.1894 C 250.404 76.4295 250.211 75.811 249.963 75.3338 C 249.719 74.856 249.431 74.5156 249.102 74.3126 C 248.775 74.109 248.421 74.0417 248.039 74.1108 C 247.469 74.2141 247.064 74.5821 246.825 75.2148 C 246.585 75.8476 246.567 76.7333 246.77 77.8722 C 246.909 78.6419 247.102 79.2705 247.349 79.758 C 247.598 80.2417 247.888 80.5867 248.218 80.793 C 248.548 80.996 248.904 81.063 249.285 80.994 Z M 264.933 69.4007 L 266.747 79.4197 L 264.917 79.7509 L 259.417 74.234 L 259.344 74.2472 L 260.485 80.5531 L 258.367 80.9366 L 256.553 70.9176 L 258.412 70.5811 L 263.877 76.0993 L 263.965 76.0833 L 262.825 69.7823 L 264.933 69.4007 Z" fill="#171923"/>
<defs>
<linearGradient id="paint0_linear_2095_869" x1="631.25" y1="56.7734" x2="791.25" y2="196.773" gradientUnits="userSpaceOnUse">
<stop stop-color="#6B737D"/>
<stop offset="1" stop-color="#4F575F"/>
</linearGradient>
<linearGradient id="paint1_linear_2095_869" x1="11.25" y1="16.7734" x2="711.25" y2="156.773" gradientUnits="userSpaceOnUse">
<stop stop-color="#C8CDD4"/>
<stop offset="0.45" stop-color="#A8B0BA"/>
<stop offset="1" stop-color="#8E96A1"/>
</linearGradient>
<linearGradient id="paint2_linear_2095_869" x1="-8.75" y1="156.773" x2="631.25" y2="216.773" gradientUnits="userSpaceOnUse">
<stop stop-color="#7A828C"/>
<stop offset="1" stop-color="#5E666F"/>
</linearGradient>
<linearGradient id="paint3_linear_2095_869" x1="-8.75001" y1="156.773" x2="631.25" y2="216.773" gradientUnits="userSpaceOnUse">
<stop stop-color="#7A828C"/>
<stop offset="1" stop-color="#5E666F"/>
</linearGradient>
</defs>
</svg>