<svg width="941" height="256" viewBox="0 0 941 256" fill="none" xmlns="http://www.w3.org/2000/svg">
<path d="M28.69460000000001 184.937C30.0676 196.08550000000002 41.1386 200.7396 41.1386 200.7396L200.205 173.09050000000002C200.205 173.09050000000002 209.49299999999997 167.35660000000001 206.14199999999997 154.1329C202.79099999999997 140.9092 195.85600000000002 138.305 195.85600000000002 138.305L32.9983 165.9149C32.9983 165.9149 27.32159999999999 173.78860000000003 28.69460000000001 184.937Z" fill="white"/>
<path d="M198.886 137.8628C201.167 137.4712 204.314 144.7049 205.91300000000004 154.02030000000002C207.51199999999997 163.3351 206.958 171.20460000000003 204.67599999999996 171.5963C202.39400000000003 171.988 199.24699999999999 164.7537 197.648 155.4389C196.049 146.12350000000004 196.604 138.2546 198.886 137.8628Z" stroke="#9C9B9B" stroke-width="3.59788" stroke-linecap="round" stroke-linejoin="round"/>
<path d="M198.237 141.791C200.02199999999996 141.48450000000003 202.48500000000004 147.14480000000003 203.73600000000002 154.4343C204.987 161.7231 204.554 167.8811 202.768 168.18760000000003C200.982 168.49420000000003 198.52 162.83320000000003 197.26900000000003 155.54430000000002C196.018 148.25490000000002 196.451 142.0976 198.237 141.791Z" fill="#EF3A50"/>
<path d="M198.83 155.54290000000003L341.81899999999996 130.9985" stroke="#565655" stroke-width="2.39859" stroke-linecap="round" stroke-linejoin="round"/>
<path d="M342.331 130.9096C342.7629999999999 133.42430000000002 345.15099999999995 135.11350000000002 347.66599999999994 134.6818C350.17999999999995 134.2502 351.869 131.86130000000003 351.437 129.34660000000002C351.006 126.83180000000002 348.61699999999996 125.144 346.10299999999995 125.57560000000001" stroke="#565655" stroke-width="2.39859" stroke-linecap="round" stroke-linejoin="round"/>
<path d="M200.345 154.0666C200.472 154.0448 200.718 154.4808 200.84100000000004 155.19650000000001C200.977 155.9873 200.87799999999996 156.4058 200.751 156.4276C200.624 156.44940000000003 200.429 155.9389 200.31700000000004 155.28640000000001C200.206 154.63510000000002 200.218 154.08840000000004 200.345 154.0666Z" fill="#565655"/>
<path d="M198.237 141.7908C200.023 141.4844 202.48500000000004 147.1445 203.737 154.43400000000003C204.98799999999997 161.7229 204.554 167.88100000000003 202.768 168.18740000000003" fill="#EF3A50"/>
<path d="M198.38199999999998 142.63710000000003C200.16800000000003 142.3306 202.566 147.61200000000002 203.737 154.43330000000003C204.908 161.2547 204.408 167.0328 202.62299999999996 167.33930000000004" stroke="#813A50" stroke-width="1.79894" stroke-miterlimit="10" stroke-linecap="round"/>
<path d="M198.88500000000002 137.86270000000002C201.167 137.4711 204.31300000000002 144.70480000000003 205.912 154.0202C207.511 163.33500000000004 206.95700000000002 171.2045 204.67499999999998 171.59610000000004" stroke="#1D1D1B" stroke-width="3.59788" stroke-linecap="round" stroke-linejoin="round"/>
<path d="M30.189999999999998 166.8202L197.545 138.09340000000003" stroke="#1D1D1B" stroke-width="3.59788" stroke-linecap="round" stroke-linejoin="round"/>
<path d="M12.863799999999998 186.2314L27.943299999999994 183.64300000000003" stroke="black" stroke-width="0.68"/>
<path d="M8.968170000000015 192.2434C11.876499999999993 191.7442 13.82990000000001 188.9819 13.330600000000004 186.073C12.831400000000002 183.1646 10.0685 181.2113 7.16019 181.71050000000002C4.25184999999999 182.20980000000003 2.298509999999993 184.9726 2.7977300000000014 187.8809C3.297050000000013 190.78990000000002 6.059830000000005 192.7426 8.968170000000015 192.2434Z" stroke="#F19100" stroke-width="1.79894" stroke-miterlimit="10" stroke-linecap="round"/>
<path d="M73.04650000000001 190.666C76.80429999999998 190.0209 72.2048 163.21620000000001 75.9656 162.5707C79.72200000000001 161.9259 84.32300000000001 188.7303 88.0839 188.08480000000003C91.8432 187.4395 87.2422 160.635 91 159.99C94.7594 159.3447 99.3604 186.14910000000003 103.118 185.5041C106.87800000000001 184.85880000000003 102.27700000000002 158.05440000000002 106.03599999999997 157.40910000000002C109.79400000000001 156.764 114.39500000000001 183.5684 118.15299999999999 182.92340000000002C121.91400000000002 182.2778 117.314 155.47320000000002 121.07500000000002 154.82760000000002C124.833 154.18260000000004 129.434 180.98700000000002 133.193 180.3417C136.95200000000003 179.6964 132.35100000000003 152.892 136.109 152.2469C139.87000000000003 151.6014 144.47100000000003 178.4058 148.23 177.7605C151.991 177.1149 147.39000000000001 150.3105 151.148 149.6655C154.908 149.0202 159.509 175.82460000000003 163.26900000000003 175.17900000000003C167.02900000000002 174.5337 162.42800000000003 147.72930000000002 166.189 147.0838C169.94899999999998 146.4382 174.54999999999998 173.2426 178.311 172.5971C182.07200000000003 171.9515 177.47100000000003 145.14710000000002 181.232 144.5016" stroke="#858585" stroke-width="2.39859" stroke-linecap="round" stroke-linejoin="round"/>
<path d="M178.31200000000004 172.59660000000002C182.073 171.9511 177.47299999999998 145.14640000000003 181.234 144.50080000000003C182.888 144.217 184.67999999999998 149.241 186.537 154.89440000000002C187.396 157.50670000000002 189.97 157.0648 197.95200000000003 155.69480000000001" stroke="#565655" stroke-width="2.39859" stroke-linecap="round" stroke-linejoin="round"/>
<path d="M163.27 175.17860000000002C167.03099999999998 174.5331 162.42999999999998 147.7287 166.189 147.0834" stroke="#565655" stroke-width="2.39859" stroke-linecap="round" stroke-linejoin="round"/>
<path d="M42.971300000000014 195.8281C46.72999999999999 195.18290000000002 42.12899999999999 168.37850000000003 45.889700000000005 167.73290000000003C49.64840000000001 167.0877 54.24949999999998 193.89210000000003 58.008200000000016 193.2469C61.76769999999999 192.60160000000002 57.16669999999999 165.79720000000003 60.926000000000016 165.1519C64.68539999999999 164.5066 69.28790000000001 191.31080000000003 73.0487 190.66520000000003C76.8066 190.02020000000002 72.2056 163.2158 75.9664 162.5702C79.72569999999999 161.92490000000004 84.32680000000002 188.72930000000002 88.0846 188.0843C91.84549999999999 187.4387 87.24440000000001 160.6343 91.0053 159.98880000000003C94.7646 159.3435 99.3657 186.1479 103.126 185.5023C106.88699999999997 184.85680000000002 102.286 158.0523 106.047 157.40680000000003" stroke="#858585" stroke-width="2.39859" stroke-linecap="round" stroke-linejoin="round"/>
<path d="M148.23100000000002 177.7602C151.992 177.1146 147.391 150.3102 151.14900000000003 149.66520000000003" stroke="#565655" stroke-width="2.39859" stroke-linecap="round" stroke-linejoin="round"/>
<path d="M133.19499999999996 180.34120000000001C136.95399999999998 179.6959 132.35299999999998 152.8915 136.11299999999997 152.2462" stroke="#565655" stroke-width="2.39859" stroke-linecap="round" stroke-linejoin="round"/>
<path d="M118.15700000000001 182.9228C121.91800000000003 182.2772 117.31699999999998 155.4728 121.076 154.82750000000001" stroke="#565655" stroke-width="2.39859" stroke-linecap="round" stroke-linejoin="round"/>
<path d="M103.12100000000001 185.5038C106.87899999999999 184.85880000000003 102.27799999999999 158.05440000000002 106.037 157.40910000000002" stroke="#565655" stroke-width="2.39859" stroke-linecap="round" stroke-linejoin="round"/>
<path d="M88.08450000000002 188.08440000000002C91.84389999999999 187.4391 87.24289999999999 160.6347 91.00219999999999 159.9894" stroke="#565655" stroke-width="2.39859" stroke-linecap="round" stroke-linejoin="round"/>
<path d="M73.04650000000001 190.666C76.8073 190.0204 72.2063 163.216 75.9656 162.5707" stroke="#565655" stroke-width="2.39859" stroke-linecap="round" stroke-linejoin="round"/>
<path d="M58.00739999999999 193.247C61.766699999999986 192.6017 57.16569999999999 165.7973 60.926500000000004 165.1517" stroke="#565655" stroke-width="2.39859" stroke-linecap="round" stroke-linejoin="round"/>
<path d="M45.88980000000001 167.73250000000002C42.129099999999994 168.37800000000001 46.73009999999999 195.18240000000003 42.97139999999999 195.82760000000002C38.72919999999999 196.55580000000003 30.119200000000006 188.2735 29.446200000000005 184.35270000000003" stroke="#565655" stroke-width="2.39859" stroke-linecap="round" stroke-linejoin="round"/>
<path d="M35.980500000000006 200.5523C33.69809999999998 200.9441 30.551999999999992 193.7104 28.953100000000006 184.3956C27.35409999999999 175.0802 27.90780000000001 167.2113 30.190200000000004 166.8195" stroke="#1D1D1B" stroke-width="3.59788" stroke-linecap="round" stroke-linejoin="round"/>
<path d="M138.27900000000002 169.04470000000003C139.227 176.8334 138.556 182.93970000000002 136.552 183.2836" stroke="#FF8158" stroke-width="1.1993" stroke-linecap="round" stroke-linejoin="round"/>
<path d="M131.49299999999997 170.288C132.427 178.0401 131.754 184.1073 129.756 184.45010000000002" stroke="#FF8158" stroke-width="1.1993" stroke-linecap="round" stroke-linejoin="round"/>
<path d="M125.167 171.37400000000002C126.10100000000003 179.1261 125.42699999999999 185.19330000000002 123.42999999999998 185.53610000000003" stroke="#FF8158" stroke-width="1.1993" stroke-linecap="round" stroke-linejoin="round"/>
<path d="M118.37199999999999 172.5405C119.30600000000001 180.2926 118.63300000000001 186.35970000000003 116.63500000000002 186.70260000000002" stroke="#FF8158" stroke-width="1.1993" stroke-linecap="round" stroke-linejoin="round"/>
<path d="M112.03599999999997 173.5491C112.98400000000001 181.33780000000002 112.31300000000002 187.4441 110.309 187.788" stroke="#FF8158" stroke-width="1.1993" stroke-linecap="round" stroke-linejoin="round"/>
<path d="M105.251 174.79240000000001C106.18499999999997 182.5446 105.511 188.61180000000002 103.51399999999998 188.9545" stroke="#FF8158" stroke-width="1.1993" stroke-linecap="round" stroke-linejoin="round"/>
<path d="M98.9257 175.88370000000003C99.8597 183.6359 99.1859 189.7031 97.189 190.0458" stroke="#FF8158" stroke-width="1.1993" stroke-linecap="round" stroke-linejoin="round"/>
<path d="M92.1601 177.22160000000002C93.094 184.9738 92.4203 191.041 90.42339999999999 191.38370000000003" stroke="#FF8158" stroke-width="1.1993" stroke-linecap="round" stroke-linejoin="round"/>
<path d="M85.80359999999999 178.13080000000002C86.73760000000001 185.8829 86.0642 191.95010000000002 84.06699999999998 192.29290000000003" stroke="#FF8158" stroke-width="1.1993" stroke-linecap="round" stroke-linejoin="round"/>
<path d="M79.47749999999999 179.2167C80.4117 186.96880000000002 79.738 193.036 77.74080000000001 193.3788" stroke="#FF8158" stroke-width="1.1993" stroke-linecap="round" stroke-linejoin="round"/>
<path d="M73.1112 180.3095C74.0455 188.0616 73.37179999999998 194.1288 71.37460000000002 194.47160000000002" stroke="#FF8158" stroke-width="1.1993" stroke-linecap="round" stroke-linejoin="round"/>
<path d="M203.28800000000004 157.88600000000002C204.23600000000002 165.67470000000003 203.56499999999997 171.781 201.561 172.12490000000003" stroke="#FF8158" stroke-width="1.1993" stroke-linecap="round" stroke-linejoin="round"/>
<path d="M196.50299999999996 159.1293C197.43700000000004 166.8814 196.763 172.9486 194.766 173.2914" stroke="#FF8158" stroke-width="1.1993" stroke-linecap="round" stroke-linejoin="round"/>
<path d="M190.177 160.21480000000003C191.11100000000002 167.9669 190.43700000000004 174.03410000000002 188.43999999999997 174.37690000000003" stroke="#FF8158" stroke-width="1.1993" stroke-linecap="round" stroke-linejoin="round"/>
<path d="M183.38199999999998 161.3813C184.316 169.1334 183.64199999999997 175.2006 181.645 175.54340000000002" stroke="#FF8158" stroke-width="1.1993" stroke-linecap="round" stroke-linejoin="round"/>
<path d="M177.04599999999996 162.3904C177.994 170.1791 177.32200000000003 176.2854 175.319 176.6293" stroke="#FF8158" stroke-width="1.1993" stroke-linecap="round" stroke-linejoin="round"/>
<path d="M170.261 163.63370000000003C171.19499999999996 171.3859 170.521 177.4531 168.52400000000003 177.7958" stroke="#FF8158" stroke-width="1.1993" stroke-linecap="round" stroke-linejoin="round"/>
<path d="M163.93499999999997 164.72450000000003C164.869 172.4767 164.196 178.5439 162.19899999999998 178.88670000000002" stroke="#FF8158" stroke-width="1.1993" stroke-linecap="round" stroke-linejoin="round"/>
<path d="M157.17 166.06240000000003C158.104 173.8146 157.42999999999998 179.8818 155.43300000000002 180.2245" stroke="#FF8158" stroke-width="1.1993" stroke-linecap="round" stroke-linejoin="round"/>
<path d="M150.81300000000002 166.97160000000002C151.74699999999999 174.7238 151.07399999999998 180.79090000000002 149.07700000000003 181.13370000000003" stroke="#FF8158" stroke-width="1.1993" stroke-linecap="round" stroke-linejoin="round"/>
<path d="M144.487 168.05760000000004C145.422 175.80960000000002 144.74799999999996 181.8768 142.751 182.21970000000002" stroke="#FF8158" stroke-width="1.1993" stroke-linecap="round" stroke-linejoin="round"/>
<path d="M35.97999999999999 200.5532L205.011 171.5387" stroke="#1D1D1B" stroke-width="3.59788" stroke-linecap="round" stroke-linejoin="round"/>
<path d="M77.14090000000002 172.29470000000003L79.7345 171.84950000000003L79.8118 172.2998L77.62030000000001 172.676L77.73760000000001 173.3596L77.31620000000001 173.3161L77.14090000000002 172.29470000000003ZM76.39599999999999 167.8829L78.9897 167.4377L79.08770000000001 168.00870000000003L77.17670000000001 169.5372L77.1814 169.5406C77.30929999999998 169.4896 77.44730000000001 169.44940000000003 77.60409999999999 169.4225L79.2689 169.13670000000002L79.3434 169.57100000000003L76.7498 170.01620000000003L76.64759999999998 169.42110000000002L78.54659999999998 167.9194L78.5419 167.91610000000003C78.41400000000002 167.967 78.27610000000001 168.00730000000001 78.1192 168.0342L76.47049999999999 168.3172L76.39599999999999 167.8829Z" fill="#FF8158"/>
<path d="M71.6285 172.60790000000003C72.03470000000002 172.53820000000002 72.37629999999999 172.5748 72.6526 172.7136C72.92490000000001 172.8531 73.0863 173.0697 73.13739999999999 173.3673C73.18780000000001 173.6608 73.10850000000002 173.9228 72.8983 174.1451C72.6841 174.3682 72.37359999999998 174.51260000000002 71.9674 174.58230000000003C71.56129999999999 174.65200000000002 71.22040000000001 174.61950000000002 70.94809999999998 174.47990000000001C70.6757 174.3404 70.5144 174.12380000000002 70.4633 173.8263C70.41220000000001 173.52870000000001 70.4921 173.27070000000003 70.7063 173.04770000000002C70.91659999999999 172.82530000000003 71.2224 172.6776 71.6285 172.60790000000003ZM70.8654 173.7572C70.9213 174.08300000000003 71.3004 174.2414 71.89149999999998 174.14000000000001C72.48260000000002 174.0385 72.7912 173.762 72.7353 173.43630000000002C72.678 173.10250000000002 72.2996 172.9481 71.70439999999999 173.05020000000002C71.11330000000001 173.1517 70.8081 173.4235 70.8654 173.7572ZM69.6944 169.03360000000004L72.28810000000001 168.58840000000004L72.3861 169.1594L70.4752 170.6879L70.47990000000001 170.6913C70.6077 170.64030000000002 70.7457 170.6001 70.9025 170.5732L72.56730000000002 170.2874L72.64189999999999 170.7217L70.04819999999998 171.1669L69.946 170.5718L71.8451 169.07010000000002L71.84029999999998 169.0668C71.7125 169.1177 71.5745 169.15800000000002 71.4177 169.18490000000003L69.769 169.46790000000001L69.6944 169.03360000000004Z" fill="#FF8158"/>
<path d="M129.86000000000004 162.68240000000003C130.08899999999997 162.6431 130.366 162.6907 130.68700000000004 162.82190000000003L131.73 163.25560000000002L131.82499999999996 163.80650000000003L130.852 163.34840000000003L130.84799999999998 163.3531C130.87799999999996 163.4019 130.90099999999998 163.46820000000002 130.91599999999997 163.5526C130.95700000000002 163.7899 130.908 164.01350000000002 130.76900000000003 164.2194C130.631 164.42130000000003 130.436 164.5457 130.18700000000004 164.58840000000004C129.934 164.63190000000003 129.701 164.57670000000002 129.48799999999997 164.4228C129.275 164.2649 129.14699999999996 164.05490000000003 129.10100000000003 163.7855C129.05499999999998 163.51600000000002 129.105 163.2797 129.25500000000002 163.0677C129.405 162.8556 129.607 162.72590000000002 129.86000000000004 162.68240000000003ZM130.52599999999998 163.5491C130.501 163.4004 130.431 163.284 130.31499999999997 163.2088C130.19700000000003 163.1295 130.064 163.1026 129.924 163.1268C129.77900000000002 163.1517 129.66300000000004 163.2213 129.57899999999998 163.3351C129.49500000000003 163.4488 129.463 163.5784 129.489 163.7272C129.51400000000004 163.87600000000003 129.58700000000002 163.98770000000002 129.70399999999998 164.06690000000003C129.821 164.14620000000002 129.95399999999998 164.173 130.09899999999996 164.14820000000003C130.38900000000004 164.0985 130.576 163.84270000000004 130.52599999999998 163.5491ZM128.33600000000004 158.96730000000002L130.92999999999998 158.52210000000002L131.028 159.0931L129.117 160.6216L129.12199999999999 160.625C129.251 160.574 129.388 160.5338 129.544 160.50690000000003L131.20899999999997 160.22110000000004L131.28400000000002 160.65540000000001L128.68999999999997 161.10060000000001L128.588 160.5055L130.487 159.0038L130.482 159.0005C130.354 159.0514 130.21600000000004 159.0917 130.059 159.11860000000001L128.41099999999997 159.40160000000003L128.33600000000004 158.96730000000002Z" fill="#FF8158"/>
<path d="M102.874 167.45550000000003L103.256 167.39000000000001L103.445 168.49580000000003L104.078 168.46590000000003C103.97299999999998 168.36380000000003 103.90799999999999 168.22590000000002 103.87899999999999 168.053C103.83599999999998 167.8077 103.886 167.5881 104.02200000000002 167.395C104.15799999999999 167.19780000000003 104.35299999999998 167.0774 104.60600000000002 167.034C104.85100000000003 166.99190000000002 105.076 167.0444 105.28299999999999 167.19100000000003C105.48999999999998 167.33350000000002 105.61499999999998 167.5315 105.65700000000001 167.77680000000004C105.727 168.18690000000004 105.60900000000001 168.51350000000002 105.304 168.76050000000004L105.00899999999999 168.4674C105.21899999999997 168.31150000000002 105.30100000000002 168.11520000000002 105.26000000000002 167.8779C105.213 167.6005 104.98400000000001 167.4285 104.69499999999996 167.47820000000002C104.405 167.5279 104.23299999999998 167.77700000000002 104.28599999999997 168.08660000000003C104.31899999999999 168.27960000000002 104.417 168.416 104.58399999999997 168.49900000000002L104.44199999999998 168.8297L103.12199999999999 168.90320000000003L102.874 167.45550000000003ZM102.19899999999998 163.45390000000003L104.79300000000003 163.00870000000003L104.89099999999999 163.5797L102.97999999999999 165.1083L102.98499999999999 165.1116C103.112 165.0607 103.25 165.0204 103.40700000000001 164.9935L105.07200000000003 164.7077L105.14700000000002 165.142L102.553 165.5872L102.451 164.9921L104.35 163.4905L104.345 163.4871C104.21700000000001 163.538 104.07899999999998 163.5783 103.922 163.60520000000002L102.274 163.8882L102.19899999999998 163.45390000000003Z" fill="#FF8158"/>
<path d="M154.884 158.95L157.47799999999998 158.5048L157.55499999999998 158.95510000000002L155.364 159.3313L155.48100000000002 160.0149L155.05999999999997 159.9713L154.884 158.95ZM154.525 157.14550000000003C154.484 156.9042 154.521 156.6907 154.634 156.50170000000003C154.746 156.31260000000003 154.893 156.20460000000003 155.08200000000002 156.17220000000003C155.33600000000004 156.1287 155.535 156.2022 155.686 156.3872C155.74000000000004 156.1422 155.97299999999998 155.9364 156.26699999999997 155.8861C156.48799999999997 155.8481 156.69200000000004 155.90410000000003 156.87500000000003 156.0508C157.05300000000003 156.1982 157.16800000000003 156.4062 157.213 156.6716C157.29599999999996 157.1542 157.06999999999996 157.5034 156.751 157.69480000000001L156.491 157.36260000000001C156.75199999999998 157.21450000000002 156.85799999999998 157.0141 156.814 156.76080000000002C156.76400000000004 156.4672 156.58 156.3085 156.30999999999997 156.35470000000004C156.057 156.39820000000003 155.94899999999998 156.61540000000002 155.989 156.919L156.02 157.10000000000002L155.65 157.1635C155.63500000000002 157.079 155.624 157.0147 155.61299999999997 156.9712C155.549 156.69650000000001 155.408 156.5757 155.18700000000004 156.6137C154.99000000000004 156.64750000000004 154.88699999999997 156.84320000000002 154.929 157.0845C154.97100000000003 157.32980000000003 155.158 157.4798 155.39199999999997 157.51820000000004L155.26900000000003 157.9079C154.907 157.8499 154.597 157.5637 154.525 157.14550000000003ZM153.76000000000002 152.32730000000004L156.354 151.88210000000004L156.45200000000003 152.4531L154.54099999999997 153.9817L154.54599999999996 153.985C154.67300000000003 153.9341 154.811 153.8938 154.968 153.86690000000002L156.633 153.5811L156.708 154.0154L154.114 154.4606L154.01199999999997 153.8655L155.91099999999997 152.3639L155.90599999999998 152.3605C155.778 152.4115 155.64000000000001 152.45170000000002 155.48299999999998 152.47860000000003L153.835 152.76160000000002L153.76000000000002 152.32730000000004Z" fill="#FF8158"/>
<path d="M181.35799999999998 154.406L183.951 153.9608L184.02900000000002 154.4112L181.83700000000002 154.78730000000002L181.95399999999998 155.47090000000003L181.533 155.42740000000003L181.35799999999998 154.406ZM180.89900000000003 151.73270000000002L181.259 151.6377L183.67800000000003 152.24510000000004L183.76400000000004 152.7518L181.37799999999996 152.11L181.583 153.3043L181.17999999999998 153.37330000000003L180.89900000000003 151.73270000000002ZM180.24000000000004 147.82260000000002L182.83399999999997 147.37740000000002L182.932 147.9484L181.021 149.47700000000003L181.025 149.4803C181.153 149.42940000000002 181.29099999999997 149.3891 181.448 149.36220000000003L183.11299999999997 149.0765L183.18700000000004 149.5107L180.59399999999997 149.95600000000002L180.492 149.3608L182.391 147.85920000000002L182.386 147.8558C182.258 147.90680000000003 182.12000000000003 147.947 181.963 147.97390000000001L180.31499999999997 148.25690000000003L180.24000000000004 147.82260000000002Z" fill="#FF8158"/>
<path d="M89.89509999999999 170.5156C89.8536 170.2743 89.89149999999998 170.06080000000003 90.00399999999999 169.8718C90.1164 169.68280000000001 90.26340000000002 169.5747 90.45239999999998 169.5423C90.70579999999998 169.49880000000002 90.90470000000002 169.5723 91.0565 169.75740000000002C91.1096 169.5123 91.3434 169.30650000000003 91.6369 169.2561C91.85810000000001 169.21820000000002 92.0623 169.2742 92.2448 169.42090000000002C92.42319999999998 169.56830000000002 92.5376 169.7763 92.5832 170.0417C92.666 170.5243 92.44030000000001 170.87350000000004 92.12129999999999 171.06490000000002L91.8614 170.7328C92.1216 170.58460000000002 92.22799999999998 170.38420000000002 92.18449999999999 170.1309C92.13410000000002 169.83730000000003 91.9495 169.67860000000002 91.68010000000001 169.72480000000002C91.42679999999999 169.7683 91.3192 169.9855 91.3589 170.28910000000002L91.39000000000001 170.4701L91.02000000000001 170.53360000000004C91.00550000000001 170.44920000000002 90.99449999999999 170.3848 90.9829 170.3413C90.91909999999999 170.0666 90.7784 169.94580000000002 90.5572 169.98380000000003C90.36019999999999 170.01760000000002 90.25710000000001 170.2133 90.2986 170.45460000000003C90.3407 170.6999 90.52790000000002 170.8499 90.7621 170.88830000000002L90.6386 171.27800000000002C90.27680000000001 171.22000000000003 89.9668 170.93380000000002 89.89509999999999 170.5156ZM89.1301 165.69740000000002L91.72380000000001 165.25220000000002L91.8218 165.8232L89.9108 167.3517L89.91560000000001 167.3551C90.04339999999999 167.3042 90.1814 167.26390000000004 90.3382 167.23700000000002L92.00300000000001 166.95120000000003L92.07750000000001 167.38550000000004L89.4839 167.83070000000004L89.3817 167.23560000000003L91.2807 165.734L91.27599999999998 165.7306C91.1481 165.7815 91.0102 165.8218 90.85330000000002 165.8487L89.2046 166.13170000000002L89.1301 165.69740000000002Z" fill="#FF8158"/>
<path d="M141.816 161.19310000000002L144.40900000000002 160.74790000000002L144.487 161.19830000000002L142.295 161.5745L142.412 162.2581L141.991 162.21450000000002L141.816 161.19310000000002ZM141.436 158.98220000000003L144.03 158.53700000000003L144.107 158.98740000000004L141.91599999999997 159.36360000000002L142.033 160.04720000000003L141.61100000000002 160.0036L141.436 158.98220000000003ZM140.691 154.5705L143.285 154.1253L143.383 154.6963L141.472 156.22480000000002L141.477 156.2281C141.605 156.17720000000003 141.74299999999997 156.137 141.89900000000003 156.1101L143.564 155.8243L143.63900000000004 156.2586L141.045 156.7038L140.943 156.10860000000002L142.842 154.60700000000003L142.83700000000002 154.6037C142.70899999999997 154.65460000000002 142.571 154.69490000000002 142.415 154.72180000000003L140.766 155.0048L140.691 154.5705Z" fill="#FF8158"/>
<path d="M115.934 165.1601L116.29400000000001 165.06510000000003L118.713 165.6725L118.799 166.1791L116.41299999999998 165.5374L116.61799999999997 166.7317L116.215 166.8007L115.934 165.1601ZM115.275 161.25L117.869 160.8048L117.96700000000001 161.37580000000003L116.05600000000001 162.90430000000003L116.05999999999997 162.90770000000003C116.18800000000002 162.8567 116.326 162.81650000000002 116.48299999999998 162.7896L118.148 162.5038L118.22200000000001 162.93810000000002L115.62899999999999 163.38330000000002L115.52700000000002 162.78820000000002L117.42600000000002 161.2865L117.42100000000002 161.28320000000002C117.29300000000003 161.33410000000003 117.155 161.37440000000004 116.99800000000002 161.4013L115.35 161.6843L115.275 161.25Z" fill="#FF8158"/>
<path d="M167.953 156.70680000000002L170.547 156.26160000000002L170.624 156.7119L168.43300000000002 157.0881L168.54999999999998 157.7717L168.129 157.72820000000002L167.953 156.70680000000002ZM167.50299999999996 154.08570000000003L167.88500000000002 154.0202L168.07499999999996 155.12600000000003L168.708 155.09610000000004C168.60299999999998 154.99400000000003 168.53800000000004 154.85610000000003 168.508 154.6832C168.46600000000004 154.4379 168.516 154.2183 168.65199999999996 154.0252C168.78800000000004 153.82800000000003 168.98299999999998 153.7076 169.23600000000002 153.6642C169.48100000000002 153.622 169.706 153.6746 169.91300000000004 153.82120000000003C170.119 153.96370000000002 170.24500000000003 154.1617 170.287 154.407C170.357 154.8171 170.239 155.14370000000002 169.934 155.3906L169.63900000000004 155.0976C169.84899999999996 154.94170000000003 169.931 154.74540000000002 169.89000000000001 154.5081C169.842 154.2307 169.614 154.0587 169.32499999999996 154.10840000000002C169.035 154.1581 168.86299999999997 154.4071 168.91599999999997 154.71680000000003C168.94899999999998 154.90980000000002 169.047 155.0462 169.21399999999997 155.12920000000003L169.07200000000003 155.4599L167.75199999999998 155.53340000000003L167.50299999999996 154.08570000000003ZM166.82899999999998 150.0842L169.42300000000003 149.63890000000004L169.521 150.21000000000004L167.61000000000004 151.7385L167.614 151.7418C167.742 151.6909 167.88000000000002 151.6506 168.037 151.6237L169.70200000000003 151.33800000000002L169.77599999999998 151.77230000000003L167.18300000000002 152.21750000000003L167.081 151.6223L168.98 150.1207L168.975 150.11740000000003C168.847 150.1683 168.70899999999997 150.20850000000002 168.552 150.23540000000003L166.90400000000002 150.5184L166.82899999999998 150.0842Z" fill="#FF8158"/>
<path d="M194.42599999999996 152.1624L197.02 151.7172L197.097 152.16750000000002L194.90599999999998 152.5437L195.023 153.2273L194.602 153.1837L194.42599999999996 152.1624ZM194.826 149.2548C195.05499999999998 149.21550000000002 195.33200000000002 149.2631 195.653 149.39430000000002L196.696 149.82800000000003L196.79 150.3789L195.818 149.9208L195.814 149.9255C195.843 149.97430000000003 195.867 150.0406 195.88199999999998 150.125C195.922 150.3623 195.874 150.5859 195.73500000000004 150.79180000000002C195.59600000000003 150.9937 195.40199999999996 151.11810000000003 195.153 151.16090000000003C194.89900000000003 151.2043 194.66599999999997 151.14910000000003 194.45399999999998 150.9952C194.24000000000004 150.83730000000003 194.11299999999997 150.6273 194.06700000000004 150.35790000000003C194.021 150.08840000000004 194.071 149.8521 194.22100000000003 149.64010000000002C194.371 149.42810000000003 194.57200000000003 149.2983 194.826 149.2548ZM195.492 150.1216C195.46600000000004 149.9728 195.39699999999996 149.8564 195.28 149.7812C195.16300000000004 149.70190000000002 195.03 149.67510000000001 194.89000000000001 149.69920000000002C194.74500000000003 149.72410000000002 194.62799999999996 149.7937 194.544 149.90750000000003C194.46 150.02120000000002 194.429 150.15090000000004 194.45399999999998 150.2996C194.48 150.4484 194.55300000000003 150.56010000000003 194.67 150.6393C194.787 150.7186 194.92 150.7455 195.06499999999997 150.7206C195.354 150.67090000000002 195.542 150.4151 195.492 150.1216ZM193.302 145.5397L195.896 145.0945L195.994 145.6655L194.083 147.1941L194.08700000000002 147.19740000000002C194.215 147.1465 194.35299999999998 147.1062 194.51000000000002 147.0793L196.17499999999998 146.7935L196.249 147.2278L193.65599999999998 147.673L193.554 147.0779L195.453 145.5763L195.448 145.5729C195.31999999999996 145.6239 195.182 145.66410000000002 195.025 145.69100000000003L193.37699999999998 145.974L193.302 145.5397Z" fill="#FF8158"/>
<path d="M83.52880000000002 171.61260000000001C83.4853 171.35920000000002 83.52110000000002 171.13370000000003 83.64090000000002 170.9393C83.76070000000001 170.7448 83.93120000000002 170.6286 84.1523 170.59070000000003C84.3655 170.5541 84.5803 170.60000000000002 84.78889999999998 170.7298C84.92749999999998 170.8136 85.05330000000001 170.89550000000003 85.16299999999998 170.98020000000002L85.81140000000002 171.4774L85.6181 170.35150000000002L86.02020000000002 170.28250000000003L86.31289999999998 171.98740000000004L85.92089999999999 172.0672C85.49539999999999 171.73450000000003 85.19579999999999 171.5086 85.02619999999999 171.38870000000003C84.8707 171.27870000000001 84.7267 171.1875 84.59020000000001 171.11580000000004C84.4664 171.04590000000002 84.3389 171.02640000000002 84.21090000000001 171.0525C84.0146 171.0904 83.88669999999999 171.2862 83.93300000000002 171.55560000000003C83.9751 171.8009 84.161 171.96770000000004 84.40130000000002 171.9927L84.2824 172.3857C83.9086 172.32980000000003 83.60060000000001 172.0308 83.52880000000002 171.61260000000001ZM82.76320000000001 166.79040000000003L85.35679999999999 166.34520000000003L85.4548 166.9162L83.54389999999998 168.4447L83.5486 168.4481C83.6765 168.39710000000002 83.8144 168.3569 83.97130000000001 168.33L85.636 168.0442L85.7106 168.4785L83.11690000000002 168.9237L83.01480000000001 168.3286L84.91380000000001 166.82690000000002L84.9091 166.8236C84.78119999999998 166.8745 84.64320000000001 166.9148 84.4864 166.94170000000003L82.83770000000001 167.2247L82.76320000000001 166.79040000000003Z" fill="#FF8158"/>
<path d="M135.44899999999998 162.2863L138.042 161.8411L138.12000000000003 162.2915L135.92800000000003 162.66770000000002L136.045 163.3513L135.624 163.3077L135.44899999999998 162.2863ZM136.258 159.23790000000002C136.665 159.1682 137.006 159.20480000000003 137.282 159.3436C137.55499999999998 159.4832 137.71600000000004 159.6997 137.76699999999997 159.9973C137.818 160.2908 137.73799999999997 160.5528 137.528 160.7752C137.314 160.9982 137.00299999999996 161.14260000000002 136.597 161.21230000000003C136.191 161.282 135.85 161.2495 135.578 161.1099C135.306 160.9704 135.14400000000003 160.7539 135.093 160.4563C135.042 160.1587 135.12199999999999 159.9008 135.33600000000004 159.67770000000002C135.54599999999996 159.45530000000002 135.852 159.30760000000004 136.258 159.23790000000002ZM135.49500000000003 160.3873C135.55099999999996 160.71300000000002 135.92999999999998 160.87150000000003 136.521 160.77C137.112 160.6685 137.42099999999996 160.392 137.36500000000004 160.0663C137.30800000000002 159.73250000000002 136.929 159.5781 136.33399999999997 159.6803C135.74299999999997 159.7817 135.43800000000002 160.0535 135.49500000000003 160.3873ZM134.32399999999998 155.6637L136.91800000000003 155.2185L137.016 155.78950000000003L135.105 157.318L135.11000000000004 157.3213C135.23799999999997 157.2704 135.376 157.23020000000002 135.532 157.2032L137.19700000000003 156.91750000000002L137.27199999999996 157.35180000000003L134.67800000000003 157.79700000000003L134.576 157.2018L136.475 155.7002L136.47 155.69690000000003C136.342 155.7478 136.20399999999998 155.788 136.04800000000003 155.815L134.39900000000003 156.098L134.32399999999998 155.6637Z" fill="#FF8158"/>
<path d="M109.624 166.59070000000003L110.59700000000001 167.04880000000003L110.6 167.04410000000001C110.571 166.99530000000001 110.547 166.92900000000003 110.53299999999999 166.8445C110.49199999999999 166.6073 110.54099999999997 166.38370000000003 110.67999999999998 166.1818C110.81800000000001 165.97590000000002 111.01199999999997 165.85150000000002 111.26199999999997 165.8087C111.51500000000001 165.7652 111.74800000000002 165.8204 111.96099999999998 165.97840000000002C112.174 166.13230000000001 112.30100000000002 166.34230000000002 112.34700000000001 166.6117C112.39400000000003 166.8811 112.34399999999997 167.12150000000003 112.19399999999999 167.33350000000002C112.04400000000001 167.5455 111.84200000000001 167.67130000000003 111.58899999999997 167.71480000000003C111.35999999999999 167.7541 111.08200000000002 167.7065 110.76199999999997 167.5752L109.71899999999997 167.1416L109.624 166.59070000000003ZM110.92300000000003 166.848C110.94800000000001 166.9968 111.02200000000002 167.1125 111.13899999999998 167.19170000000003C111.25500000000002 167.267 111.38399999999999 167.29450000000003 111.525 167.2704C111.66999999999999 167.2455 111.78599999999997 167.1759 111.87000000000003 167.06210000000002C111.95399999999998 166.94830000000002 111.98600000000002 166.81870000000004 111.96000000000001 166.6699C111.934 166.52120000000002 111.862 166.40950000000004 111.744 166.3302C111.62699999999998 166.25100000000003 111.494 166.22410000000002 111.35 166.24900000000002C111.05999999999997 166.2987 110.87199999999999 166.55450000000002 110.92300000000003 166.848ZM108.90099999999998 162.30360000000002L111.494 161.85840000000002L111.59200000000001 162.42940000000002L109.68100000000001 163.9579L109.686 163.96120000000002C109.814 163.9103 109.95200000000003 163.87010000000004 110.10900000000001 163.84320000000002L111.773 163.55740000000003L111.84799999999998 163.9917L109.25399999999999 164.43690000000004L109.15200000000002 163.84180000000003L111.05100000000002 162.3401L111.047 162.3368C110.91900000000001 162.3877 110.78099999999998 162.428 110.624 162.4549L108.975 162.73790000000002L108.90099999999998 162.30360000000002Z" fill="#FF8158"/>
<path d="M161.58700000000002 157.7994L164.17999999999998 157.3542L164.25699999999998 157.8046L162.066 158.18080000000003L162.18300000000002 158.8644L161.76199999999997 158.82080000000002L161.58700000000002 157.7994ZM161.16099999999997 155.3936L162.717 155.12650000000002L162.655 154.76460000000003L163.057 154.6955L163.119 155.05740000000003L163.76699999999997 154.9463L163.843 155.3886L163.19499999999996 155.4998L163.386 156.6096L162.97600000000003 156.70480000000003L161.26900000000003 156.0209L161.16099999999997 155.3936ZM161.607 155.7724L162.915 156.2765L162.79300000000003 155.5688L161.607 155.7724ZM160.46200000000002 151.17680000000001L163.056 150.73160000000001L163.15400000000002 151.3026L161.24299999999997 152.8311L161.24799999999996 152.8345C161.37500000000003 152.7835 161.513 152.74330000000003 161.67 152.71640000000002L163.335 152.43060000000003L163.41 152.86490000000003L160.816 153.31010000000003L160.71399999999997 152.71500000000003L162.61299999999997 151.2133L162.60799999999998 151.21000000000004C162.48 151.2609 162.342 151.3012 162.18499999999997 151.3281L160.537 151.61110000000002L160.46200000000002 151.17680000000001Z" fill="#FF8158"/>
<path d="M188.059 153.2557L190.653 152.8105L190.73 153.2609L188.53900000000002 153.63710000000003L188.65599999999998 154.3207L188.23500000000004 154.27710000000002L188.059 153.2557ZM188.258 150.5027C188.463 150.46750000000003 188.646 150.52300000000002 188.799 150.6665C188.90199999999996 150.3963 189.10100000000003 150.2337 189.395 150.18330000000003C189.64000000000001 150.14120000000003 189.852 150.1959 190.04 150.34590000000003C190.227 150.4959 190.34100000000004 150.6999 190.38500000000002 150.9613C190.42999999999998 151.22270000000003 190.39199999999997 151.45690000000002 190.26500000000001 151.6608C190.13900000000004 151.8646 189.95700000000002 151.9869 189.71200000000002 152.029C189.41 152.0808 189.16800000000003 151.99810000000002 188.994 151.77960000000002C188.9 151.9572 188.74500000000003 152.0666 188.532 152.10320000000002C188.335 152.137 188.157 152.08890000000002 187.994 151.95550000000003C187.826 151.8229 187.725 151.6456 187.68700000000004 151.4244C187.64900000000003 151.2033 187.68499999999997 151.0025 187.799 150.8216C187.90900000000002 150.6413 188.061 150.53660000000002 188.258 150.5027ZM188.46200000000002 151.67220000000003C188.66800000000003 151.637 188.795 151.462 188.75699999999998 151.24080000000004C188.72 151.0277 188.54099999999997 150.9011 188.33600000000004 150.93630000000002C188.13900000000004 150.97020000000003 188.018 151.1565 188.05300000000003 151.3616C188.088 151.56670000000003 188.26500000000001 151.70600000000002 188.46200000000002 151.67220000000003ZM189.636 151.5867C189.761 151.56530000000004 189.86100000000002 151.50240000000002 189.934 151.39480000000003C190.00699999999998 151.2871 190.03099999999998 151.16290000000004 190.00699999999998 151.02620000000002C189.98500000000004 150.89350000000002 189.92099999999996 150.7885 189.81700000000004 150.71120000000002C189.71200000000002 150.6339 189.59600000000003 150.6042 189.47100000000003 150.62560000000002C189.21399999999997 150.6698 189.044 150.9101 189.09100000000004 151.1835C189.138 151.457 189.37799999999996 151.6309 189.636 151.5867ZM186.93499999999997 146.6331L189.52900000000002 146.1879L189.62699999999998 146.7589L187.71600000000004 148.2874L187.72100000000003 148.29070000000002C187.84799999999998 148.2398 187.98600000000002 148.19960000000003 188.143 148.17270000000002L189.80800000000002 147.88690000000003L189.883 148.32120000000003L187.28900000000002 148.76640000000003L187.18700000000004 148.1712L189.08600000000004 146.6696L189.081 146.66630000000004C188.953 146.7172 188.81499999999997 146.7575 188.658 146.7844L187.01000000000002 147.06740000000002L186.93499999999997 146.6331Z" fill="#FF8158"/>
<path d="M96.19579999999999 168.8211L97.75199999999998 168.55400000000003L97.6899 168.1921L98.09200000000001 168.123L98.1541 168.4849L98.8015 168.37380000000002L98.8775 168.8161L98.22999999999999 168.9273L98.4205 170.0371L98.01050000000001 170.13230000000001L96.30350000000001 169.4484L96.19579999999999 168.8211ZM96.64169999999999 169.1999L97.9494 169.704L97.8279 168.99630000000002L96.64169999999999 169.1999ZM95.49679999999998 164.60430000000002L98.09049999999999 164.15910000000002L98.1885 164.7301L96.2775 166.2586L96.28229999999999 166.26190000000003C96.4101 166.211 96.5481 166.1708 96.70489999999998 166.1438L98.3697 165.85810000000004L98.4442 166.29240000000001L95.85060000000001 166.73760000000001L95.7484 166.1424L97.6474 164.6408L97.64270000000002 164.6375C97.51489999999998 164.6884 97.3769 164.7287 97.22 164.75560000000002L95.57140000000001 165.03860000000003L95.49679999999998 164.60430000000002Z" fill="#FF8158"/>
<path d="M148.182 160.10040000000004L150.77599999999998 159.6551L150.85299999999998 160.1055L148.662 160.4817L148.77900000000002 161.1653L148.35799999999998 161.12170000000003L148.182 160.10040000000004ZM147.82399999999998 158.29990000000004C147.78 158.0465 147.816 157.82100000000003 147.936 157.6266C148.05499999999998 157.4321 148.22600000000003 157.3159 148.44700000000003 157.27800000000002C148.66 157.2414 148.87500000000003 157.28730000000002 149.08399999999997 157.4171C149.222 157.5009 149.34799999999998 157.58280000000002 149.458 157.66750000000002L150.10600000000002 158.1647L149.91300000000004 157.0388L150.31499999999997 156.96980000000002L150.60799999999998 158.67470000000003L150.21600000000004 158.7545C149.79 158.42180000000002 149.491 158.1959 149.321 158.07600000000002C149.165 157.966 149.021 157.8748 148.88500000000002 157.80310000000003C148.761 157.7332 148.634 157.71370000000002 148.506 157.7398C148.309 157.7777 148.182 157.9735 148.22799999999998 158.24290000000002C148.271 158.4882 148.456 158.65500000000003 148.696 158.68L148.57700000000003 159.07300000000004C148.203 159.01710000000003 147.895 158.7181 147.82399999999998 158.29990000000004ZM147.05800000000002 153.47770000000003L149.65199999999996 153.03250000000003L149.75000000000003 153.6035L147.83899999999997 155.13210000000004L147.843 155.1354C147.97100000000003 155.0845 148.109 155.0442 148.266 155.01730000000003L149.931 154.7315L150.00500000000002 155.1658L147.412 155.611L147.30999999999997 155.0159L149.20899999999997 153.5143L149.20399999999998 153.5109C149.076 153.56190000000004 148.93800000000002 153.6021 148.78099999999998 153.62900000000002L147.13199999999998 153.91200000000003L147.05800000000002 153.47770000000003Z" fill="#FF8158"/>
<path d="M123.292 163.92970000000003C123.49699999999999 163.8945 123.68100000000001 163.95 123.833 164.0935C123.936 163.82330000000002 124.136 163.66070000000002 124.429 163.6103C124.67499999999998 163.5682 124.88699999999997 163.6228 125.07399999999998 163.7729C125.261 163.92290000000003 125.37500000000003 164.12690000000003 125.41999999999999 164.38830000000002C125.465 164.6497 125.42600000000002 164.8839 125.29999999999998 165.08780000000002C125.17300000000003 165.29160000000002 124.99199999999999 165.4139 124.74600000000001 165.45600000000002C124.44499999999996 165.50780000000003 124.203 165.42510000000001 124.02900000000002 165.2066C123.93499999999997 165.38420000000002 123.78 165.49360000000001 123.56699999999998 165.53020000000004C123.37000000000003 165.56400000000002 123.19199999999998 165.5159 123.02799999999999 165.3825C122.85999999999999 165.24990000000003 122.76000000000002 165.07260000000002 122.72200000000001 164.8514C122.684 164.63030000000003 122.72 164.42950000000002 122.833 164.24850000000004C122.94300000000001 164.06830000000002 123.095 163.9635 123.292 163.92970000000003ZM123.49699999999999 165.0992C123.70200000000003 165.06400000000002 123.82899999999998 164.889 123.79099999999997 164.6678C123.75500000000002 164.4547 123.576 164.3281 123.37100000000001 164.3633C123.174 164.39710000000002 123.05199999999999 164.58350000000002 123.088 164.78860000000003C123.12300000000002 164.9937 123.29999999999998 165.133 123.49699999999999 165.0992ZM124.66999999999999 165.01370000000003C124.79499999999999 164.9923 124.89599999999999 164.92940000000002 124.96899999999997 164.8218C125.04099999999997 164.71410000000003 125.06499999999997 164.5899 125.042 164.4532C125.01900000000003 164.3205 124.95599999999999 164.21550000000002 124.85100000000003 164.1382C124.74699999999999 164.0609 124.63000000000002 164.0312 124.50500000000002 164.0526C124.24800000000002 164.09680000000003 124.078 164.33710000000002 124.12500000000003 164.6105C124.172 164.88400000000001 124.41299999999998 165.05790000000002 124.66999999999999 165.01370000000003ZM121.97 160.06L124.56300000000002 159.6148L124.66099999999997 160.18580000000003L122.75000000000003 161.7144L122.75500000000002 161.71770000000004C122.88300000000001 161.66680000000002 123.02099999999999 161.62650000000002 123.17800000000003 161.5996L124.84200000000001 161.31380000000001L124.917 161.74810000000002L122.32300000000001 162.19330000000002L122.22100000000003 161.59820000000002L124.12000000000003 160.09660000000002L124.11600000000001 160.09320000000002C123.98799999999997 160.1442 123.85 160.1844 123.69300000000001 160.2113L122.04400000000001 160.4943L121.97 160.06Z" fill="#FF8158"/>
<path d="M174.65599999999998 155.5564L177.249 155.1112L177.326 155.5616L175.13500000000002 155.9377L175.25199999999998 156.62130000000002L174.831 156.57780000000002L174.65599999999998 155.5564ZM174.25500000000002 153.2208L175.227 153.67900000000003L175.23100000000002 153.6742C175.20200000000003 153.6254 175.17800000000003 153.5591 175.16300000000004 153.4747C175.12299999999996 153.23740000000004 175.17099999999996 153.0138 175.30999999999997 152.81190000000004C175.44899999999998 152.606 175.643 152.4817 175.89199999999997 152.4389C176.145 152.3954 176.379 152.4506 176.592 152.6085C176.80499999999998 152.7624 176.932 152.9724 176.97799999999998 153.24190000000002C177.02400000000003 153.5113 176.97399999999996 153.7516 176.82499999999996 153.96370000000002C176.67499999999998 154.1757 176.47299999999998 154.3014 176.21899999999997 154.3449C175.99000000000004 154.38420000000002 175.713 154.33660000000003 175.39199999999997 154.2054L174.34899999999996 153.7718L174.25500000000002 153.2208ZM175.55300000000003 153.47820000000002C175.57899999999998 153.62690000000003 175.65199999999996 153.7426 175.76900000000003 153.82190000000003C175.886 153.89710000000002 176.01500000000001 153.92470000000003 176.155 153.90050000000002C176.29999999999998 153.8757 176.417 153.806 176.501 153.6922C176.585 153.57850000000002 176.616 153.4489 176.59100000000004 153.30010000000001C176.56499999999997 153.1513 176.492 153.0396 176.37500000000003 152.9604C176.258 152.8811 176.12500000000003 152.85430000000002 175.98 152.8791C175.691 152.92880000000002 175.50299999999996 153.1846 175.55300000000003 153.47820000000002ZM173.53099999999998 148.93380000000002L176.12500000000003 148.48860000000002L176.22299999999998 149.0596L174.31200000000004 150.5881L174.31700000000004 150.59140000000002C174.444 150.5405 174.58200000000002 150.5003 174.739 150.4733L176.40400000000002 150.18760000000003L176.479 150.6219L173.88500000000002 151.0671L173.783 150.4719L175.682 148.9703L175.677 148.967C175.549 149.0179 175.41099999999997 149.05810000000002 175.254 149.0851L173.60600000000002 149.36810000000003L173.53099999999998 148.93380000000002Z" fill="#FF8158"/>
<path d="M199.80800000000002 151.6526C199.76500000000001 151.3993 199.79999999999998 151.1737 199.92 150.97930000000002C200.04 150.7849 200.21 150.6687 200.432 150.6307C200.645 150.59410000000003 200.86000000000004 150.64000000000001 201.068 150.76980000000003C201.20700000000002 150.8537 201.333 150.93560000000002 201.44200000000004 151.0202L202.09100000000004 151.5175L201.89699999999996 150.3915L202.29999999999998 150.3225L202.592 152.02750000000003L202.19999999999996 152.10720000000003C201.775 151.77460000000002 201.475 151.54860000000002 201.30499999999998 151.4287C201.15 151.3188 201.006 151.2276 200.869 151.1558C200.746 151.086 200.61799999999997 151.06650000000002 200.49000000000004 151.0926C200.294 151.1304 200.16599999999997 151.32620000000003 200.21200000000002 151.59570000000002C200.254 151.84090000000003 200.43999999999997 152.0077 200.681 152.03270000000003L200.56200000000004 152.4257C200.18800000000002 152.3698 199.88000000000002 152.07080000000002 199.80800000000002 151.6526ZM200.597 148.1938C201.00299999999996 148.1241 201.345 148.16070000000002 201.621 148.29950000000002C201.893 148.4391 202.05499999999998 148.6556 202.10600000000002 148.9532C202.15599999999998 149.24670000000003 202.07700000000003 149.50870000000003 201.867 149.73110000000003C201.653 149.9541 201.342 150.0985 200.936 150.1682C200.53 150.23790000000002 200.189 150.2054 199.917 150.06580000000002C199.64400000000003 149.92630000000003 199.48299999999998 149.70980000000003 199.432 149.4122C199.381 149.1146 199.46100000000004 148.8567 199.67499999999998 148.6336C199.88500000000002 148.4112 200.191 148.26350000000002 200.597 148.1938ZM199.83399999999997 149.34320000000002C199.89000000000001 149.6689 200.26900000000003 149.8274 200.86000000000004 149.72590000000002C201.451 149.62440000000004 201.76000000000002 149.3479 201.70399999999998 149.0222C201.646 148.68850000000003 201.268 148.534 200.67300000000003 148.63620000000003C200.08200000000002 148.73760000000001 199.77699999999996 149.00940000000003 199.83399999999997 149.34320000000002ZM198.66300000000004 144.6196L201.25699999999998 144.1744L201.355 144.74540000000002L199.444 146.27390000000003L199.448 146.2772C199.576 146.2263 199.71399999999997 146.1861 199.871 146.1592L201.53599999999997 145.8734L201.61000000000004 146.3077L199.01699999999997 146.7529L198.915 146.1578L200.814 144.6561L200.809 144.6528C200.681 144.70370000000003 200.54300000000003 144.74400000000003 200.386 144.7709L198.73799999999997 145.0539L198.66300000000004 144.6196Z" fill="#FF8158"/>
<defs></defs>
</svg>
