<svg width="763" height="208" viewBox="0 0 763 208" fill="none" xmlns="http://www.w3.org/2000/svg">
<path d="M551.25 1.25L761.25 81.25V126.25L551.25 46.25V1.25Z" fill="url(#paint0_linear_2080_363)" stroke="#3E4650" stroke-width="2.5" stroke-linejoin="round"/>
<path d="M1.25 81.25L551.25 1.25L761.25 81.25L211.25 161.25L1.25 81.25Z" fill="url(#paint1_linear_2080_363)" stroke="#3E4650" stroke-width="2.5" stroke-linejoin="round"/>
<path d="M1.25 81.25L211.25 161.25V206.25L1.25 126.25V81.25Z" fill="url(#paint2_linear_2080_363)" stroke="#3E4650" stroke-width="2.5" stroke-linejoin="round"/>
<path d="M211.25 161.25L761.25 81.25V126.25L211.25 206.25V161.25Z" fill="url(#paint3_linear_2080_363)" stroke="#3E4650" stroke-width="2.5" stroke-linejoin="round"/>
<path d="M369.25 72.25L347.25 76.25" stroke="black"/>
<path d="M318.48 54.8096L365.912 81.7913L366.082 106.991L318.649 80.009L318.48 54.8096Z" fill="url(#paint4_linear_2080_363)" stroke="#5C3A18" stroke-width="2.31" stroke-linejoin="round"/>
<path d="M140.168 83.3091L318.48 54.8096L365.913 81.7913L187.6 110.291L140.168 83.3091Z" fill="url(#paint5_linear_2080_363)" stroke="#5C3A18" stroke-width="2.31" stroke-linejoin="round"/>
<path d="M140.168 83.3091L187.6 110.291L187.77 135.49L140.337 108.509L140.168 83.3091Z" fill="url(#paint6_linear_2080_363)" stroke="#5C3A18" stroke-width="2.31" stroke-linejoin="round"/>
<path d="M187.6 110.291L365.912 81.7913L366.082 106.991L187.769 135.49L187.6 110.291Z" fill="url(#paint7_linear_2080_363)" stroke="#5C3A18" stroke-width="2.31" stroke-linejoin="round"/>
<g opacity="0.28">
<path d="M161.181 85.2678C203.124 76.5856 255.58 69.9328 302.787 63.3153" stroke="#8B5A2B" stroke-width="1.365" stroke-linecap="round"/>
<path d="M169.637 93.6111C213.68 84.9148 264.036 78.2761 313.343 71.6444" stroke="#8B5A2B" stroke-width="1.365" stroke-linecap="round"/>
<path d="M178.094 101.955C224.236 93.2442 272.493 86.6196 323.899 79.9738" stroke="#8B5A2B" stroke-width="1.365" stroke-linecap="round"/>
</g>
<g opacity="0.35">
<path d="M346.918 94.8498C352.421 93.0208 354.806 85.2926 352.245 77.5884C349.685 69.8842 343.148 65.1214 337.645 66.9505C332.142 68.7795 329.756 76.5077 332.317 84.2119C334.878 91.9161 341.415 96.6788 346.918 94.8498Z" stroke="#6B4018" stroke-width="1.26"/>
<path d="M344.931 88.8716C347.682 87.9571 348.727 83.6469 347.263 79.2445C345.8 74.8421 342.383 72.0146 339.632 72.9291C336.88 73.8436 335.836 78.1538 337.299 82.5562C338.763 86.9586 342.179 89.7861 344.931 88.8716Z" stroke="#6B4018" stroke-width="1.26"/>
</g>
<path d="M574.819 36.0773C573.446 24.9289 562.375 20.2747 562.375 20.2747L403.308 47.9238C403.308 47.9238 394.02 53.6578 397.371 66.8815C400.723 80.1051 407.657 82.7093 407.657 82.7093L570.515 55.0994C570.515 55.0994 576.192 47.2257 574.819 36.0773Z" fill="white"/>
<path d="M404.628 83.1517C402.346 83.5434 399.199 76.3097 397.6 66.9943C396.001 57.6795 396.556 49.81 398.837 49.4183C401.119 49.0266 404.266 56.2608 405.865 65.5757C407.464 74.8911 406.91 82.76 404.628 83.1517Z" stroke="#9C9B9B" stroke-width="3.59788" stroke-linecap="round" stroke-linejoin="round"/>
<path d="M522.48 59.145C520.694 59.4514 518.232 53.7911 516.981 46.5017C515.73 39.2128 516.163 33.0548 517.949 32.7484C519.735 32.4418 522.196 38.1028 523.448 45.3917C524.699 52.6811 524.266 58.8384 522.48 59.145Z" fill="#EF3A50"/>
<path d="M521.887 45.3933L378.898 69.9377" stroke="#565655" stroke-width="2.39859" stroke-linecap="round" stroke-linejoin="round"/>
<path d="M378.386 70.0261C377.954 67.5114 375.566 65.8222 373.051 66.2539C370.536 66.6856 368.848 69.0744 369.28 71.5892C369.711 74.1039 372.1 75.7918 374.614 75.3601" stroke="#565655" stroke-width="2.39859" stroke-linecap="round" stroke-linejoin="round"/>
<path d="M520.372 46.8691C520.245 46.8909 519.999 46.4549 519.876 45.7392C519.74 44.9485 519.84 44.5299 519.967 44.5081C520.094 44.4863 520.288 44.9969 520.4 45.6493C520.512 46.3006 520.499 46.8473 520.372 46.8691Z" fill="#565655"/>
<path d="M522.48 59.1449C520.694 59.4514 518.231 53.7912 516.98 46.5017C515.729 39.2129 516.163 33.0548 517.949 32.7483" fill="#EF3A50"/>
<path d="M522.335 58.2989C520.549 58.6053 518.152 53.324 516.981 46.5026C515.81 39.6812 516.309 33.9031 518.095 33.5967" stroke="#813A50" stroke-width="1.79894" stroke-miterlimit="10" stroke-linecap="round"/>
<path d="M404.628 83.1519C402.346 83.5435 399.199 76.3098 397.6 66.9944C396.002 57.6796 396.556 49.8101 398.837 49.4185" stroke="#1D1D1B" stroke-width="3.59788" stroke-linecap="round" stroke-linejoin="round"/>
<path d="M573.323 54.1941L405.968 82.9209" stroke="#1D1D1B" stroke-width="3.59788" stroke-linecap="round" stroke-linejoin="round"/>
<path d="M590.649 34.783L575.569 37.3714" stroke="black" stroke-width="0.68"/>
<path d="M594.545 28.7707C591.636 29.2699 589.683 32.0322 590.182 34.9411C590.681 37.8495 593.444 39.8028 596.353 39.3036C599.261 38.8043 601.214 36.0415 600.715 33.1332C600.216 30.2242 597.453 28.2715 594.545 28.7707Z" stroke="#F19100" stroke-width="1.79894" stroke-miterlimit="10" stroke-linecap="round"/>
<path d="M559.004 25.4504C557.843 25.6498 562.443 52.4543 561.281 52.6538C560.12 52.853 555.519 26.0486 554.357 26.2481C553.195 26.4475 557.796 53.2519 556.635 53.4513C555.473 53.6507 550.872 26.8463 549.711 27.0456C548.549 27.245 553.15 54.0494 551.988 54.2489C550.827 54.4482 546.226 27.6438 545.065 27.8431C543.903 28.0426 548.503 54.8471 547.341 55.0466C546.18 55.2459 541.579 28.4415 540.417 28.6409C539.255 28.8404 543.856 55.6448 542.695 55.8441C541.533 56.0436 536.932 29.2392 535.77 29.4386C534.608 29.6381 539.209 56.4425 538.047 56.6419C536.886 56.8413 532.285 30.0369 531.122 30.2364C529.961 30.4358 534.562 57.2402 533.399 57.4397C532.237 57.6392 527.636 30.8348 526.474 31.0343C525.312 31.2337 529.913 58.0382 528.751 58.2377" stroke="#858585" stroke-width="2.39859" stroke-linecap="round" stroke-linejoin="round"/>
<path d="M526.474 31.0342C525.312 31.2337 529.912 58.0382 528.75 58.2377C528.239 58.3254 527.071 53.1943 525.809 47.4387C525.226 44.7791 524.43 44.9156 521.964 45.339" stroke="#565655" stroke-width="2.39859" stroke-linecap="round" stroke-linejoin="round"/>
<path d="M531.122 30.2363C529.96 30.4358 534.561 57.2402 533.399 57.4397" stroke="#565655" stroke-width="2.39859" stroke-linecap="round" stroke-linejoin="round"/>
<path d="M568.298 23.855C567.137 24.0544 571.738 50.8588 570.576 51.0583C569.414 51.2576 564.813 24.4532 563.651 24.6526C562.49 24.852 567.091 51.6565 565.929 51.8559C564.767 52.0553 560.166 25.251 559.004 25.4505C557.842 25.6498 562.443 52.4542 561.281 52.6537C560.119 52.8531 555.518 26.0487 554.357 26.248C553.195 26.4475 557.796 53.2519 556.634 53.4514C555.472 53.6509 550.871 26.8464 549.709 27.0459C548.546 27.2454 553.147 54.0498 551.985 54.2493" stroke="#858585" stroke-width="2.39859" stroke-linecap="round" stroke-linejoin="round"/>
<path d="M535.77 29.4385C534.607 29.638 539.208 56.4424 538.047 56.6417" stroke="#565655" stroke-width="2.39859" stroke-linecap="round" stroke-linejoin="round"/>
<path d="M540.417 28.6409C539.255 28.8403 543.856 55.6447 542.694 55.8441" stroke="#565655" stroke-width="2.39859" stroke-linecap="round" stroke-linejoin="round"/>
<path d="M545.064 27.843C543.902 28.0425 548.503 54.8469 547.342 55.0463" stroke="#565655" stroke-width="2.39859" stroke-linecap="round" stroke-linejoin="round"/>
<path d="M549.711 27.0454C548.55 27.2447 553.151 54.0492 551.989 54.2486" stroke="#565655" stroke-width="2.39859" stroke-linecap="round" stroke-linejoin="round"/>
<path d="M554.356 26.248C553.195 26.4475 557.796 53.2519 556.634 53.4513" stroke="#565655" stroke-width="2.39859" stroke-linecap="round" stroke-linejoin="round"/>
<path d="M559.005 25.4502C557.843 25.6497 562.444 52.4541 561.282 52.6535" stroke="#565655" stroke-width="2.39859" stroke-linecap="round" stroke-linejoin="round"/>
<path d="M563.652 24.6526C562.49 24.852 567.091 51.6564 565.929 51.8559" stroke="#565655" stroke-width="2.39859" stroke-linecap="round" stroke-linejoin="round"/>
<path d="M570.576 51.0587C571.738 50.8592 567.137 24.0548 568.298 23.8554C569.609 23.6304 573.394 32.7409 574.067 36.6616" stroke="#565655" stroke-width="2.39859" stroke-linecap="round" stroke-linejoin="round"/>
<path d="M567.533 20.462C569.816 20.0702 572.962 27.3039 574.561 36.6188C576.16 45.9342 575.606 53.8031 573.324 54.1949" stroke="#1D1D1B" stroke-width="3.59788" stroke-linecap="round" stroke-linejoin="round"/>
<path d="M465.234 51.9697C464.286 44.1809 464.957 38.0746 466.961 37.7307" stroke="#FF8158" stroke-width="1.1993" stroke-linecap="round" stroke-linejoin="round"/>
<path d="M472.019 50.7264C471.085 42.9742 471.759 36.907 473.756 36.5642" stroke="#FF8158" stroke-width="1.1993" stroke-linecap="round" stroke-linejoin="round"/>
<path d="M478.346 49.6406C477.412 41.8885 478.086 35.8213 480.083 35.4785" stroke="#FF8158" stroke-width="1.1993" stroke-linecap="round" stroke-linejoin="round"/>
<path d="M485.141 48.4741C484.207 40.722 484.88 34.6548 486.877 34.312" stroke="#FF8158" stroke-width="1.1993" stroke-linecap="round" stroke-linejoin="round"/>
<path d="M491.476 47.4653C490.528 39.6765 491.2 33.5702 493.203 33.2263" stroke="#FF8158" stroke-width="1.1993" stroke-linecap="round" stroke-linejoin="round"/>
<path d="M498.262 46.2219C497.328 38.4698 498.002 32.4026 499.999 32.0598" stroke="#FF8158" stroke-width="1.1993" stroke-linecap="round" stroke-linejoin="round"/>
<path d="M504.587 45.1309C503.653 37.3787 504.327 31.3115 506.324 30.9688" stroke="#FF8158" stroke-width="1.1993" stroke-linecap="round" stroke-linejoin="round"/>
<path d="M511.353 43.793C510.419 36.0408 511.092 29.9736 513.089 29.6309" stroke="#FF8158" stroke-width="1.1993" stroke-linecap="round" stroke-linejoin="round"/>
<path d="M517.709 42.8838C516.775 35.1316 517.449 29.0645 519.446 28.7217" stroke="#FF8158" stroke-width="1.1993" stroke-linecap="round" stroke-linejoin="round"/>
<path d="M524.035 41.7978C523.101 34.0458 523.775 27.9786 525.772 27.6357" stroke="#FF8158" stroke-width="1.1993" stroke-linecap="round" stroke-linejoin="round"/>
<path d="M530.402 40.7051C529.468 32.953 530.141 26.8858 532.139 26.543" stroke="#FF8158" stroke-width="1.1993" stroke-linecap="round" stroke-linejoin="round"/>
<path d="M400.225 63.1286C399.277 55.3399 399.948 49.2336 401.952 48.8896" stroke="#FF8158" stroke-width="1.1993" stroke-linecap="round" stroke-linejoin="round"/>
<path d="M407.01 61.8853C406.076 54.1332 406.75 48.066 408.747 47.7231" stroke="#FF8158" stroke-width="1.1993" stroke-linecap="round" stroke-linejoin="round"/>
<path d="M413.337 60.7996C412.403 53.0474 413.076 46.9802 415.073 46.6375" stroke="#FF8158" stroke-width="1.1993" stroke-linecap="round" stroke-linejoin="round"/>
<path d="M420.131 59.6333C419.197 51.8811 419.87 45.814 421.868 45.4712" stroke="#FF8158" stroke-width="1.1993" stroke-linecap="round" stroke-linejoin="round"/>
<path d="M426.467 58.6242C425.519 50.8355 426.19 44.7292 428.194 44.3853" stroke="#FF8158" stroke-width="1.1993" stroke-linecap="round" stroke-linejoin="round"/>
<path d="M433.253 57.3809C432.319 49.6287 432.992 43.5615 434.989 43.2188" stroke="#FF8158" stroke-width="1.1993" stroke-linecap="round" stroke-linejoin="round"/>
<path d="M439.578 56.2898C438.644 48.5376 439.318 42.4704 441.314 42.1277" stroke="#FF8158" stroke-width="1.1993" stroke-linecap="round" stroke-linejoin="round"/>
<path d="M446.343 54.9519C445.409 47.1998 446.083 41.1326 448.08 40.7898" stroke="#FF8158" stroke-width="1.1993" stroke-linecap="round" stroke-linejoin="round"/>
<path d="M452.7 54.0427C451.766 46.2906 452.439 40.2234 454.437 39.8806" stroke="#FF8158" stroke-width="1.1993" stroke-linecap="round" stroke-linejoin="round"/>
<path d="M459.026 52.9568C458.092 45.2047 458.766 39.1375 460.763 38.7947" stroke="#FF8158" stroke-width="1.1993" stroke-linecap="round" stroke-linejoin="round"/>
<path d="M567.533 20.4614L398.502 49.4759" stroke="#1D1D1B" stroke-width="3.59788" stroke-linecap="round" stroke-linejoin="round"/>
<path d="M526.371 48.7197L523.778 49.1649L523.7 48.7145L525.892 48.3383L525.775 47.6547L526.196 47.6983L526.371 48.7197ZM527.116 53.1314L524.523 53.5766L524.425 53.0056L526.336 51.4771L526.331 51.4738C526.203 51.5247 526.065 51.565 525.908 51.5919L524.243 51.8776L524.169 51.4433L526.763 50.9981L526.865 51.5933L524.966 53.0949L524.97 53.0982C525.098 53.0473 525.236 53.0071 525.393 52.9802L527.042 52.6972L527.116 53.1314Z" fill="#FF8158"/>
<path d="M531.884 48.4067C531.478 48.4764 531.137 48.4398 530.86 48.301C530.588 48.1614 530.426 47.9449 530.375 47.6473C530.325 47.3538 530.404 47.0918 530.614 46.8694C530.829 46.6464 531.139 46.502 531.545 46.4323C531.951 46.3626 532.292 46.3951 532.565 46.5347C532.837 46.6742 532.998 46.8907 533.049 47.1883C533.101 47.4859 533.021 47.7438 532.806 47.9669C532.596 48.1893 532.29 48.337 531.884 48.4067ZM532.647 47.2573C532.591 46.9316 532.212 46.7732 531.621 46.8746C531.03 46.9761 530.722 47.2526 530.778 47.5783C530.835 47.9121 531.213 48.0665 531.808 47.9644C532.399 47.8629 532.705 47.5911 532.647 47.2573ZM533.818 51.981L531.225 52.4262L531.127 51.8552L533.038 50.3266L533.033 50.3233C532.905 50.3742 532.767 50.4145 532.61 50.4414L530.945 50.7272L530.871 50.2929L533.465 49.8477L533.567 50.4428L531.668 51.9444L531.672 51.9478C531.8 51.8968 531.938 51.8566 532.095 51.8297L533.744 51.5467L533.818 51.981Z" fill="#FF8158"/>
<path d="M473.652 58.3319C473.423 58.3713 473.146 58.3237 472.825 58.1924L471.782 57.7588L471.688 57.2079L472.66 57.666L472.664 57.6613C472.635 57.6124 472.611 57.5462 472.596 57.4617C472.556 57.2245 472.604 57.0009 472.743 56.7949C472.882 56.593 473.076 56.4687 473.325 56.4259C473.579 56.3824 473.812 56.4376 474.024 56.5915C474.238 56.7495 474.365 56.9595 474.411 57.2289C474.457 57.4983 474.407 57.7347 474.257 57.9467C474.107 58.1587 473.906 58.2884 473.652 58.3319ZM472.986 57.4652C473.012 57.614 473.081 57.7303 473.198 57.8056C473.315 57.8848 473.448 57.9117 473.589 57.8875C473.733 57.8627 473.85 57.793 473.934 57.6793C474.018 57.5655 474.049 57.4359 474.024 57.2871C473.998 57.1383 473.925 57.0267 473.808 56.9474C473.691 56.8682 473.558 56.8413 473.413 56.8661C473.124 56.9158 472.936 57.1716 472.986 57.4652ZM475.176 62.047L472.582 62.4922L472.484 61.9212L474.395 60.3927L474.391 60.3894C474.263 60.4403 474.125 60.4806 473.968 60.5075L472.303 60.7932L472.229 60.3589L474.822 59.9137L474.924 60.5089L473.025 62.0105L473.03 62.0138C473.158 61.9629 473.296 61.9227 473.453 61.8958L475.101 61.6128L475.176 62.047Z" fill="#FF8158"/>
<path d="M500.639 53.559L500.257 53.6246L500.067 52.5188L499.435 52.5487C499.539 52.6508 499.605 52.7887 499.634 52.9616C499.676 53.2069 499.627 53.4264 499.49 53.6196C499.355 53.8168 499.16 53.9371 498.907 53.9806C498.661 54.0227 498.437 53.9702 498.23 53.8236C498.023 53.6811 497.898 53.4831 497.856 53.2378C497.786 52.8277 497.903 52.5011 498.209 52.2541L498.503 52.5472C498.294 52.7031 498.212 52.8994 498.253 53.1366C498.3 53.4141 498.528 53.586 498.818 53.5363C499.108 53.4867 499.28 53.2376 499.227 52.928C499.194 52.735 499.096 52.5986 498.928 52.5156L499.07 52.1849L500.391 52.1114L500.639 53.559ZM501.314 57.5607L498.72 58.0059L498.622 57.4349L500.533 55.9063L500.528 55.903C500.4 55.9539 500.262 55.9942 500.106 56.0211L498.441 56.3069L498.366 55.8726L500.96 55.4274L501.062 56.0225L499.163 57.5241L499.168 57.5275C499.296 57.4765 499.434 57.4363 499.59 57.4094L501.239 57.1264L501.314 57.5607Z" fill="#FF8158"/>
<path d="M448.629 62.0644L446.035 62.5096L445.958 62.0592L448.149 61.683L448.032 60.9994L448.453 61.043L448.629 62.0644ZM448.988 63.8689C449.03 64.1102 448.992 64.3236 448.879 64.5127C448.767 64.7017 448.62 64.8097 448.431 64.8422C448.178 64.8857 447.979 64.8122 447.827 64.6271C447.774 64.8722 447.54 65.0779 447.246 65.1283C447.025 65.1662 446.821 65.1102 446.639 64.9635C446.46 64.8162 446.346 64.6081 446.3 64.3427C446.217 63.8602 446.443 63.511 446.762 63.3196L447.022 63.6517C446.762 63.7999 446.655 64.0003 446.699 64.2536C446.749 64.5471 446.934 64.7059 447.203 64.6596C447.457 64.6161 447.564 64.399 447.524 64.0953L447.493 63.9144L447.863 63.8509C447.878 63.9353 447.889 63.9996 447.9 64.0432C447.964 64.3179 448.105 64.4386 448.326 64.4006C448.523 64.3668 448.626 64.1711 448.585 63.9299C448.543 63.6846 448.355 63.5346 448.121 63.4961L448.245 63.1065C448.607 63.1644 448.916 63.4507 448.988 63.8689ZM449.753 68.687L447.16 69.1322L447.061 68.5612L448.972 67.0327L448.968 67.0293C448.84 67.0803 448.702 67.1205 448.545 67.1474L446.88 67.4332L446.806 66.9989L449.399 66.5537L449.502 67.1488L447.603 68.6505L447.607 68.6538C447.735 68.6029 447.873 68.5626 448.03 68.5357L449.679 68.2527L449.753 68.687Z" fill="#FF8158"/>
<path d="M422.156 66.6086L419.562 67.0538L419.485 66.6034L421.676 66.2272L421.559 65.5436L421.98 65.5872L422.156 66.6086ZM422.614 69.2819L422.254 69.3769L419.836 68.7695L419.749 68.2628L422.136 68.9046L421.931 67.7103L422.333 67.6413L422.614 69.2819ZM423.273 73.1919L420.68 73.6371L420.582 73.0661L422.492 71.5376L422.488 71.5343C422.36 71.5852 422.222 71.6254 422.065 71.6524L420.4 71.9381L420.326 71.5038L422.919 71.0586L423.022 71.6538L421.123 73.1554L421.127 73.1587C421.255 73.1078 421.393 73.0676 421.55 73.0406L423.199 72.7576L423.273 73.1919Z" fill="#FF8158"/>
<path d="M513.618 50.499C513.659 50.7403 513.621 50.9538 513.509 51.1428C513.396 51.3318 513.249 51.4399 513.06 51.4723C512.807 51.5158 512.608 51.4423 512.456 51.2572C512.403 51.5023 512.169 51.7081 511.876 51.7584C511.655 51.7964 511.45 51.7403 511.268 51.5937C511.09 51.4463 510.975 51.2382 510.93 50.9728C510.847 50.4903 511.072 50.1411 511.391 49.9497L511.651 50.2818C511.391 50.43 511.285 50.6304 511.328 50.8837C511.379 51.1773 511.563 51.336 511.833 51.2898C512.086 51.2463 512.194 51.0291 512.154 50.7254L512.123 50.5445L512.493 50.481C512.507 50.5654 512.518 50.6298 512.53 50.6733C512.594 50.948 512.734 51.0687 512.956 51.0308C513.153 50.9969 513.256 50.8013 513.214 50.56C513.172 50.3147 512.985 50.1647 512.751 50.1262L512.874 49.7366C513.236 49.7945 513.546 50.0808 513.618 50.499ZM514.383 55.3172L511.789 55.7624L511.691 55.1914L513.602 53.6628L513.597 53.6595C513.469 53.7104 513.331 53.7507 513.175 53.7776L511.51 54.0634L511.435 53.6291L514.029 53.1839L514.131 53.779L512.232 55.2806L512.237 55.284C512.365 55.233 512.503 55.1928 512.659 55.1659L514.308 54.8829L514.383 55.3172Z" fill="#FF8158"/>
<path d="M461.698 59.8212L459.104 60.2664L459.027 59.8161L461.218 59.4399L461.101 58.7563L461.522 58.7998L461.698 59.8212ZM462.077 62.0321L459.483 62.4773L459.406 62.0269L461.598 61.6508L461.48 60.9672L461.902 61.0107L462.077 62.0321ZM462.822 66.4439L460.228 66.8891L460.13 66.3181L462.041 64.7895L462.037 64.7862C461.909 64.8371 461.771 64.8774 461.614 64.9043L459.949 65.19L459.875 64.7558L462.468 64.3106L462.57 64.9057L460.671 66.4073L460.676 66.4107C460.804 66.3597 460.942 66.3195 461.099 66.2926L462.747 66.0096L462.822 66.4439Z" fill="#FF8158"/>
<path d="M487.579 55.8545L487.219 55.9495L484.801 55.3421L484.714 54.8354L487.101 55.4772L486.896 54.2829L487.298 54.2139L487.579 55.8545ZM488.238 59.7646L485.645 60.2098L485.547 59.6388L487.457 58.1102L487.453 58.1069C487.325 58.1578 487.187 58.1981 487.03 58.225L485.365 58.5108L485.291 58.0765L487.884 57.6313L487.987 58.2264L486.088 59.728L486.092 59.7314C486.22 59.6804 486.358 59.6402 486.515 59.6133L488.164 59.3303L488.238 59.7646Z" fill="#FF8158"/>
<path d="M435.56 64.3078L432.966 64.753L432.889 64.3026L435.08 63.9265L434.963 63.2429L435.385 63.2864L435.56 64.3078ZM436.01 66.9288L435.628 66.9944L435.438 65.8886L434.806 65.9185C434.91 66.0206 434.975 66.1585 435.005 66.3314C435.047 66.5767 434.998 66.7962 434.861 66.9894C434.725 67.1866 434.531 67.3069 434.277 67.3504C434.032 67.3925 433.808 67.34 433.6 67.1934C433.394 67.0509 433.269 66.8529 433.227 66.6076C433.156 66.1975 433.274 65.8709 433.579 65.6239L433.874 65.917C433.665 66.0729 433.582 66.2692 433.623 66.5064C433.671 66.7839 433.899 66.9558 434.189 66.9061C434.478 66.8565 434.651 66.6074 434.597 66.2978C434.564 66.1048 434.466 65.9684 434.299 65.8854L434.441 65.5547L435.761 65.4812L436.01 66.9288ZM436.684 70.9304L434.091 71.3756L433.993 70.8046L435.904 69.2761L435.899 69.2728C435.771 69.3237 435.633 69.3639 435.476 69.3909L433.811 69.6766L433.737 69.2423L436.33 68.7971L436.433 69.3923L434.534 70.8939L434.538 70.8972C434.666 70.8463 434.804 70.8061 434.961 70.7791L436.61 70.4961L436.684 70.9304Z" fill="#FF8158"/>
<path d="M409.087 68.8517L406.493 69.2969L406.416 68.8466L408.607 68.4704L408.49 67.7868L408.912 67.8303L409.087 68.8517ZM408.688 71.7593C408.458 71.7986 408.181 71.751 407.861 71.6197L406.817 71.1861L406.723 70.6352L407.696 71.0933L407.699 71.0886C407.67 71.0398 407.646 70.9735 407.632 70.8891C407.591 70.6518 407.639 70.4282 407.778 70.2223C407.917 70.0204 408.111 69.896 408.36 69.8532C408.614 69.8097 408.847 69.865 409.06 70.0189C409.273 70.1768 409.4 70.3868 409.446 70.6562C409.492 70.9257 409.442 71.162 409.292 71.374C409.142 71.586 408.941 71.7158 408.688 71.7593ZM408.021 70.8925C408.047 71.0413 408.117 71.1577 408.233 71.2329C408.35 71.3122 408.483 71.339 408.624 71.3149C408.769 71.29 408.885 71.2204 408.969 71.1066C409.053 70.9928 409.084 70.8632 409.059 70.7145C409.033 70.5657 408.96 70.454 408.843 70.3748C408.726 70.2955 408.593 70.2686 408.448 70.2935C408.159 70.3432 407.971 70.599 408.021 70.8925ZM410.211 75.4744L407.618 75.9196L407.52 75.3486L409.43 73.82L409.426 73.8167C409.298 73.8676 409.16 73.9079 409.003 73.9348L407.338 74.2205L407.264 73.7863L409.857 73.3411L409.96 73.9362L408.061 75.4378L408.065 75.4412C408.193 75.3902 408.331 75.35 408.488 75.3231L410.137 75.0401L410.211 75.4744Z" fill="#FF8158"/>
<path d="M519.984 49.402C520.027 49.6553 519.992 49.8809 519.872 50.0753C519.752 50.2698 519.582 50.3859 519.36 50.4239C519.147 50.4605 518.932 50.4146 518.724 50.2848C518.585 50.201 518.459 50.1191 518.35 50.0344L517.701 49.5372L517.895 50.6631L517.493 50.7321L517.2 49.0271L517.592 48.9474C518.017 49.2801 518.317 49.506 518.487 49.6259C518.642 49.7358 518.786 49.827 518.923 49.8988C519.046 49.9686 519.174 49.9882 519.302 49.962C519.498 49.9242 519.626 49.7284 519.58 49.459C519.538 49.2137 519.352 49.0469 519.111 49.0219L519.23 48.6289C519.604 48.6848 519.912 48.9838 519.984 49.402ZM520.75 54.2242L518.156 54.6694L518.058 54.0984L519.969 52.5699L519.964 52.5665C519.836 52.6175 519.698 52.6577 519.541 52.6846L517.877 52.9704L517.802 52.5361L520.396 52.0909L520.498 52.686L518.599 54.1877L518.604 54.191C518.732 54.1401 518.87 54.0998 519.026 54.0729L520.675 53.7899L520.75 54.2242Z" fill="#FF8158"/>
<path d="M468.065 58.7283L465.471 59.1735L465.394 58.7231L467.585 58.3469L467.468 57.6633L467.889 57.7069L468.065 58.7283ZM467.255 61.7767C466.849 61.8464 466.507 61.8098 466.231 61.671C465.958 61.5314 465.797 61.3149 465.746 61.0173C465.696 60.7238 465.775 60.4618 465.985 60.2394C466.199 60.0163 466.51 59.872 466.916 59.8023C467.322 59.7325 467.663 59.7651 467.935 59.9046C468.208 60.0442 468.369 60.2607 468.42 60.5583C468.471 60.8559 468.391 61.1138 468.177 61.3369C467.967 61.5592 467.661 61.7069 467.255 61.7767ZM468.018 60.6273C467.962 60.3016 467.583 60.1431 466.992 60.2446C466.401 60.3461 466.092 60.6226 466.148 60.9483C466.205 61.282 466.584 61.4365 467.179 61.3343C467.77 61.2329 468.075 60.9611 468.018 60.6273ZM469.189 65.3509L466.595 65.7961L466.497 65.2251L468.408 63.6966L468.404 63.6932C468.276 63.7442 468.138 63.7844 467.981 63.8113L466.316 64.0971L466.242 63.6628L468.835 63.2176L468.937 63.8127L467.038 65.3144L467.043 65.3177C467.171 65.2668 467.309 65.2265 467.466 65.1996L469.114 64.9166L469.189 65.3509Z" fill="#FF8158"/>
<path d="M493.888 54.4239L492.915 53.9658L492.912 53.9705C492.941 54.0193 492.965 54.0856 492.979 54.17C493.02 54.4073 492.972 54.6309 492.832 54.8328C492.694 55.0387 492.5 55.1631 492.251 55.2059C491.997 55.2494 491.764 55.1941 491.551 55.0362C491.338 54.8823 491.211 54.6723 491.165 54.4029C491.119 54.1334 491.168 53.8931 491.318 53.6811C491.468 53.469 491.67 53.3433 491.923 53.2998C492.153 53.2605 492.43 53.3081 492.751 53.4394L493.794 53.873L493.888 54.4239ZM492.59 54.1666C492.564 54.0178 492.49 53.9021 492.373 53.8228C492.257 53.7476 492.128 53.7201 491.987 53.7442C491.843 53.7691 491.726 53.8387 491.642 53.9525C491.558 54.0663 491.527 54.1959 491.552 54.3446C491.578 54.4934 491.651 54.6051 491.768 54.6843C491.885 54.7636 492.018 54.7905 492.163 54.7656C492.452 54.7159 492.64 54.4601 492.59 54.1666ZM494.612 58.711L492.018 59.1562L491.92 58.5852L493.831 57.0567L493.826 57.0533C493.698 57.1043 493.56 57.1445 493.404 57.1714L491.739 57.4572L491.664 57.0229L494.258 56.5777L494.36 57.1728L492.461 58.6745L492.466 58.6778C492.594 58.6269 492.732 58.5866 492.888 58.5597L494.537 58.2767L494.612 58.711Z" fill="#FF8158"/>
<path d="M441.927 63.2149L439.333 63.6601L439.256 63.2097L441.447 62.8336L441.33 62.15L441.751 62.1935L441.927 63.2149ZM442.352 65.6208L440.796 65.8879L440.858 66.2498L440.456 66.3188L440.394 65.9569L439.746 66.068L439.67 65.6257L440.318 65.5146L440.127 64.4047L440.537 64.3095L442.244 64.9934L442.352 65.6208ZM441.906 65.2419L440.598 64.7378L440.72 65.4455L441.906 65.2419ZM443.051 69.8375L440.457 70.2827L440.359 69.7117L442.27 68.1832L442.266 68.1799C442.138 68.2308 442 68.271 441.843 68.298L440.178 68.5837L440.104 68.1494L442.697 67.7042L442.799 68.2994L440.9 69.801L440.905 69.8043C441.033 69.7534 441.171 69.7132 441.328 69.6862L442.977 69.4032L443.051 69.8375Z" fill="#FF8158"/>
<path d="M415.454 67.7589L412.86 68.2041L412.783 67.7537L414.974 67.3775L414.857 66.6939L415.278 66.7375L415.454 67.7589ZM415.256 70.5118C415.051 70.547 414.867 70.4916 414.714 70.3481C414.612 70.6183 414.412 70.7809 414.118 70.8313C413.873 70.8734 413.661 70.8187 413.474 70.6687C413.286 70.5187 413.173 70.3147 413.128 70.0533C413.083 69.7919 413.121 69.5576 413.248 69.3538C413.374 69.1499 413.556 69.0277 413.801 68.9855C414.103 68.9338 414.345 69.0164 414.519 69.2349C414.613 69.0574 414.768 68.948 414.981 68.9114C415.178 68.8776 415.356 68.9257 415.52 69.059C415.687 69.1917 415.788 69.369 415.826 69.5901C415.864 69.8113 415.828 70.012 415.714 70.193C415.604 70.3733 415.453 70.478 415.256 70.5118ZM415.051 69.3424C414.846 69.3776 414.718 69.5526 414.756 69.7737C414.793 69.9869 414.972 70.1134 415.177 70.0782C415.374 70.0444 415.495 69.858 415.46 69.653C415.425 69.4479 415.248 69.3085 415.051 69.3424ZM413.877 69.4279C413.753 69.4493 413.652 69.5121 413.579 69.6198C413.507 69.7275 413.482 69.8517 413.506 69.9884C413.529 70.1211 413.592 70.2261 413.697 70.3034C413.801 70.3807 413.918 70.4103 414.042 70.3889C414.3 70.3448 414.47 70.1045 414.423 69.831C414.376 69.5576 414.135 69.3837 413.877 69.4279ZM416.578 74.3815L413.984 74.8267L413.886 74.2557L415.797 72.7272L415.793 72.7238C415.665 72.7748 415.527 72.815 415.37 72.8419L413.705 73.1277L413.631 72.6934L416.224 72.2482L416.327 72.8433L414.428 74.345L414.432 74.3483C414.56 74.2974 414.698 74.2571 414.855 74.2302L416.504 73.9472L416.578 74.3815Z" fill="#FF8158"/>
<path d="M507.317 52.1933L505.761 52.4604L505.823 52.8223L505.421 52.8913L505.359 52.5294L504.711 52.6405L504.635 52.1982L505.283 52.0871L505.092 50.9772L505.502 50.882L507.209 51.5659L507.317 52.1933ZM506.871 51.8144L505.563 51.3103L505.685 52.018L506.871 51.8144ZM508.016 56.4101L505.422 56.8553L505.324 56.2843L507.235 54.7557L507.231 54.7524C507.103 54.8033 506.965 54.8436 506.808 54.8705L505.143 55.1563L505.069 54.722L507.662 54.2768L507.764 54.8719L505.865 56.3735L505.87 56.3769C505.998 56.3259 506.136 56.2857 506.293 56.2588L507.941 55.9758L508.016 56.4101Z" fill="#FF8158"/>
<path d="M455.33 60.914L452.737 61.3592L452.66 60.9088L454.851 60.5326L454.734 59.849L455.155 59.8926L455.33 60.914ZM455.689 62.7145C455.733 62.9678 455.697 63.1933 455.577 63.3878C455.457 63.5822 455.287 63.6984 455.066 63.7364C454.853 63.773 454.638 63.727 454.429 63.5973C454.291 63.5134 454.165 63.4315 454.055 63.3469L453.407 62.8496L453.6 63.9756L453.198 64.0446L452.905 62.3396L453.297 62.2599C453.723 62.5925 454.022 62.8185 454.192 62.9384C454.347 63.0483 454.491 63.1395 454.628 63.2113C454.752 63.2811 454.879 63.3006 455.007 63.2745C455.203 63.2367 455.331 63.0408 455.285 62.7714C455.243 62.5261 455.057 62.3593 454.817 62.3344L454.936 61.9414C455.309 61.9973 455.617 62.2963 455.689 62.7145ZM456.455 67.5366L453.861 67.9818L453.763 67.4108L455.674 65.8823L455.669 65.879C455.542 65.9299 455.404 65.9701 455.247 65.997L453.582 66.2828L453.507 65.8485L456.101 65.4033L456.203 65.9984L454.304 67.5001L454.309 67.5034C454.437 67.4525 454.575 67.4122 454.732 67.3853L456.38 67.1023L456.455 67.5366Z" fill="#FF8158"/>
<path d="M480.221 57.0846C480.016 57.1198 479.832 57.0644 479.679 56.9209C479.577 57.1911 479.377 57.3536 479.083 57.404C478.838 57.4461 478.626 57.3915 478.439 57.2415C478.251 57.0915 478.138 56.8874 478.093 56.6261C478.048 56.3647 478.086 56.1304 478.213 55.9266C478.339 55.7227 478.521 55.6004 478.766 55.5583C479.068 55.5065 479.31 55.5892 479.484 55.8077C479.578 55.6302 479.733 55.5208 479.946 55.4842C480.143 55.4504 480.321 55.4985 480.485 55.6318C480.652 55.7645 480.753 55.9417 480.791 56.1629C480.829 56.3841 480.793 56.5848 480.679 56.7658C480.57 56.9461 480.418 57.0508 480.221 57.0846ZM480.016 55.9151C479.811 55.9503 479.683 56.1254 479.721 56.3465C479.758 56.5596 479.937 56.6862 480.142 56.651C480.339 56.6172 480.46 56.4308 480.425 56.2257C480.39 56.0206 480.213 55.8813 480.016 55.9151ZM478.842 56.0006C478.718 56.022 478.617 56.0849 478.544 56.1926C478.472 56.3003 478.447 56.4245 478.471 56.5612C478.494 56.6939 478.557 56.7989 478.662 56.8762C478.766 56.9535 478.883 56.9831 479.007 56.9617C479.265 56.9175 479.435 56.6772 479.388 56.4038C479.341 56.1304 479.1 55.9565 478.842 56.0006ZM481.543 60.9543L478.949 61.3995L478.851 60.8285L480.762 59.3L480.758 59.2966C480.63 59.3476 480.492 59.3878 480.335 59.4147L478.67 59.7005L478.596 59.2662L481.189 58.821L481.292 59.4161L479.393 60.9178L479.397 60.9211C479.525 60.8702 479.663 60.8299 479.82 60.803L481.469 60.52L481.543 60.9543Z" fill="#FF8158"/>
<path d="M428.858 65.4582L426.264 65.9034L426.187 65.453L428.378 65.0768L428.261 64.3932L428.682 64.4368L428.858 65.4582ZM429.259 67.7937L428.286 67.3356L428.282 67.3403C428.312 67.3892 428.335 67.4555 428.35 67.5399C428.391 67.7771 428.342 68.0007 428.203 68.2026C428.064 68.4086 427.87 68.5329 427.621 68.5757C427.368 68.6192 427.135 68.564 426.921 68.4061C426.709 68.2521 426.582 68.0421 426.535 67.7727C426.489 67.5033 426.539 67.2629 426.689 67.0509C426.839 66.8389 427.041 66.7132 427.294 66.6697C427.523 66.6303 427.8 66.678 428.121 66.8092L429.164 67.2428L429.259 67.7937ZM427.96 67.5364C427.935 67.3876 427.861 67.272 427.744 67.1927C427.627 67.1175 427.499 67.0899 427.358 67.1141C427.213 67.1389 427.097 67.2086 427.013 67.3223C426.929 67.4361 426.897 67.5657 426.923 67.7145C426.948 67.8633 427.021 67.9749 427.138 68.0542C427.255 68.1335 427.388 68.1603 427.533 68.1355C427.823 68.0858 428.011 67.83 427.96 67.5364ZM429.982 72.0808L427.388 72.526L427.29 71.955L429.201 70.4265L429.197 70.4232C429.069 70.4741 428.931 70.5143 428.774 70.5412L427.109 70.827L427.035 70.3927L429.628 69.9475L429.73 70.5427L427.831 72.0443L427.836 72.0476C427.964 71.9967 428.102 71.9564 428.259 71.9295L429.908 71.6465L429.982 72.0808Z" fill="#FF8158"/>
<path d="M403.705 69.3617C403.748 69.6151 403.712 69.8406 403.593 70.035C403.473 70.2295 403.302 70.3457 403.081 70.3836C402.868 70.4202 402.653 70.3743 402.445 70.2445C402.306 70.1607 402.18 70.0788 402.07 69.9941L401.422 69.4969L401.615 70.6228L401.213 70.6918L400.921 68.9869L401.313 68.9071C401.738 69.2398 402.038 69.4657 402.207 69.5856C402.363 69.6956 402.507 69.7868 402.643 69.8585C402.767 69.9284 402.895 69.9479 403.023 69.9218C403.219 69.8839 403.347 69.6881 403.3 69.4187C403.258 69.1734 403.072 69.0066 402.832 68.9816L402.951 68.5886C403.325 68.6445 403.633 68.9435 403.705 69.3617ZM402.916 72.8205C402.51 72.8902 402.168 72.8536 401.892 72.7148C401.619 72.5753 401.458 72.3587 401.407 72.0612C401.356 71.7676 401.436 71.5056 401.646 71.2833C401.86 71.0602 402.171 70.9158 402.577 70.8461C402.983 70.7764 403.324 70.809 403.596 70.9485C403.869 71.088 404.03 71.3046 404.081 71.6021C404.132 71.8997 404.052 72.1577 403.838 72.3807C403.628 72.6031 403.322 72.7508 402.916 72.8205ZM403.679 71.6712C403.623 71.3454 403.244 71.187 402.653 71.2884C402.062 71.3899 401.753 71.6664 401.809 71.9921C401.866 72.3259 402.245 72.4803 402.84 72.3782C403.431 72.2767 403.736 72.0049 403.679 71.6712ZM404.85 76.3948L402.256 76.84L402.158 76.2689L404.069 74.7404L404.064 74.7371C403.937 74.788 403.799 74.8283 403.642 74.8552L401.977 75.1409L401.902 74.7067L404.496 74.2615L404.598 74.8566L402.699 76.3582L402.704 76.3616C402.832 76.3106 402.97 76.2704 403.127 76.2435L404.775 75.9605L404.85 76.3948Z" fill="#FF8158"/>
<path d="M508.584 70.4504L461.254 78.4403C456.897 79.1758 453.961 83.3037 454.697 87.6604L456.694 99.4929C457.43 103.85 461.558 106.785 465.914 106.05L513.245 98.0597C517.601 97.3243 520.537 93.1963 519.801 88.8397L517.804 77.0071C517.069 72.6504 512.941 69.7149 508.584 70.4504Z" fill="white" stroke="#E8EAEF"/>
<path d="M478.368 94.82L478.109 93.2905L481.125 89.3783C481.379 89.0328 481.589 88.7251 481.755 88.455C481.925 88.1844 482.044 87.9272 482.114 87.6835C482.183 87.4365 482.196 87.1807 482.151 86.916C482.101 86.6218 481.992 86.3799 481.822 86.19C481.651 85.997 481.44 85.8628 481.189 85.7876C480.937 85.7091 480.664 85.6947 480.37 85.7444C480.063 85.7962 479.805 85.9036 479.597 86.0664C479.39 86.2292 479.243 86.4371 479.158 86.6901C479.073 86.9431 479.058 87.2297 479.112 87.55L477.097 87.8901C476.986 87.2332 477.039 86.6378 477.254 86.1039C477.47 85.5701 477.824 85.1255 478.315 84.7703C478.806 84.4151 479.401 84.1785 480.101 84.0604C480.82 83.939 481.467 83.9608 482.043 84.1258C482.621 84.287 483.097 84.5663 483.47 84.9639C483.843 85.3614 484.078 85.8494 484.176 86.4279C484.24 86.807 484.228 87.1939 484.14 87.5886C484.055 87.9827 483.862 88.4372 483.559 88.9522C483.255 89.464 482.811 90.0918 482.228 90.8357L481.004 92.5195L481.016 92.5881L485.232 91.8764L485.525 93.6118L478.368 94.82ZM497.02 81.3455L498.714 91.3853L496.881 91.6948L491.446 86.1131L491.373 86.1256L492.44 92.4445L490.317 92.8029L488.622 82.7631L490.485 82.4486L495.884 88.0311L495.973 88.0162L494.907 81.7022L497.02 81.3455Z" fill="#171923"/>
<defs>
<linearGradient id="paint0_linear_2080_363" x1="631.25" y1="41.25" x2="791.25" y2="181.25" gradientUnits="userSpaceOnUse">
<stop stop-color="#6B737D"/>
<stop offset="1" stop-color="#4F575F"/>
</linearGradient>
<linearGradient id="paint1_linear_2080_363" x1="11.25" y1="1.25001" x2="711.25" y2="141.25" gradientUnits="userSpaceOnUse">
<stop stop-color="#C8CDD4"/>
<stop offset="0.45" stop-color="#A8B0BA"/>
<stop offset="1" stop-color="#8E96A1"/>
</linearGradient>
<linearGradient id="paint2_linear_2080_363" x1="-8.75" y1="141.25" x2="631.25" y2="201.25" gradientUnits="userSpaceOnUse">
<stop stop-color="#7A828C"/>
<stop offset="1" stop-color="#5E666F"/>
</linearGradient>
<linearGradient id="paint3_linear_2080_363" x1="-8.75001" y1="141.25" x2="631.25" y2="201.25" gradientUnits="userSpaceOnUse">
<stop stop-color="#7A828C"/>
<stop offset="1" stop-color="#5E666F"/>
</linearGradient>
<linearGradient id="paint4_linear_2080_363" x1="318.536" y1="63.2094" x2="371.459" y2="125.855" gradientUnits="userSpaceOnUse">
<stop stop-color="#A06C35"/>
<stop offset="1" stop-color="#7A4F24"/>
</linearGradient>
<linearGradient id="paint5_linear_2080_363" x1="150.47" y1="53.8392" x2="339.819" y2="105.067" gradientUnits="userSpaceOnUse">
<stop stop-color="#E8C48A"/>
<stop offset="0.5" stop-color="#D4A86A"/>
<stop offset="1" stop-color="#C49252"/>
</linearGradient>
<linearGradient id="paint6_linear_2080_363" x1="161.252" y1="95.7676" x2="319.031" y2="136.708" gradientUnits="userSpaceOnUse">
<stop stop-color="#B07A3E"/>
<stop offset="1" stop-color="#8F5F2E"/>
</linearGradient>
<linearGradient id="paint7_linear_2080_363" x1="161.252" y1="95.7677" x2="319.031" y2="136.708" gradientUnits="userSpaceOnUse">
<stop stop-color="#B07A3E"/>
<stop offset="1" stop-color="#8F5F2E"/>
</linearGradient>
</defs>
</svg>
