<svg width="763" height="267" viewBox="0 -60 763 267" fill="none" xmlns="http://www.w3.org/2000/svg" aria-label="Základní scéna tření">
<defs>
<linearGradient id="paint0_linear_2093_787" x1="631.25" y1="41.3784" x2="791.25" y2="181.378" gradientUnits="userSpaceOnUse">
<stop stop-color="#6B737D"/>
<stop offset="1" stop-color="#4F575F"/>
</linearGradient>
<linearGradient id="paint1_linear_2093_787" x1="11.25" y1="1.37843" x2="711.25" y2="141.378" gradientUnits="userSpaceOnUse">
<stop stop-color="#C8CDD4"/>
<stop offset="0.45" stop-color="#A8B0BA"/>
<stop offset="1" stop-color="#8E96A1"/>
</linearGradient>
<linearGradient id="paint2_linear_2093_787" x1="-8.75" y1="141.378" x2="631.25" y2="201.378" gradientUnits="userSpaceOnUse">
<stop stop-color="#7A828C"/>
<stop offset="1" stop-color="#5E666F"/>
</linearGradient>
<linearGradient id="paint3_linear_2093_787" x1="-8.75001" y1="141.378" x2="631.25" y2="201.378" gradientUnits="userSpaceOnUse">
<stop stop-color="#7A828C"/>
<stop offset="1" stop-color="#5E666F"/>
</linearGradient>
<linearGradient id="paint0_linear_2093_786" x1="631.25" y1="100.521" x2="791.25" y2="240.521" gradientUnits="userSpaceOnUse">
<stop stop-color="#6B737D"/>
<stop offset="1" stop-color="#4F575F"/>
</linearGradient>
<linearGradient id="paint1_linear_2093_786" x1="11.25" y1="60.5215" x2="711.25" y2="200.521" gradientUnits="userSpaceOnUse">
<stop stop-color="#C8CDD4"/>
<stop offset="0.45" stop-color="#A8B0BA"/>
<stop offset="1" stop-color="#8E96A1"/>
</linearGradient>
<linearGradient id="paint2_linear_2093_786" x1="-8.75" y1="200.521" x2="631.25" y2="260.521" gradientUnits="userSpaceOnUse">
<stop stop-color="#7A828C"/>
<stop offset="1" stop-color="#5E666F"/>
</linearGradient>
<linearGradient id="paint3_linear_2093_786" x1="-8.75001" y1="200.521" x2="631.25" y2="260.521" gradientUnits="userSpaceOnUse">
<stop stop-color="#7A828C"/>
<stop offset="1" stop-color="#5E666F"/>
</linearGradient>
</defs>
<g id="pad" aria-label="Kovová podložka">
<path d="M551.25 1.37842L761.25 81.3784V126.378L551.25 46.3784V1.37842Z" fill="url(#paint0_linear_2093_787)" stroke="#3E4650" stroke-width="2.5" stroke-linejoin="round"/>
<path d="M1.25 81.3784L551.25 1.37842L761.25 81.3784L211.25 161.378L1.25 81.3784Z" fill="url(#paint1_linear_2093_787)" stroke="#3E4650" stroke-width="2.5" stroke-linejoin="round"/>
<path d="M1.25 81.3784L211.25 161.378V206.378L1.25 126.378V81.3784Z" fill="url(#paint2_linear_2093_787)" stroke="#3E4650" stroke-width="2.5" stroke-linejoin="round"/>
<path d="M211.25 161.378L761.25 81.3784V126.378L211.25 206.378V161.378Z" fill="url(#paint3_linear_2093_787)" stroke="#3E4650" stroke-width="2.5" stroke-linejoin="round"/>
</g>
<g id="rig">
<g id="beam">
<g id="flatScene">
<g id="beamFlat">
<path class="beam-hook" d="M421.5 49.6284L395 56.1284" stroke="black"/>
<path class="beam-body" d="M408.25 113.378L217.75 143.378L112 100.378V46.6284L301.75 16.6284L408.25 59.6284V113.378Z" fill="#F1A558"/>
<path class="beam-wire" d="M112 46.6284L301.75 16.6284L408.25 59.6284V113.378L217.75 143.378L112 100.378V46.6284ZM217.75 143.378V89.6284M217.75 89.6284L408.25 59.6284M217.75 89.6284L112 46.6284" stroke="#5C3A18" stroke-width="1.5"/>
</g>
<g id="silomerFlat">
<g id="silomerMorph">
<path id="springPath0" d="M612.81 17.4316C611.437 6.28312 600.367 1.62842 600.367 1.62842L441.299 29.2694C441.299 29.2694 432.01 35.0029 435.361 48.2267C438.711 61.4505 445.646 64.0551 445.646 64.0551L608.505 36.4536C608.505 36.4536 614.182 28.5801 612.81 17.4316Z" fill="white"/>
<path id="springPath1" d="M442.616 64.4975C440.334 64.889 437.188 57.6551 435.59 48.3396C433.991 39.0247 434.546 31.1553 436.827 30.7637C439.109 30.3721 442.256 37.6065 443.854 46.9214C445.453 56.2369 444.898 64.1059 442.616 64.4975Z" stroke="#9C9B9B" stroke-width="3.59788" stroke-linecap="round" stroke-linejoin="round"/>
<path id="springPath2" d="M574.268 38.129C572.482 38.4353 570.021 32.7749 568.77 25.4854C567.519 18.1965 567.953 12.0385 569.738 11.7321C571.524 11.4256 573.986 17.0868 575.236 24.3757C576.487 31.6652 576.054 37.8225 574.268 38.129Z" fill="#EF3A50"/>
<path id="springPath3" d="M573.676 24.377L430.685 48.9141" stroke="#565655" stroke-width="2.39859" stroke-linecap="round" stroke-linejoin="round"/>
<path id="springPath4" d="M430.173 49.0023C429.741 46.4876 427.353 44.7983 424.838 45.2299C422.324 45.6614 420.635 48.0502 421.067 50.5649C421.498 53.0796 423.887 54.7676 426.401 54.3361" stroke="#565655" stroke-width="2.39859" stroke-linecap="round" stroke-linejoin="round"/>
<path id="springPath5" d="M572.161 25.8525C572.034 25.8743 571.788 25.4383 571.665 24.7226C571.529 23.9318 571.629 23.5132 571.756 23.4914C571.883 23.4696 572.077 23.9802 572.189 24.6327C572.301 25.284 572.288 25.8307 572.161 25.8525Z" fill="#565655"/>
<path id="springPath6" d="M574.267 38.1287C572.481 38.4351 570.019 32.7748 568.768 25.4853C567.517 18.1963 567.952 12.0382 569.737 11.7319" fill="#EF3A50"/>
<path id="springPath7" d="M574.124 37.2825C572.338 37.5889 569.941 32.3074 568.77 25.486C567.599 18.6646 568.099 12.8865 569.885 12.5801" stroke="#813A50" stroke-width="1.79894" stroke-miterlimit="10" stroke-linecap="round"/>
<path id="springPath8" d="M442.617 64.4974C440.335 64.889 437.189 57.6551 435.59 48.3396C433.992 39.0247 434.546 31.1552 436.828 30.7637" stroke="#1D1D1B" stroke-width="3.59788" stroke-linecap="round" stroke-linejoin="round"/>
<path id="springPath9" d="M611.313 35.5483L443.957 64.2665" stroke="#1D1D1B" stroke-width="3.59788" stroke-linecap="round" stroke-linejoin="round"/>
<path id="springPath10" d="M628.641 16.1382L613.561 18.7259" stroke="black" stroke-width="0.68"/>
<path id="springPath11" d="M632.536 10.1257C629.628 10.6248 627.674 13.387 628.173 16.2959C628.673 19.2043 631.435 21.1578 634.344 20.6587C637.252 20.1596 639.205 17.3968 638.706 14.4885C638.207 11.5795 635.445 9.62667 632.536 10.1257Z" stroke="#F19100" stroke-width="1.79894" stroke-miterlimit="10" stroke-linecap="round"/>
<path id="springPath12" d="M600.392 6.2207C599.539 6.367 604.139 33.1717 603.286 33.318C602.434 33.4642 597.834 6.6595 596.982 6.8059C596.129 6.9522 600.729 33.7568 599.877 33.9031C599.024 34.0493 594.424 7.2447 593.572 7.3909C592.72 7.5372 597.319 34.3419 596.467 34.4881C595.615 34.6344 591.015 7.8297 590.163 7.976C589.31 8.1223 593.909 34.927 593.057 35.0734C592.204 35.2196 587.605 8.4149 586.752 8.5612C585.9 8.7075 590.499 35.5122 589.647 35.6584C588.794 35.8047 584.195 9.0001 583.342 9.1464C582.489 9.2927 587.089 36.0974 586.237 36.2436C585.384 36.3899 580.785 9.5852 579.932 9.7316C579.079 9.8779 583.679 36.6825 582.826 36.8289C581.973 36.9752 577.374 10.1706 576.521 10.3169C575.668 10.4633 580.268 37.2679 579.415 37.4143" stroke="#858585" stroke-width="2.39859" stroke-linecap="round" stroke-linejoin="round"/>
<path id="springPath13" d="M576.522 10.3169C575.67 10.4633 580.269 37.268 579.416 37.4143C579.041 37.4787 577.948 32.3348 576.757 26.567C576.206 23.9017 575.622 24.0019 573.813 24.3124" stroke="#565655" stroke-width="2.39859" stroke-linecap="round" stroke-linejoin="round"/>
<path id="springPath14" d="M579.933 9.73145C579.08 9.87775 583.679 36.6824 582.827 36.8287" stroke="#565655" stroke-width="2.39859" stroke-linecap="round" stroke-linejoin="round"/>
<path id="springPath15" d="M607.215 5.05029C606.362 5.19659 610.962 32.0012 610.109 32.1476C609.257 32.2938 604.657 5.48919 603.805 5.63549C602.952 5.78179 607.552 32.5864 606.7 32.7327C605.847 32.879 601.247 6.07439 600.394 6.22069C599.542 6.36699 604.142 33.1716 603.289 33.318C602.436 33.4642 597.837 6.65959 596.985 6.80579C596.132 6.95219 600.731 33.7568 599.879 33.9032C599.026 34.0495 594.426 7.24479 593.574 7.39119C592.721 7.53749 597.32 34.3421 596.467 34.4885" stroke="#858585" stroke-width="2.39859" stroke-linecap="round" stroke-linejoin="round"/>
<path id="springPath16" d="M583.343 9.14648C582.49 9.29288 587.09 36.0975 586.237 36.2437" stroke="#565655" stroke-width="2.39859" stroke-linecap="round" stroke-linejoin="round"/>
<path id="springPath17" d="M586.753 8.56152C585.9 8.70772 590.5 35.5124 589.647 35.6587" stroke="#565655" stroke-width="2.39859" stroke-linecap="round" stroke-linejoin="round"/>
<path id="springPath18" d="M590.164 7.97607C589.311 8.12247 593.911 34.9271 593.058 35.0734" stroke="#565655" stroke-width="2.39859" stroke-linecap="round" stroke-linejoin="round"/>
<path id="springPath19" d="M593.574 7.39111C592.722 7.53741 597.322 34.342 596.469 34.4883" stroke="#565655" stroke-width="2.39859" stroke-linecap="round" stroke-linejoin="round"/>
<path id="springPath20" d="M596.982 6.80615C596.13 6.95245 600.73 33.7571 599.877 33.9034" stroke="#565655" stroke-width="2.39859" stroke-linecap="round" stroke-linejoin="round"/>
<path id="springPath21" d="M600.393 6.2207C599.541 6.3671 604.14 33.1717 603.288 33.318" stroke="#565655" stroke-width="2.39859" stroke-linecap="round" stroke-linejoin="round"/>
<path id="springPath22" d="M603.804 5.63574C602.951 5.78204 607.551 32.5866 606.698 32.733" stroke="#565655" stroke-width="2.39859" stroke-linecap="round" stroke-linejoin="round"/>
<path id="springPath23" d="M610.108 32.1482C610.961 32.0019 606.361 5.19722 607.213 5.05102C608.175 4.88592 611.386 14.0951 612.058 18.0159" stroke="#565655" stroke-width="2.39859" stroke-linecap="round" stroke-linejoin="round"/>
<path id="springPath24" d="M605.525 1.81597C607.807 1.42427 610.953 8.65817 612.551 17.9731C614.15 27.2886 613.596 35.1574 611.313 35.5491" stroke="#1D1D1B" stroke-width="3.59788" stroke-linecap="round" stroke-linejoin="round"/>
<path id="springPath25" d="M503.225 33.3185C502.278 25.5297 502.949 19.4234 504.953 19.0796" stroke="#FF8158" stroke-width="1.1993" stroke-linecap="round" stroke-linejoin="round"/>
<path id="springPath26" d="M510.009 32.0757C509.076 24.3235 509.75 18.2563 511.747 17.9136" stroke="#FF8158" stroke-width="1.1993" stroke-linecap="round" stroke-linejoin="round"/>
<path id="springPath27" d="M516.336 30.9901C515.402 23.2379 516.076 17.1707 518.073 16.8281" stroke="#FF8158" stroke-width="1.1993" stroke-linecap="round" stroke-linejoin="round"/>
<path id="springPath28" d="M523.131 29.8242C522.197 22.072 522.871 16.0049 524.868 15.6621" stroke="#FF8158" stroke-width="1.1993" stroke-linecap="round" stroke-linejoin="round"/>
<path id="springPath29" d="M529.468 28.8156C528.52 21.0268 529.192 14.9205 531.195 14.5767" stroke="#FF8158" stroke-width="1.1993" stroke-linecap="round" stroke-linejoin="round"/>
<path id="springPath30" d="M536.252 27.5726C535.318 19.8204 535.992 13.7532 537.989 13.4106" stroke="#FF8158" stroke-width="1.1993" stroke-linecap="round" stroke-linejoin="round"/>
<path id="springPath31" d="M542.576 26.4818C541.642 18.7296 542.317 12.6624 544.313 12.3198" stroke="#FF8158" stroke-width="1.1993" stroke-linecap="round" stroke-linejoin="round"/>
<path id="springPath32" d="M549.343 25.1444C548.409 17.3922 549.083 11.325 551.08 10.9824" stroke="#FF8158" stroke-width="1.1993" stroke-linecap="round" stroke-linejoin="round"/>
<path id="springPath33" d="M555.699 24.2352C554.765 16.483 555.439 10.4159 557.436 10.0732" stroke="#FF8158" stroke-width="1.1993" stroke-linecap="round" stroke-linejoin="round"/>
<path id="springPath34" d="M562.025 23.1498C561.091 15.3977 561.765 9.33049 563.763 8.98779" stroke="#FF8158" stroke-width="1.1993" stroke-linecap="round" stroke-linejoin="round"/>
<path id="springPath35" d="M568.392 22.057C567.459 14.3048 568.133 8.23772 570.13 7.89502" stroke="#FF8158" stroke-width="1.1993" stroke-linecap="round" stroke-linejoin="round"/>
<path id="springPath36" d="M438.216 44.4741C437.268 36.6854 437.94 30.5792 439.943 30.2354" stroke="#FF8158" stroke-width="1.1993" stroke-linecap="round" stroke-linejoin="round"/>
<path id="springPath37" d="M444.999 43.2313C444.066 35.4791 444.74 29.412 446.737 29.0693" stroke="#FF8158" stroke-width="1.1993" stroke-linecap="round" stroke-linejoin="round"/>
<path id="springPath38" d="M451.326 42.1459C450.392 34.3937 451.067 28.3266 453.063 27.9839" stroke="#FF8158" stroke-width="1.1993" stroke-linecap="round" stroke-linejoin="round"/>
<path id="springPath39" d="M458.121 40.9799C457.187 33.2277 457.861 27.1606 459.858 26.8179" stroke="#FF8158" stroke-width="1.1993" stroke-linecap="round" stroke-linejoin="round"/>
<path id="springPath40" d="M464.458 39.9712C463.51 32.1824 464.182 26.0762 466.185 25.7324" stroke="#FF8158" stroke-width="1.1993" stroke-linecap="round" stroke-linejoin="round"/>
<path id="springPath41" d="M471.242 38.728C470.308 30.9758 470.983 24.9086 472.979 24.5659" stroke="#FF8158" stroke-width="1.1993" stroke-linecap="round" stroke-linejoin="round"/>
<path id="springPath42" d="M477.567 37.6372C476.634 29.8849 477.308 23.8178 479.305 23.4751" stroke="#FF8158" stroke-width="1.1993" stroke-linecap="round" stroke-linejoin="round"/>
<path id="springPath43" d="M484.332 36.2998C483.398 28.5476 484.072 22.4804 486.069 22.1377" stroke="#FF8158" stroke-width="1.1993" stroke-linecap="round" stroke-linejoin="round"/>
<path id="springPath44" d="M490.689 35.3911C489.756 27.6389 490.429 21.5718 492.427 21.229" stroke="#FF8158" stroke-width="1.1993" stroke-linecap="round" stroke-linejoin="round"/>
<path id="springPath45" d="M497.015 34.3056C496.082 26.5535 496.756 20.4863 498.753 20.1436" stroke="#FF8158" stroke-width="1.1993" stroke-linecap="round" stroke-linejoin="round"/>
<path id="springPath46" d="M605.524 1.81543L436.492 30.8212" stroke="#1D1D1B" stroke-width="3.59788" stroke-linecap="round" stroke-linejoin="round"/>
<path id="springPath47" d="M564.361 30.0713L561.768 30.5164L561.691 30.066L563.882 29.6899L563.765 29.0063L564.186 29.0499L564.361 30.0713ZM565.106 34.4831L562.512 34.9282L562.414 34.3572L564.325 32.8288L564.321 32.8254C564.193 32.8764 564.055 32.9166 563.898 32.9435L562.233 33.2292L562.159 32.7949L564.752 32.3498L564.855 32.9449L562.956 34.4465L562.96 34.4498C563.088 34.3989 563.226 34.3587 563.383 34.3318L565.032 34.0488L565.106 34.4831Z" fill="#FF8158"/>
<path id="springPath48" d="M569.874 29.7594C569.468 29.8291 569.126 29.7925 568.85 29.6536C568.577 29.5141 568.416 29.2974 568.365 28.9999C568.315 28.7063 568.394 28.4444 568.604 28.2221C568.818 27.999 569.129 27.8546 569.535 27.7849C569.941 27.7152 570.282 27.7478 570.554 27.8873C570.827 28.0269 570.988 28.2434 571.039 28.541C571.09 28.8386 571.01 29.0966 570.796 29.3197C570.586 29.542 570.28 29.6897 569.874 29.7594ZM570.637 28.61C570.581 28.2843 570.202 28.1259 569.611 28.2273C569.02 28.3288 568.711 28.6051 568.767 28.9309C568.824 29.2646 569.203 29.4191 569.798 29.317C570.389 29.2155 570.694 28.9438 570.637 28.61ZM571.808 33.3337L569.214 33.7788L569.116 33.2077L571.027 31.6793L571.022 31.676C570.894 31.7269 570.756 31.7671 570.6 31.7941L568.935 32.0797L568.86 31.6454L571.454 31.2004L571.556 31.7955L569.657 33.297L569.662 33.3005C569.79 33.2496 569.928 33.2092 570.084 33.1823L571.733 32.8994L571.808 33.3337Z" fill="#FF8158"/>
<path id="springPath49" d="M511.642 39.6812C511.413 39.7205 511.136 39.6729 510.815 39.5416L509.772 39.1079L509.678 38.557L510.651 39.0152L510.654 39.0105C510.625 38.9617 510.601 38.8954 510.587 38.8109C510.546 38.5737 510.594 38.3501 510.733 38.1442C510.872 37.9423 511.066 37.8179 511.315 37.7751C511.569 37.7317 511.802 37.7869 512.014 37.9408C512.228 38.0988 512.355 38.3088 512.401 38.5782C512.447 38.8476 512.397 39.084 512.247 39.296C512.097 39.508 511.896 39.6377 511.642 39.6812ZM510.976 38.8144C511.002 38.9632 511.071 39.0796 511.188 39.1548C511.305 39.2341 511.438 39.2609 511.579 39.2368C511.723 39.212 511.84 39.1423 511.924 39.0285C512.008 38.9148 512.039 38.7852 512.014 38.6364C511.988 38.4876 511.915 38.3759 511.798 38.2967C511.681 38.2174 511.548 38.1906 511.403 38.2154C511.114 38.2651 510.926 38.5209 510.976 38.8144ZM513.166 43.3964L510.572 43.8415L510.474 43.2704L512.385 41.742L512.381 41.7387C512.253 41.7896 512.115 41.8298 511.958 41.8568L510.293 42.1424L510.219 41.7081L512.812 41.2631L512.914 41.8582L511.015 43.3597L511.02 43.3631C511.148 43.3122 511.286 43.2719 511.443 43.245L513.091 42.9621L513.166 43.3964Z" fill="#FF8158"/>
<path id="springPath50" d="M538.63 34.9096L538.248 34.9751L538.058 33.8693L537.426 33.8992C537.53 34.0013 537.595 34.1391 537.625 34.3121C537.667 34.5574 537.618 34.7769 537.481 34.9701C537.345 35.1673 537.151 35.2876 536.897 35.3311C536.652 35.3732 536.428 35.3206 536.22 35.174C536.014 35.0315 535.889 34.8335 535.847 34.5882C535.776 34.1781 535.894 33.8515 536.199 33.6045L536.494 33.8976C536.285 34.0535 536.202 34.2498 536.243 34.487C536.291 34.7645 536.519 34.9365 536.809 34.8868C537.098 34.8371 537.271 34.5881 537.217 34.2785C537.184 34.0854 537.086 33.9491 536.919 33.866L537.061 33.5353L538.381 33.4619L538.63 34.9096ZM539.304 38.9112L536.71 39.3563L536.612 38.7853L538.523 37.2569L538.519 37.2535C538.391 37.3044 538.253 37.3447 538.096 37.3716L536.431 37.6573L536.357 37.223L538.95 36.7779L539.052 37.373L537.153 38.8746L537.158 38.8779C537.286 38.827 537.424 38.7868 537.581 38.7598L539.229 38.4769L539.304 38.9112Z" fill="#FF8158"/>
<path id="springPath51" d="M486.618 43.4122L484.024 43.8573L483.947 43.4069L486.139 43.0308L486.021 42.3472L486.443 42.3908L486.618 43.4122ZM486.977 45.2167C487.019 45.458 486.981 45.6715 486.868 45.8605C486.756 46.0495 486.609 46.1576 486.42 46.19C486.166 46.2335 485.968 46.16 485.816 45.9749C485.763 46.22 485.529 46.4257 485.235 46.476C485.014 46.514 484.81 46.458 484.627 46.3113C484.449 46.1639 484.335 45.9558 484.289 45.6904C484.206 45.2079 484.432 44.8587 484.751 44.6673L485.011 44.9995C484.751 45.1476 484.644 45.348 484.688 45.6013C484.738 45.8949 484.923 46.0536 485.192 46.0074C485.445 45.9639 485.553 45.7468 485.513 45.4431L485.482 45.2621L485.852 45.1987C485.867 45.2831 485.878 45.3474 485.889 45.391C485.953 45.6657 486.094 45.7864 486.315 45.7485C486.512 45.7147 486.615 45.519 486.574 45.2777C486.532 45.0324 486.344 44.8824 486.11 44.8439L486.234 44.4543C486.596 44.5123 486.905 44.7985 486.977 45.2167ZM487.742 50.0349L485.148 50.48L485.05 49.909L486.961 48.3805L486.957 48.3772C486.829 48.4281 486.691 48.4684 486.534 48.4953L484.869 48.7809L484.795 48.3467L487.388 47.9016L487.49 48.4967L485.591 49.9983L485.596 50.0016C485.724 49.9507 485.862 49.9104 486.019 49.8835L487.667 49.6006L487.742 50.0349Z" fill="#FF8158"/>
<path id="springPath52" d="M460.146 47.9551L457.552 48.4002L457.475 47.9498L459.666 47.5737L459.549 46.8901L459.97 46.9337L460.146 47.9551ZM460.604 50.6285L460.244 50.7234L457.826 50.1159L457.739 49.6092L460.126 50.2511L459.921 49.0568L460.323 48.9878L460.604 50.6285ZM461.263 54.5385L458.669 54.9836L458.571 54.4126L460.482 52.8841L460.478 52.8808C460.35 52.9317 460.212 52.972 460.055 52.9989L458.39 53.2846L458.316 52.8503L460.909 52.4052L461.011 53.0003L459.112 54.5019L459.117 54.5052C459.245 54.4543 459.383 54.414 459.54 54.3871L461.188 54.1042L461.263 54.5385Z" fill="#FF8158"/>
<path id="springPath53" d="M551.608 31.8503C551.65 32.0916 551.612 32.3051 551.499 32.4941C551.387 32.6831 551.24 32.7912 551.051 32.8236C550.798 32.8671 550.599 32.7935 550.447 32.6085C550.394 32.8535 550.16 33.0593 549.866 33.1097C549.645 33.1476 549.441 33.0915 549.259 32.9448C549.08 32.7975 548.966 32.5894 548.92 32.324C548.837 31.8415 549.063 31.4923 549.382 31.3009L549.642 31.633C549.382 31.7812 549.275 31.9816 549.319 32.2349C549.369 32.5284 549.554 32.6872 549.823 32.641C550.077 32.5975 550.184 32.3803 550.144 32.0767L550.113 31.8957L550.483 31.8322C550.498 31.9167 550.509 31.981 550.521 32.0246C550.584 32.2993 550.725 32.42 550.946 32.382C551.143 32.3482 551.246 32.1525 551.205 31.9113C551.163 31.666 550.976 31.516 550.741 31.4775L550.865 31.0879C551.227 31.1458 551.537 31.4321 551.608 31.8503ZM552.373 36.6685L549.779 37.1136L549.681 36.5426L551.592 35.0141L551.588 35.0108C551.46 35.0617 551.322 35.102 551.165 35.1289L549.5 35.4146L549.426 34.9803L552.019 34.5352L552.121 35.1303L550.222 36.6319L550.227 36.6352C550.355 36.5843 550.493 36.544 550.65 36.5171L552.299 36.2342L552.373 36.6685Z" fill="#FF8158"/>
<path id="springPath54" d="M499.687 41.1695L497.093 41.6145L497.016 41.1642L499.207 40.7881L499.09 40.1045L499.511 40.1481L499.687 41.1695ZM500.066 43.3804L497.472 43.8254L497.395 43.3751L499.587 42.999L499.469 42.3154L499.891 42.359L500.066 43.3804ZM500.811 47.7921L498.217 48.2372L498.119 47.6662L500.03 46.1378L500.025 46.1344C499.898 46.1854 499.76 46.2256 499.603 46.2525L497.938 46.5382L497.863 46.1039L500.457 45.6588L500.559 46.254L498.66 47.7555L498.665 47.7588C498.793 47.7079 498.931 47.6677 499.088 47.6408L500.736 47.3578L500.811 47.7921Z" fill="#FF8158"/>
<path id="springPath55" d="M525.57 37.2047L525.209 37.2996L522.791 36.6921L522.704 36.1854L525.091 36.8273L524.886 35.633L525.288 35.564L525.57 37.2047ZM526.228 41.1148L523.634 41.5598L523.536 40.9888L525.447 39.4604L525.443 39.4571C525.315 39.508 525.177 39.5482 525.02 39.5751L523.355 39.8608L523.281 39.4265L525.874 38.9814L525.977 39.5766L524.077 41.0781L524.082 41.0814C524.21 41.0305 524.348 40.9903 524.505 40.9634L526.154 40.6805L526.228 41.1148Z" fill="#FF8158"/>
<path id="springPath56" d="M473.55 45.6548L470.956 46.0999L470.879 45.6495L473.071 45.2734L472.953 44.5898L473.375 44.6334L473.55 45.6548ZM474 48.2759L473.618 48.3414L473.428 47.2356L472.796 47.2655C472.9 47.3676 472.965 47.5054 472.995 47.6784C473.037 47.9237 472.988 48.1432 472.851 48.3364C472.715 48.5336 472.521 48.6539 472.267 48.6974C472.022 48.7395 471.798 48.6869 471.59 48.5403C471.384 48.3978 471.259 48.1998 471.217 47.9545C471.146 47.5444 471.264 47.2178 471.569 46.9708L471.864 47.2639C471.655 47.4198 471.572 47.6161 471.613 47.8533C471.661 48.1308 471.889 48.3028 472.179 48.2531C472.468 48.2034 472.641 47.9544 472.587 47.6448C472.554 47.4517 472.456 47.3154 472.289 47.2323L472.431 46.9016L473.751 46.8282L474 48.2759ZM474.674 52.2775L472.08 52.7226L471.982 52.1516L473.893 50.6231L473.889 50.6199C473.761 50.6708 473.623 50.711 473.466 50.7379L471.801 51.0235L471.727 50.5892L474.32 50.1442L474.422 50.7393L472.523 52.2409L472.528 52.2442C472.656 52.1933 472.794 52.153 472.951 52.1261L474.6 51.8432L474.674 52.2775Z" fill="#FF8158"/>
<path id="springPath57" d="M447.075 50.1978L444.481 50.6428L444.404 50.1925L446.596 49.8164L446.478 49.1328L446.9 49.1764L447.075 50.1978ZM446.676 53.1053C446.446 53.1446 446.169 53.097 445.849 52.9657L444.805 52.532L444.711 51.9811L445.684 52.4393L445.687 52.4346C445.658 52.3857 445.634 52.3195 445.62 52.235C445.579 51.9978 445.628 51.7742 445.766 51.5683C445.905 51.3664 446.099 51.242 446.349 51.1992C446.602 51.1558 446.835 51.211 447.048 51.3649C447.261 51.5228 447.388 51.7329 447.434 52.0023C447.481 52.2717 447.43 52.508 447.28 52.7201C447.13 52.9321 446.929 53.0618 446.676 53.1053ZM446.009 52.2385C446.035 52.3873 446.105 52.5037 446.221 52.5789C446.338 52.6582 446.471 52.685 446.612 52.6609C446.757 52.636 446.873 52.5664 446.957 52.4526C447.041 52.3389 447.072 52.2093 447.047 52.0605C447.021 51.9117 446.948 51.8 446.831 51.7208C446.714 51.6415 446.581 51.6146 446.436 51.6395C446.147 51.6892 445.959 51.945 446.009 52.2385ZM448.199 56.8204L445.605 57.2655L445.507 56.6945L447.418 55.1661L447.414 55.1627C447.286 55.2137 447.148 55.2539 446.991 55.2808L445.326 55.5665L445.252 55.1322L447.845 54.6871L447.947 55.2823L446.048 56.7838L446.053 56.7871C446.181 56.7362 446.319 56.696 446.476 56.6691L448.124 56.3862L448.199 56.8204Z" fill="#FF8158"/>
<path id="springPath58" d="M557.974 30.7536C558.017 31.0069 557.981 31.2325 557.861 31.4269C557.742 31.6213 557.571 31.7375 557.35 31.7755C557.137 31.8121 556.922 31.7661 556.713 31.6363C556.575 31.5525 556.449 31.4706 556.339 31.3859L555.691 30.8886L555.884 32.0146L555.482 32.0836L555.189 30.3786L555.581 30.2989C556.007 30.6316 556.307 30.8575 556.476 30.9774C556.632 31.0874 556.776 31.1786 556.912 31.2504C557.036 31.3202 557.163 31.3397 557.291 31.3136C557.488 31.2758 557.616 31.08 557.569 30.8106C557.527 30.5653 557.341 30.3985 557.101 30.3735L557.22 29.9805C557.594 30.0364 557.902 30.3354 557.974 30.7536ZM558.739 35.5758L556.145 36.0209L556.047 35.4499L557.958 33.9215L557.954 33.9181C557.826 33.9691 557.688 34.0093 557.531 34.0362L555.866 34.3219L555.792 33.8876L558.385 33.4425L558.487 34.0376L556.588 35.5392L556.593 35.5425C556.721 35.4916 556.859 35.4514 557.016 35.4245L558.664 35.1415L558.739 35.5758Z" fill="#FF8158"/>
<path id="springPath59" d="M506.055 40.0771L503.461 40.5222L503.384 40.0718L505.575 39.6958L505.458 39.0122L505.879 39.0557L506.055 40.0771ZM505.245 43.1255C504.839 43.1952 504.497 43.1586 504.221 43.0197C503.948 42.8802 503.787 42.6636 503.736 42.366C503.686 42.0725 503.765 41.8105 503.975 41.5882C504.189 41.3651 504.5 41.2208 504.906 41.1511C505.312 41.0814 505.653 41.1139 505.925 41.2535C506.198 41.393 506.359 41.6096 506.41 41.9072C506.461 42.2047 506.381 42.4627 506.167 42.6857C505.957 42.9081 505.651 43.0558 505.245 43.1255ZM506.008 41.9762C505.952 41.6505 505.573 41.492 504.982 41.5934C504.391 41.6948 504.082 41.9713 504.138 42.297C504.195 42.6308 504.574 42.7853 505.169 42.6831C505.76 42.5817 506.065 42.3099 506.008 41.9762ZM507.179 46.6998L504.585 47.1449L504.487 46.5739L506.398 45.0455L506.393 45.0421C506.266 45.093 506.128 45.1333 505.971 45.1602L504.306 45.4459L504.231 45.0116L506.825 44.5665L506.927 45.1616L505.028 46.6632L505.033 46.6665C505.161 46.6156 505.299 46.5754 505.456 46.5484L507.104 46.2655L507.179 46.6998Z" fill="#FF8158"/>
<path id="springPath60" d="M531.877 35.7737L530.905 35.3156L530.901 35.3203C530.93 35.3691 530.954 35.4354 530.969 35.5198C531.009 35.7571 530.961 35.9807 530.821 36.1826C530.683 36.3885 530.489 36.5129 530.24 36.5557C529.986 36.5991 529.753 36.5439 529.54 36.3859C529.327 36.232 529.2 36.022 529.154 35.7526C529.108 35.4831 529.158 35.2428 529.307 35.0308C529.457 34.8188 529.659 34.693 529.913 34.6496C530.142 34.6102 530.419 34.6579 530.74 34.7891L531.783 35.2228L531.877 35.7737ZM530.579 35.5163C530.553 35.3675 530.48 35.2519 530.363 35.1726C530.246 35.0974 530.117 35.0698 529.976 35.094C529.832 35.1188 529.715 35.1885 529.631 35.3022C529.547 35.416 529.516 35.5456 529.541 35.6944C529.567 35.8432 529.64 35.9548 529.757 36.0341C529.874 36.1133 530.007 36.1402 530.152 36.1154C530.441 36.0657 530.629 35.8099 530.579 35.5163ZM532.601 40.0609L530.007 40.5059L529.909 39.9349L531.82 38.4065L531.815 38.4032C531.687 38.4541 531.549 38.4943 531.393 38.5212L529.728 38.8069L529.653 38.3726L532.247 37.9276L532.349 38.5227L530.45 40.0242L530.455 40.0276C530.583 39.9766 530.72 39.9364 530.877 39.9095L532.526 39.6266L532.601 40.0609Z" fill="#FF8158"/>
<path id="springPath61" d="M479.916 44.5626L477.322 45.0076L477.245 44.5573L479.436 44.1812L479.319 43.4976L479.741 43.5412L479.916 44.5626ZM480.341 46.9684L478.785 47.2355L478.847 47.5974L478.445 47.6664L478.383 47.3045L477.735 47.4156L477.659 46.9732L478.307 46.8621L478.116 45.7523L478.526 45.6571L480.233 46.3411L480.341 46.9684ZM479.895 46.5896L478.588 46.0854L478.709 46.7931L479.895 46.5896ZM481.04 51.1852L478.446 51.6303L478.348 51.0593L480.259 49.5309L480.255 49.5275C480.127 49.5785 479.989 49.6187 479.832 49.6456L478.167 49.9313L478.093 49.497L480.686 49.0519L480.788 49.6471L478.889 51.1486L478.894 51.1519C479.022 51.101 479.16 51.0608 479.317 51.0339L480.965 50.7509L481.04 51.1852Z" fill="#FF8158"/>
<path id="springPath62" d="M453.442 49.105L450.848 49.5501L450.771 49.0997L452.962 48.7236L452.845 48.04L453.267 48.0836L453.442 49.105ZM453.244 51.858C453.039 51.8932 452.855 51.8377 452.702 51.6942C452.6 51.9643 452.4 52.127 452.106 52.1773C451.861 52.2194 451.649 52.1648 451.462 52.0147C451.274 51.8647 451.161 51.6607 451.116 51.3993C451.071 51.1379 451.109 50.9037 451.236 50.6998C451.362 50.496 451.544 50.3737 451.79 50.3316C452.091 50.2798 452.333 50.3625 452.507 50.581C452.601 50.4035 452.756 50.2941 452.969 50.2575C453.166 50.2237 453.344 50.2718 453.508 50.4052C453.675 50.5379 453.776 50.7151 453.814 50.9363C453.852 51.1575 453.816 51.3582 453.702 51.5392C453.592 51.7195 453.441 51.8242 453.244 51.858ZM453.039 50.6885C452.834 50.7237 452.707 50.8987 452.744 51.1198C452.781 51.333 452.96 51.4596 453.165 51.4244C453.362 51.3905 453.483 51.2042 453.448 50.9991C453.413 50.794 453.236 50.6547 453.039 50.6885ZM451.865 50.7739C451.741 50.7953 451.64 50.8582 451.567 50.9658C451.495 51.0735 451.47 51.1977 451.494 51.3344C451.517 51.4671 451.58 51.5721 451.685 51.6495C451.789 51.7268 451.906 51.7564 452.03 51.735C452.288 51.6908 452.458 51.4506 452.411 51.1771C452.364 50.9037 452.123 50.7298 451.865 50.7739ZM454.566 55.7277L451.972 56.1728L451.874 55.6017L453.785 54.0733L453.781 54.07C453.653 54.1209 453.515 54.1611 453.358 54.1881L451.693 54.4737L451.619 54.0394L454.212 53.5944L454.314 54.1895L452.415 55.691L452.42 55.6944C452.548 55.6435 452.686 55.6032 452.843 55.5763L454.491 55.2934L454.566 55.7277Z" fill="#FF8158"/>
<path id="springPath63" d="M545.307 33.5442L543.75 33.8113L543.812 34.1732L543.41 34.2422L543.348 33.8803L542.701 33.9914L542.625 33.549L543.272 33.4379L543.082 32.3281L543.492 32.2329L545.199 32.9169L545.307 33.5442ZM544.861 33.1654L543.553 32.6612L543.674 33.3689L544.861 33.1654ZM546.005 37.7611L543.412 38.2061L543.314 37.6351L545.225 36.1067L545.22 36.1034C545.092 36.1543 544.954 36.1945 544.797 36.2214L543.132 36.5071L543.058 36.0728L545.652 35.6277L545.754 36.2229L543.855 37.7244L543.859 37.7278C543.987 37.6768 544.125 37.6366 544.282 37.6097L545.931 37.3268L546.005 37.7611Z" fill="#FF8158"/>
<path id="springPath64" d="M493.319 42.2623L490.725 42.7074L490.648 42.257L492.84 41.8809L492.722 41.1973L493.144 41.2409L493.319 42.2623ZM493.678 44.0628C493.721 44.3162 493.685 44.5417 493.566 44.7361C493.446 44.9305 493.275 45.0467 493.054 45.0847C492.841 45.1213 492.626 45.0753 492.418 44.9455C492.279 44.8617 492.153 44.7798 492.043 44.6951L491.395 44.1978L491.588 45.3238L491.186 45.3928L490.894 43.6878L491.286 43.6081C491.711 43.9408 492.011 44.1667 492.18 44.2866C492.336 44.3966 492.48 44.4878 492.616 44.5596C492.74 44.6294 492.868 44.6489 492.996 44.6228C493.192 44.585 493.32 44.3892 493.274 44.1198C493.231 43.8745 493.046 43.7077 492.805 43.6827L492.924 43.2897C493.298 43.3456 493.606 43.6446 493.678 44.0628ZM494.443 48.885L491.849 49.3301L491.751 48.7591L493.662 47.2306L493.658 47.2273C493.53 47.2782 493.392 47.3185 493.235 47.3454L491.57 47.631L491.496 47.1968L494.089 46.7517L494.192 47.3468L492.293 48.8484L492.297 48.8517C492.425 48.8008 492.563 48.7605 492.72 48.7336L494.369 48.4507L494.443 48.885Z" fill="#FF8158"/>
<path id="springPath65" d="M518.21 38.4337C518.005 38.4689 517.822 38.4134 517.669 38.2699C517.566 38.5401 517.366 38.7027 517.073 38.7531C516.828 38.7951 516.615 38.7405 516.428 38.5905C516.241 38.4404 516.127 38.2364 516.082 37.975C516.038 37.7137 516.076 37.4794 516.203 37.2755C516.329 37.0717 516.511 36.9494 516.756 36.9073C517.058 36.8556 517.3 36.9382 517.474 37.1567C517.567 36.9792 517.723 36.8698 517.936 36.8332C518.133 36.7994 518.311 36.8475 518.474 36.9809C518.642 37.1136 518.743 37.2908 518.781 37.512C518.819 37.7332 518.783 37.9339 518.669 38.1149C518.559 38.2952 518.407 38.3999 518.21 38.4337ZM518.005 37.2642C517.8 37.2994 517.673 37.4744 517.711 37.6956C517.748 37.9087 517.927 38.0353 518.132 38.0001C518.329 37.9663 518.45 37.7799 518.415 37.5748C518.38 37.3697 518.202 37.2304 518.005 37.2642ZM516.832 37.3496C516.707 37.371 516.606 37.4339 516.534 37.5416C516.461 37.6492 516.437 37.7734 516.46 37.9102C516.483 38.0429 516.547 38.1479 516.651 38.2252C516.755 38.3025 516.872 38.3321 516.997 38.3107C517.254 38.2666 517.424 38.0263 517.377 37.7528C517.33 37.4794 517.089 37.3055 516.832 37.3496ZM519.533 42.3034L516.939 42.7485L516.841 42.1775L518.752 40.6491L518.747 40.6457C518.619 40.6967 518.481 40.7369 518.324 40.7638L516.66 41.0495L516.585 40.6152L519.179 40.1701L519.281 40.7653L517.382 42.2668L517.387 42.2701C517.514 42.2192 517.652 42.179 517.809 42.1521L519.458 41.8691L519.533 42.3034Z" fill="#FF8158"/>
<path id="springPath66" d="M466.847 46.8047L464.253 47.2498L464.176 46.7994L466.367 46.4233L466.25 45.7397L466.672 45.7833L466.847 46.8047ZM467.248 49.1404L466.275 48.6821L466.272 48.6868C466.301 48.7357 466.324 48.8019 466.339 48.8864C466.38 49.1236 466.331 49.3472 466.192 49.5491C466.053 49.755 465.859 49.8794 465.61 49.9222C465.357 49.9657 465.124 49.9104 464.91 49.7525C464.698 49.5986 464.571 49.3885 464.524 49.1191C464.478 48.8497 464.528 48.6093 464.678 48.3973C464.828 48.1853 465.03 48.0596 465.283 48.0161C465.512 47.9768 465.789 48.0244 466.11 48.1557L467.153 48.5894L467.248 49.1404ZM465.949 48.8829C465.924 48.7341 465.85 48.6184 465.733 48.5392C465.616 48.4639 465.488 48.4364 465.347 48.4605C465.202 48.4854 465.086 48.555 465.002 48.6688C464.918 48.7825 464.886 48.9121 464.912 49.0609C464.937 49.2097 465.01 49.3215 465.127 49.4007C465.244 49.48 465.377 49.5068 465.522 49.4819C465.812 49.4322 466 49.1764 465.949 48.8829ZM467.971 53.4274L465.377 53.8725L465.279 53.3015L467.19 51.773L467.186 51.7697C467.058 51.8206 466.92 51.8609 466.763 51.8878L465.098 52.1734L465.024 51.7393L467.617 51.2941L467.719 51.8892L465.82 53.3908L465.825 53.3941C465.953 53.3432 466.091 53.3029 466.248 53.276L467.896 52.9931L467.971 53.4274Z" fill="#FF8158"/>
<path id="springPath67" d="M441.692 50.7072C441.736 50.9606 441.7 51.1861 441.58 51.3805C441.46 51.575 441.29 51.6911 441.069 51.7291C440.856 51.7657 440.641 51.7197 440.432 51.5899C440.294 51.5061 440.168 51.4242 440.058 51.3395L439.41 50.8423L439.603 51.9682L439.201 52.0372L438.908 50.3322L439.3 50.2525C439.726 50.5852 440.025 50.8111 440.195 50.9311C440.35 51.041 440.494 51.1322 440.631 51.204C440.755 51.2738 440.882 51.2933 441.01 51.2672C441.207 51.2294 441.334 51.0336 441.288 50.7642C441.246 50.5189 441.06 50.3521 440.82 50.3271L440.939 49.9341C441.313 49.99 441.621 50.289 441.692 50.7072ZM440.903 54.166C440.497 54.2357 440.155 54.1991 439.879 54.0602C439.607 53.9207 439.445 53.7041 439.394 53.4065C439.344 53.113 439.423 52.851 439.633 52.6286C439.848 52.4056 440.158 52.2612 440.564 52.1915C440.971 52.1219 441.311 52.1544 441.584 52.294C441.856 52.4335 442.017 52.6501 442.069 52.9477C442.12 53.2452 442.04 53.5032 441.825 53.7262C441.615 53.9486 441.309 54.0963 440.903 54.166ZM441.666 53.0167C441.61 52.6909 441.231 52.5324 440.64 52.6339C440.049 52.7353 439.741 53.0118 439.797 53.3375C439.854 53.6713 440.232 53.8258 440.827 53.7236C441.418 53.6222 441.724 53.3504 441.666 53.0167ZM442.837 57.7403L440.243 58.1854L440.145 57.6144L442.056 56.0859L442.052 56.0826C441.924 56.1335 441.786 56.1738 441.629 56.2007L439.964 56.4864L439.89 56.0521L442.483 55.607L442.586 56.2021L440.686 57.7037L440.691 57.707C440.819 57.6561 440.957 57.6158 441.114 57.5889L442.763 57.306L442.837 57.7403Z" fill="#FF8158"/>
</g>
<g id="forceReadoutWrap">
<path d="M560.372 48.8058L513.042 56.7957C508.685 57.5312 505.749 61.6591 506.485 66.0158L508.482 77.8483C509.218 82.2054 513.346 85.1404 517.702 84.4054L565.033 76.4151C569.389 75.6797 572.325 71.5517 571.589 67.1951L569.592 55.3625C568.857 51.0058 564.729 48.0703 560.372 48.8058Z" fill="white" stroke="#E8EAEF"/>
<text id="forceReadout" x="539.04" y="66.61" transform="rotate(-9.582 539.04 66.61)" text-anchor="middle" dominant-baseline="middle" font-family="Fenomen Sans, system-ui, sans-serif" font-size="14" font-weight="600" fill="#171923">0 N</text>
</g>
<rect id="silomer" x="417" y="-8" width="270" height="98" fill="transparent" cursor="grab" aria-label="Siloměr"/>
</g>
</g>
<g id="edgeScene" style="display:none" transform="translate(0 -59.143080000000005)">
<g id="beamEdge">
<path class="beam-hook" d="M398 66.2715L371.5 72.7715" stroke="black"/>
<path class="beam-body" d="M183.451 189.113L375.305 159.113V17.7471L329.171 0.771484L139 30.7715V172.137L183.451 189.113Z" fill="#F1A558"/>
<path class="beam-wire" d="M375.305 17.7471L183.451 47.7471M139 30.7715V172.137L183.451 189.113L375.305 159.113V17.7471L329.171 0.771484L139 30.7715ZM183.451 47.7471V189.113M183.451 47.7471L139 30.7715" stroke="#5C3A18" stroke-width="1.5"/>
</g>
<g id="silomerEdge">
<g id="silomerMorphEdge">
<path id="springPathEdge0" d="M589.81 32.5747C588.437 21.4262 577.367 16.7715 577.367 16.7715L418.299 44.4125C418.299 44.4125 409.01 50.146 412.361 63.3698C415.711 76.5936 422.646 79.1982 422.646 79.1982L585.505 51.5967C585.505 51.5967 591.182 43.7232 589.81 32.5747Z" fill="white"/>
<path id="springPathEdge1" d="M419.616 79.6406C417.334 80.0321 414.188 72.7982 412.59 63.4827C410.991 54.1678 411.546 46.2984 413.827 45.9068C416.109 45.5152 419.256 52.7496 420.854 62.0645C422.453 71.38 421.898 79.249 419.616 79.6406Z" stroke="#9C9B9B" stroke-width="3.59788" stroke-linecap="round" stroke-linejoin="round"/>
<path id="springPathEdge2" d="M551.268 53.2721C549.482 53.5784 547.021 47.918 545.77 40.6285C544.519 33.3396 544.953 27.1816 546.738 26.8752C548.524 26.5687 550.986 32.2299 552.236 39.5188C553.487 46.8083 553.054 52.9656 551.268 53.2721Z" fill="#EF3A50"/>
<path id="springPathEdge3" d="M550.676 39.52L407.685 64.0571" stroke="#565655" stroke-width="2.39859" stroke-linecap="round" stroke-linejoin="round"/>
<path id="springPathEdge4" d="M407.173 64.1454C406.741 61.6307 404.353 59.9414 401.838 60.373C399.324 60.8045 397.635 63.1933 398.067 65.708C398.498 68.2227 400.887 69.9107 403.401 69.4792" stroke="#565655" stroke-width="2.39859" stroke-linecap="round" stroke-linejoin="round"/>
<path id="springPathEdge5" d="M549.161 40.9956C549.034 41.0174 548.788 40.5814 548.665 39.8657C548.529 39.0749 548.629 38.6563 548.756 38.6345C548.883 38.6127 549.077 39.1233 549.189 39.7758C549.301 40.4271 549.288 40.9738 549.161 40.9956Z" fill="#565655"/>
<path id="springPathEdge6" d="M551.267 53.2718C549.481 53.5782 547.019 47.9179 545.768 40.6284C544.517 33.3394 544.952 27.1813 546.737 26.875" fill="#EF3A50"/>
<path id="springPathEdge7" d="M551.124 52.4255C549.338 52.7319 546.941 47.4504 545.77 40.629C544.599 33.8076 545.099 28.0295 546.885 27.7231" stroke="#813A50" stroke-width="1.79894" stroke-miterlimit="10" stroke-linecap="round"/>
<path id="springPathEdge8" d="M419.617 79.6404C417.335 80.032 414.189 72.7981 412.59 63.4826C410.992 54.1677 411.546 46.2982 413.828 45.9067" stroke="#1D1D1B" stroke-width="3.59788" stroke-linecap="round" stroke-linejoin="round"/>
<path id="springPathEdge9" d="M588.313 50.6914L420.957 79.4096" stroke="#1D1D1B" stroke-width="3.59788" stroke-linecap="round" stroke-linejoin="round"/>
<path id="springPathEdge10" d="M605.641 31.2812L590.561 33.8689" stroke="black" stroke-width="0.68"/>
<path id="springPathEdge11" d="M609.536 25.2687C606.628 25.7678 604.674 28.53 605.173 31.4389C605.673 34.3473 608.435 36.3008 611.344 35.8017C614.252 35.3026 616.205 32.5398 615.706 29.6315C615.207 26.7225 612.445 24.7697 609.536 25.2687Z" stroke="#F19100" stroke-width="1.79894" stroke-miterlimit="10" stroke-linecap="round"/>
<path id="springPathEdge12" d="M577.392 21.3638C576.539 21.5101 581.139 48.3148 580.286 48.4611C579.434 48.6073 574.834 21.8026 573.982 21.949C573.129 22.0953 577.729 48.8999 576.877 49.0462C576.024 49.1924 571.424 22.3878 570.572 22.534C569.72 22.6803 574.319 49.485 573.467 49.6312C572.615 49.7775 568.015 22.9728 567.163 23.1191C566.31 23.2654 570.909 50.0701 570.057 50.2165C569.204 50.3627 564.605 23.558 563.752 23.7043C562.9 23.8506 567.499 50.6553 566.647 50.8015C565.794 50.9478 561.195 24.1432 560.342 24.2895C559.489 24.4358 564.089 51.2405 563.237 51.3867C562.384 51.533 557.785 24.7283 556.932 24.8747C556.079 25.021 560.679 51.8256 559.826 51.972C558.973 52.1183 554.374 25.3137 553.521 25.46C552.668 25.6064 557.268 52.411 556.415 52.5574" stroke="#858585" stroke-width="2.39859" stroke-linecap="round" stroke-linejoin="round"/>
<path id="springPathEdge13" d="M553.522 25.46C552.67 25.6064 557.269 52.4111 556.416 52.5574C556.041 52.6218 554.948 47.4779 553.757 41.7101C553.206 39.0448 552.622 39.145 550.813 39.4555" stroke="#565655" stroke-width="2.39859" stroke-linecap="round" stroke-linejoin="round"/>
<path id="springPathEdge14" d="M556.933 24.8745C556.08 25.0208 560.679 51.8255 559.827 51.9718" stroke="#565655" stroke-width="2.39859" stroke-linecap="round" stroke-linejoin="round"/>
<path id="springPathEdge15" d="M584.215 20.1934C583.362 20.3397 587.962 47.1443 587.109 47.2907C586.257 47.4369 581.657 20.6323 580.805 20.7786C579.952 20.9249 584.552 47.7295 583.7 47.8758C582.847 48.0221 578.247 21.2175 577.394 21.3638C576.542 21.5101 581.142 48.3147 580.289 48.4611C579.436 48.6073 574.837 21.8027 573.985 21.9489C573.132 22.0953 577.731 48.8999 576.879 49.0463C576.026 49.1926 571.426 22.3879 570.574 22.5343C569.721 22.6806 574.32 49.4852 573.467 49.6316" stroke="#858585" stroke-width="2.39859" stroke-linecap="round" stroke-linejoin="round"/>
<path id="springPathEdge16" d="M560.343 24.2896C559.49 24.436 564.09 51.2405 563.237 51.3867" stroke="#565655" stroke-width="2.39859" stroke-linecap="round" stroke-linejoin="round"/>
<path id="springPathEdge17" d="M563.753 23.7046C562.9 23.8508 567.5 50.6555 566.647 50.8018" stroke="#565655" stroke-width="2.39859" stroke-linecap="round" stroke-linejoin="round"/>
<path id="springPathEdge18" d="M567.164 23.1191C566.311 23.2655 570.911 50.0701 570.058 50.2164" stroke="#565655" stroke-width="2.39859" stroke-linecap="round" stroke-linejoin="round"/>
<path id="springPathEdge19" d="M570.574 22.5342C569.722 22.6805 574.322 49.4851 573.469 49.6314" stroke="#565655" stroke-width="2.39859" stroke-linecap="round" stroke-linejoin="round"/>
<path id="springPathEdge20" d="M573.982 21.9492C573.13 22.0955 577.73 48.9001 576.877 49.0464" stroke="#565655" stroke-width="2.39859" stroke-linecap="round" stroke-linejoin="round"/>
<path id="springPathEdge21" d="M577.393 21.3638C576.541 21.5102 581.14 48.3148 580.288 48.4611" stroke="#565655" stroke-width="2.39859" stroke-linecap="round" stroke-linejoin="round"/>
<path id="springPathEdge22" d="M580.804 20.7788C579.951 20.9251 584.551 47.7297 583.698 47.8761" stroke="#565655" stroke-width="2.39859" stroke-linecap="round" stroke-linejoin="round"/>
<path id="springPathEdge23" d="M587.108 47.2913C587.961 47.145 583.361 20.3403 584.213 20.1941C585.175 20.029 588.386 29.2382 589.058 33.159" stroke="#565655" stroke-width="2.39859" stroke-linecap="round" stroke-linejoin="round"/>
<path id="springPathEdge24" d="M582.525 16.959C584.807 16.5673 587.953 23.8012 589.551 33.1161C591.15 42.4316 590.596 50.3004 588.313 50.6921" stroke="#1D1D1B" stroke-width="3.59788" stroke-linecap="round" stroke-linejoin="round"/>
<path id="springPathEdge25" d="M480.225 48.4616C479.278 40.6728 479.949 34.5665 481.953 34.2227" stroke="#FF8158" stroke-width="1.1993" stroke-linecap="round" stroke-linejoin="round"/>
<path id="springPathEdge26" d="M487.009 47.2187C486.076 39.4665 486.75 33.3993 488.747 33.0566" stroke="#FF8158" stroke-width="1.1993" stroke-linecap="round" stroke-linejoin="round"/>
<path id="springPathEdge27" d="M493.336 46.1332C492.402 38.381 493.076 32.3138 495.073 31.9712" stroke="#FF8158" stroke-width="1.1993" stroke-linecap="round" stroke-linejoin="round"/>
<path id="springPathEdge28" d="M500.131 44.9673C499.197 37.2151 499.871 31.148 501.868 30.8052" stroke="#FF8158" stroke-width="1.1993" stroke-linecap="round" stroke-linejoin="round"/>
<path id="springPathEdge29" d="M506.468 43.9586C505.52 36.1698 506.192 30.0635 508.195 29.7197" stroke="#FF8158" stroke-width="1.1993" stroke-linecap="round" stroke-linejoin="round"/>
<path id="springPathEdge30" d="M513.252 42.7157C512.318 34.9635 512.992 28.8963 514.989 28.5537" stroke="#FF8158" stroke-width="1.1993" stroke-linecap="round" stroke-linejoin="round"/>
<path id="springPathEdge31" d="M519.576 41.6249C518.642 33.8727 519.317 27.8055 521.313 27.4629" stroke="#FF8158" stroke-width="1.1993" stroke-linecap="round" stroke-linejoin="round"/>
<path id="springPathEdge32" d="M526.343 40.2875C525.409 32.5353 526.083 26.4681 528.08 26.1255" stroke="#FF8158" stroke-width="1.1993" stroke-linecap="round" stroke-linejoin="round"/>
<path id="springPathEdge33" d="M532.699 39.3783C531.765 31.6261 532.439 25.559 534.436 25.2163" stroke="#FF8158" stroke-width="1.1993" stroke-linecap="round" stroke-linejoin="round"/>
<path id="springPathEdge34" d="M539.025 38.2929C538.091 30.5408 538.765 24.4736 540.763 24.1309" stroke="#FF8158" stroke-width="1.1993" stroke-linecap="round" stroke-linejoin="round"/>
<path id="springPathEdge35" d="M545.392 37.2001C544.459 29.4479 545.133 23.3808 547.13 23.0381" stroke="#FF8158" stroke-width="1.1993" stroke-linecap="round" stroke-linejoin="round"/>
<path id="springPathEdge36" d="M415.216 59.6172C414.268 51.8285 414.94 45.7222 416.943 45.3784" stroke="#FF8158" stroke-width="1.1993" stroke-linecap="round" stroke-linejoin="round"/>
<path id="springPathEdge37" d="M421.999 58.3744C421.066 50.6222 421.74 44.5551 423.737 44.2124" stroke="#FF8158" stroke-width="1.1993" stroke-linecap="round" stroke-linejoin="round"/>
<path id="springPathEdge38" d="M428.326 57.289C427.392 49.5368 428.067 43.4697 430.063 43.127" stroke="#FF8158" stroke-width="1.1993" stroke-linecap="round" stroke-linejoin="round"/>
<path id="springPathEdge39" d="M435.121 56.1229C434.187 48.3707 434.861 42.3036 436.858 41.9609" stroke="#FF8158" stroke-width="1.1993" stroke-linecap="round" stroke-linejoin="round"/>
<path id="springPathEdge40" d="M441.458 55.1143C440.51 47.3255 441.182 41.2193 443.185 40.8755" stroke="#FF8158" stroke-width="1.1993" stroke-linecap="round" stroke-linejoin="round"/>
<path id="springPathEdge41" d="M448.242 53.8711C447.308 46.1189 447.983 40.0517 449.979 39.709" stroke="#FF8158" stroke-width="1.1993" stroke-linecap="round" stroke-linejoin="round"/>
<path id="springPathEdge42" d="M454.567 52.7803C453.634 45.028 454.308 38.9609 456.305 38.6182" stroke="#FF8158" stroke-width="1.1993" stroke-linecap="round" stroke-linejoin="round"/>
<path id="springPathEdge43" d="M461.332 51.4429C460.398 43.6907 461.072 37.6235 463.069 37.2808" stroke="#FF8158" stroke-width="1.1993" stroke-linecap="round" stroke-linejoin="round"/>
<path id="springPathEdge44" d="M467.689 50.5342C466.756 42.782 467.429 36.7149 469.427 36.3721" stroke="#FF8158" stroke-width="1.1993" stroke-linecap="round" stroke-linejoin="round"/>
<path id="springPathEdge45" d="M474.015 49.4486C473.082 41.6965 473.756 35.6293 475.753 35.2866" stroke="#FF8158" stroke-width="1.1993" stroke-linecap="round" stroke-linejoin="round"/>
<path id="springPathEdge46" d="M582.524 16.9585L413.492 45.9643" stroke="#1D1D1B" stroke-width="3.59788" stroke-linecap="round" stroke-linejoin="round"/>
<path id="springPathEdge47" d="M541.361 45.2144L538.768 45.6595L538.691 45.2091L540.882 44.833L540.765 44.1494L541.186 44.193L541.361 45.2144ZM542.106 49.6262L539.512 50.0713L539.414 49.5003L541.325 47.9719L541.321 47.9685C541.193 48.0195 541.055 48.0597 540.898 48.0866L539.233 48.3723L539.159 47.938L541.752 47.4929L541.855 48.088L539.956 49.5896L539.96 49.5929C540.088 49.542 540.226 49.5018 540.383 49.4749L542.032 49.1919L542.106 49.6262Z" fill="#FF8158"/>
<path id="springPathEdge48" d="M546.874 44.9024C546.468 44.9721 546.126 44.9355 545.85 44.7966C545.577 44.6571 545.416 44.4405 545.365 44.143C545.315 43.8494 545.394 43.5874 545.604 43.3651C545.818 43.142 546.129 42.9977 546.535 42.928C546.941 42.8583 547.282 42.8909 547.554 43.0304C547.827 43.17 547.988 43.3865 548.039 43.6841C548.09 43.9817 548.01 44.2396 547.796 44.4627C547.586 44.685 547.28 44.8327 546.874 44.9024ZM547.637 43.7531C547.581 43.4274 547.202 43.2689 546.611 43.3703C546.02 43.4718 545.711 43.7482 545.767 44.074C545.824 44.4077 546.203 44.5622 546.798 44.4601C547.389 44.3586 547.694 44.0869 547.637 43.7531ZM548.808 48.4768L546.214 48.9219L546.116 48.3508L548.027 46.8224L548.022 46.8191C547.894 46.87 547.756 46.9102 547.6 46.9372L545.935 47.2228L545.86 46.7885L548.454 46.3435L548.556 46.9386L546.657 48.4401L546.662 48.4435C546.79 48.3926 546.928 48.3523 547.084 48.3254L548.733 48.0425L548.808 48.4768Z" fill="#FF8158"/>
<path id="springPathEdge49" d="M488.642 54.8242C488.413 54.8635 488.136 54.8159 487.815 54.6846L486.772 54.2509L486.678 53.7L487.651 54.1582L487.654 54.1535C487.625 54.1047 487.601 54.0384 487.587 53.9539C487.546 53.7167 487.594 53.4931 487.733 53.2872C487.872 53.0853 488.066 52.9609 488.315 52.9181C488.569 52.8747 488.802 52.9299 489.014 53.0838C489.228 53.2418 489.355 53.4518 489.401 53.7212C489.447 53.9906 489.397 54.227 489.247 54.439C489.097 54.651 488.896 54.7807 488.642 54.8242ZM487.976 53.9574C488.002 54.1062 488.071 54.2226 488.188 54.2978C488.305 54.3771 488.438 54.4039 488.579 54.3798C488.723 54.355 488.84 54.2853 488.924 54.1715C489.008 54.0578 489.039 53.9282 489.014 53.7794C488.988 53.6306 488.915 53.5189 488.798 53.4397C488.681 53.3604 488.548 53.3336 488.403 53.3584C488.114 53.4081 487.926 53.6639 487.976 53.9574ZM490.166 58.5394L487.572 58.9845L487.474 58.4134L489.385 56.885L489.381 56.8817C489.253 56.9326 489.115 56.9728 488.958 56.9998L487.293 57.2854L487.219 56.8511L489.812 56.4061L489.914 57.0012L488.015 58.5027L488.02 58.5061C488.148 58.4552 488.286 58.4149 488.443 58.388L490.091 58.1051L490.166 58.5394Z" fill="#FF8158"/>
<path id="springPathEdge50" d="M515.63 50.0527L515.248 50.1182L515.058 49.0124L514.426 49.0423C514.53 49.1444 514.595 49.2822 514.625 49.4552C514.667 49.7005 514.618 49.92 514.481 50.1132C514.345 50.3104 514.151 50.4307 513.897 50.4742C513.652 50.5163 513.428 50.4637 513.22 50.3171C513.014 50.1746 512.889 49.9766 512.847 49.7313C512.776 49.3212 512.894 48.9946 513.199 48.7476L513.494 49.0407C513.285 49.1966 513.202 49.3929 513.243 49.6301C513.291 49.9076 513.519 50.0796 513.809 50.0299C514.098 49.9802 514.271 49.7312 514.217 49.4216C514.184 49.2285 514.086 49.0922 513.919 49.0091L514.061 48.6784L515.381 48.605L515.63 50.0527ZM516.304 54.0543L513.71 54.4994L513.612 53.9284L515.523 52.4L515.519 52.3966C515.391 52.4475 515.253 52.4878 515.096 52.5147L513.431 52.8004L513.357 52.3661L515.95 51.921L516.052 52.5161L514.153 54.0177L514.158 54.021C514.286 53.9701 514.424 53.9299 514.581 53.9029L516.229 53.62L516.304 54.0543Z" fill="#FF8158"/>
<path id="springPathEdge51" d="M463.618 58.5552L461.024 59.0003L460.947 58.5499L463.139 58.1738L463.021 57.4902L463.443 57.5338L463.618 58.5552ZM463.977 60.3597C464.019 60.601 463.981 60.8145 463.868 61.0035C463.756 61.1925 463.609 61.3006 463.42 61.333C463.166 61.3765 462.968 61.303 462.816 61.1179C462.763 61.363 462.529 61.5687 462.235 61.619C462.014 61.657 461.81 61.601 461.627 61.4543C461.449 61.3069 461.335 61.0988 461.289 60.8334C461.206 60.3509 461.432 60.0017 461.751 59.8103L462.011 60.1425C461.751 60.2906 461.644 60.491 461.688 60.7443C461.738 61.0379 461.923 61.1966 462.192 61.1504C462.445 61.1069 462.553 60.8898 462.513 60.5861L462.482 60.4051L462.852 60.3417C462.867 60.4261 462.878 60.4904 462.889 60.534C462.953 60.8087 463.094 60.9294 463.315 60.8915C463.512 60.8577 463.615 60.662 463.574 60.4207C463.532 60.1754 463.344 60.0254 463.11 59.9869L463.234 59.5973C463.596 59.6553 463.905 59.9415 463.977 60.3597ZM464.742 65.1779L462.148 65.623L462.05 65.052L463.961 63.5235L463.957 63.5202C463.829 63.5711 463.691 63.6114 463.534 63.6383L461.869 63.9239L461.795 63.4897L464.388 63.0446L464.49 63.6397L462.591 65.1413L462.596 65.1446C462.724 65.0937 462.862 65.0534 463.019 65.0265L464.667 64.7436L464.742 65.1779Z" fill="#FF8158"/>
<path id="springPathEdge52" d="M437.146 63.0982L434.552 63.5433L434.475 63.0929L436.666 62.7168L436.549 62.0332L436.97 62.0768L437.146 63.0982ZM437.604 65.7716L437.244 65.8665L434.826 65.259L434.739 64.7523L437.126 65.3942L436.921 64.1999L437.323 64.1309L437.604 65.7716ZM438.263 69.6816L435.669 70.1267L435.571 69.5557L437.482 68.0272L437.478 68.0239C437.35 68.0748 437.212 68.1151 437.055 68.142L435.39 68.4277L435.316 67.9934L437.909 67.5483L438.011 68.1434L436.112 69.645L436.117 69.6483C436.245 69.5974 436.383 69.5571 436.54 69.5302L438.188 69.2473L438.263 69.6816Z" fill="#FF8158"/>
<path id="springPathEdge53" d="M528.608 46.9934C528.65 47.2347 528.612 47.4482 528.499 47.6372C528.387 47.8262 528.24 47.9343 528.051 47.9667C527.798 48.0102 527.599 47.9366 527.447 47.7516C527.394 47.9966 527.16 48.2024 526.866 48.2528C526.645 48.2907 526.441 48.2346 526.259 48.0879C526.08 47.9406 525.966 47.7325 525.92 47.4671C525.837 46.9846 526.063 46.6354 526.382 46.444L526.642 46.7761C526.382 46.9243 526.275 47.1247 526.319 47.378C526.369 47.6715 526.554 47.8303 526.823 47.7841C527.077 47.7406 527.184 47.5234 527.144 47.2198L527.113 47.0388L527.483 46.9753C527.498 47.0598 527.509 47.1241 527.521 47.1677C527.584 47.4424 527.725 47.5631 527.946 47.5251C528.143 47.4913 528.246 47.2956 528.205 47.0544C528.163 46.8091 527.976 46.6591 527.741 46.6206L527.865 46.231C528.227 46.2889 528.537 46.5752 528.608 46.9934ZM529.373 51.8116L526.779 52.2567L526.681 51.6857L528.592 50.1572L528.588 50.1539C528.46 50.2048 528.322 50.2451 528.165 50.272L526.5 50.5577L526.426 50.1234L529.019 49.6783L529.121 50.2734L527.222 51.775L527.227 51.7783C527.355 51.7274 527.493 51.6871 527.65 51.6602L529.299 51.3773L529.373 51.8116Z" fill="#FF8158"/>
<path id="springPathEdge54" d="M476.687 56.3126L474.093 56.7576L474.016 56.3073L476.207 55.9312L476.09 55.2476L476.511 55.2912L476.687 56.3126ZM477.066 58.5235L474.472 58.9685L474.395 58.5182L476.587 58.1421L476.469 57.4585L476.891 57.5021L477.066 58.5235ZM477.811 62.9352L475.217 63.3803L475.119 62.8093L477.03 61.2809L477.025 61.2775C476.898 61.3285 476.76 61.3687 476.603 61.3956L474.938 61.6813L474.863 61.247L477.457 60.8019L477.559 61.3971L475.66 62.8986L475.665 62.9019C475.793 62.851 475.931 62.8108 476.088 62.7839L477.736 62.5009L477.811 62.9352Z" fill="#FF8158"/>
<path id="springPathEdge55" d="M502.57 52.3477L502.209 52.4426L499.791 51.8351L499.704 51.3284L502.091 51.9703L501.886 50.776L502.288 50.707L502.57 52.3477ZM503.228 56.2578L500.634 56.7028L500.536 56.1318L502.447 54.6034L502.443 54.6001C502.315 54.651 502.177 54.6912 502.02 54.7181L500.355 55.0038L500.281 54.5695L502.874 54.1244L502.977 54.7196L501.077 56.2211L501.082 56.2244C501.21 56.1735 501.348 56.1333 501.505 56.1064L503.154 55.8235L503.228 56.2578Z" fill="#FF8158"/>
<path id="springPathEdge56" d="M450.55 60.7979L447.956 61.243L447.879 60.7926L450.071 60.4165L449.953 59.7329L450.375 59.7765L450.55 60.7979ZM451 63.419L450.618 63.4845L450.428 62.3787L449.796 62.4086C449.9 62.5107 449.965 62.6485 449.995 62.8215C450.037 63.0668 449.988 63.2863 449.851 63.4795C449.715 63.6767 449.521 63.797 449.267 63.8405C449.022 63.8826 448.798 63.83 448.59 63.6834C448.384 63.5409 448.259 63.3429 448.217 63.0976C448.146 62.6875 448.264 62.3609 448.569 62.1139L448.864 62.407C448.655 62.5629 448.572 62.7592 448.613 62.9964C448.661 63.2739 448.889 63.4459 449.179 63.3962C449.468 63.3465 449.641 63.0975 449.587 62.7879C449.554 62.5948 449.456 62.4585 449.289 62.3754L449.431 62.0447L450.751 61.9713L451 63.419ZM451.674 67.4206L449.08 67.8657L448.982 67.2947L450.893 65.7662L450.889 65.7629C450.761 65.8138 450.623 65.8541 450.466 65.881L448.801 66.1666L448.727 65.7323L451.32 65.2873L451.422 65.8824L449.523 67.384L449.528 67.3873C449.656 67.3364 449.794 67.2961 449.951 67.2692L451.6 66.9863L451.674 67.4206Z" fill="#FF8158"/>
<path id="springPathEdge57" d="M424.075 65.3409L421.481 65.7859L421.404 65.3356L423.596 64.9595L423.478 64.2759L423.9 64.3195L424.075 65.3409ZM423.676 68.2484C423.446 68.2877 423.169 68.2401 422.849 68.1088L421.805 67.6751L421.711 67.1242L422.684 67.5824L422.687 67.5777C422.658 67.5288 422.634 67.4626 422.62 67.3781C422.579 67.1409 422.628 66.9173 422.766 66.7114C422.905 66.5095 423.099 66.3851 423.349 66.3423C423.602 66.2989 423.835 66.3541 424.048 66.508C424.261 66.6659 424.388 66.876 424.434 67.1454C424.481 67.4148 424.43 67.6511 424.28 67.8632C424.13 68.0752 423.929 68.2049 423.676 68.2484ZM423.009 67.3816C423.035 67.5304 423.105 67.6468 423.221 67.722C423.338 67.8013 423.471 67.8281 423.612 67.804C423.757 67.7791 423.873 67.7095 423.957 67.5957C424.041 67.482 424.072 67.3524 424.047 67.2036C424.021 67.0548 423.948 66.9431 423.831 66.8639C423.714 66.7846 423.581 66.7577 423.436 66.7826C423.147 66.8323 422.959 67.0881 423.009 67.3816ZM425.199 71.9635L422.605 72.4086L422.507 71.8376L424.418 70.3092L424.414 70.3058C424.286 70.3568 424.148 70.397 423.991 70.4239L422.326 70.7096L422.252 70.2753L424.845 69.8302L424.947 70.4254L423.048 71.9269L423.053 71.9302C423.181 71.8793 423.319 71.8391 423.476 71.8122L425.124 71.5293L425.199 71.9635Z" fill="#FF8158"/>
<path id="springPathEdge58" d="M534.974 45.8966C535.017 46.1499 534.981 46.3755 534.861 46.5699C534.742 46.7643 534.571 46.8805 534.35 46.9185C534.137 46.9551 533.922 46.9091 533.713 46.7793C533.575 46.6955 533.449 46.6136 533.339 46.5289L532.691 46.0316L532.884 47.1576L532.482 47.2266L532.189 45.5216L532.581 45.4419C533.007 45.7746 533.307 46.0005 533.476 46.1204C533.632 46.2304 533.776 46.3216 533.912 46.3934C534.036 46.4632 534.163 46.4827 534.291 46.4566C534.488 46.4188 534.616 46.223 534.569 45.9536C534.527 45.7083 534.341 45.5415 534.101 45.5165L534.22 45.1235C534.594 45.1794 534.902 45.4784 534.974 45.8966ZM535.739 50.7188L533.145 51.1639L533.047 50.5929L534.958 49.0645L534.954 49.0611C534.826 49.1121 534.688 49.1523 534.531 49.1792L532.866 49.4649L532.792 49.0306L535.385 48.5855L535.487 49.1806L533.588 50.6822L533.593 50.6855C533.721 50.6346 533.859 50.5944 534.016 50.5675L535.664 50.2845L535.739 50.7188Z" fill="#FF8158"/>
<path id="springPathEdge59" d="M483.055 55.2202L480.461 55.6653L480.384 55.2149L482.575 54.8389L482.458 54.1553L482.879 54.1988L483.055 55.2202ZM482.245 58.2686C481.839 58.3383 481.497 58.3017 481.221 58.1628C480.948 58.0233 480.787 57.8067 480.736 57.5091C480.686 57.2156 480.765 56.9536 480.975 56.7313C481.189 56.5082 481.5 56.3639 481.906 56.2942C482.312 56.2245 482.653 56.257 482.925 56.3966C483.198 56.5361 483.359 56.7527 483.41 57.0503C483.461 57.3478 483.381 57.6058 483.167 57.8288C482.957 58.0512 482.651 58.1989 482.245 58.2686ZM483.008 57.1193C482.952 56.7936 482.573 56.6351 481.982 56.7365C481.391 56.8379 481.082 57.1144 481.138 57.4401C481.195 57.7739 481.574 57.9284 482.169 57.8262C482.76 57.7248 483.065 57.453 483.008 57.1193ZM484.179 61.8429L481.585 62.288L481.487 61.717L483.398 60.1886L483.393 60.1852C483.266 60.2361 483.128 60.2764 482.971 60.3033L481.306 60.589L481.231 60.1547L483.825 59.7096L483.927 60.3047L482.028 61.8063L482.033 61.8096C482.161 61.7587 482.299 61.7185 482.456 61.6915L484.104 61.4086L484.179 61.8429Z" fill="#FF8158"/>
<path id="springPathEdge60" d="M508.877 50.9168L507.905 50.4587L507.901 50.4634C507.93 50.5122 507.954 50.5785 507.969 50.6629C508.009 50.9002 507.961 51.1238 507.821 51.3257C507.683 51.5316 507.489 51.656 507.24 51.6988C506.986 51.7422 506.753 51.687 506.54 51.529C506.327 51.3751 506.2 51.1651 506.154 50.8957C506.108 50.6262 506.158 50.3859 506.307 50.1739C506.457 49.9619 506.659 49.8361 506.913 49.7927C507.142 49.7533 507.419 49.801 507.74 49.9322L508.783 50.3659L508.877 50.9168ZM507.579 50.6594C507.553 50.5106 507.48 50.395 507.363 50.3157C507.246 50.2405 507.117 50.2129 506.976 50.2371C506.832 50.2619 506.715 50.3316 506.631 50.4453C506.547 50.5591 506.516 50.6887 506.541 50.8375C506.567 50.9863 506.64 51.0979 506.757 51.1772C506.874 51.2564 507.007 51.2833 507.152 51.2585C507.441 51.2088 507.629 50.953 507.579 50.6594ZM509.601 55.204L507.007 55.649L506.909 55.078L508.82 53.5496L508.815 53.5463C508.687 53.5972 508.549 53.6374 508.393 53.6643L506.728 53.95L506.653 53.5157L509.247 53.0707L509.349 53.6658L507.45 55.1673L507.455 55.1707C507.583 55.1197 507.72 55.0795 507.877 55.0526L509.526 54.7697L509.601 55.204Z" fill="#FF8158"/>
<path id="springPathEdge61" d="M456.916 59.7056L454.322 60.1506L454.245 59.7003L456.436 59.3242L456.319 58.6406L456.741 58.6842L456.916 59.7056ZM457.341 62.1114L455.785 62.3785L455.847 62.7404L455.445 62.8094L455.383 62.4475L454.735 62.5586L454.659 62.1162L455.307 62.0051L455.116 60.8953L455.526 60.8001L457.233 61.4841L457.341 62.1114ZM456.895 61.7326L455.588 61.2284L455.709 61.9361L456.895 61.7326ZM458.04 66.3282L455.446 66.7733L455.348 66.2023L457.259 64.6739L457.255 64.6705C457.127 64.7215 456.989 64.7617 456.832 64.7886L455.167 65.0743L455.093 64.64L457.686 64.1949L457.788 64.7901L455.889 66.2916L455.894 66.2949C456.022 66.244 456.16 66.2038 456.317 66.1769L457.965 65.8939L458.04 66.3282Z" fill="#FF8158"/>
<path id="springPathEdge62" d="M430.442 64.2481L427.848 64.6932L427.771 64.2428L429.962 63.8667L429.845 63.1831L430.267 63.2267L430.442 64.2481ZM430.244 67.0011C430.039 67.0363 429.855 66.9808 429.702 66.8373C429.6 67.1074 429.4 67.2701 429.106 67.3204C428.861 67.3625 428.649 67.3079 428.462 67.1578C428.274 67.0078 428.161 66.8038 428.116 66.5424C428.071 66.281 428.109 66.0468 428.236 65.8429C428.362 65.6391 428.544 65.5168 428.79 65.4747C429.091 65.4229 429.333 65.5056 429.507 65.7241C429.601 65.5466 429.756 65.4372 429.969 65.4006C430.166 65.3668 430.344 65.4149 430.508 65.5483C430.675 65.681 430.776 65.8582 430.814 66.0794C430.852 66.3006 430.816 66.5013 430.702 66.6823C430.592 66.8626 430.441 66.9673 430.244 67.0011ZM430.039 65.8316C429.834 65.8668 429.707 66.0418 429.744 66.2629C429.781 66.4761 429.96 66.6027 430.165 66.5675C430.362 66.5336 430.483 66.3473 430.448 66.1422C430.413 65.9371 430.236 65.7978 430.039 65.8316ZM428.865 65.917C428.741 65.9384 428.64 66.0013 428.567 66.1089C428.495 66.2166 428.47 66.3408 428.494 66.4775C428.517 66.6102 428.58 66.7152 428.685 66.7926C428.789 66.8699 428.906 66.8995 429.03 66.8781C429.288 66.8339 429.458 66.5937 429.411 66.3202C429.364 66.0468 429.123 65.8729 428.865 65.917ZM431.566 70.8708L428.972 71.3159L428.874 70.7448L430.785 69.2164L430.781 69.2131C430.653 69.264 430.515 69.3042 430.358 69.3312L428.693 69.6168L428.619 69.1825L431.212 68.7375L431.314 69.3326L429.415 70.8341L429.42 70.8375C429.548 70.7866 429.686 70.7463 429.843 70.7194L431.491 70.4365L431.566 70.8708Z" fill="#FF8158"/>
<path id="springPathEdge63" d="M522.307 48.6873L520.75 48.9544L520.812 49.3163L520.41 49.3853L520.348 49.0234L519.701 49.1345L519.625 48.6921L520.272 48.581L520.082 47.4712L520.492 47.376L522.199 48.06L522.307 48.6873ZM521.861 48.3085L520.553 47.8043L520.674 48.512L521.861 48.3085ZM523.005 52.9042L520.412 53.3492L520.314 52.7782L522.225 51.2498L522.22 51.2465C522.092 51.2974 521.954 51.3376 521.797 51.3645L520.132 51.6502L520.058 51.2159L522.652 50.7708L522.754 51.366L520.855 52.8675L520.859 52.8709C520.987 52.8199 521.125 52.7797 521.282 52.7528L522.931 52.4699L523.005 52.9042Z" fill="#FF8158"/>
<path id="springPathEdge64" d="M470.319 57.4053L467.725 57.8504L467.648 57.4L469.84 57.0239L469.722 56.3403L470.144 56.3839L470.319 57.4053ZM470.678 59.2058C470.721 59.4592 470.685 59.6847 470.566 59.8791C470.446 60.0735 470.275 60.1897 470.054 60.2277C469.841 60.2643 469.626 60.2183 469.418 60.0885C469.279 60.0047 469.153 59.9228 469.043 59.8381L468.395 59.3408L468.588 60.4668L468.186 60.5358L467.894 58.8308L468.286 58.7511C468.711 59.0838 469.011 59.3097 469.18 59.4296C469.336 59.5396 469.48 59.6308 469.616 59.7026C469.74 59.7724 469.868 59.7919 469.996 59.7658C470.192 59.728 470.32 59.5322 470.274 59.2628C470.231 59.0175 470.046 58.8507 469.805 58.8257L469.924 58.4327C470.298 58.4886 470.606 58.7876 470.678 59.2058ZM471.443 64.028L468.849 64.4731L468.751 63.9021L470.662 62.3736L470.658 62.3703C470.53 62.4212 470.392 62.4615 470.235 62.4884L468.57 62.774L468.496 62.3398L471.089 61.8947L471.192 62.4898L469.293 63.9914L469.297 63.9947C469.425 63.9438 469.563 63.9035 469.72 63.8766L471.369 63.5937L471.443 64.028Z" fill="#FF8158"/>
<path id="springPathEdge65" d="M495.21 53.5768C495.005 53.612 494.822 53.5565 494.669 53.413C494.566 53.6832 494.366 53.8458 494.073 53.8962C493.828 53.9382 493.615 53.8835 493.428 53.7335C493.241 53.5834 493.127 53.3795 493.082 53.1181C493.038 52.8568 493.076 52.6225 493.203 52.4186C493.329 52.2148 493.511 52.0925 493.756 52.0504C494.058 51.9987 494.3 52.0813 494.474 52.2998C494.567 52.1223 494.723 52.0129 494.936 51.9763C495.133 51.9425 495.311 51.9906 495.474 52.124C495.642 52.2567 495.743 52.4339 495.781 52.6551C495.819 52.8763 495.783 53.077 495.669 53.258C495.559 53.4383 495.407 53.543 495.21 53.5768ZM495.005 52.4073C494.8 52.4425 494.673 52.6175 494.711 52.8387C494.748 53.0518 494.927 53.1784 495.132 53.1432C495.329 53.1094 495.45 52.923 495.415 52.7179C495.38 52.5128 495.202 52.3735 495.005 52.4073ZM493.832 52.4927C493.707 52.5141 493.606 52.577 493.534 52.6847C493.461 52.7923 493.437 52.9165 493.46 53.0533C493.483 53.186 493.547 53.291 493.651 53.3683C493.755 53.4456 493.872 53.4752 493.997 53.4538C494.254 53.4097 494.424 53.1693 494.377 52.8959C494.33 52.6224 494.089 52.4486 493.832 52.4927ZM496.533 57.4465L493.939 57.8916L493.841 57.3206L495.752 55.7922L495.747 55.7888C495.619 55.8398 495.481 55.88 495.324 55.9069L493.66 56.1926L493.585 55.7582L496.179 55.3132L496.281 55.9084L494.382 57.4099L494.387 57.4132C494.514 57.3623 494.652 57.3221 494.809 57.2952L496.458 57.0122L496.533 57.4465Z" fill="#FF8158"/>
<path id="springPathEdge66" d="M443.847 61.9478L441.253 62.3929L441.176 61.9425L443.367 61.5664L443.25 60.8828L443.672 60.9264L443.847 61.9478ZM444.248 64.2834L443.275 63.8252L443.272 63.8299C443.301 63.8788 443.324 63.945 443.339 64.0295C443.38 64.2667 443.331 64.4903 443.192 64.6922C443.053 64.8981 442.859 65.0225 442.61 65.0653C442.357 65.1088 442.124 65.0535 441.91 64.8956C441.698 64.7417 441.571 64.5316 441.524 64.2622C441.478 63.9928 441.528 63.7524 441.678 63.5404C441.828 63.3284 442.03 63.2027 442.283 63.1592C442.512 63.1199 442.789 63.1675 443.11 63.2988L444.153 63.7325L444.248 64.2834ZM442.949 64.026C442.924 63.8772 442.85 63.7615 442.733 63.6823C442.616 63.607 442.488 63.5795 442.347 63.6036C442.202 63.6285 442.086 63.6981 442.002 63.8119C441.918 63.9256 441.886 64.0552 441.912 64.204C441.937 64.3528 442.01 64.4645 442.127 64.5437C442.244 64.623 442.377 64.6499 442.522 64.625C442.812 64.5753 443 64.3195 442.949 64.026ZM444.971 68.5705L442.377 69.0156L442.279 68.4446L444.19 66.9161L444.186 66.9128C444.058 66.9637 443.92 67.004 443.763 67.0309L442.098 67.3165L442.024 66.8823L444.617 66.4372L444.719 67.0323L442.82 68.5339L442.825 68.5372C442.953 68.4863 443.091 68.446 443.248 68.4191L444.896 68.1362L444.971 68.5705Z" fill="#FF8158"/>
<path id="springPathEdge67" d="M418.692 65.8503C418.736 66.1037 418.7 66.3292 418.58 66.5236C418.46 66.7181 418.29 66.8341 418.069 66.8721C417.856 66.9087 417.641 66.8627 417.432 66.7329C417.294 66.6491 417.168 66.5673 417.058 66.4826L416.41 65.9854L416.603 67.1113L416.201 67.1803L415.908 65.4753L416.3 65.3956C416.726 65.7283 417.025 65.9542 417.195 66.0742C417.35 66.1841 417.494 66.2753 417.631 66.3471C417.755 66.4169 417.882 66.4363 418.01 66.4102C418.207 66.3724 418.334 66.1766 418.288 65.9072C418.246 65.6619 418.06 65.4952 417.82 65.4702L417.939 65.0771C418.313 65.133 418.621 65.4321 418.692 65.8503ZM417.903 69.3091C417.497 69.3788 417.155 69.3421 416.879 69.2032C416.607 69.0637 416.445 68.8472 416.394 68.5496C416.344 68.2561 416.423 67.9941 416.633 67.7717C416.848 67.5487 417.158 67.4042 417.564 67.3345C417.971 67.2649 418.311 67.2974 418.584 67.437C418.856 67.5765 419.017 67.7932 419.069 68.0908C419.12 68.3883 419.04 68.6462 418.825 68.8692C418.615 69.0916 418.309 69.2394 417.903 69.3091ZM418.666 68.1598C418.61 67.834 418.231 67.6754 417.64 67.7769C417.049 67.8783 416.741 68.1549 416.797 68.4806C416.854 68.8144 417.232 68.9689 417.827 68.8667C418.418 68.7653 418.724 68.4935 418.666 68.1598ZM419.837 72.8834L417.243 73.3285L417.145 72.7575L419.056 71.229L419.052 71.2256C418.924 71.2765 418.786 71.3168 418.629 71.3438L416.964 71.6294L416.89 71.1952L419.483 70.7501L419.586 71.3452L417.686 72.8467L417.691 72.8501C417.819 72.7992 417.957 72.7588 418.114 72.7319L419.763 72.4491L419.837 72.8834Z" fill="#FF8158"/>
</g>
<g id="forceReadoutWrapEdge">
<path d="M537.372 63.9488L490.042 71.9387C485.685 72.6742 482.749 76.8021 483.485 81.1588L485.482 92.9913C486.218 97.3484 490.346 100.283 494.702 99.5484L542.033 91.5581C546.389 90.8227 549.325 86.6947 548.589 82.3381L546.592 70.5055C545.857 66.1488 541.729 63.2133 537.372 63.9488Z" fill="white" stroke="#E8EAEF"/>
<text id="forceReadoutEdge" x="516.04" y="81.75" transform="rotate(-9.582 516.04 81.75)" text-anchor="middle" dominant-baseline="middle" font-family="Fenomen Sans, system-ui, sans-serif" font-size="14" font-weight="600" fill="#171923">0 N</text>
</g>
<rect id="silomerEdgeHit" x="394" y="7" width="270" height="98" fill="transparent" cursor="grab" aria-label="Siloměr"/>
</g>
</g>
</g>
</g>
</svg>
