<svg width="824" height="320" viewBox="-61 -90 824 320" fill="none" xmlns="http://www.w3.org/2000/svg" overflow="visible" aria-label="Základní scéna tření">
<defs>
<linearGradient id="paint0_linear_2095_869" x1="631.25" y1="56.7734" x2="791.25" y2="196.773" gradientUnits="userSpaceOnUse">
  <stop stop-color="#7A828C"/>
  <stop offset="1" stop-color="#454C54"/>
</linearGradient>
<linearGradient id="paint1_linear_2095_869" x1="11.25" y1="16.7734" x2="711.25" y2="156.773" gradientUnits="userSpaceOnUse">
  <stop stop-color="#D5DAE0"/>
  <stop offset="0.35" stop-color="#ADB5BF"/>
  <stop offset="0.7" stop-color="#8E96A1"/>
  <stop offset="1" stop-color="#6F7782"/>
</linearGradient>
<linearGradient id="paint2_linear_2095_869" x1="-8.75" y1="156.773" x2="631.25" y2="216.773" gradientUnits="userSpaceOnUse">
  <stop stop-color="#6B737D"/>
  <stop offset="1" stop-color="#3E4650"/>
</linearGradient>
<linearGradient id="paint3_linear_2095_869" x1="-8.75001" y1="156.773" x2="631.25" y2="216.773" gradientUnits="userSpaceOnUse">
  <stop stop-color="#747C86"/>
  <stop offset="1" stop-color="#454C54"/>
</linearGradient>
<linearGradient id="beamWoodFlat" x1="360" y1="20" x2="640" y2="130" gradientUnits="userSpaceOnUse">
  <stop stop-color="#F0C38A"/>
  <stop offset="0.45" stop-color="#D9984F"/>
  <stop offset="1" stop-color="#B56F2E"/>
</linearGradient>
<linearGradient id="beamWoodEdge" x1="410" y1="20" x2="620" y2="190" gradientUnits="userSpaceOnUse">
  <stop stop-color="#E8B87A"/>
  <stop offset="0.4" stop-color="#C98542"/>
  <stop offset="1" stop-color="#9E5F28"/>
</linearGradient>
<linearGradient id="beamSteelFlat" x1="360" y1="15" x2="650" y2="135" gradientUnits="userSpaceOnUse">
  <stop stop-color="#E8ECF0"/>
  <stop offset="0.28" stop-color="#B7C0C9"/>
  <stop offset="0.62" stop-color="#8A949F"/>
  <stop offset="1" stop-color="#5E6770"/>
</linearGradient>
<linearGradient id="beamSteelEdge" x1="410" y1="15" x2="630" y2="200" gradientUnits="userSpaceOnUse">
  <stop stop-color="#DDE3E9"/>
  <stop offset="0.35" stop-color="#A7B1BB"/>
  <stop offset="0.7" stop-color="#7A848E"/>
  <stop offset="1" stop-color="#4F575F"/>
</linearGradient>
<linearGradient id="leatherPad0" x1="631.25" y1="56.7734" x2="791.25" y2="196.773" gradientUnits="userSpaceOnUse">
  <stop stop-color="#7A5238"/>
  <stop offset="1" stop-color="#4E3222"/>
</linearGradient>
<linearGradient id="leatherPad1" x1="11.25" y1="16.7734" x2="711.25" y2="156.773" gradientUnits="userSpaceOnUse">
  <stop stop-color="#A36B45"/>
  <stop offset="0.4" stop-color="#8B5636"/>
  <stop offset="1" stop-color="#6A4129"/>
</linearGradient>
<linearGradient id="leatherPad2" x1="-8.75" y1="156.773" x2="631.25" y2="216.773" gradientUnits="userSpaceOnUse">
  <stop stop-color="#6E4630"/>
  <stop offset="1" stop-color="#452C1C"/>
</linearGradient>
<linearGradient id="leatherPad3" x1="-8.75" y1="156.773" x2="631.25" y2="216.773" gradientUnits="userSpaceOnUse">
  <stop stop-color="#745032"/>
  <stop offset="1" stop-color="#4A301E"/>
</linearGradient>
<linearGradient id="carpetPad0" x1="631.25" y1="56.7734" x2="791.25" y2="196.773" gradientUnits="userSpaceOnUse">
  <stop stop-color="#5A6E4A"/>
  <stop offset="1" stop-color="#3A4A30"/>
</linearGradient>
<linearGradient id="carpetPad1" x1="11.25" y1="16.7734" x2="711.25" y2="156.773" gradientUnits="userSpaceOnUse">
  <stop stop-color="#7A9168"/>
  <stop offset="0.4" stop-color="#647A54"/>
  <stop offset="1" stop-color="#4E6342"/>
</linearGradient>
<linearGradient id="carpetPad2" x1="-8.75" y1="156.773" x2="631.25" y2="216.773" gradientUnits="userSpaceOnUse">
  <stop stop-color="#4E5F40"/>
  <stop offset="1" stop-color="#2F3D2A"/>
</linearGradient>
<linearGradient id="carpetPad3" x1="-8.75" y1="156.773" x2="631.25" y2="216.773" gradientUnits="userSpaceOnUse">
  <stop stop-color="#556845"/>
  <stop offset="1" stop-color="#354532"/>
</linearGradient>
</defs>
<g id="pad" aria-label="Kovová podložka">
<path d="M551.25 16.7734L761.25 96.7734V141.773L551.25 61.7734V16.7734Z" fill="url(#paint0_linear_2095_869)" stroke="#3E4650" stroke-width="2.5" stroke-linejoin="round"/>
<path d="M1.25 96.7734L551.25 16.7734L761.25 96.7734L211.25 176.773L1.25 96.7734Z" fill="url(#paint1_linear_2095_869)" stroke="#3E4650" stroke-width="2.5" stroke-linejoin="round"/>
<path d="M1.25 96.7734L211.25 176.773V221.773L1.25 141.773V96.7734Z" fill="url(#paint2_linear_2095_869)" stroke="#3E4650" stroke-width="2.5" stroke-linejoin="round"/>
<path d="M211.25 176.773L761.25 96.7734V141.773L211.25 221.773V176.773Z" fill="url(#paint3_linear_2095_869)" stroke="#3E4650" stroke-width="2.5" stroke-linejoin="round"/>
</g>
<g id="rig">
<g id="beam">
<g id="flatScene">
<g id="beamFlat">
<path class="beam-body" d="M650.5 97.5234L460 127.523L354.25 84.5234V30.7734L544 0.773438L650.5 43.7734V97.5234Z" fill="#F1A558"/>
<path class="beam-wire" d="M354.25 30.7734L544 0.773438L650.5 43.7734V97.5234L460 127.523L354.25 84.5234V30.7734ZM460 127.523V73.7734M460 73.7734L650.5 43.7734M460 73.7734L354.25 30.7734" stroke="#5C3A18" stroke-width="1.5"/>
</g>
<g id="silomerFlat">
<g id="silomerMorph">
<path id="springPath0" d="M181.223 118.86C182.596 130.008 193.666 134.663 193.666 134.663L352.734 107.022C352.734 107.022 362.023 101.289 358.672 88.0648C355.322 74.841 348.387 72.2364 348.387 72.2364L185.528 99.8379C185.528 99.8379 179.851 107.711 181.223 118.86Z" fill="white"/>
<path id="springPath1" d="M351.417 71.794C353.699 71.4025 356.845 78.6364 358.443 87.9519C360.042 97.2668 359.487 105.136 357.206 105.528C354.924 105.919 351.777 98.685 350.179 89.3701C348.58 80.0546 349.135 72.1856 351.417 71.794Z" stroke="#9C9B9B" stroke-width="3.59788" stroke-linecap="round" stroke-linejoin="round"/>
<path id="springPath2" d="M219.765 98.1625C221.551 97.8562 224.012 103.517 225.263 110.806C226.514 118.095 226.08 124.253 224.295 124.559C222.509 124.866 220.047 119.205 218.797 111.916C217.546 104.626 217.979 98.469 219.765 98.1625Z" fill="#EF3A50"/>
<path id="springPath3" d="M220.358 111.915L363.349 87.3774" stroke="#565655" stroke-width="2.39859" stroke-linecap="round" stroke-linejoin="round"/>
<path id="springPath4" d="M363.86 87.2892C364.292 89.8039 366.68 91.4932 369.195 91.0616C371.709 90.6301 373.398 88.2413 372.966 85.7266C372.535 83.2119 370.146 81.5239 367.632 81.9554" stroke="#565655" stroke-width="2.39859" stroke-linecap="round" stroke-linejoin="round"/>
<path id="springPath5" d="M221.872 110.439C221.999 110.417 222.246 110.853 222.369 111.569C222.505 112.36 222.405 112.778 222.278 112.8C222.151 112.822 221.956 112.311 221.844 111.659C221.732 111.008 221.745 110.461 221.872 110.439Z" fill="#565655"/>
<path id="springPath6" d="M219.766 98.1628C221.552 97.8564 224.014 103.517 225.265 110.806C226.516 118.095 226.081 124.253 224.296 124.56" fill="#EF3A50"/>
<path id="springPath7" d="M219.909 99.009C221.695 98.7026 224.092 103.984 225.263 110.806C226.434 117.627 225.934 123.405 224.148 123.711" stroke="#813A50" stroke-width="1.79894" stroke-miterlimit="10" stroke-linecap="round"/>
<path id="springPath8" d="M351.416 71.7941C353.698 71.4025 356.844 78.6364 358.443 87.9519C360.041 97.2668 359.487 105.136 357.205 105.528" stroke="#1D1D1B" stroke-width="3.59788" stroke-linecap="round" stroke-linejoin="round"/>
<path id="springPath9" d="M182.72 100.743L350.076 72.025" stroke="#1D1D1B" stroke-width="3.59788" stroke-linecap="round" stroke-linejoin="round"/>
<path id="springPath10" d="M165.393 120.153L180.473 117.566" stroke="black" stroke-width="0.68"/>
<path id="springPath11" d="M161.498 126.166C164.406 125.667 166.36 122.905 165.861 119.996C165.361 117.087 162.599 115.134 159.69 115.633C156.782 116.132 154.829 118.895 155.328 121.803C155.827 124.712 158.589 126.665 161.498 126.166Z" stroke="#F19100" stroke-width="1.79894" stroke-miterlimit="10" stroke-linecap="round"/>
<path id="springPath12" d="M193.641 130.071C194.494 129.925 189.894 103.12 190.747 102.973C191.599 102.827 196.199 129.632 197.051 129.486C197.904 129.339 193.304 102.535 194.156 102.388C195.009 102.242 199.609 129.047 200.461 128.901C201.313 128.754 196.714 101.95 197.566 101.803C198.418 101.657 203.018 128.462 203.87 128.316C204.723 128.169 200.124 101.365 200.976 101.218C201.829 101.072 206.428 127.877 207.281 127.73C208.133 127.584 203.534 100.779 204.386 100.633C205.239 100.487 209.838 127.291 210.691 127.145C211.544 126.999 206.944 100.194 207.796 100.048C208.649 99.9016 213.248 126.706 214.101 126.56C214.954 126.414 210.354 99.609 211.207 99.4626C212.06 99.3163 216.659 126.121 217.512 125.975C218.365 125.828 213.765 99.0236 214.618 98.8772" stroke="#858585" stroke-width="2.39859" stroke-linecap="round" stroke-linejoin="round"/>
<path id="springPath13" d="M217.511 125.975C218.363 125.828 213.764 99.0235 214.617 98.8772C214.992 98.8128 216.085 103.957 217.276 109.725C217.827 112.39 218.411 112.29 220.22 111.979" stroke="#565655" stroke-width="2.39859" stroke-linecap="round" stroke-linejoin="round"/>
<path id="springPath14" d="M214.1 126.56C214.953 126.414 210.354 99.6091 211.206 99.4628" stroke="#565655" stroke-width="2.39859" stroke-linecap="round" stroke-linejoin="round"/>
<path id="springPath15" d="M186.818 131.241C187.671 131.095 183.071 104.29 183.924 104.144C184.776 103.998 189.376 130.802 190.228 130.656C191.081 130.51 186.481 103.705 187.333 103.559C188.186 103.413 192.786 130.217 193.639 130.071C194.491 129.925 189.891 103.12 190.744 102.974C191.597 102.827 196.196 129.632 197.048 129.486C197.901 129.339 193.302 102.535 194.154 102.388C195.007 102.242 199.607 129.047 200.459 128.9C201.312 128.754 196.713 101.949 197.566 101.803" stroke="#858585" stroke-width="2.39859" stroke-linecap="round" stroke-linejoin="round"/>
<path id="springPath16" d="M210.69 127.145C211.543 126.999 206.943 100.194 207.796 100.048" stroke="#565655" stroke-width="2.39859" stroke-linecap="round" stroke-linejoin="round"/>
<path id="springPath17" d="M207.28 127.73C208.133 127.584 203.533 100.779 204.386 100.633" stroke="#565655" stroke-width="2.39859" stroke-linecap="round" stroke-linejoin="round"/>
<path id="springPath18" d="M203.87 128.315C204.723 128.169 200.123 101.364 200.976 101.218" stroke="#565655" stroke-width="2.39859" stroke-linecap="round" stroke-linejoin="round"/>
<path id="springPath19" d="M200.46 128.9C201.312 128.754 196.712 101.949 197.565 101.803" stroke="#565655" stroke-width="2.39859" stroke-linecap="round" stroke-linejoin="round"/>
<path id="springPath20" d="M197.051 129.485C197.903 129.339 193.303 102.534 194.156 102.388" stroke="#565655" stroke-width="2.39859" stroke-linecap="round" stroke-linejoin="round"/>
<path id="springPath21" d="M193.64 130.071C194.492 129.924 189.893 103.12 190.745 102.973" stroke="#565655" stroke-width="2.39859" stroke-linecap="round" stroke-linejoin="round"/>
<path id="springPath22" d="M190.229 130.656C191.082 130.509 186.482 103.705 187.335 103.558" stroke="#565655" stroke-width="2.39859" stroke-linecap="round" stroke-linejoin="round"/>
<path id="springPath23" d="M183.925 104.143C183.072 104.29 187.672 131.094 186.82 131.24C185.858 131.406 182.647 122.196 181.975 118.276" stroke="#565655" stroke-width="2.39859" stroke-linecap="round" stroke-linejoin="round"/>
<path id="springPath24" d="M188.508 134.476C186.226 134.867 183.08 127.633 181.482 118.318C179.883 109.003 180.437 101.134 182.72 100.742" stroke="#1D1D1B" stroke-width="3.59788" stroke-linecap="round" stroke-linejoin="round"/>
<path id="springPath25" d="M290.808 102.973C291.755 110.762 291.084 116.868 289.08 117.212" stroke="#FF8158" stroke-width="1.1993" stroke-linecap="round" stroke-linejoin="round"/>
<path id="springPath26" d="M284.024 104.216C284.957 111.968 284.283 118.035 282.286 118.378" stroke="#FF8158" stroke-width="1.1993" stroke-linecap="round" stroke-linejoin="round"/>
<path id="springPath27" d="M277.697 105.301C278.631 113.054 277.957 119.121 275.96 119.463" stroke="#FF8158" stroke-width="1.1993" stroke-linecap="round" stroke-linejoin="round"/>
<path id="springPath28" d="M270.902 106.467C271.836 114.219 271.162 120.287 269.165 120.629" stroke="#FF8158" stroke-width="1.1993" stroke-linecap="round" stroke-linejoin="round"/>
<path id="springPath29" d="M264.566 107.476C265.514 115.265 264.842 121.371 262.839 121.715" stroke="#FF8158" stroke-width="1.1993" stroke-linecap="round" stroke-linejoin="round"/>
<path id="springPath30" d="M257.781 108.719C258.715 116.471 258.041 122.538 256.044 122.881" stroke="#FF8158" stroke-width="1.1993" stroke-linecap="round" stroke-linejoin="round"/>
<path id="springPath31" d="M251.457 109.81C252.391 117.562 251.716 123.629 249.72 123.972" stroke="#FF8158" stroke-width="1.1993" stroke-linecap="round" stroke-linejoin="round"/>
<path id="springPath32" d="M244.69 111.147C245.624 118.899 244.95 124.966 242.953 125.309" stroke="#FF8158" stroke-width="1.1993" stroke-linecap="round" stroke-linejoin="round"/>
<path id="springPath33" d="M238.334 112.056C239.268 119.808 238.594 125.876 236.597 126.218" stroke="#FF8158" stroke-width="1.1993" stroke-linecap="round" stroke-linejoin="round"/>
<path id="springPath34" d="M232.008 113.142C232.942 120.894 232.268 126.961 230.27 127.304" stroke="#FF8158" stroke-width="1.1993" stroke-linecap="round" stroke-linejoin="round"/>
<path id="springPath35" d="M225.641 114.234C226.574 121.987 225.9 128.054 223.903 128.396" stroke="#FF8158" stroke-width="1.1993" stroke-linecap="round" stroke-linejoin="round"/>
<path id="springPath36" d="M355.818 91.8174C356.766 99.6061 356.094 105.712 354.091 106.056" stroke="#FF8158" stroke-width="1.1993" stroke-linecap="round" stroke-linejoin="round"/>
<path id="springPath37" d="M349.034 93.0602C349.967 100.812 349.293 106.879 347.296 107.222" stroke="#FF8158" stroke-width="1.1993" stroke-linecap="round" stroke-linejoin="round"/>
<path id="springPath38" d="M342.707 94.1456C343.641 101.898 342.966 107.965 340.97 108.308" stroke="#FF8158" stroke-width="1.1993" stroke-linecap="round" stroke-linejoin="round"/>
<path id="springPath39" d="M335.912 95.3116C336.846 103.064 336.172 109.131 334.175 109.474" stroke="#FF8158" stroke-width="1.1993" stroke-linecap="round" stroke-linejoin="round"/>
<path id="springPath40" d="M329.575 96.3203C330.523 104.109 329.851 110.215 327.848 110.559" stroke="#FF8158" stroke-width="1.1993" stroke-linecap="round" stroke-linejoin="round"/>
<path id="springPath41" d="M322.791 97.5635C323.725 105.316 323.05 111.383 321.054 111.726" stroke="#FF8158" stroke-width="1.1993" stroke-linecap="round" stroke-linejoin="round"/>
<path id="springPath42" d="M316.466 98.6543C317.399 106.407 316.725 112.474 314.728 112.816" stroke="#FF8158" stroke-width="1.1993" stroke-linecap="round" stroke-linejoin="round"/>
<path id="springPath43" d="M309.701 99.9917C310.635 107.744 309.961 113.811 307.964 114.154" stroke="#FF8158" stroke-width="1.1993" stroke-linecap="round" stroke-linejoin="round"/>
<path id="springPath44" d="M303.344 100.9C304.277 108.653 303.604 114.72 301.606 115.062" stroke="#FF8158" stroke-width="1.1993" stroke-linecap="round" stroke-linejoin="round"/>
<path id="springPath45" d="M297.018 101.986C297.951 109.738 297.277 115.805 295.28 116.148" stroke="#FF8158" stroke-width="1.1993" stroke-linecap="round" stroke-linejoin="round"/>
<path id="springPath46" d="M188.509 134.476L357.541 105.47" stroke="#1D1D1B" stroke-width="3.59788" stroke-linecap="round" stroke-linejoin="round"/>
<path id="springPath47" d="M229.672 106.22L232.265 105.775L232.342 106.225L230.151 106.602L230.268 107.285L229.847 107.242L229.672 106.22ZM228.927 101.808L231.521 101.363L231.619 101.934L229.708 103.463L229.712 103.466C229.84 103.415 229.978 103.375 230.135 103.348L231.8 103.062L231.874 103.497L229.281 103.942L229.178 103.347L231.077 101.845L231.073 101.842C230.945 101.893 230.807 101.933 230.65 101.96L229.001 102.243L228.927 101.808Z" fill="#FF8158"/>
<path id="springPath48" d="M224.159 106.532C224.565 106.462 224.907 106.499 225.183 106.638C225.456 106.777 225.617 106.994 225.668 107.292C225.718 107.585 225.639 107.847 225.429 108.069C225.215 108.293 224.904 108.437 224.498 108.507C224.092 108.576 223.751 108.544 223.479 108.404C223.206 108.265 223.045 108.048 222.994 107.75C222.943 107.453 223.023 107.195 223.237 106.972C223.447 106.75 223.753 106.602 224.159 106.532ZM223.396 107.681C223.452 108.007 223.831 108.166 224.422 108.064C225.013 107.963 225.322 107.686 225.266 107.361C225.209 107.027 224.83 106.872 224.235 106.974C223.644 107.076 223.339 107.348 223.396 107.681ZM222.225 102.958L224.819 102.513L224.917 103.084L223.006 104.612L223.011 104.615C223.139 104.565 223.277 104.524 223.433 104.497L225.098 104.212L225.173 104.646L222.579 105.091L222.477 104.496L224.376 102.994L224.371 102.991C224.243 103.042 224.105 103.082 223.949 103.109L222.3 103.392L222.225 102.958Z" fill="#FF8158"/>
<path id="springPath49" d="M282.391 96.6103C282.62 96.571 282.897 96.6186 283.218 96.7499L284.261 97.1836L284.355 97.7345L283.382 97.2763L283.379 97.281C283.408 97.3298 283.432 97.3961 283.446 97.4806C283.487 97.7178 283.439 97.9414 283.3 98.1473C283.161 98.3492 282.967 98.4736 282.718 98.5164C282.464 98.5598 282.231 98.5046 282.019 98.3507C281.805 98.1927 281.678 97.9827 281.632 97.7133C281.586 97.4439 281.636 97.2075 281.786 96.9955C281.936 96.7835 282.137 96.6538 282.391 96.6103ZM283.057 97.4771C283.031 97.3283 282.962 97.2119 282.845 97.1367C282.728 97.0574 282.595 97.0306 282.454 97.0547C282.31 97.0795 282.193 97.1492 282.109 97.263C282.025 97.3767 281.994 97.5063 282.019 97.6551C282.045 97.8039 282.118 97.9156 282.235 97.9948C282.352 98.0741 282.485 98.1009 282.63 98.0761C282.919 98.0264 283.107 97.7706 283.057 97.4771ZM280.867 92.8951L283.461 92.45L283.559 93.0211L281.648 94.5495L281.652 94.5528C281.78 94.5019 281.918 94.4617 282.075 94.4347L283.74 94.1491L283.814 94.5834L281.221 95.0284L281.119 94.4333L283.018 92.9318L283.013 92.9284C282.885 92.9793 282.747 93.0196 282.59 93.0465L280.942 93.3294L280.867 92.8951Z" fill="#FF8158"/>
<path id="springPath50" d="M255.403 101.382L255.785 101.316L255.975 102.422L256.607 102.392C256.503 102.29 256.438 102.152 256.408 101.979C256.366 101.734 256.415 101.515 256.552 101.321C256.688 101.124 256.882 101.004 257.136 100.96C257.381 100.918 257.605 100.971 257.813 101.117C258.019 101.26 258.144 101.458 258.186 101.703C258.257 102.113 258.139 102.44 257.834 102.687L257.539 102.394C257.748 102.238 257.831 102.042 257.79 101.804C257.742 101.527 257.514 101.355 257.224 101.405C256.935 101.454 256.762 101.703 256.816 102.013C256.849 102.206 256.947 102.342 257.114 102.425L256.972 102.756L255.652 102.83L255.403 101.382ZM254.729 97.3803L257.323 96.9352L257.421 97.5062L255.51 99.0346L255.514 99.038C255.642 98.9871 255.78 98.9468 255.937 98.9199L257.602 98.6342L257.676 99.0685L255.083 99.5136L254.981 98.9185L256.88 97.4169L256.875 97.4136C256.747 97.4645 256.609 97.5047 256.452 97.5317L254.804 97.8146L254.729 97.3803Z" fill="#FF8158"/>
<path id="springPath51" d="M307.415 92.8793L310.009 92.4342L310.086 92.8846L307.894 93.2607L308.012 93.9443L307.59 93.9007L307.415 92.8793ZM307.056 91.0748C307.014 90.8335 307.052 90.62 307.165 90.431C307.277 90.242 307.424 90.1339 307.613 90.1015C307.867 90.058 308.065 90.1315 308.217 90.3166C308.27 90.0715 308.504 89.8658 308.798 89.8155C309.019 89.7775 309.223 89.8335 309.406 89.9802C309.584 90.1276 309.698 90.3357 309.744 90.6011C309.827 91.0836 309.601 91.4328 309.282 91.6242L309.022 91.292C309.282 91.1439 309.389 90.9435 309.345 90.6902C309.295 90.3966 309.11 90.2379 308.841 90.2841C308.588 90.3276 308.48 90.5447 308.52 90.8484L308.551 91.0294L308.181 91.0928C308.166 91.0084 308.155 90.9441 308.144 90.9005C308.08 90.6258 307.939 90.5051 307.718 90.543C307.521 90.5768 307.418 90.7725 307.459 91.0138C307.501 91.2591 307.689 91.4091 307.923 91.4476L307.799 91.8372C307.437 91.7792 307.128 91.493 307.056 91.0748ZM306.291 86.2566L308.885 85.8115L308.983 86.3825L307.072 87.911L307.076 87.9143C307.204 87.8634 307.342 87.8231 307.499 87.7962L309.164 87.5106L309.238 87.9448L306.645 88.3899L306.543 87.7948L308.442 86.2932L308.437 86.2899C308.309 86.3408 308.171 86.3811 308.014 86.408L306.366 86.6909L306.291 86.2566Z" fill="#FF8158"/>
<path id="springPath52" d="M333.888 88.3364L336.482 87.8913L336.559 88.3417L334.368 88.7178L334.485 89.4014L334.064 89.3578L333.888 88.3364ZM333.43 85.663L333.79 85.5681L336.208 86.1756L336.295 86.6823L333.908 86.0404L334.113 87.2347L333.711 87.3037L333.43 85.663ZM332.771 81.753L335.365 81.3079L335.463 81.8789L333.552 83.4074L333.556 83.4107C333.684 83.3598 333.822 83.3195 333.979 83.2926L335.644 83.0069L335.718 83.4412L333.125 83.8863L333.023 83.2912L334.922 81.7896L334.917 81.7863C334.789 81.8372 334.651 81.8775 334.494 81.9044L332.846 82.1873L332.771 81.753Z" fill="#FF8158"/>
<path id="springPath53" d="M242.426 104.441C242.384 104.2 242.422 103.986 242.535 103.797C242.647 103.608 242.794 103.5 242.983 103.468C243.236 103.424 243.435 103.498 243.587 103.683C243.64 103.438 243.874 103.232 244.168 103.182C244.389 103.144 244.593 103.2 244.775 103.347C244.954 103.494 245.068 103.702 245.114 103.968C245.197 104.45 244.971 104.799 244.652 104.991L244.392 104.659C244.652 104.51 244.759 104.31 244.715 104.057C244.665 103.763 244.48 103.604 244.211 103.651C243.957 103.694 243.85 103.911 243.89 104.215L243.921 104.396L243.551 104.459C243.536 104.375 243.525 104.311 243.513 104.267C243.45 103.992 243.309 103.872 243.088 103.91C242.891 103.943 242.788 104.139 242.829 104.38C242.871 104.626 243.058 104.776 243.293 104.814L243.169 105.204C242.807 105.146 242.497 104.859 242.426 104.441ZM241.661 99.623L244.255 99.1779L244.353 99.7489L242.442 101.277L242.446 101.281C242.574 101.23 242.712 101.19 242.869 101.163L244.534 100.877L244.608 101.311L242.015 101.756L241.913 101.161L243.812 99.6596L243.807 99.6563C243.679 99.7072 243.541 99.7475 243.384 99.7744L241.735 100.057L241.661 99.623Z" fill="#FF8158"/>
<path id="springPath54" d="M294.347 95.122L296.941 94.677L297.018 95.1273L294.827 95.5034L294.944 96.187L294.523 96.1434L294.347 95.122ZM293.968 92.9111L296.562 92.4661L296.639 92.9164L294.447 93.2925L294.565 93.9761L294.143 93.9325L293.968 92.9111ZM293.223 88.4994L295.817 88.0543L295.915 88.6253L294.004 90.1537L294.009 90.1571C294.136 90.1061 294.274 90.0659 294.431 90.039L296.096 89.7533L296.171 90.1876L293.577 90.6327L293.475 90.0375L295.374 88.536L295.369 88.5327C295.241 88.5836 295.103 88.6238 294.946 88.6507L293.298 88.9337L293.223 88.4994Z" fill="#FF8158"/>
<path id="springPath55" d="M268.463 99.0868L268.824 98.9919L271.242 99.5994L271.329 100.106L268.942 99.4642L269.147 100.659L268.745 100.728L268.463 99.0868ZM267.805 95.1767L270.399 94.7317L270.497 95.3027L268.586 96.8311L268.59 96.8344C268.718 96.7835 268.856 96.7433 269.013 96.7164L270.678 96.4307L270.752 96.865L268.159 97.3101L268.056 96.7149L269.956 95.2134L269.951 95.2101C269.823 95.261 269.685 95.3012 269.528 95.3281L267.879 95.611L267.805 95.1767Z" fill="#FF8158"/>
<path id="springPath56" d="M320.483 90.6367L323.077 90.1916L323.154 90.642L320.962 91.0181L321.08 91.7017L320.658 91.6581L320.483 90.6367ZM320.033 88.0156L320.415 87.9501L320.605 89.0559L321.237 89.026C321.133 88.9239 321.068 88.7861 321.038 88.6131C320.996 88.3678 321.045 88.1483 321.182 87.9551C321.318 87.7579 321.512 87.6376 321.766 87.5941C322.011 87.552 322.235 87.6046 322.443 87.7512C322.649 87.8937 322.774 88.0917 322.816 88.337C322.887 88.7471 322.769 89.0737 322.464 89.3207L322.169 89.0276C322.378 88.8717 322.461 88.6754 322.42 88.4382C322.372 88.1607 322.144 87.9887 321.854 88.0384C321.565 88.0881 321.392 88.3371 321.446 88.6467C321.479 88.8398 321.577 88.9761 321.744 89.0592L321.602 89.3899L320.282 89.4633L320.033 88.0156ZM319.359 84.014L321.953 83.5689L322.051 84.1399L320.14 85.6684L320.144 85.6717C320.272 85.6208 320.41 85.5805 320.567 85.5536L322.232 85.268L322.306 85.7023L319.713 86.1473L319.611 85.5522L321.51 84.0506L321.505 84.0473C321.377 84.0982 321.239 84.1385 321.082 84.1654L319.433 84.4483L319.359 84.014Z" fill="#FF8158"/>
<path id="springPath57" d="M346.958 86.0937L349.552 85.6487L349.629 86.099L347.437 86.4751L347.555 87.1587L347.133 87.1151L346.958 86.0937ZM347.357 83.1862C347.587 83.1469 347.864 83.1945 348.184 83.3258L349.228 83.7595L349.322 84.3104L348.349 83.8522L348.346 83.8569C348.375 83.9058 348.399 83.972 348.413 84.0565C348.454 84.2937 348.405 84.5173 348.267 84.7232C348.128 84.9251 347.934 85.0495 347.684 85.0923C347.431 85.1357 347.198 85.0805 346.985 84.9266C346.772 84.7687 346.645 84.5586 346.599 84.2892C346.552 84.0198 346.603 83.7835 346.753 83.5714C346.903 83.3594 347.104 83.2297 347.357 83.1862ZM348.024 84.053C347.998 83.9042 347.928 83.7878 347.812 83.7126C347.695 83.6333 347.562 83.6065 347.421 83.6306C347.276 83.6555 347.16 83.7251 347.076 83.8389C346.992 83.9526 346.961 84.0822 346.986 84.231C347.012 84.3798 347.085 84.4915 347.202 84.5707C347.319 84.65 347.452 84.6769 347.597 84.652C347.886 84.6023 348.074 84.3465 348.024 84.053ZM345.834 79.4711L348.428 79.026L348.526 79.597L346.615 81.1254L346.619 81.1288C346.747 81.0778 346.885 81.0376 347.042 81.0107L348.707 80.725L348.781 81.1593L346.188 81.6044L346.086 81.0092L347.985 79.5077L347.98 79.5044C347.852 79.5553 347.714 79.5955 347.557 79.6224L345.909 79.9053L345.834 79.4711Z" fill="#FF8158"/>
<path id="springPath58" d="M236.059 105.538C236.016 105.285 236.052 105.059 236.172 104.865C236.291 104.67 236.462 104.554 236.683 104.516C236.896 104.479 237.111 104.525 237.32 104.655C237.458 104.739 237.584 104.821 237.694 104.906L238.342 105.403L238.149 104.277L238.551 104.208L238.844 105.913L238.452 105.993C238.026 105.66 237.726 105.434 237.557 105.314C237.401 105.204 237.257 105.113 237.121 105.041C236.997 104.971 236.87 104.952 236.742 104.978C236.545 105.016 236.417 105.212 236.464 105.481C236.506 105.726 236.692 105.893 236.932 105.918L236.813 106.311C236.439 106.255 236.131 105.956 236.059 105.538ZM235.294 100.716L237.888 100.271L237.986 100.842L236.075 102.37L236.079 102.373C236.207 102.322 236.345 102.282 236.502 102.255L238.167 101.97L238.241 102.404L235.648 102.849L235.546 102.254L237.445 100.752L237.44 100.749C237.312 100.8 237.174 100.84 237.017 100.867L235.369 101.15L235.294 100.716Z" fill="#FF8158"/>
<path id="springPath59" d="M287.978 96.2144L290.572 95.7693L290.649 96.2197L288.458 96.5957L288.575 97.2793L288.154 97.2358L287.978 96.2144ZM288.788 93.166C289.194 93.0963 289.536 93.1329 289.812 93.2718C290.085 93.4113 290.246 93.6279 290.297 93.9255C290.347 94.219 290.268 94.481 290.058 94.7033C289.844 94.9264 289.533 95.0707 289.127 95.1404C288.721 95.2101 288.38 95.1776 288.108 95.038C287.835 94.8985 287.674 94.6819 287.623 94.3843C287.572 94.0868 287.652 93.8288 287.866 93.6058C288.076 93.3834 288.382 93.2357 288.788 93.166ZM288.025 94.3153C288.081 94.641 288.46 94.7995 289.051 94.6981C289.642 94.5967 289.951 94.3202 289.895 93.9945C289.838 93.6607 289.459 93.5062 288.864 93.6084C288.273 93.7098 287.968 93.9816 288.025 94.3153ZM286.854 89.5917L289.448 89.1466L289.546 89.7176L287.635 91.246L287.64 91.2494C287.767 91.1985 287.905 91.1582 288.062 91.1313L289.727 90.8456L289.802 91.2799L287.208 91.725L287.106 91.1299L289.005 89.6283L289 89.625C288.872 89.6759 288.734 89.7161 288.577 89.7431L286.929 90.026L286.854 89.5917Z" fill="#FF8158"/>
<path id="springPath60" d="M262.156 100.518L263.128 100.976L263.132 100.971C263.103 100.922 263.079 100.856 263.064 100.772C263.024 100.534 263.072 100.311 263.212 100.109C263.35 99.903 263.544 99.7786 263.793 99.7358C264.047 99.6924 264.28 99.7476 264.493 99.9056C264.706 100.059 264.833 100.269 264.879 100.539C264.925 100.808 264.875 101.049 264.726 101.261C264.576 101.473 264.374 101.598 264.12 101.642C263.891 101.681 263.614 101.634 263.293 101.502L262.25 101.069L262.156 100.518ZM263.454 100.775C263.48 100.924 263.553 101.04 263.67 101.119C263.787 101.194 263.916 101.222 264.057 101.197C264.201 101.173 264.318 101.103 264.402 100.989C264.486 100.875 264.517 100.746 264.492 100.597C264.466 100.448 264.393 100.337 264.276 100.257C264.159 100.178 264.026 100.151 263.881 100.176C263.592 100.226 263.404 100.482 263.454 100.775ZM261.432 96.2306L264.026 95.7856L264.124 96.3566L262.213 97.885L262.218 97.8883C262.346 97.8374 262.484 97.7972 262.64 97.7703L264.305 97.4846L264.38 97.9189L261.786 98.3639L261.684 97.7688L263.583 96.2673L263.578 96.2639C263.45 96.3149 263.313 96.3551 263.156 96.382L261.507 96.6649L261.432 96.2306Z" fill="#FF8158"/>
<path id="springPath61" d="M314.117 91.7289L316.711 91.2839L316.788 91.7342L314.597 92.1103L314.714 92.7939L314.292 92.7503L314.117 91.7289ZM313.692 89.3231L315.248 89.056L315.186 88.6941L315.588 88.6251L315.65 88.987L316.298 88.8759L316.374 89.3183L315.726 89.4294L315.917 90.5392L315.507 90.6344L313.8 89.9504L313.692 89.3231ZM314.138 89.7019L315.445 90.2061L315.324 89.4984L314.138 89.7019ZM312.993 85.1063L315.587 84.6612L315.685 85.2322L313.774 86.7606L313.778 86.764C313.906 86.713 314.044 86.6728 314.201 86.6459L315.866 86.3602L315.94 86.7945L313.347 87.2396L313.245 86.6444L315.144 85.1429L315.139 85.1396C315.011 85.1905 314.873 85.2307 314.716 85.2576L313.068 85.5406L312.993 85.1063Z" fill="#FF8158"/>
<path id="springPath62" d="M340.591 87.1865L343.185 86.7414L343.262 87.1918L341.071 87.5679L341.188 88.2515L340.766 88.2079L340.591 87.1865ZM340.789 84.4335C340.994 84.3983 341.178 84.4538 341.331 84.5973C341.433 84.3272 341.633 84.1645 341.927 84.1142C342.172 84.0721 342.384 84.1267 342.571 84.2768C342.759 84.4268 342.872 84.6308 342.917 84.8922C342.962 85.1536 342.924 85.3878 342.797 85.5917C342.671 85.7955 342.489 85.9178 342.243 85.9599C341.942 86.0117 341.7 85.929 341.526 85.7105C341.432 85.888 341.277 85.9974 341.064 86.034C340.867 86.0678 340.689 86.0197 340.525 85.8863C340.358 85.7536 340.257 85.5764 340.219 85.3552C340.181 85.134 340.217 84.9333 340.331 84.7523C340.441 84.572 340.592 84.4673 340.789 84.4335ZM340.994 85.603C341.199 85.5678 341.326 85.3928 341.289 85.1717C341.252 84.9585 341.073 84.8319 340.868 84.8671C340.671 84.901 340.55 85.0873 340.585 85.2924C340.62 85.4975 340.797 85.6368 340.994 85.603ZM342.168 85.5176C342.292 85.4962 342.393 85.4333 342.466 85.3257C342.538 85.218 342.563 85.0938 342.539 84.9571C342.516 84.8244 342.453 84.7194 342.348 84.642C342.244 84.5647 342.127 84.5351 342.003 84.5565C341.745 84.6007 341.575 84.8409 341.622 85.1144C341.669 85.3878 341.91 85.5617 342.168 85.5176ZM339.467 80.5638L342.061 80.1187L342.159 80.6898L340.248 82.2182L340.252 82.2215C340.38 82.1706 340.518 82.1304 340.675 82.1034L342.34 81.8178L342.414 82.2521L339.821 82.6971L339.719 82.102L341.618 80.6005L341.613 80.5971C341.485 80.648 341.347 80.6883 341.19 80.7152L339.542 80.9981L339.467 80.5638Z" fill="#FF8158"/>
<path id="springPath63" d="M248.726 102.747L250.283 102.48L250.221 102.118L250.623 102.049L250.685 102.411L251.332 102.3L251.408 102.742L250.761 102.854L250.951 103.963L250.541 104.059L248.834 103.375L248.726 102.747ZM249.172 103.126L250.48 103.63L250.359 102.923L249.172 103.126ZM248.028 98.5304L250.621 98.0854L250.719 98.6564L248.808 100.185L248.813 100.188C248.941 100.137 249.079 100.097 249.236 100.07L250.901 99.7844L250.975 100.219L248.381 100.664L248.279 100.069L250.178 98.5671L250.174 98.5637C250.046 98.6147 249.908 98.6549 249.751 98.6818L248.102 98.9647L248.028 98.5304Z" fill="#FF8158"/>
<path id="springPath64" d="M300.714 94.0292L303.308 93.5841L303.385 94.0345L301.193 94.4106L301.311 95.0942L300.889 95.0506L300.714 94.0292ZM300.355 92.2287C300.312 91.9753 300.348 91.7498 300.467 91.5554C300.587 91.361 300.758 91.2448 300.979 91.2068C301.192 91.1702 301.407 91.2162 301.615 91.346C301.754 91.4298 301.88 91.5117 301.99 91.5964L302.638 92.0937L302.445 90.9677L302.847 90.8987L303.139 92.6037L302.747 92.6834C302.322 92.3507 302.022 92.1248 301.853 92.0049C301.697 91.8949 301.553 91.8037 301.417 91.7319C301.293 91.6621 301.165 91.6426 301.037 91.6687C300.841 91.7065 300.713 91.9023 300.759 92.1717C300.802 92.417 300.987 92.5838 301.228 92.6088L301.109 93.0018C300.735 92.9459 300.427 92.6469 300.355 92.2287ZM299.59 87.4065L302.184 86.9614L302.282 87.5324L300.371 89.0609L300.375 89.0642C300.503 89.0133 300.641 88.973 300.798 88.9461L302.463 88.6605L302.537 89.0947L299.944 89.5398L299.841 88.9447L301.74 87.4431L301.736 87.4398C301.608 87.4907 301.47 87.531 301.313 87.5579L299.664 87.8408L299.59 87.4065Z" fill="#FF8158"/>
<path id="springPath65" d="M275.823 97.8578C276.028 97.8226 276.211 97.8781 276.364 98.0216C276.467 97.7514 276.667 97.5888 276.96 97.5384C277.205 97.4964 277.418 97.551 277.605 97.701C277.792 97.8511 277.906 98.0551 277.951 98.3165C277.995 98.5778 277.957 98.8121 277.83 99.016C277.704 99.2198 277.522 99.3421 277.277 99.3842C276.975 99.4359 276.733 99.3533 276.559 99.1348C276.466 99.3123 276.31 99.4217 276.097 99.4583C275.9 99.4921 275.722 99.444 275.559 99.3106C275.391 99.1779 275.29 99.0007 275.252 98.7795C275.214 98.5583 275.25 98.3576 275.364 98.1766C275.474 97.9963 275.626 97.8916 275.823 97.8578ZM276.028 99.0273C276.233 98.9921 276.36 98.8171 276.322 98.5959C276.285 98.3828 276.106 98.2562 275.901 98.2914C275.704 98.3252 275.583 98.5116 275.618 98.7167C275.653 98.9218 275.831 99.0611 276.028 99.0273ZM277.201 98.9419C277.326 98.9205 277.427 98.8576 277.499 98.7499C277.572 98.6423 277.596 98.5181 277.573 98.3813C277.55 98.2486 277.486 98.1436 277.382 98.0663C277.278 97.989 277.161 97.9594 277.036 97.9808C276.779 98.0249 276.609 98.2652 276.656 98.5387C276.703 98.8121 276.944 98.986 277.201 98.9419ZM274.5 93.9881L277.094 93.543L277.192 94.114L275.281 95.6424L275.286 95.6458C275.414 95.5948 275.552 95.5546 275.709 95.5277L277.373 95.242L277.448 95.6763L274.854 96.1214L274.752 95.5262L276.651 94.0247L276.646 94.0214C276.519 94.0723 276.381 94.1125 276.224 94.1394L274.575 94.4224L274.5 93.9881Z" fill="#FF8158"/>
<path id="springPath66" d="M327.186 89.4868L329.78 89.0417L329.857 89.4921L327.666 89.8682L327.783 90.5518L327.361 90.5082L327.186 89.4868ZM326.785 87.1512L327.758 87.6094L327.761 87.6047C327.732 87.5558 327.709 87.4896 327.694 87.4051C327.653 87.1679 327.702 86.9443 327.841 86.7424C327.98 86.5365 328.174 86.4121 328.423 86.3693C328.676 86.3258 328.909 86.3811 329.123 86.539C329.335 86.6929 329.462 86.903 329.509 87.1724C329.555 87.4418 329.505 87.6822 329.355 87.8942C329.205 88.1062 329.003 88.2319 328.75 88.2754C328.521 88.3147 328.244 88.2671 327.923 88.1358L326.88 87.7021L326.785 87.1512ZM328.084 87.4086C328.109 87.5574 328.183 87.6731 328.3 87.7523C328.417 87.8276 328.545 87.8551 328.686 87.831C328.831 87.8061 328.947 87.7365 329.031 87.6227C329.115 87.509 329.147 87.3794 329.121 87.2306C329.096 87.0818 329.023 86.9701 328.906 86.8909C328.789 86.8116 328.656 86.7847 328.511 86.8096C328.221 86.8593 328.033 87.1151 328.084 87.4086ZM326.062 82.8641L328.656 82.419L328.754 82.99L326.843 84.5185L326.847 84.5218C326.975 84.4709 327.113 84.4306 327.27 84.4037L328.935 84.1181L329.009 84.5523L326.416 84.9974L326.314 84.4023L328.213 82.9007L328.208 82.8974C328.08 82.9483 327.942 82.9886 327.785 83.0155L326.137 83.2984L326.062 82.8641Z" fill="#FF8158"/>
<path id="springPath67" d="M352.341 85.5843C352.297 85.3309 352.333 85.1054 352.453 84.911C352.573 84.7165 352.743 84.6004 352.964 84.5624C353.177 84.5258 353.392 84.5718 353.601 84.7016C353.739 84.7854 353.865 84.8673 353.975 84.952L354.623 85.4492L354.43 84.3233L354.832 84.2543L355.125 85.9593L354.733 86.039C354.307 85.7063 354.008 85.4804 353.838 85.3604C353.683 85.2505 353.539 85.1593 353.402 85.0875C353.278 85.0177 353.151 84.9982 353.023 85.0243C352.826 85.0621 352.699 85.2579 352.745 85.5273C352.787 85.7726 352.973 85.9394 353.213 85.9644L353.094 86.3574C352.72 86.3015 352.412 86.0025 352.341 85.5843ZM353.13 82.1255C353.536 82.0558 353.878 82.0924 354.154 82.2313C354.426 82.3708 354.588 82.5874 354.639 82.885C354.689 83.1785 354.61 83.4405 354.4 83.6629C354.185 83.8859 353.875 84.0303 353.469 84.1C353.062 84.1696 352.722 84.1371 352.449 83.9975C352.177 83.858 352.016 83.6414 351.964 83.3438C351.913 83.0463 351.993 82.7883 352.208 82.5653C352.418 82.3429 352.724 82.1952 353.13 82.1255ZM352.367 83.2748C352.423 83.6006 352.802 83.7591 353.393 83.6576C353.984 83.5562 354.292 83.2797 354.236 82.954C354.179 82.6202 353.801 82.4657 353.206 82.5679C352.615 82.6693 352.309 82.9411 352.367 83.2748ZM351.196 78.5512L353.79 78.1061L353.888 78.6771L351.977 80.2056L351.981 80.2089C352.109 80.158 352.247 80.1177 352.404 80.0908L354.069 79.8051L354.143 80.2394L351.55 80.6845L351.447 80.0894L353.347 78.5878L353.342 78.5845C353.214 78.6354 353.076 78.6757 352.919 78.7026L351.27 78.9855L351.196 78.5512Z" fill="#FF8158"/>
</g>
<g id="forceReadoutWrap">
<path d="M233.661 87.4857L280.991 79.4958C285.348 78.7603 288.284 74.6324 287.548 70.2757L285.551 58.4432C284.815 54.0861 280.687 51.1511 276.331 51.8861L229 59.8764C224.644 60.6118 221.708 64.7398 222.444 69.0964L224.441 80.929C225.176 85.2857 229.304 88.2212 233.661 87.4857Z" fill="white" stroke="#E8EAEF"/>
<text id="forceReadout" x="257.3" y="71.3" transform="rotate(-9.582 257.3 71.3)" text-anchor="middle" dominant-baseline="middle" font-family="Fenomen Sans, system-ui, sans-serif" font-size="14" font-weight="600" fill="#171923">0 N</text>
</g>
<rect id="silomer" x="150" y="40" width="240" height="110" fill="transparent" cursor="grab" aria-label="Siloměr"/>
</g>
<g id="beamHookFlat">
<path class="beam-hook" d="M399.75 79.7734L373.25 86.2734" stroke="black"/>
</g>
</g>
<g id="edgeScene" style="display:none" transform="translate(0 -84.7476)">
<g id="beamEdge">
<path class="beam-body" d="M450.701 189.113L642.555 159.113V17.7471L596.421 0.771484L406.25 30.7715V172.137L450.701 189.113Z" fill="#F1A558"/>
<path class="beam-wire" d="M642.555 17.7471L450.701 47.7471M406.25 30.7715V172.137L450.701 189.113L642.555 159.113V17.7471L596.421 0.771484L406.25 30.7715ZM450.701 47.7471V189.113M450.701 47.7471L406.25 30.7715" stroke="#5C3A18" stroke-width="1.5"/>
</g>
<g id="silomerEdge">
<g id="silomerMorphEdge">
<path id="springPathEdge0" d="M207.223 163.853C208.596 175.001 219.666 179.656 219.666 179.656L378.734 152.015C378.734 152.015 388.023 146.281 384.672 133.057C381.322 119.834 374.387 117.229 374.387 117.229L211.528 144.831C211.528 144.831 205.851 152.704 207.223 163.853Z" fill="white"/>
<path id="springPathEdge1" d="M377.417 116.787C379.699 116.395 382.845 123.629 384.443 132.945C386.042 142.259 385.487 150.129 383.206 150.52C380.924 150.912 377.777 143.678 376.179 134.363C374.58 125.047 375.135 117.178 377.417 116.787Z" stroke="#9C9B9B" stroke-width="3.59788" stroke-linecap="round" stroke-linejoin="round"/>
<path id="springPathEdge2" d="M245.765 143.155C247.551 142.849 250.012 148.509 251.263 155.799C252.514 163.088 252.08 169.246 250.295 169.552C248.509 169.859 246.047 164.197 244.797 156.908C243.546 149.619 243.979 143.462 245.765 143.155Z" fill="#EF3A50"/>
<path id="springPathEdge3" d="M246.358 156.907L389.349 132.37" stroke="#565655" stroke-width="2.39859" stroke-linecap="round" stroke-linejoin="round"/>
<path id="springPathEdge4" d="M389.86 132.282C390.292 134.797 392.68 136.486 395.195 136.054C397.709 135.623 399.398 133.234 398.966 130.719C398.535 128.205 396.146 126.517 393.632 126.948" stroke="#565655" stroke-width="2.39859" stroke-linecap="round" stroke-linejoin="round"/>
<path id="springPathEdge5" d="M247.872 155.432C247.999 155.41 248.246 155.846 248.369 156.562C248.505 157.352 248.405 157.771 248.278 157.793C248.151 157.815 247.956 157.304 247.844 156.651C247.732 156 247.745 155.453 247.872 155.432Z" fill="#565655"/>
<path id="springPathEdge6" d="M245.766 143.155C247.552 142.849 250.014 148.509 251.265 155.799C252.516 163.088 252.081 169.246 250.296 169.552" fill="#EF3A50"/>
<path id="springPathEdge7" d="M245.909 144.002C247.695 143.695 250.092 148.977 251.263 155.798C252.434 162.62 251.934 168.398 250.148 168.704" stroke="#813A50" stroke-width="1.79894" stroke-miterlimit="10" stroke-linecap="round"/>
<path id="springPathEdge8" d="M377.416 116.787C379.698 116.395 382.844 123.629 384.443 132.945C386.041 142.26 385.487 150.129 383.205 150.521" stroke="#1D1D1B" stroke-width="3.59788" stroke-linecap="round" stroke-linejoin="round"/>
<path id="springPathEdge9" d="M208.72 145.736L376.076 117.018" stroke="#1D1D1B" stroke-width="3.59788" stroke-linecap="round" stroke-linejoin="round"/>
<path id="springPathEdge10" d="M191.393 165.146L206.473 162.558" stroke="black" stroke-width="0.68"/>
<path id="springPathEdge11" d="M187.498 171.159C190.406 170.659 192.36 167.897 191.861 164.988C191.361 162.08 188.599 160.126 185.69 160.626C182.782 161.125 180.829 163.887 181.328 166.796C181.827 169.705 184.589 171.658 187.498 171.159Z" stroke="#F19100" stroke-width="1.79894" stroke-miterlimit="10" stroke-linecap="round"/>
<path id="springPathEdge12" d="M219.641 175.063C220.494 174.917 215.894 148.112 216.747 147.966C217.599 147.82 222.199 174.625 223.051 174.478C223.904 174.332 219.304 147.527 220.156 147.381C221.009 147.235 225.609 174.039 226.461 173.893C227.313 173.747 222.714 146.942 223.566 146.796C224.418 146.65 229.018 173.454 229.87 173.308C230.723 173.162 226.124 146.357 226.976 146.211C227.829 146.065 232.428 172.869 233.281 172.723C234.133 172.577 229.534 145.772 230.386 145.626C231.239 145.479 235.838 172.284 236.691 172.138C237.544 171.991 232.944 145.187 233.796 145.041C234.649 144.894 239.248 171.699 240.101 171.553C240.954 171.406 236.354 144.602 237.207 144.455C238.06 144.309 242.659 171.114 243.512 170.967C244.365 170.821 239.765 144.016 240.618 143.87" stroke="#858585" stroke-width="2.39859" stroke-linecap="round" stroke-linejoin="round"/>
<path id="springPathEdge13" d="M243.511 170.967C244.363 170.821 239.764 144.016 240.617 143.87C240.992 143.805 242.085 148.949 243.276 154.717C243.827 157.382 244.411 157.282 246.22 156.972" stroke="#565655" stroke-width="2.39859" stroke-linecap="round" stroke-linejoin="round"/>
<path id="springPathEdge14" d="M240.1 171.553C240.953 171.406 236.354 144.602 237.206 144.455" stroke="#565655" stroke-width="2.39859" stroke-linecap="round" stroke-linejoin="round"/>
<path id="springPathEdge15" d="M212.818 176.234C213.671 176.088 209.071 149.283 209.924 149.137C210.776 148.99 215.376 175.795 216.228 175.649C217.081 175.502 212.481 148.698 213.333 148.551C214.186 148.405 218.786 175.21 219.639 175.063C220.491 174.917 215.891 148.113 216.744 147.966C217.597 147.82 222.196 174.625 223.048 174.478C223.901 174.332 219.302 147.527 220.154 147.381C221.007 147.235 225.607 174.039 226.459 173.893C227.312 173.747 222.713 146.942 223.566 146.796" stroke="#858585" stroke-width="2.39859" stroke-linecap="round" stroke-linejoin="round"/>
<path id="springPathEdge16" d="M236.69 172.138C237.543 171.991 232.943 145.187 233.796 145.04" stroke="#565655" stroke-width="2.39859" stroke-linecap="round" stroke-linejoin="round"/>
<path id="springPathEdge17" d="M233.28 172.723C234.133 172.576 229.533 145.772 230.386 145.625" stroke="#565655" stroke-width="2.39859" stroke-linecap="round" stroke-linejoin="round"/>
<path id="springPathEdge18" d="M229.87 173.308C230.723 173.162 226.123 146.357 226.976 146.211" stroke="#565655" stroke-width="2.39859" stroke-linecap="round" stroke-linejoin="round"/>
<path id="springPathEdge19" d="M226.46 173.893C227.312 173.747 222.712 146.942 223.565 146.796" stroke="#565655" stroke-width="2.39859" stroke-linecap="round" stroke-linejoin="round"/>
<path id="springPathEdge20" d="M223.051 174.478C223.903 174.332 219.303 147.527 220.156 147.381" stroke="#565655" stroke-width="2.39859" stroke-linecap="round" stroke-linejoin="round"/>
<path id="springPathEdge21" d="M219.64 175.063C220.492 174.917 215.893 148.112 216.745 147.966" stroke="#565655" stroke-width="2.39859" stroke-linecap="round" stroke-linejoin="round"/>
<path id="springPathEdge22" d="M216.229 175.648C217.082 175.502 212.482 148.698 213.335 148.551" stroke="#565655" stroke-width="2.39859" stroke-linecap="round" stroke-linejoin="round"/>
<path id="springPathEdge23" d="M209.925 149.136C209.072 149.282 213.672 176.087 212.82 176.233C211.858 176.398 208.647 167.189 207.975 163.268" stroke="#565655" stroke-width="2.39859" stroke-linecap="round" stroke-linejoin="round"/>
<path id="springPathEdge24" d="M214.508 179.468C212.226 179.86 209.08 172.626 207.482 163.311C205.883 153.996 206.437 146.127 208.72 145.735" stroke="#1D1D1B" stroke-width="3.59788" stroke-linecap="round" stroke-linejoin="round"/>
<path id="springPathEdge25" d="M316.808 147.966C317.755 155.754 317.084 161.861 315.08 162.205" stroke="#FF8158" stroke-width="1.1993" stroke-linecap="round" stroke-linejoin="round"/>
<path id="springPathEdge26" d="M310.024 149.209C310.957 156.961 310.283 163.028 308.286 163.371" stroke="#FF8158" stroke-width="1.1993" stroke-linecap="round" stroke-linejoin="round"/>
<path id="springPathEdge27" d="M303.697 150.294C304.631 158.046 303.957 164.113 301.96 164.456" stroke="#FF8158" stroke-width="1.1993" stroke-linecap="round" stroke-linejoin="round"/>
<path id="springPathEdge28" d="M296.902 151.46C297.836 159.212 297.162 165.279 295.165 165.622" stroke="#FF8158" stroke-width="1.1993" stroke-linecap="round" stroke-linejoin="round"/>
<path id="springPathEdge29" d="M290.566 152.469C291.514 160.257 290.842 166.364 288.839 166.708" stroke="#FF8158" stroke-width="1.1993" stroke-linecap="round" stroke-linejoin="round"/>
<path id="springPathEdge30" d="M283.781 153.712C284.715 161.464 284.041 167.531 282.044 167.874" stroke="#FF8158" stroke-width="1.1993" stroke-linecap="round" stroke-linejoin="round"/>
<path id="springPathEdge31" d="M277.457 154.802C278.391 162.555 277.716 168.622 275.72 168.964" stroke="#FF8158" stroke-width="1.1993" stroke-linecap="round" stroke-linejoin="round"/>
<path id="springPathEdge32" d="M270.69 156.14C271.624 163.892 270.95 169.959 268.953 170.302" stroke="#FF8158" stroke-width="1.1993" stroke-linecap="round" stroke-linejoin="round"/>
<path id="springPathEdge33" d="M264.334 157.049C265.268 164.801 264.594 170.868 262.597 171.211" stroke="#FF8158" stroke-width="1.1993" stroke-linecap="round" stroke-linejoin="round"/>
<path id="springPathEdge34" d="M258.008 158.134C258.942 165.886 258.268 171.954 256.27 172.296" stroke="#FF8158" stroke-width="1.1993" stroke-linecap="round" stroke-linejoin="round"/>
<path id="springPathEdge35" d="M251.641 159.227C252.574 166.979 251.9 173.046 249.903 173.389" stroke="#FF8158" stroke-width="1.1993" stroke-linecap="round" stroke-linejoin="round"/>
<path id="springPathEdge36" d="M381.818 136.81C382.766 144.599 382.094 150.705 380.091 151.049" stroke="#FF8158" stroke-width="1.1993" stroke-linecap="round" stroke-linejoin="round"/>
<path id="springPathEdge37" d="M375.034 138.053C375.967 145.805 375.293 151.872 373.296 152.215" stroke="#FF8158" stroke-width="1.1993" stroke-linecap="round" stroke-linejoin="round"/>
<path id="springPathEdge38" d="M368.707 139.138C369.641 146.89 368.966 152.958 366.97 153.3" stroke="#FF8158" stroke-width="1.1993" stroke-linecap="round" stroke-linejoin="round"/>
<path id="springPathEdge39" d="M361.912 140.304C362.846 148.057 362.172 154.124 360.175 154.466" stroke="#FF8158" stroke-width="1.1993" stroke-linecap="round" stroke-linejoin="round"/>
<path id="springPathEdge40" d="M355.575 141.313C356.523 149.102 355.851 155.208 353.848 155.552" stroke="#FF8158" stroke-width="1.1993" stroke-linecap="round" stroke-linejoin="round"/>
<path id="springPathEdge41" d="M348.791 142.556C349.725 150.308 349.05 156.376 347.054 156.718" stroke="#FF8158" stroke-width="1.1993" stroke-linecap="round" stroke-linejoin="round"/>
<path id="springPathEdge42" d="M342.466 143.647C343.399 151.399 342.725 157.466 340.728 157.809" stroke="#FF8158" stroke-width="1.1993" stroke-linecap="round" stroke-linejoin="round"/>
<path id="springPathEdge43" d="M335.701 144.984C336.635 152.737 335.961 158.804 333.964 159.146" stroke="#FF8158" stroke-width="1.1993" stroke-linecap="round" stroke-linejoin="round"/>
<path id="springPathEdge44" d="M329.344 145.893C330.277 153.645 329.604 159.712 327.606 160.055" stroke="#FF8158" stroke-width="1.1993" stroke-linecap="round" stroke-linejoin="round"/>
<path id="springPathEdge45" d="M323.018 146.979C323.951 154.731 323.277 160.798 321.28 161.141" stroke="#FF8158" stroke-width="1.1993" stroke-linecap="round" stroke-linejoin="round"/>
<path id="springPathEdge46" d="M214.509 179.469L383.541 150.463" stroke="#1D1D1B" stroke-width="3.59788" stroke-linecap="round" stroke-linejoin="round"/>
<path id="springPathEdge47" d="M255.672 151.213L258.265 150.768L258.342 151.218L256.151 151.594L256.268 152.278L255.847 152.234L255.672 151.213ZM254.927 146.801L257.521 146.356L257.619 146.927L255.708 148.455L255.712 148.459C255.84 148.408 255.978 148.368 256.135 148.341L257.8 148.055L257.874 148.489L255.281 148.934L255.178 148.339L257.077 146.838L257.073 146.834C256.945 146.885 256.807 146.925 256.65 146.952L255.001 147.235L254.927 146.801Z" fill="#FF8158"/>
<path id="springPathEdge48" d="M250.159 151.525C250.565 151.455 250.907 151.492 251.183 151.631C251.456 151.77 251.617 151.987 251.668 152.284C251.718 152.578 251.639 152.84 251.429 153.062C251.215 153.285 250.904 153.43 250.498 153.499C250.092 153.569 249.751 153.536 249.479 153.397C249.206 153.257 249.045 153.041 248.994 152.743C248.943 152.446 249.023 152.188 249.237 151.965C249.447 151.742 249.753 151.595 250.159 151.525ZM249.396 152.674C249.452 153 249.831 153.158 250.422 153.057C251.013 152.955 251.322 152.679 251.266 152.353C251.209 152.02 250.83 151.865 250.235 151.967C249.644 152.069 249.339 152.34 249.396 152.674ZM248.225 147.95L250.819 147.505L250.917 148.076L249.006 149.605L249.011 149.608C249.139 149.557 249.277 149.517 249.433 149.49L251.098 149.204L251.173 149.639L248.579 150.084L248.477 149.489L250.376 147.987L250.371 147.984C250.243 148.035 250.105 148.075 249.949 148.102L248.3 148.385L248.225 147.95Z" fill="#FF8158"/>
<path id="springPathEdge49" d="M308.391 141.603C308.62 141.564 308.897 141.611 309.218 141.743L310.261 142.176L310.355 142.727L309.382 142.269L309.379 142.274C309.408 142.323 309.432 142.389 309.446 142.473C309.487 142.711 309.439 142.934 309.3 143.14C309.161 143.342 308.967 143.466 308.718 143.509C308.464 143.553 308.231 143.497 308.019 143.343C307.805 143.185 307.678 142.975 307.632 142.706C307.586 142.437 307.636 142.2 307.786 141.988C307.936 141.776 308.137 141.647 308.391 141.603ZM309.057 142.47C309.031 142.321 308.962 142.205 308.845 142.129C308.728 142.05 308.595 142.023 308.454 142.047C308.31 142.072 308.193 142.142 308.109 142.256C308.025 142.369 307.994 142.499 308.019 142.648C308.045 142.797 308.118 142.908 308.235 142.988C308.352 143.067 308.485 143.094 308.63 143.069C308.919 143.019 309.107 142.763 309.057 142.47ZM306.867 137.888L309.461 137.443L309.559 138.014L307.648 139.542L307.652 139.546C307.78 139.495 307.918 139.454 308.075 139.427L309.74 139.142L309.814 139.576L307.221 140.021L307.119 139.426L309.018 137.925L309.013 137.921C308.885 137.972 308.747 138.012 308.59 138.039L306.942 138.322L306.867 137.888Z" fill="#FF8158"/>
<path id="springPathEdge50" d="M281.403 146.375L281.785 146.309L281.975 147.415L282.607 147.385C282.503 147.283 282.438 147.145 282.408 146.972C282.366 146.727 282.415 146.507 282.552 146.314C282.688 146.117 282.882 145.997 283.136 145.953C283.381 145.911 283.605 145.964 283.813 146.11C284.019 146.253 284.144 146.451 284.186 146.696C284.257 147.106 284.139 147.433 283.834 147.68L283.539 147.387C283.748 147.231 283.831 147.034 283.79 146.797C283.742 146.52 283.514 146.348 283.224 146.397C282.935 146.447 282.762 146.696 282.816 147.006C282.849 147.199 282.947 147.335 283.114 147.418L282.972 147.749L281.652 147.822L281.403 146.375ZM280.729 142.373L283.323 141.928L283.421 142.499L281.51 144.027L281.514 144.031C281.642 143.98 281.78 143.939 281.937 143.913L283.602 143.627L283.676 144.061L281.083 144.506L280.981 143.911L282.88 142.41L282.875 142.406C282.747 142.457 282.609 142.497 282.452 142.524L280.804 142.807L280.729 142.373Z" fill="#FF8158"/>
<path id="springPathEdge51" d="M333.415 137.872L336.009 137.427L336.086 137.877L333.894 138.253L334.012 138.937L333.59 138.893L333.415 137.872ZM333.056 136.068C333.014 135.826 333.052 135.613 333.165 135.424C333.277 135.235 333.424 135.127 333.613 135.094C333.867 135.051 334.065 135.124 334.217 135.309C334.27 135.064 334.504 134.859 334.798 134.808C335.019 134.77 335.223 134.826 335.406 134.973C335.584 135.12 335.698 135.328 335.744 135.594C335.827 136.076 335.601 136.426 335.282 136.617L335.022 136.285C335.282 136.137 335.389 135.936 335.345 135.683C335.295 135.389 335.11 135.231 334.841 135.277C334.588 135.32 334.48 135.537 334.52 135.841L334.551 136.022L334.181 136.086C334.166 136.001 334.155 135.937 334.144 135.893C334.08 135.619 333.939 135.498 333.718 135.536C333.521 135.57 333.418 135.765 333.459 136.007C333.501 136.252 333.689 136.402 333.923 136.44L333.799 136.83C333.437 136.772 333.128 136.486 333.056 136.068ZM332.291 131.249L334.885 130.804L334.983 131.375L333.072 132.904L333.076 132.907C333.204 132.856 333.342 132.816 333.499 132.789L335.164 132.503L335.238 132.938L332.645 133.383L332.543 132.788L334.442 131.286L334.437 131.283C334.309 131.334 334.171 131.374 334.014 131.401L332.366 131.684L332.291 131.249Z" fill="#FF8158"/>
<path id="springPathEdge52" d="M359.888 133.329L362.482 132.884L362.559 133.334L360.368 133.71L360.485 134.394L360.064 134.35L359.888 133.329ZM359.43 130.656L359.79 130.561L362.208 131.168L362.295 131.675L359.908 131.033L360.113 132.227L359.711 132.296L359.43 130.656ZM358.771 126.746L361.365 126.301L361.463 126.872L359.552 128.4L359.556 128.403C359.684 128.352 359.822 128.312 359.979 128.285L361.644 128L361.718 128.434L359.125 128.879L359.023 128.284L360.922 126.782L360.917 126.779C360.789 126.83 360.651 126.87 360.494 126.897L358.846 127.18L358.771 126.746Z" fill="#FF8158"/>
<path id="springPathEdge53" d="M268.426 149.434C268.384 149.193 268.422 148.979 268.535 148.79C268.647 148.601 268.794 148.493 268.983 148.461C269.236 148.417 269.435 148.491 269.587 148.676C269.64 148.431 269.874 148.225 270.168 148.174C270.389 148.137 270.593 148.193 270.775 148.339C270.954 148.487 271.068 148.695 271.114 148.96C271.197 149.443 270.971 149.792 270.652 149.983L270.392 149.651C270.652 149.503 270.759 149.303 270.715 149.049C270.665 148.756 270.48 148.597 270.211 148.643C269.957 148.687 269.85 148.904 269.89 149.207L269.921 149.388L269.551 149.452C269.536 149.367 269.525 149.303 269.513 149.26C269.45 148.985 269.309 148.864 269.088 148.902C268.891 148.936 268.788 149.132 268.829 149.373C268.871 149.618 269.058 149.768 269.293 149.807L269.169 150.196C268.807 150.138 268.497 149.852 268.426 149.434ZM267.661 144.616L270.255 144.171L270.353 144.742L268.442 146.27L268.446 146.273C268.574 146.222 268.712 146.182 268.869 146.155L270.534 145.87L270.608 146.304L268.015 146.749L267.913 146.154L269.812 144.652L269.807 144.649C269.679 144.7 269.541 144.74 269.384 144.767L267.735 145.05L267.661 144.616Z" fill="#FF8158"/>
<path id="springPathEdge54" d="M320.347 140.115L322.941 139.67L323.018 140.12L320.827 140.496L320.944 141.18L320.523 141.136L320.347 140.115ZM319.968 137.904L322.562 137.459L322.639 137.909L320.447 138.285L320.565 138.969L320.143 138.925L319.968 137.904ZM319.223 133.492L321.817 133.047L321.915 133.618L320.004 135.146L320.009 135.15C320.136 135.099 320.274 135.059 320.431 135.032L322.096 134.746L322.171 135.18L319.577 135.625L319.475 135.03L321.374 133.529L321.369 133.525C321.241 133.576 321.103 133.616 320.946 133.643L319.298 133.926L319.223 133.492Z" fill="#FF8158"/>
<path id="springPathEdge55" d="M294.463 144.08L294.824 143.985L297.242 144.592L297.329 145.099L294.942 144.457L295.147 145.651L294.745 145.72L294.463 144.08ZM293.805 140.169L296.399 139.724L296.497 140.295L294.586 141.824L294.59 141.827C294.718 141.776 294.856 141.736 295.013 141.709L296.678 141.423L296.752 141.858L294.159 142.303L294.056 141.708L295.956 140.206L295.951 140.203C295.823 140.254 295.685 140.294 295.528 140.321L293.879 140.604L293.805 140.169Z" fill="#FF8158"/>
<path id="springPathEdge56" d="M346.483 135.629L349.077 135.184L349.154 135.635L346.962 136.011L347.08 136.694L346.658 136.651L346.483 135.629ZM346.033 133.008L346.415 132.943L346.605 134.049L347.237 134.019C347.133 133.917 347.068 133.779 347.038 133.606C346.996 133.36 347.045 133.141 347.182 132.948C347.318 132.751 347.512 132.63 347.766 132.587C348.011 132.545 348.235 132.597 348.443 132.744C348.649 132.886 348.774 133.084 348.816 133.33C348.887 133.74 348.769 134.066 348.464 134.313L348.169 134.02C348.378 133.864 348.461 133.668 348.42 133.431C348.372 133.153 348.144 132.981 347.854 133.031C347.565 133.081 347.392 133.33 347.446 133.639C347.479 133.832 347.577 133.969 347.744 134.052L347.602 134.383L346.282 134.456L346.033 133.008ZM345.359 129.007L347.953 128.562L348.051 129.133L346.14 130.661L346.144 130.664C346.272 130.613 346.41 130.573 346.567 130.546L348.232 130.261L348.306 130.695L345.713 131.14L345.611 130.545L347.51 129.043L347.505 129.04C347.377 129.091 347.239 129.131 347.082 129.158L345.433 129.441L345.359 129.007Z" fill="#FF8158"/>
<path id="springPathEdge57" d="M372.958 131.086L375.552 130.641L375.629 131.092L373.437 131.468L373.555 132.151L373.133 132.108L372.958 131.086ZM373.357 128.179C373.587 128.14 373.864 128.187 374.184 128.318L375.228 128.752L375.322 129.303L374.349 128.845L374.346 128.85C374.375 128.898 374.399 128.965 374.413 129.049C374.454 129.286 374.405 129.51 374.267 129.716C374.128 129.918 373.934 130.042 373.684 130.085C373.431 130.128 373.198 130.073 372.985 129.919C372.772 129.761 372.645 129.551 372.599 129.282C372.552 129.012 372.603 128.776 372.753 128.564C372.903 128.352 373.104 128.222 373.357 128.179ZM374.024 129.046C373.998 128.897 373.928 128.78 373.812 128.705C373.695 128.626 373.562 128.599 373.421 128.623C373.276 128.648 373.16 128.718 373.076 128.832C372.992 128.945 372.961 129.075 372.986 129.224C373.012 129.372 373.085 129.484 373.202 129.563C373.319 129.643 373.452 129.67 373.597 129.645C373.886 129.595 374.074 129.339 374.024 129.046ZM371.834 124.464L374.428 124.019L374.526 124.59L372.615 126.118L372.619 126.121C372.747 126.07 372.885 126.03 373.042 126.003L374.707 125.718L374.781 126.152L372.188 126.597L372.086 126.002L373.985 124.5L373.98 124.497C373.852 124.548 373.714 124.588 373.557 124.615L371.909 124.898L371.834 124.464Z" fill="#FF8158"/>
<path id="springPathEdge58" d="M262.059 150.531C262.016 150.277 262.052 150.052 262.172 149.857C262.291 149.663 262.462 149.547 262.683 149.509C262.896 149.472 263.111 149.518 263.32 149.648C263.458 149.732 263.584 149.814 263.694 149.898L264.342 150.396L264.149 149.27L264.551 149.201L264.844 150.906L264.452 150.985C264.026 150.653 263.726 150.427 263.557 150.307C263.401 150.197 263.257 150.106 263.121 150.034C262.997 149.964 262.87 149.945 262.742 149.971C262.545 150.008 262.417 150.204 262.464 150.474C262.506 150.719 262.692 150.886 262.932 150.911L262.813 151.304C262.439 151.248 262.131 150.949 262.059 150.531ZM261.294 145.708L263.888 145.263L263.986 145.834L262.075 147.363L262.079 147.366C262.207 147.315 262.345 147.275 262.502 147.248L264.167 146.962L264.241 147.397L261.648 147.842L261.546 147.247L263.445 145.745L263.44 145.742C263.312 145.793 263.174 145.833 263.017 145.86L261.369 146.143L261.294 145.708Z" fill="#FF8158"/>
<path id="springPathEdge59" d="M313.978 141.207L316.572 140.762L316.649 141.212L314.458 141.588L314.575 142.272L314.154 142.228L313.978 141.207ZM314.788 138.159C315.194 138.089 315.536 138.126 315.812 138.264C316.085 138.404 316.246 138.621 316.297 138.918C316.347 139.212 316.268 139.474 316.058 139.696C315.844 139.919 315.533 140.063 315.127 140.133C314.721 140.203 314.38 140.17 314.108 140.031C313.835 139.891 313.674 139.675 313.623 139.377C313.572 139.079 313.652 138.821 313.866 138.598C314.076 138.376 314.382 138.228 314.788 138.159ZM314.025 139.308C314.081 139.634 314.46 139.792 315.051 139.691C315.642 139.589 315.951 139.313 315.895 138.987C315.838 138.653 315.459 138.499 314.864 138.601C314.273 138.702 313.968 138.974 314.025 139.308ZM312.854 134.584L315.448 134.139L315.546 134.71L313.635 136.239L313.64 136.242C313.767 136.191 313.905 136.151 314.062 136.124L315.727 135.838L315.802 136.273L313.208 136.718L313.106 136.123L315.005 134.621L315 134.618C314.872 134.669 314.734 134.709 314.577 134.736L312.929 135.019L312.854 134.584Z" fill="#FF8158"/>
<path id="springPathEdge60" d="M288.156 145.51L289.128 145.969L289.132 145.964C289.103 145.915 289.079 145.849 289.064 145.764C289.024 145.527 289.072 145.303 289.212 145.102C289.35 144.896 289.544 144.771 289.793 144.728C290.047 144.685 290.28 144.74 290.493 144.898C290.706 145.052 290.833 145.262 290.879 145.532C290.925 145.801 290.875 146.041 290.726 146.253C290.576 146.465 290.374 146.591 290.12 146.635C289.891 146.674 289.614 146.626 289.293 146.495L288.25 146.061L288.156 145.51ZM289.454 145.768C289.48 145.917 289.553 146.032 289.67 146.112C289.787 146.187 289.916 146.214 290.057 146.19C290.201 146.165 290.318 146.096 290.402 145.982C290.486 145.868 290.517 145.739 290.492 145.59C290.466 145.441 290.393 145.329 290.276 145.25C290.159 145.171 290.026 145.144 289.881 145.169C289.592 145.218 289.404 145.474 289.454 145.768ZM287.432 141.223L290.026 140.778L290.124 141.349L288.213 142.878L288.218 142.881C288.346 142.83 288.484 142.79 288.64 142.763L290.305 142.477L290.38 142.912L287.786 143.357L287.684 142.761L289.583 141.26L289.578 141.257C289.45 141.308 289.313 141.348 289.156 141.375L287.507 141.658L287.432 141.223Z" fill="#FF8158"/>
<path id="springPathEdge61" d="M340.117 136.722L342.711 136.277L342.788 136.727L340.597 137.104L340.714 137.787L340.292 137.744L340.117 136.722ZM339.692 134.316L341.248 134.049L341.186 133.687L341.588 133.618L341.65 133.98L342.298 133.869L342.374 134.312L341.726 134.423L341.917 135.532L341.507 135.628L339.8 134.944L339.692 134.316ZM340.138 134.695L341.445 135.199L341.324 134.492L340.138 134.695ZM338.993 130.1L341.587 129.654L341.685 130.225L339.774 131.754L339.778 131.757C339.906 131.706 340.044 131.666 340.201 131.639L341.866 131.353L341.94 131.788L339.347 132.233L339.245 131.638L341.144 130.136L341.139 130.133C341.011 130.184 340.873 130.224 340.716 130.251L339.068 130.534L338.993 130.1Z" fill="#FF8158"/>
<path id="springPathEdge62" d="M366.591 132.179L369.185 131.734L369.262 132.184L367.071 132.561L367.188 133.244L366.766 133.201L366.591 132.179ZM366.789 129.426C366.994 129.391 367.178 129.446 367.331 129.59C367.433 129.32 367.633 129.157 367.927 129.107C368.172 129.065 368.384 129.119 368.571 129.269C368.759 129.419 368.872 129.623 368.917 129.885C368.962 130.146 368.924 130.38 368.797 130.584C368.671 130.788 368.489 130.91 368.243 130.953C367.942 131.004 367.7 130.922 367.526 130.703C367.432 130.881 367.277 130.99 367.064 131.027C366.867 131.06 366.689 131.012 366.525 130.879C366.358 130.746 366.257 130.569 366.219 130.348C366.181 130.127 366.217 129.926 366.331 129.745C366.441 129.565 366.592 129.46 366.789 129.426ZM366.994 130.596C367.199 130.56 367.326 130.385 367.289 130.164C367.252 129.951 367.073 129.825 366.868 129.86C366.671 129.894 366.55 130.08 366.585 130.285C366.62 130.49 366.797 130.629 366.994 130.596ZM368.168 130.51C368.292 130.489 368.393 130.426 368.466 130.318C368.538 130.211 368.563 130.086 368.539 129.95C368.516 129.817 368.453 129.712 368.348 129.635C368.244 129.557 368.127 129.528 368.003 129.549C367.745 129.593 367.575 129.834 367.622 130.107C367.669 130.38 367.91 130.554 368.168 130.51ZM365.467 125.556L368.061 125.111L368.159 125.682L366.248 127.211L366.252 127.214C366.38 127.163 366.518 127.123 366.675 127.096L368.34 126.81L368.414 127.245L365.821 127.69L365.719 127.095L367.618 125.593L367.613 125.59C367.485 125.641 367.347 125.681 367.19 125.708L365.542 125.991L365.467 125.556Z" fill="#FF8158"/>
<path id="springPathEdge63" d="M274.726 147.74L276.283 147.473L276.221 147.111L276.623 147.042L276.685 147.404L277.332 147.293L277.408 147.735L276.761 147.846L276.951 148.956L276.541 149.051L274.834 148.367L274.726 147.74ZM275.172 148.119L276.48 148.623L276.359 147.915L275.172 148.119ZM274.028 143.523L276.621 143.078L276.719 143.649L274.808 145.177L274.813 145.181C274.941 145.13 275.079 145.09 275.236 145.063L276.901 144.777L276.975 145.211L274.381 145.656L274.279 145.061L276.178 143.56L276.174 143.556C276.046 143.607 275.908 143.648 275.751 143.674L274.102 143.957L274.028 143.523Z" fill="#FF8158"/>
<path id="springPathEdge64" d="M326.714 139.022L329.308 138.577L329.385 139.027L327.193 139.403L327.311 140.087L326.889 140.043L326.714 139.022ZM326.355 137.221C326.312 136.968 326.348 136.743 326.467 136.548C326.587 136.354 326.758 136.238 326.979 136.2C327.192 136.163 327.407 136.209 327.615 136.339C327.754 136.423 327.88 136.504 327.99 136.589L328.638 137.086L328.445 135.96L328.847 135.891L329.139 137.596L328.747 137.676C328.322 137.343 328.022 137.118 327.853 136.998C327.697 136.888 327.553 136.796 327.417 136.725C327.293 136.655 327.165 136.635 327.037 136.661C326.841 136.699 326.713 136.895 326.759 137.164C326.802 137.41 326.987 137.577 327.228 137.602L327.109 137.995C326.735 137.939 326.427 137.64 326.355 137.221ZM325.59 132.399L328.184 131.954L328.282 132.525L326.371 134.054L326.375 134.057C326.503 134.006 326.641 133.966 326.798 133.939L328.463 133.653L328.537 134.087L325.944 134.533L325.841 133.937L327.74 132.436L327.736 132.433C327.608 132.483 327.47 132.524 327.313 132.551L325.664 132.834L325.59 132.399Z" fill="#FF8158"/>
<path id="springPathEdge65" d="M301.823 142.85C302.028 142.815 302.211 142.871 302.364 143.014C302.467 142.744 302.667 142.581 302.96 142.531C303.205 142.489 303.418 142.544 303.605 142.694C303.792 142.844 303.906 143.048 303.951 143.309C303.995 143.57 303.957 143.805 303.83 144.009C303.704 144.212 303.522 144.335 303.277 144.377C302.975 144.429 302.733 144.346 302.559 144.127C302.466 144.305 302.31 144.414 302.097 144.451C301.9 144.485 301.722 144.437 301.559 144.303C301.391 144.171 301.29 143.993 301.252 143.772C301.214 143.551 301.25 143.35 301.364 143.169C301.474 142.989 301.626 142.884 301.823 142.85ZM302.028 144.02C302.233 143.985 302.36 143.81 302.322 143.589C302.285 143.375 302.106 143.249 301.901 143.284C301.704 143.318 301.583 143.504 301.618 143.709C301.653 143.914 301.831 144.054 302.028 144.02ZM303.201 143.935C303.326 143.913 303.427 143.85 303.499 143.743C303.572 143.635 303.596 143.511 303.573 143.374C303.55 143.241 303.486 143.136 303.382 143.059C303.278 142.982 303.161 142.952 303.036 142.973C302.779 143.018 302.609 143.258 302.656 143.531C302.703 143.805 302.944 143.979 303.201 143.935ZM300.5 138.981L303.094 138.536L303.192 139.107L301.281 140.635L301.286 140.638C301.414 140.587 301.552 140.547 301.709 140.52L303.373 140.235L303.448 140.669L300.854 141.114L300.752 140.519L302.651 139.017L302.646 139.014C302.519 139.065 302.381 139.105 302.224 139.132L300.575 139.415L300.5 138.981Z" fill="#FF8158"/>
<path id="springPathEdge66" d="M353.186 134.479L355.78 134.034L355.857 134.485L353.666 134.861L353.783 135.544L353.361 135.501L353.186 134.479ZM352.785 132.144L353.758 132.602L353.761 132.597C353.732 132.548 353.709 132.482 353.694 132.398C353.653 132.161 353.702 131.937 353.841 131.735C353.98 131.529 354.174 131.405 354.423 131.362C354.676 131.318 354.909 131.374 355.123 131.532C355.335 131.686 355.462 131.896 355.509 132.165C355.555 132.434 355.505 132.675 355.355 132.887C355.205 133.099 355.003 133.225 354.75 133.268C354.521 133.307 354.244 133.26 353.923 133.128L352.88 132.695L352.785 132.144ZM354.084 132.401C354.109 132.55 354.183 132.666 354.3 132.745C354.417 132.82 354.545 132.848 354.686 132.824C354.831 132.799 354.947 132.729 355.031 132.615C355.115 132.502 355.147 132.372 355.121 132.223C355.096 132.074 355.023 131.963 354.906 131.884C354.789 131.804 354.656 131.777 354.511 131.802C354.221 131.852 354.033 132.108 354.084 132.401ZM352.062 127.857L354.656 127.412L354.754 127.983L352.843 129.511L352.847 129.514C352.975 129.464 353.113 129.423 353.27 129.396L354.935 129.111L355.009 129.545L352.416 129.99L352.314 129.395L354.213 127.893L354.208 127.89C354.08 127.941 353.942 127.981 353.785 128.008L352.137 128.291L352.062 127.857Z" fill="#FF8158"/>
<path id="springPathEdge67" d="M378.341 130.577C378.297 130.324 378.333 130.098 378.453 129.904C378.573 129.709 378.743 129.593 378.964 129.555C379.177 129.518 379.392 129.564 379.601 129.694C379.739 129.778 379.865 129.86 379.975 129.945L380.623 130.442L380.43 129.316L380.832 129.247L381.125 130.952L380.733 131.032C380.307 130.699 380.008 130.473 379.838 130.353C379.683 130.243 379.539 130.152 379.402 130.08C379.278 130.01 379.151 129.991 379.023 130.017C378.826 130.055 378.699 130.251 378.745 130.52C378.787 130.765 378.973 130.932 379.213 130.957L379.094 131.35C378.72 131.294 378.412 130.995 378.341 130.577ZM379.13 127.118C379.536 127.048 379.878 127.085 380.154 127.224C380.426 127.363 380.588 127.58 380.639 127.878C380.689 128.171 380.61 128.433 380.4 128.656C380.185 128.879 379.875 129.023 379.469 129.093C379.062 129.162 378.722 129.13 378.449 128.99C378.177 128.851 378.016 128.634 377.964 128.336C377.913 128.039 377.993 127.781 378.208 127.558C378.418 127.336 378.724 127.188 379.13 127.118ZM378.367 128.267C378.423 128.593 378.802 128.752 379.393 128.65C379.984 128.549 380.292 128.272 380.236 127.947C380.179 127.613 379.801 127.458 379.206 127.561C378.615 127.662 378.309 127.934 378.367 128.267ZM377.196 123.544L379.79 123.099L379.888 123.67L377.977 125.198L377.981 125.202C378.109 125.151 378.247 125.11 378.404 125.083L380.069 124.798L380.143 125.232L377.55 125.677L377.447 125.082L379.347 123.58L379.342 123.577C379.214 123.628 379.076 123.668 378.919 123.695L377.27 123.978L377.196 123.544Z" fill="#FF8158"/>
</g>
<g id="forceReadoutWrapEdge">
<path d="M244.58 131.484L291.91 123.494C296.267 122.758 299.203 118.63 298.467 114.274L296.47 102.441C295.734 98.0842 291.606 95.1492 287.25 95.8842L239.919 103.874C235.563 104.61 232.627 108.738 233.363 113.094L235.36 124.927C236.095 129.284 240.223 132.219 244.58 131.484Z" fill="white" stroke="#E8EAEF"/>
<text id="forceReadoutEdge" x="268.2" y="115.3" transform="rotate(-9.582 268.2 115.3)" text-anchor="middle" dominant-baseline="middle" font-family="Fenomen Sans, system-ui, sans-serif" font-size="14" font-weight="600" fill="#171923">0 N</text>
</g>
<rect id="silomerEdgeHit" x="190" y="95" width="210" height="90" fill="transparent" cursor="grab" aria-label="Siloměr"/>
</g>
<g id="beamHookEdge">
<path class="beam-hook" d="M425.75 122.771L399.25 129.271" stroke="black"/>
</g>
</g>
</g>
</g>
</svg>
