<svg width="763" height="224" viewBox="0 0 763 224" fill="none" xmlns="http://www.w3.org/2000/svg">
<path d="M551.25 16.7734L761.25 96.7734V141.773L551.25 61.7734V16.7734Z" fill="url(#paint0_linear_2095_869)" stroke="#3E4650" stroke-width="2.5" stroke-linejoin="round"/>
<path d="M1.25 96.7734L551.25 16.7734L761.25 96.7734L211.25 176.773L1.25 96.7734Z" fill="url(#paint1_linear_2095_869)" stroke="#3E4650" stroke-width="2.5" stroke-linejoin="round"/>
<path d="M1.25 96.7734L211.25 176.773V221.773L1.25 141.773V96.7734Z" fill="url(#paint2_linear_2095_869)" stroke="#3E4650" stroke-width="2.5" stroke-linejoin="round"/>
<path d="M211.25 176.773L761.25 96.7734V141.773L211.25 221.773V176.773Z" fill="url(#paint3_linear_2095_869)" stroke="#3E4650" stroke-width="2.5" stroke-linejoin="round"/>
<path d="M650.5 97.5234L460 127.523L354.25 84.5234V30.7734L544 0.773438L650.5 43.7734V97.5234Z" fill="#F1A558"/>
<path d="M354.25 30.7734L544 0.773438L650.5 43.7734V97.5234L460 127.523L354.25 84.5234V30.7734ZM460 127.523V73.7734M460 73.7734L650.5 43.7734M460 73.7734L354.25 30.7734" stroke="#5C3A18" stroke-width="1.5"/>
<path d="M399.75 79.7734L373.25 86.2734" stroke="black"/>
<path d="M181.223 118.86C182.596 130.008 193.666 134.663 193.666 134.663L352.734 107.022C352.734 107.022 362.023 101.289 358.672 88.0648C355.322 74.841 348.387 72.2364 348.387 72.2364L185.528 99.8379C185.528 99.8379 179.851 107.711 181.223 118.86Z" fill="white"/>
<path d="M351.417 71.794C353.699 71.4025 356.845 78.6364 358.443 87.9519C360.042 97.2668 359.487 105.136 357.206 105.528C354.924 105.919 351.777 98.685 350.179 89.3701C348.58 80.0546 349.135 72.1856 351.417 71.794Z" stroke="#9C9B9B" stroke-width="3.59788" stroke-linecap="round" stroke-linejoin="round"/>
<path d="M219.765 98.1625C221.551 97.8562 224.012 103.517 225.263 110.806C226.514 118.095 226.08 124.253 224.295 124.559C222.509 124.866 220.047 119.205 218.797 111.916C217.546 104.626 217.979 98.469 219.765 98.1625Z" fill="#EF3A50"/>
<path d="M220.358 111.915L363.349 87.3774" stroke="#565655" stroke-width="2.39859" stroke-linecap="round" stroke-linejoin="round"/>
<path d="M363.86 87.2892C364.292 89.8039 366.68 91.4932 369.195 91.0616C371.709 90.6301 373.398 88.2413 372.966 85.7266C372.535 83.2119 370.146 81.5239 367.632 81.9554" stroke="#565655" stroke-width="2.39859" stroke-linecap="round" stroke-linejoin="round"/>
<path d="M221.872 110.439C221.999 110.417 222.246 110.853 222.369 111.569C222.505 112.36 222.405 112.778 222.278 112.8C222.151 112.822 221.956 112.311 221.844 111.659C221.732 111.008 221.745 110.461 221.872 110.439Z" fill="#565655"/>
<path d="M219.766 98.1628C221.552 97.8564 224.014 103.517 225.265 110.806C226.516 118.095 226.081 124.253 224.296 124.56" fill="#EF3A50"/>
<path d="M219.909 99.009C221.695 98.7026 224.092 103.984 225.263 110.806C226.434 117.627 225.934 123.405 224.148 123.711" stroke="#813A50" stroke-width="1.79894" stroke-miterlimit="10" stroke-linecap="round"/>
<path d="M351.416 71.7941C353.698 71.4025 356.844 78.6364 358.443 87.9519C360.041 97.2668 359.487 105.136 357.205 105.528" stroke="#1D1D1B" stroke-width="3.59788" stroke-linecap="round" stroke-linejoin="round"/>
<path d="M182.72 100.743L350.076 72.025" stroke="#1D1D1B" stroke-width="3.59788" stroke-linecap="round" stroke-linejoin="round"/>
<path d="M165.393 120.153L180.473 117.566" stroke="black" stroke-width="0.68"/>
<path d="M161.498 126.166C164.406 125.667 166.36 122.905 165.861 119.996C165.361 117.087 162.599 115.134 159.69 115.633C156.782 116.132 154.829 118.895 155.328 121.803C155.827 124.712 158.589 126.665 161.498 126.166Z" stroke="#F19100" stroke-width="1.79894" stroke-miterlimit="10" stroke-linecap="round"/>
<path d="M193.641 130.071C194.494 129.925 189.894 103.12 190.747 102.973C191.599 102.827 196.199 129.632 197.051 129.486C197.904 129.339 193.304 102.535 194.156 102.388C195.009 102.242 199.609 129.047 200.461 128.901C201.313 128.754 196.714 101.95 197.566 101.803C198.418 101.657 203.018 128.462 203.87 128.316C204.723 128.169 200.124 101.365 200.976 101.218C201.829 101.072 206.428 127.877 207.281 127.73C208.133 127.584 203.534 100.779 204.386 100.633C205.239 100.487 209.838 127.291 210.691 127.145C211.544 126.999 206.944 100.194 207.796 100.048C208.649 99.9016 213.248 126.706 214.101 126.56C214.954 126.414 210.354 99.609 211.207 99.4626C212.06 99.3163 216.659 126.121 217.512 125.975C218.365 125.828 213.765 99.0236 214.618 98.8772" stroke="#858585" stroke-width="2.39859" stroke-linecap="round" stroke-linejoin="round"/>
<path d="M217.511 125.975C218.363 125.828 213.764 99.0235 214.617 98.8772C214.992 98.8128 216.085 103.957 217.276 109.725C217.827 112.39 218.411 112.29 220.22 111.979" stroke="#565655" stroke-width="2.39859" stroke-linecap="round" stroke-linejoin="round"/>
<path d="M214.1 126.56C214.953 126.414 210.354 99.6091 211.206 99.4628" stroke="#565655" stroke-width="2.39859" stroke-linecap="round" stroke-linejoin="round"/>
<path d="M186.818 131.241C187.671 131.095 183.071 104.29 183.924 104.144C184.776 103.998 189.376 130.802 190.228 130.656C191.081 130.51 186.481 103.705 187.333 103.559C188.186 103.413 192.786 130.217 193.639 130.071C194.491 129.925 189.891 103.12 190.744 102.974C191.597 102.827 196.196 129.632 197.048 129.486C197.901 129.339 193.302 102.535 194.154 102.388C195.007 102.242 199.607 129.047 200.459 128.9C201.312 128.754 196.713 101.949 197.566 101.803" stroke="#858585" stroke-width="2.39859" stroke-linecap="round" stroke-linejoin="round"/>
<path d="M210.69 127.145C211.543 126.999 206.943 100.194 207.796 100.048" stroke="#565655" stroke-width="2.39859" stroke-linecap="round" stroke-linejoin="round"/>
<path d="M207.28 127.73C208.133 127.584 203.533 100.779 204.386 100.633" stroke="#565655" stroke-width="2.39859" stroke-linecap="round" stroke-linejoin="round"/>
<path d="M203.87 128.315C204.723 128.169 200.123 101.364 200.976 101.218" stroke="#565655" stroke-width="2.39859" stroke-linecap="round" stroke-linejoin="round"/>
<path d="M200.46 128.9C201.312 128.754 196.712 101.949 197.565 101.803" stroke="#565655" stroke-width="2.39859" stroke-linecap="round" stroke-linejoin="round"/>
<path d="M197.051 129.485C197.903 129.339 193.303 102.534 194.156 102.388" stroke="#565655" stroke-width="2.39859" stroke-linecap="round" stroke-linejoin="round"/>
<path d="M193.64 130.071C194.492 129.924 189.893 103.12 190.745 102.973" stroke="#565655" stroke-width="2.39859" stroke-linecap="round" stroke-linejoin="round"/>
<path d="M190.229 130.656C191.082 130.509 186.482 103.705 187.335 103.558" stroke="#565655" stroke-width="2.39859" stroke-linecap="round" stroke-linejoin="round"/>
<path d="M183.925 104.143C183.072 104.29 187.672 131.094 186.82 131.24C185.858 131.406 182.647 122.196 181.975 118.276" stroke="#565655" stroke-width="2.39859" stroke-linecap="round" stroke-linejoin="round"/>
<path d="M188.508 134.476C186.226 134.867 183.08 127.633 181.482 118.318C179.883 109.003 180.437 101.134 182.72 100.742" stroke="#1D1D1B" stroke-width="3.59788" stroke-linecap="round" stroke-linejoin="round"/>
<path d="M290.808 102.973C291.755 110.762 291.084 116.868 289.08 117.212" stroke="#FF8158" stroke-width="1.1993" stroke-linecap="round" stroke-linejoin="round"/>
<path d="M284.024 104.216C284.957 111.968 284.283 118.035 282.286 118.378" stroke="#FF8158" stroke-width="1.1993" stroke-linecap="round" stroke-linejoin="round"/>
<path d="M277.697 105.301C278.631 113.054 277.957 119.121 275.96 119.463" stroke="#FF8158" stroke-width="1.1993" stroke-linecap="round" stroke-linejoin="round"/>
<path d="M270.902 106.467C271.836 114.219 271.162 120.287 269.165 120.629" stroke="#FF8158" stroke-width="1.1993" stroke-linecap="round" stroke-linejoin="round"/>
<path d="M264.566 107.476C265.514 115.265 264.842 121.371 262.839 121.715" stroke="#FF8158" stroke-width="1.1993" stroke-linecap="round" stroke-linejoin="round"/>
<path d="M257.781 108.719C258.715 116.471 258.041 122.538 256.044 122.881" stroke="#FF8158" stroke-width="1.1993" stroke-linecap="round" stroke-linejoin="round"/>
<path d="M251.457 109.81C252.391 117.562 251.716 123.629 249.72 123.972" stroke="#FF8158" stroke-width="1.1993" stroke-linecap="round" stroke-linejoin="round"/>
<path d="M244.69 111.147C245.624 118.899 244.95 124.966 242.953 125.309" stroke="#FF8158" stroke-width="1.1993" stroke-linecap="round" stroke-linejoin="round"/>
<path d="M238.334 112.056C239.268 119.808 238.594 125.876 236.597 126.218" stroke="#FF8158" stroke-width="1.1993" stroke-linecap="round" stroke-linejoin="round"/>
<path d="M232.008 113.142C232.942 120.894 232.268 126.961 230.27 127.304" stroke="#FF8158" stroke-width="1.1993" stroke-linecap="round" stroke-linejoin="round"/>
<path d="M225.641 114.234C226.574 121.987 225.9 128.054 223.903 128.396" stroke="#FF8158" stroke-width="1.1993" stroke-linecap="round" stroke-linejoin="round"/>
<path d="M355.818 91.8174C356.766 99.6061 356.094 105.712 354.091 106.056" stroke="#FF8158" stroke-width="1.1993" stroke-linecap="round" stroke-linejoin="round"/>
<path d="M349.034 93.0602C349.967 100.812 349.293 106.879 347.296 107.222" stroke="#FF8158" stroke-width="1.1993" stroke-linecap="round" stroke-linejoin="round"/>
<path d="M342.707 94.1456C343.641 101.898 342.966 107.965 340.97 108.308" stroke="#FF8158" stroke-width="1.1993" stroke-linecap="round" stroke-linejoin="round"/>
<path d="M335.912 95.3116C336.846 103.064 336.172 109.131 334.175 109.474" stroke="#FF8158" stroke-width="1.1993" stroke-linecap="round" stroke-linejoin="round"/>
<path d="M329.575 96.3203C330.523 104.109 329.851 110.215 327.848 110.559" stroke="#FF8158" stroke-width="1.1993" stroke-linecap="round" stroke-linejoin="round"/>
<path d="M322.791 97.5635C323.725 105.316 323.05 111.383 321.054 111.726" stroke="#FF8158" stroke-width="1.1993" stroke-linecap="round" stroke-linejoin="round"/>
<path d="M316.466 98.6543C317.399 106.407 316.725 112.474 314.728 112.816" stroke="#FF8158" stroke-width="1.1993" stroke-linecap="round" stroke-linejoin="round"/>
<path d="M309.701 99.9917C310.635 107.744 309.961 113.811 307.964 114.154" stroke="#FF8158" stroke-width="1.1993" stroke-linecap="round" stroke-linejoin="round"/>
<path d="M303.344 100.9C304.277 108.653 303.604 114.72 301.606 115.062" stroke="#FF8158" stroke-width="1.1993" stroke-linecap="round" stroke-linejoin="round"/>
<path d="M297.018 101.986C297.951 109.738 297.277 115.805 295.28 116.148" stroke="#FF8158" stroke-width="1.1993" stroke-linecap="round" stroke-linejoin="round"/>
<path d="M188.509 134.476L357.541 105.47" stroke="#1D1D1B" stroke-width="3.59788" stroke-linecap="round" stroke-linejoin="round"/>
<path d="M229.672 106.22L232.265 105.775L232.342 106.225L230.151 106.602L230.268 107.285L229.847 107.242L229.672 106.22ZM228.927 101.808L231.521 101.363L231.619 101.934L229.708 103.463L229.712 103.466C229.84 103.415 229.978 103.375 230.135 103.348L231.8 103.062L231.874 103.497L229.281 103.942L229.178 103.347L231.077 101.845L231.073 101.842C230.945 101.893 230.807 101.933 230.65 101.96L229.001 102.243L228.927 101.808Z" fill="#FF8158"/>
<path d="M224.159 106.532C224.565 106.462 224.907 106.499 225.183 106.638C225.456 106.777 225.617 106.994 225.668 107.292C225.718 107.585 225.639 107.847 225.429 108.069C225.215 108.293 224.904 108.437 224.498 108.507C224.092 108.576 223.751 108.544 223.479 108.404C223.206 108.265 223.045 108.048 222.994 107.75C222.943 107.453 223.023 107.195 223.237 106.972C223.447 106.75 223.753 106.602 224.159 106.532ZM223.396 107.681C223.452 108.007 223.831 108.166 224.422 108.064C225.013 107.963 225.322 107.686 225.266 107.361C225.209 107.027 224.83 106.872 224.235 106.974C223.644 107.076 223.339 107.348 223.396 107.681ZM222.225 102.958L224.819 102.513L224.917 103.084L223.006 104.612L223.011 104.615C223.139 104.565 223.277 104.524 223.433 104.497L225.098 104.212L225.173 104.646L222.579 105.091L222.477 104.496L224.376 102.994L224.371 102.991C224.243 103.042 224.105 103.082 223.949 103.109L222.3 103.392L222.225 102.958Z" fill="#FF8158"/>
<path d="M282.391 96.6103C282.62 96.571 282.897 96.6186 283.218 96.7499L284.261 97.1836L284.355 97.7345L283.382 97.2763L283.379 97.281C283.408 97.3298 283.432 97.3961 283.446 97.4806C283.487 97.7178 283.439 97.9414 283.3 98.1473C283.161 98.3492 282.967 98.4736 282.718 98.5164C282.464 98.5598 282.231 98.5046 282.019 98.3507C281.805 98.1927 281.678 97.9827 281.632 97.7133C281.586 97.4439 281.636 97.2075 281.786 96.9955C281.936 96.7835 282.137 96.6538 282.391 96.6103ZM283.057 97.4771C283.031 97.3283 282.962 97.2119 282.845 97.1367C282.728 97.0574 282.595 97.0306 282.454 97.0547C282.31 97.0795 282.193 97.1492 282.109 97.263C282.025 97.3767 281.994 97.5063 282.019 97.6551C282.045 97.8039 282.118 97.9156 282.235 97.9948C282.352 98.0741 282.485 98.1009 282.63 98.0761C282.919 98.0264 283.107 97.7706 283.057 97.4771ZM280.867 92.8951L283.461 92.45L283.559 93.0211L281.648 94.5495L281.652 94.5528C281.78 94.5019 281.918 94.4617 282.075 94.4347L283.74 94.1491L283.814 94.5834L281.221 95.0284L281.119 94.4333L283.018 92.9318L283.013 92.9284C282.885 92.9793 282.747 93.0196 282.59 93.0465L280.942 93.3294L280.867 92.8951Z" fill="#FF8158"/>
<path d="M255.403 101.382L255.785 101.316L255.975 102.422L256.607 102.392C256.503 102.29 256.438 102.152 256.408 101.979C256.366 101.734 256.415 101.515 256.552 101.321C256.688 101.124 256.882 101.004 257.136 100.96C257.381 100.918 257.605 100.971 257.813 101.117C258.019 101.26 258.144 101.458 258.186 101.703C258.257 102.113 258.139 102.44 257.834 102.687L257.539 102.394C257.748 102.238 257.831 102.042 257.79 101.804C257.742 101.527 257.514 101.355 257.224 101.405C256.935 101.454 256.762 101.703 256.816 102.013C256.849 102.206 256.947 102.342 257.114 102.425L256.972 102.756L255.652 102.83L255.403 101.382ZM254.729 97.3803L257.323 96.9352L257.421 97.5062L255.51 99.0346L255.514 99.038C255.642 98.9871 255.78 98.9468 255.937 98.9199L257.602 98.6342L257.676 99.0685L255.083 99.5136L254.981 98.9185L256.88 97.4169L256.875 97.4136C256.747 97.4645 256.609 97.5047 256.452 97.5317L254.804 97.8146L254.729 97.3803Z" fill="#FF8158"/>
<path d="M307.415 92.8793L310.009 92.4342L310.086 92.8846L307.894 93.2607L308.012 93.9443L307.59 93.9007L307.415 92.8793ZM307.056 91.0748C307.014 90.8335 307.052 90.62 307.165 90.431C307.277 90.242 307.424 90.1339 307.613 90.1015C307.867 90.058 308.065 90.1315 308.217 90.3166C308.27 90.0715 308.504 89.8658 308.798 89.8155C309.019 89.7775 309.223 89.8335 309.406 89.9802C309.584 90.1276 309.698 90.3357 309.744 90.6011C309.827 91.0836 309.601 91.4328 309.282 91.6242L309.022 91.292C309.282 91.1439 309.389 90.9435 309.345 90.6902C309.295 90.3966 309.11 90.2379 308.841 90.2841C308.588 90.3276 308.48 90.5447 308.52 90.8484L308.551 91.0294L308.181 91.0928C308.166 91.0084 308.155 90.9441 308.144 90.9005C308.08 90.6258 307.939 90.5051 307.718 90.543C307.521 90.5768 307.418 90.7725 307.459 91.0138C307.501 91.2591 307.689 91.4091 307.923 91.4476L307.799 91.8372C307.437 91.7792 307.128 91.493 307.056 91.0748ZM306.291 86.2566L308.885 85.8115L308.983 86.3825L307.072 87.911L307.076 87.9143C307.204 87.8634 307.342 87.8231 307.499 87.7962L309.164 87.5106L309.238 87.9448L306.645 88.3899L306.543 87.7948L308.442 86.2932L308.437 86.2899C308.309 86.3408 308.171 86.3811 308.014 86.408L306.366 86.6909L306.291 86.2566Z" fill="#FF8158"/>
<path d="M333.888 88.3364L336.482 87.8913L336.559 88.3417L334.368 88.7178L334.485 89.4014L334.064 89.3578L333.888 88.3364ZM333.43 85.663L333.79 85.5681L336.208 86.1756L336.295 86.6823L333.908 86.0404L334.113 87.2347L333.711 87.3037L333.43 85.663ZM332.771 81.753L335.365 81.3079L335.463 81.8789L333.552 83.4074L333.556 83.4107C333.684 83.3598 333.822 83.3195 333.979 83.2926L335.644 83.0069L335.718 83.4412L333.125 83.8863L333.023 83.2912L334.922 81.7896L334.917 81.7863C334.789 81.8372 334.651 81.8775 334.494 81.9044L332.846 82.1873L332.771 81.753Z" fill="#FF8158"/>
<path d="M242.426 104.441C242.384 104.2 242.422 103.986 242.535 103.797C242.647 103.608 242.794 103.5 242.983 103.468C243.236 103.424 243.435 103.498 243.587 103.683C243.64 103.438 243.874 103.232 244.168 103.182C244.389 103.144 244.593 103.2 244.775 103.347C244.954 103.494 245.068 103.702 245.114 103.968C245.197 104.45 244.971 104.799 244.652 104.991L244.392 104.659C244.652 104.51 244.759 104.31 244.715 104.057C244.665 103.763 244.48 103.604 244.211 103.651C243.957 103.694 243.85 103.911 243.89 104.215L243.921 104.396L243.551 104.459C243.536 104.375 243.525 104.311 243.513 104.267C243.45 103.992 243.309 103.872 243.088 103.91C242.891 103.943 242.788 104.139 242.829 104.38C242.871 104.626 243.058 104.776 243.293 104.814L243.169 105.204C242.807 105.146 242.497 104.859 242.426 104.441ZM241.661 99.623L244.255 99.1779L244.353 99.7489L242.442 101.277L242.446 101.281C242.574 101.23 242.712 101.19 242.869 101.163L244.534 100.877L244.608 101.311L242.015 101.756L241.913 101.161L243.812 99.6596L243.807 99.6563C243.679 99.7072 243.541 99.7475 243.384 99.7744L241.735 100.057L241.661 99.623Z" fill="#FF8158"/>
<path d="M294.347 95.122L296.941 94.677L297.018 95.1273L294.827 95.5034L294.944 96.187L294.523 96.1434L294.347 95.122ZM293.968 92.9111L296.562 92.4661L296.639 92.9164L294.447 93.2925L294.565 93.9761L294.143 93.9325L293.968 92.9111ZM293.223 88.4994L295.817 88.0543L295.915 88.6253L294.004 90.1537L294.009 90.1571C294.136 90.1061 294.274 90.0659 294.431 90.039L296.096 89.7533L296.171 90.1876L293.577 90.6327L293.475 90.0375L295.374 88.536L295.369 88.5327C295.241 88.5836 295.103 88.6238 294.946 88.6507L293.298 88.9337L293.223 88.4994Z" fill="#FF8158"/>
<path d="M268.463 99.0868L268.824 98.9919L271.242 99.5994L271.329 100.106L268.942 99.4642L269.147 100.659L268.745 100.728L268.463 99.0868ZM267.805 95.1767L270.399 94.7317L270.497 95.3027L268.586 96.8311L268.59 96.8344C268.718 96.7835 268.856 96.7433 269.013 96.7164L270.678 96.4307L270.752 96.865L268.159 97.3101L268.056 96.7149L269.956 95.2134L269.951 95.2101C269.823 95.261 269.685 95.3012 269.528 95.3281L267.879 95.611L267.805 95.1767Z" fill="#FF8158"/>
<path d="M320.483 90.6367L323.077 90.1916L323.154 90.642L320.962 91.0181L321.08 91.7017L320.658 91.6581L320.483 90.6367ZM320.033 88.0156L320.415 87.9501L320.605 89.0559L321.237 89.026C321.133 88.9239 321.068 88.7861 321.038 88.6131C320.996 88.3678 321.045 88.1483 321.182 87.9551C321.318 87.7579 321.512 87.6376 321.766 87.5941C322.011 87.552 322.235 87.6046 322.443 87.7512C322.649 87.8937 322.774 88.0917 322.816 88.337C322.887 88.7471 322.769 89.0737 322.464 89.3207L322.169 89.0276C322.378 88.8717 322.461 88.6754 322.42 88.4382C322.372 88.1607 322.144 87.9887 321.854 88.0384C321.565 88.0881 321.392 88.3371 321.446 88.6467C321.479 88.8398 321.577 88.9761 321.744 89.0592L321.602 89.3899L320.282 89.4633L320.033 88.0156ZM319.359 84.014L321.953 83.5689L322.051 84.1399L320.14 85.6684L320.144 85.6717C320.272 85.6208 320.41 85.5805 320.567 85.5536L322.232 85.268L322.306 85.7023L319.713 86.1473L319.611 85.5522L321.51 84.0506L321.505 84.0473C321.377 84.0982 321.239 84.1385 321.082 84.1654L319.433 84.4483L319.359 84.014Z" fill="#FF8158"/>
<path d="M346.958 86.0937L349.552 85.6487L349.629 86.099L347.437 86.4751L347.555 87.1587L347.133 87.1151L346.958 86.0937ZM347.357 83.1862C347.587 83.1469 347.864 83.1945 348.184 83.3258L349.228 83.7595L349.322 84.3104L348.349 83.8522L348.346 83.8569C348.375 83.9058 348.399 83.972 348.413 84.0565C348.454 84.2937 348.405 84.5173 348.267 84.7232C348.128 84.9251 347.934 85.0495 347.684 85.0923C347.431 85.1357 347.198 85.0805 346.985 84.9266C346.772 84.7687 346.645 84.5586 346.599 84.2892C346.552 84.0198 346.603 83.7835 346.753 83.5714C346.903 83.3594 347.104 83.2297 347.357 83.1862ZM348.024 84.053C347.998 83.9042 347.928 83.7878 347.812 83.7126C347.695 83.6333 347.562 83.6065 347.421 83.6306C347.276 83.6555 347.16 83.7251 347.076 83.8389C346.992 83.9526 346.961 84.0822 346.986 84.231C347.012 84.3798 347.085 84.4915 347.202 84.5707C347.319 84.65 347.452 84.6769 347.597 84.652C347.886 84.6023 348.074 84.3465 348.024 84.053ZM345.834 79.4711L348.428 79.026L348.526 79.597L346.615 81.1254L346.619 81.1288C346.747 81.0778 346.885 81.0376 347.042 81.0107L348.707 80.725L348.781 81.1593L346.188 81.6044L346.086 81.0092L347.985 79.5077L347.98 79.5044C347.852 79.5553 347.714 79.5955 347.557 79.6224L345.909 79.9053L345.834 79.4711Z" fill="#FF8158"/>
<path d="M236.059 105.538C236.016 105.285 236.052 105.059 236.172 104.865C236.291 104.67 236.462 104.554 236.683 104.516C236.896 104.479 237.111 104.525 237.32 104.655C237.458 104.739 237.584 104.821 237.694 104.906L238.342 105.403L238.149 104.277L238.551 104.208L238.844 105.913L238.452 105.993C238.026 105.66 237.726 105.434 237.557 105.314C237.401 105.204 237.257 105.113 237.121 105.041C236.997 104.971 236.87 104.952 236.742 104.978C236.545 105.016 236.417 105.212 236.464 105.481C236.506 105.726 236.692 105.893 236.932 105.918L236.813 106.311C236.439 106.255 236.131 105.956 236.059 105.538ZM235.294 100.716L237.888 100.271L237.986 100.842L236.075 102.37L236.079 102.373C236.207 102.322 236.345 102.282 236.502 102.255L238.167 101.97L238.241 102.404L235.648 102.849L235.546 102.254L237.445 100.752L237.44 100.749C237.312 100.8 237.174 100.84 237.017 100.867L235.369 101.15L235.294 100.716Z" fill="#FF8158"/>
<path d="M287.978 96.2144L290.572 95.7693L290.649 96.2197L288.458 96.5957L288.575 97.2793L288.154 97.2358L287.978 96.2144ZM288.788 93.166C289.194 93.0963 289.536 93.1329 289.812 93.2718C290.085 93.4113 290.246 93.6279 290.297 93.9255C290.347 94.219 290.268 94.481 290.058 94.7033C289.844 94.9264 289.533 95.0707 289.127 95.1404C288.721 95.2101 288.38 95.1776 288.108 95.038C287.835 94.8985 287.674 94.6819 287.623 94.3843C287.572 94.0868 287.652 93.8288 287.866 93.6058C288.076 93.3834 288.382 93.2357 288.788 93.166ZM288.025 94.3153C288.081 94.641 288.46 94.7995 289.051 94.6981C289.642 94.5967 289.951 94.3202 289.895 93.9945C289.838 93.6607 289.459 93.5062 288.864 93.6084C288.273 93.7098 287.968 93.9816 288.025 94.3153ZM286.854 89.5917L289.448 89.1466L289.546 89.7176L287.635 91.246L287.64 91.2494C287.767 91.1985 287.905 91.1582 288.062 91.1313L289.727 90.8456L289.802 91.2799L287.208 91.725L287.106 91.1299L289.005 89.6283L289 89.625C288.872 89.6759 288.734 89.7161 288.577 89.7431L286.929 90.026L286.854 89.5917Z" fill="#FF8158"/>
<path d="M262.156 100.518L263.128 100.976L263.132 100.971C263.103 100.922 263.079 100.856 263.064 100.772C263.024 100.534 263.072 100.311 263.212 100.109C263.35 99.903 263.544 99.7786 263.793 99.7358C264.047 99.6924 264.28 99.7476 264.493 99.9056C264.706 100.059 264.833 100.269 264.879 100.539C264.925 100.808 264.875 101.049 264.726 101.261C264.576 101.473 264.374 101.598 264.12 101.642C263.891 101.681 263.614 101.634 263.293 101.502L262.25 101.069L262.156 100.518ZM263.454 100.775C263.48 100.924 263.553 101.04 263.67 101.119C263.787 101.194 263.916 101.222 264.057 101.197C264.201 101.173 264.318 101.103 264.402 100.989C264.486 100.875 264.517 100.746 264.492 100.597C264.466 100.448 264.393 100.337 264.276 100.257C264.159 100.178 264.026 100.151 263.881 100.176C263.592 100.226 263.404 100.482 263.454 100.775ZM261.432 96.2306L264.026 95.7856L264.124 96.3566L262.213 97.885L262.218 97.8883C262.346 97.8374 262.484 97.7972 262.64 97.7703L264.305 97.4846L264.38 97.9189L261.786 98.3639L261.684 97.7688L263.583 96.2673L263.578 96.2639C263.45 96.3149 263.313 96.3551 263.156 96.382L261.507 96.6649L261.432 96.2306Z" fill="#FF8158"/>
<path d="M314.117 91.7289L316.711 91.2839L316.788 91.7342L314.597 92.1103L314.714 92.7939L314.292 92.7503L314.117 91.7289ZM313.692 89.3231L315.248 89.056L315.186 88.6941L315.588 88.6251L315.65 88.987L316.298 88.8759L316.374 89.3183L315.726 89.4294L315.917 90.5392L315.507 90.6344L313.8 89.9504L313.692 89.3231ZM314.138 89.7019L315.445 90.2061L315.324 89.4984L314.138 89.7019ZM312.993 85.1063L315.587 84.6612L315.685 85.2322L313.774 86.7606L313.778 86.764C313.906 86.713 314.044 86.6728 314.201 86.6459L315.866 86.3602L315.94 86.7945L313.347 87.2396L313.245 86.6444L315.144 85.1429L315.139 85.1396C315.011 85.1905 314.873 85.2307 314.716 85.2576L313.068 85.5406L312.993 85.1063Z" fill="#FF8158"/>
<path d="M340.591 87.1865L343.185 86.7414L343.262 87.1918L341.071 87.5679L341.188 88.2515L340.766 88.2079L340.591 87.1865ZM340.789 84.4335C340.994 84.3983 341.178 84.4538 341.331 84.5973C341.433 84.3272 341.633 84.1645 341.927 84.1142C342.172 84.0721 342.384 84.1267 342.571 84.2768C342.759 84.4268 342.872 84.6308 342.917 84.8922C342.962 85.1536 342.924 85.3878 342.797 85.5917C342.671 85.7955 342.489 85.9178 342.243 85.9599C341.942 86.0117 341.7 85.929 341.526 85.7105C341.432 85.888 341.277 85.9974 341.064 86.034C340.867 86.0678 340.689 86.0197 340.525 85.8863C340.358 85.7536 340.257 85.5764 340.219 85.3552C340.181 85.134 340.217 84.9333 340.331 84.7523C340.441 84.572 340.592 84.4673 340.789 84.4335ZM340.994 85.603C341.199 85.5678 341.326 85.3928 341.289 85.1717C341.252 84.9585 341.073 84.8319 340.868 84.8671C340.671 84.901 340.55 85.0873 340.585 85.2924C340.62 85.4975 340.797 85.6368 340.994 85.603ZM342.168 85.5176C342.292 85.4962 342.393 85.4333 342.466 85.3257C342.538 85.218 342.563 85.0938 342.539 84.9571C342.516 84.8244 342.453 84.7194 342.348 84.642C342.244 84.5647 342.127 84.5351 342.003 84.5565C341.745 84.6007 341.575 84.8409 341.622 85.1144C341.669 85.3878 341.91 85.5617 342.168 85.5176ZM339.467 80.5638L342.061 80.1187L342.159 80.6898L340.248 82.2182L340.252 82.2215C340.38 82.1706 340.518 82.1304 340.675 82.1034L342.34 81.8178L342.414 82.2521L339.821 82.6971L339.719 82.102L341.618 80.6005L341.613 80.5971C341.485 80.648 341.347 80.6883 341.19 80.7152L339.542 80.9981L339.467 80.5638Z" fill="#FF8158"/>
<path d="M248.726 102.747L250.283 102.48L250.221 102.118L250.623 102.049L250.685 102.411L251.332 102.3L251.408 102.742L250.761 102.854L250.951 103.963L250.541 104.059L248.834 103.375L248.726 102.747ZM249.172 103.126L250.48 103.63L250.359 102.923L249.172 103.126ZM248.028 98.5304L250.621 98.0854L250.719 98.6564L248.808 100.185L248.813 100.188C248.941 100.137 249.079 100.097 249.236 100.07L250.901 99.7844L250.975 100.219L248.381 100.664L248.279 100.069L250.178 98.5671L250.174 98.5637C250.046 98.6147 249.908 98.6549 249.751 98.6818L248.102 98.9647L248.028 98.5304Z" fill="#FF8158"/>
<path d="M300.714 94.0292L303.308 93.5841L303.385 94.0345L301.193 94.4106L301.311 95.0942L300.889 95.0506L300.714 94.0292ZM300.355 92.2287C300.312 91.9753 300.348 91.7498 300.467 91.5554C300.587 91.361 300.758 91.2448 300.979 91.2068C301.192 91.1702 301.407 91.2162 301.615 91.346C301.754 91.4298 301.88 91.5117 301.99 91.5964L302.638 92.0937L302.445 90.9677L302.847 90.8987L303.139 92.6037L302.747 92.6834C302.322 92.3507 302.022 92.1248 301.853 92.0049C301.697 91.8949 301.553 91.8037 301.417 91.7319C301.293 91.6621 301.165 91.6426 301.037 91.6687C300.841 91.7065 300.713 91.9023 300.759 92.1717C300.802 92.417 300.987 92.5838 301.228 92.6088L301.109 93.0018C300.735 92.9459 300.427 92.6469 300.355 92.2287ZM299.59 87.4065L302.184 86.9614L302.282 87.5324L300.371 89.0609L300.375 89.0642C300.503 89.0133 300.641 88.973 300.798 88.9461L302.463 88.6605L302.537 89.0947L299.944 89.5398L299.841 88.9447L301.74 87.4431L301.736 87.4398C301.608 87.4907 301.47 87.531 301.313 87.5579L299.664 87.8408L299.59 87.4065Z" fill="#FF8158"/>
<path d="M275.823 97.8578C276.028 97.8226 276.211 97.8781 276.364 98.0216C276.467 97.7514 276.667 97.5888 276.96 97.5384C277.205 97.4964 277.418 97.551 277.605 97.701C277.792 97.8511 277.906 98.0551 277.951 98.3165C277.995 98.5778 277.957 98.8121 277.83 99.016C277.704 99.2198 277.522 99.3421 277.277 99.3842C276.975 99.4359 276.733 99.3533 276.559 99.1348C276.466 99.3123 276.31 99.4217 276.097 99.4583C275.9 99.4921 275.722 99.444 275.559 99.3106C275.391 99.1779 275.29 99.0007 275.252 98.7795C275.214 98.5583 275.25 98.3576 275.364 98.1766C275.474 97.9963 275.626 97.8916 275.823 97.8578ZM276.028 99.0273C276.233 98.9921 276.36 98.8171 276.322 98.5959C276.285 98.3828 276.106 98.2562 275.901 98.2914C275.704 98.3252 275.583 98.5116 275.618 98.7167C275.653 98.9218 275.831 99.0611 276.028 99.0273ZM277.201 98.9419C277.326 98.9205 277.427 98.8576 277.499 98.7499C277.572 98.6423 277.596 98.5181 277.573 98.3813C277.55 98.2486 277.486 98.1436 277.382 98.0663C277.278 97.989 277.161 97.9594 277.036 97.9808C276.779 98.0249 276.609 98.2652 276.656 98.5387C276.703 98.8121 276.944 98.986 277.201 98.9419ZM274.5 93.9881L277.094 93.543L277.192 94.114L275.281 95.6424L275.286 95.6458C275.414 95.5948 275.552 95.5546 275.709 95.5277L277.373 95.242L277.448 95.6763L274.854 96.1214L274.752 95.5262L276.651 94.0247L276.646 94.0214C276.519 94.0723 276.381 94.1125 276.224 94.1394L274.575 94.4224L274.5 93.9881Z" fill="#FF8158"/>
<path d="M327.186 89.4868L329.78 89.0417L329.857 89.4921L327.666 89.8682L327.783 90.5518L327.361 90.5082L327.186 89.4868ZM326.785 87.1512L327.758 87.6094L327.761 87.6047C327.732 87.5558 327.709 87.4896 327.694 87.4051C327.653 87.1679 327.702 86.9443 327.841 86.7424C327.98 86.5365 328.174 86.4121 328.423 86.3693C328.676 86.3258 328.909 86.3811 329.123 86.539C329.335 86.6929 329.462 86.903 329.509 87.1724C329.555 87.4418 329.505 87.6822 329.355 87.8942C329.205 88.1062 329.003 88.2319 328.75 88.2754C328.521 88.3147 328.244 88.2671 327.923 88.1358L326.88 87.7021L326.785 87.1512ZM328.084 87.4086C328.109 87.5574 328.183 87.6731 328.3 87.7523C328.417 87.8276 328.545 87.8551 328.686 87.831C328.831 87.8061 328.947 87.7365 329.031 87.6227C329.115 87.509 329.147 87.3794 329.121 87.2306C329.096 87.0818 329.023 86.9701 328.906 86.8909C328.789 86.8116 328.656 86.7847 328.511 86.8096C328.221 86.8593 328.033 87.1151 328.084 87.4086ZM326.062 82.8641L328.656 82.419L328.754 82.99L326.843 84.5185L326.847 84.5218C326.975 84.4709 327.113 84.4306 327.27 84.4037L328.935 84.1181L329.009 84.5523L326.416 84.9974L326.314 84.4023L328.213 82.9007L328.208 82.8974C328.08 82.9483 327.942 82.9886 327.785 83.0155L326.137 83.2984L326.062 82.8641Z" fill="#FF8158"/>
<path d="M352.341 85.5843C352.297 85.3309 352.333 85.1054 352.453 84.911C352.573 84.7165 352.743 84.6004 352.964 84.5624C353.177 84.5258 353.392 84.5718 353.601 84.7016C353.739 84.7854 353.865 84.8673 353.975 84.952L354.623 85.4492L354.43 84.3233L354.832 84.2543L355.125 85.9593L354.733 86.039C354.307 85.7063 354.008 85.4804 353.838 85.3604C353.683 85.2505 353.539 85.1593 353.402 85.0875C353.278 85.0177 353.151 84.9982 353.023 85.0243C352.826 85.0621 352.699 85.2579 352.745 85.5273C352.787 85.7726 352.973 85.9394 353.213 85.9644L353.094 86.3574C352.72 86.3015 352.412 86.0025 352.341 85.5843ZM353.13 82.1255C353.536 82.0558 353.878 82.0924 354.154 82.2313C354.426 82.3708 354.588 82.5874 354.639 82.885C354.689 83.1785 354.61 83.4405 354.4 83.6629C354.185 83.8859 353.875 84.0303 353.469 84.1C353.062 84.1696 352.722 84.1371 352.449 83.9975C352.177 83.858 352.016 83.6414 351.964 83.3438C351.913 83.0463 351.993 82.7883 352.208 82.5653C352.418 82.3429 352.724 82.1952 353.13 82.1255ZM352.367 83.2748C352.423 83.6006 352.802 83.7591 353.393 83.6576C353.984 83.5562 354.292 83.2797 354.236 82.954C354.179 82.6202 353.801 82.4657 353.206 82.5679C352.615 82.6693 352.309 82.9411 352.367 83.2748ZM351.196 78.5512L353.79 78.1061L353.888 78.6771L351.977 80.2056L351.981 80.2089C352.109 80.158 352.247 80.1177 352.404 80.0908L354.069 79.8051L354.143 80.2394L351.55 80.6845L351.447 80.0894L353.347 78.5878L353.342 78.5845C353.214 78.6354 353.076 78.6757 352.919 78.7026L351.27 78.9855L351.196 78.5512Z" fill="#FF8158"/>
<path d="M233.661 87.4857L280.991 79.4958C285.348 78.7603 288.284 74.6324 287.548 70.2757L285.551 58.4432C284.815 54.0861 280.687 51.1511 276.331 51.8861L229 59.8764C224.644 60.6118 221.708 64.7398 222.444 69.0964L224.441 80.929C225.176 85.2857 229.304 88.2212 233.661 87.4857Z" fill="white" stroke="#E8EAEF"/>
<path d="M249.603 78.2736C248.761 78.4227 248 78.3466 247.319 78.0455C246.641 77.7438 246.068 77.2327 245.601 76.5122C245.137 75.7912 244.808 74.8825 244.613 73.7861C244.415 72.6935 244.408 71.7332 244.591 70.905C244.778 70.0763 245.137 69.4068 245.668 68.8964C246.201 68.3822 246.887 68.0492 247.725 67.8975C248.563 67.7458 249.321 67.8175 249.997 68.1127C250.677 68.4073 251.25 68.9099 251.715 69.6206C252.18 70.328 252.51 71.2283 252.704 72.3214C252.903 73.4205 252.91 74.3893 252.725 75.2278C252.543 76.0657 252.188 76.7448 251.659 77.2649C251.13 77.7851 250.445 78.1213 249.603 78.2736ZM249.285 76.5174C249.859 76.4135 250.265 76.0419 250.503 75.4026C250.741 74.7634 250.754 73.8668 250.542 72.7128C250.404 71.9529 250.211 71.3344 249.963 70.8572C249.719 70.3794 249.431 70.039 249.102 69.836C248.775 69.6324 248.421 69.5651 248.039 69.6342C247.469 69.7375 247.064 70.1055 246.825 70.7382C246.585 71.371 246.567 72.2567 246.77 73.3956C246.909 74.1653 247.102 74.7939 247.349 75.2814C247.598 75.7651 247.888 76.1101 248.218 76.3164C248.548 76.5194 248.904 76.5864 249.285 76.5174ZM264.933 64.9241L266.747 74.9431L264.917 75.2743L259.417 69.7574L259.344 69.7706L260.485 76.0765L258.367 76.46L256.553 66.441L258.412 66.1045L263.877 71.6227L263.965 71.6067L262.825 65.3057L264.933 64.9241Z" fill="#171923"/>
<defs>
<linearGradient id="paint0_linear_2095_869" x1="631.25" y1="56.7734" x2="791.25" y2="196.773" gradientUnits="userSpaceOnUse">
<stop stop-color="#6B737D"/>
<stop offset="1" stop-color="#4F575F"/>
</linearGradient>
<linearGradient id="paint1_linear_2095_869" x1="11.25" y1="16.7734" x2="711.25" y2="156.773" gradientUnits="userSpaceOnUse">
<stop stop-color="#C8CDD4"/>
<stop offset="0.45" stop-color="#A8B0BA"/>
<stop offset="1" stop-color="#8E96A1"/>
</linearGradient>
<linearGradient id="paint2_linear_2095_869" x1="-8.75" y1="156.773" x2="631.25" y2="216.773" gradientUnits="userSpaceOnUse">
<stop stop-color="#7A828C"/>
<stop offset="1" stop-color="#5E666F"/>
</linearGradient>
<linearGradient id="paint3_linear_2095_869" x1="-8.75001" y1="156.773" x2="631.25" y2="216.773" gradientUnits="userSpaceOnUse">
<stop stop-color="#7A828C"/>
<stop offset="1" stop-color="#5E666F"/>
</linearGradient>
</defs>
</svg>