<svg width="763" height="267" viewBox="0 0 763 267" fill="none" xmlns="http://www.w3.org/2000/svg">
<path d="M398 66.2715L371.5 72.7715" stroke="black"/>
<path d="M551.25 60.5215L761.25 140.521V185.521L551.25 105.521V60.5215Z" fill="url(#paint0_linear_2093_786)" stroke="#3E4650" stroke-width="2.5" stroke-linejoin="round"/>
<path d="M1.25 140.521L551.25 60.5215L761.25 140.521L211.25 220.521L1.25 140.521Z" fill="url(#paint1_linear_2093_786)" stroke="#3E4650" stroke-width="2.5" stroke-linejoin="round"/>
<path d="M1.25 140.521L211.25 220.521V265.521L1.25 185.521V140.521Z" fill="url(#paint2_linear_2093_786)" stroke="#3E4650" stroke-width="2.5" stroke-linejoin="round"/>
<path d="M211.25 220.521L761.25 140.521V185.521L211.25 265.521V220.521Z" fill="url(#paint3_linear_2093_786)" stroke="#3E4650" stroke-width="2.5" stroke-linejoin="round"/>
<path d="M589.81 32.5747C588.437 21.4262 577.367 16.7715 577.367 16.7715L418.299 44.4125C418.299 44.4125 409.01 50.146 412.361 63.3698C415.711 76.5936 422.646 79.1982 422.646 79.1982L585.505 51.5967C585.505 51.5967 591.182 43.7232 589.81 32.5747Z" fill="white"/>
<path d="M419.616 79.6406C417.334 80.0321 414.188 72.7982 412.59 63.4827C410.991 54.1678 411.546 46.2984 413.827 45.9068C416.109 45.5152 419.256 52.7496 420.854 62.0645C422.453 71.38 421.898 79.249 419.616 79.6406Z" stroke="#9C9B9B" stroke-width="3.59788" stroke-linecap="round" stroke-linejoin="round"/>
<path d="M551.268 53.2721C549.482 53.5784 547.021 47.918 545.77 40.6285C544.519 33.3396 544.953 27.1816 546.738 26.8752C548.524 26.5687 550.986 32.2299 552.236 39.5188C553.487 46.8083 553.054 52.9656 551.268 53.2721Z" fill="#EF3A50"/>
<path d="M550.676 39.52L407.685 64.0571" stroke="#565655" stroke-width="2.39859" stroke-linecap="round" stroke-linejoin="round"/>
<path d="M407.173 64.1454C406.741 61.6307 404.353 59.9414 401.838 60.373C399.324 60.8045 397.635 63.1933 398.067 65.708C398.498 68.2227 400.887 69.9107 403.401 69.4792" stroke="#565655" stroke-width="2.39859" stroke-linecap="round" stroke-linejoin="round"/>
<path d="M549.161 40.9956C549.034 41.0174 548.788 40.5814 548.665 39.8657C548.529 39.0749 548.629 38.6563 548.756 38.6345C548.883 38.6127 549.077 39.1233 549.189 39.7758C549.301 40.4271 549.288 40.9738 549.161 40.9956Z" fill="#565655"/>
<path d="M551.267 53.2718C549.481 53.5782 547.019 47.9179 545.768 40.6284C544.517 33.3394 544.952 27.1813 546.737 26.875" fill="#EF3A50"/>
<path d="M551.124 52.4255C549.338 52.7319 546.941 47.4504 545.77 40.629C544.599 33.8076 545.099 28.0295 546.885 27.7231" stroke="#813A50" stroke-width="1.79894" stroke-miterlimit="10" stroke-linecap="round"/>
<path d="M419.617 79.6404C417.335 80.032 414.189 72.7981 412.59 63.4826C410.992 54.1677 411.546 46.2982 413.828 45.9067" stroke="#1D1D1B" stroke-width="3.59788" stroke-linecap="round" stroke-linejoin="round"/>
<path d="M588.313 50.6914L420.957 79.4096" stroke="#1D1D1B" stroke-width="3.59788" stroke-linecap="round" stroke-linejoin="round"/>
<path d="M605.641 31.2812L590.561 33.8689" stroke="black" stroke-width="0.68"/>
<path d="M609.536 25.2687C606.628 25.7678 604.674 28.53 605.173 31.4389C605.673 34.3473 608.435 36.3008 611.344 35.8017C614.252 35.3026 616.205 32.5398 615.706 29.6315C615.207 26.7225 612.445 24.7697 609.536 25.2687Z" stroke="#F19100" stroke-width="1.79894" stroke-miterlimit="10" stroke-linecap="round"/>
<path d="M577.392 21.3638C576.539 21.5101 581.139 48.3148 580.286 48.4611C579.434 48.6073 574.834 21.8026 573.982 21.949C573.129 22.0953 577.729 48.8999 576.877 49.0462C576.024 49.1924 571.424 22.3878 570.572 22.534C569.72 22.6803 574.319 49.485 573.467 49.6312C572.615 49.7775 568.015 22.9728 567.163 23.1191C566.31 23.2654 570.909 50.0701 570.057 50.2165C569.204 50.3627 564.605 23.558 563.752 23.7043C562.9 23.8506 567.499 50.6553 566.647 50.8015C565.794 50.9478 561.195 24.1432 560.342 24.2895C559.489 24.4358 564.089 51.2405 563.237 51.3867C562.384 51.533 557.785 24.7283 556.932 24.8747C556.079 25.021 560.679 51.8256 559.826 51.972C558.973 52.1183 554.374 25.3137 553.521 25.46C552.668 25.6064 557.268 52.411 556.415 52.5574" stroke="#858585" stroke-width="2.39859" stroke-linecap="round" stroke-linejoin="round"/>
<path d="M553.522 25.46C552.67 25.6064 557.269 52.4111 556.416 52.5574C556.041 52.6218 554.948 47.4779 553.757 41.7101C553.206 39.0448 552.622 39.145 550.813 39.4555" stroke="#565655" stroke-width="2.39859" stroke-linecap="round" stroke-linejoin="round"/>
<path d="M556.933 24.8745C556.08 25.0208 560.679 51.8255 559.827 51.9718" stroke="#565655" stroke-width="2.39859" stroke-linecap="round" stroke-linejoin="round"/>
<path d="M584.215 20.1934C583.362 20.3397 587.962 47.1443 587.109 47.2907C586.257 47.4369 581.657 20.6323 580.805 20.7786C579.952 20.9249 584.552 47.7295 583.7 47.8758C582.847 48.0221 578.247 21.2175 577.394 21.3638C576.542 21.5101 581.142 48.3147 580.289 48.4611C579.436 48.6073 574.837 21.8027 573.985 21.9489C573.132 22.0953 577.731 48.8999 576.879 49.0463C576.026 49.1926 571.426 22.3879 570.574 22.5343C569.721 22.6806 574.32 49.4852 573.467 49.6316" stroke="#858585" stroke-width="2.39859" stroke-linecap="round" stroke-linejoin="round"/>
<path d="M560.343 24.2896C559.49 24.436 564.09 51.2405 563.237 51.3867" stroke="#565655" stroke-width="2.39859" stroke-linecap="round" stroke-linejoin="round"/>
<path d="M563.753 23.7046C562.9 23.8508 567.5 50.6555 566.647 50.8018" stroke="#565655" stroke-width="2.39859" stroke-linecap="round" stroke-linejoin="round"/>
<path d="M567.164 23.1191C566.311 23.2655 570.911 50.0701 570.058 50.2164" stroke="#565655" stroke-width="2.39859" stroke-linecap="round" stroke-linejoin="round"/>
<path d="M570.574 22.5342C569.722 22.6805 574.322 49.4851 573.469 49.6314" stroke="#565655" stroke-width="2.39859" stroke-linecap="round" stroke-linejoin="round"/>
<path d="M573.982 21.9492C573.13 22.0955 577.73 48.9001 576.877 49.0464" stroke="#565655" stroke-width="2.39859" stroke-linecap="round" stroke-linejoin="round"/>
<path d="M577.393 21.3638C576.541 21.5102 581.14 48.3148 580.288 48.4611" stroke="#565655" stroke-width="2.39859" stroke-linecap="round" stroke-linejoin="round"/>
<path d="M580.804 20.7788C579.951 20.9251 584.551 47.7297 583.698 47.8761" stroke="#565655" stroke-width="2.39859" stroke-linecap="round" stroke-linejoin="round"/>
<path d="M587.108 47.2913C587.961 47.145 583.361 20.3403 584.213 20.1941C585.175 20.029 588.386 29.2382 589.058 33.159" stroke="#565655" stroke-width="2.39859" stroke-linecap="round" stroke-linejoin="round"/>
<path d="M582.525 16.959C584.807 16.5673 587.953 23.8012 589.551 33.1161C591.15 42.4316 590.596 50.3004 588.313 50.6921" stroke="#1D1D1B" stroke-width="3.59788" stroke-linecap="round" stroke-linejoin="round"/>
<path d="M480.225 48.4616C479.278 40.6728 479.949 34.5665 481.953 34.2227" stroke="#FF8158" stroke-width="1.1993" stroke-linecap="round" stroke-linejoin="round"/>
<path d="M487.009 47.2187C486.076 39.4665 486.75 33.3993 488.747 33.0566" stroke="#FF8158" stroke-width="1.1993" stroke-linecap="round" stroke-linejoin="round"/>
<path d="M493.336 46.1332C492.402 38.381 493.076 32.3138 495.073 31.9712" stroke="#FF8158" stroke-width="1.1993" stroke-linecap="round" stroke-linejoin="round"/>
<path d="M500.131 44.9673C499.197 37.2151 499.871 31.148 501.868 30.8052" stroke="#FF8158" stroke-width="1.1993" stroke-linecap="round" stroke-linejoin="round"/>
<path d="M506.468 43.9586C505.52 36.1698 506.192 30.0635 508.195 29.7197" stroke="#FF8158" stroke-width="1.1993" stroke-linecap="round" stroke-linejoin="round"/>
<path d="M513.252 42.7157C512.318 34.9635 512.992 28.8963 514.989 28.5537" stroke="#FF8158" stroke-width="1.1993" stroke-linecap="round" stroke-linejoin="round"/>
<path d="M519.576 41.6249C518.642 33.8727 519.317 27.8055 521.313 27.4629" stroke="#FF8158" stroke-width="1.1993" stroke-linecap="round" stroke-linejoin="round"/>
<path d="M526.343 40.2875C525.409 32.5353 526.083 26.4681 528.08 26.1255" stroke="#FF8158" stroke-width="1.1993" stroke-linecap="round" stroke-linejoin="round"/>
<path d="M532.699 39.3783C531.765 31.6261 532.439 25.559 534.436 25.2163" stroke="#FF8158" stroke-width="1.1993" stroke-linecap="round" stroke-linejoin="round"/>
<path d="M539.025 38.2929C538.091 30.5408 538.765 24.4736 540.763 24.1309" stroke="#FF8158" stroke-width="1.1993" stroke-linecap="round" stroke-linejoin="round"/>
<path d="M545.392 37.2001C544.459 29.4479 545.133 23.3808 547.13 23.0381" stroke="#FF8158" stroke-width="1.1993" stroke-linecap="round" stroke-linejoin="round"/>
<path d="M415.216 59.6172C414.268 51.8285 414.94 45.7222 416.943 45.3784" stroke="#FF8158" stroke-width="1.1993" stroke-linecap="round" stroke-linejoin="round"/>
<path d="M421.999 58.3744C421.066 50.6222 421.74 44.5551 423.737 44.2124" stroke="#FF8158" stroke-width="1.1993" stroke-linecap="round" stroke-linejoin="round"/>
<path d="M428.326 57.289C427.392 49.5368 428.067 43.4697 430.063 43.127" stroke="#FF8158" stroke-width="1.1993" stroke-linecap="round" stroke-linejoin="round"/>
<path d="M435.121 56.1229C434.187 48.3707 434.861 42.3036 436.858 41.9609" stroke="#FF8158" stroke-width="1.1993" stroke-linecap="round" stroke-linejoin="round"/>
<path d="M441.458 55.1143C440.51 47.3255 441.182 41.2193 443.185 40.8755" stroke="#FF8158" stroke-width="1.1993" stroke-linecap="round" stroke-linejoin="round"/>
<path d="M448.242 53.8711C447.308 46.1189 447.983 40.0517 449.979 39.709" stroke="#FF8158" stroke-width="1.1993" stroke-linecap="round" stroke-linejoin="round"/>
<path d="M454.567 52.7803C453.634 45.028 454.308 38.9609 456.305 38.6182" stroke="#FF8158" stroke-width="1.1993" stroke-linecap="round" stroke-linejoin="round"/>
<path d="M461.332 51.4429C460.398 43.6907 461.072 37.6235 463.069 37.2808" stroke="#FF8158" stroke-width="1.1993" stroke-linecap="round" stroke-linejoin="round"/>
<path d="M467.689 50.5342C466.756 42.782 467.429 36.7149 469.427 36.3721" stroke="#FF8158" stroke-width="1.1993" stroke-linecap="round" stroke-linejoin="round"/>
<path d="M474.015 49.4486C473.082 41.6965 473.756 35.6293 475.753 35.2866" stroke="#FF8158" stroke-width="1.1993" stroke-linecap="round" stroke-linejoin="round"/>
<path d="M582.524 16.9585L413.492 45.9643" stroke="#1D1D1B" stroke-width="3.59788" stroke-linecap="round" stroke-linejoin="round"/>
<path d="M541.361 45.2144L538.768 45.6595L538.691 45.2091L540.882 44.833L540.765 44.1494L541.186 44.193L541.361 45.2144ZM542.106 49.6262L539.512 50.0713L539.414 49.5003L541.325 47.9719L541.321 47.9685C541.193 48.0195 541.055 48.0597 540.898 48.0866L539.233 48.3723L539.159 47.938L541.752 47.4929L541.855 48.088L539.956 49.5896L539.96 49.5929C540.088 49.542 540.226 49.5018 540.383 49.4749L542.032 49.1919L542.106 49.6262Z" fill="#FF8158"/>
<path d="M546.874 44.9024C546.468 44.9721 546.126 44.9355 545.85 44.7966C545.577 44.6571 545.416 44.4405 545.365 44.143C545.315 43.8494 545.394 43.5874 545.604 43.3651C545.818 43.142 546.129 42.9977 546.535 42.928C546.941 42.8583 547.282 42.8909 547.554 43.0304C547.827 43.17 547.988 43.3865 548.039 43.6841C548.09 43.9817 548.01 44.2396 547.796 44.4627C547.586 44.685 547.28 44.8327 546.874 44.9024ZM547.637 43.7531C547.581 43.4274 547.202 43.2689 546.611 43.3703C546.02 43.4718 545.711 43.7482 545.767 44.074C545.824 44.4077 546.203 44.5622 546.798 44.4601C547.389 44.3586 547.694 44.0869 547.637 43.7531ZM548.808 48.4768L546.214 48.9219L546.116 48.3508L548.027 46.8224L548.022 46.8191C547.894 46.87 547.756 46.9102 547.6 46.9372L545.935 47.2228L545.86 46.7885L548.454 46.3435L548.556 46.9386L546.657 48.4401L546.662 48.4435C546.79 48.3926 546.928 48.3523 547.084 48.3254L548.733 48.0425L548.808 48.4768Z" fill="#FF8158"/>
<path d="M488.642 54.8242C488.413 54.8635 488.136 54.8159 487.815 54.6846L486.772 54.2509L486.678 53.7L487.651 54.1582L487.654 54.1535C487.625 54.1047 487.601 54.0384 487.587 53.9539C487.546 53.7167 487.594 53.4931 487.733 53.2872C487.872 53.0853 488.066 52.9609 488.315 52.9181C488.569 52.8747 488.802 52.9299 489.014 53.0838C489.228 53.2418 489.355 53.4518 489.401 53.7212C489.447 53.9906 489.397 54.227 489.247 54.439C489.097 54.651 488.896 54.7807 488.642 54.8242ZM487.976 53.9574C488.002 54.1062 488.071 54.2226 488.188 54.2978C488.305 54.3771 488.438 54.4039 488.579 54.3798C488.723 54.355 488.84 54.2853 488.924 54.1715C489.008 54.0578 489.039 53.9282 489.014 53.7794C488.988 53.6306 488.915 53.5189 488.798 53.4397C488.681 53.3604 488.548 53.3336 488.403 53.3584C488.114 53.4081 487.926 53.6639 487.976 53.9574ZM490.166 58.5394L487.572 58.9845L487.474 58.4134L489.385 56.885L489.381 56.8817C489.253 56.9326 489.115 56.9728 488.958 56.9998L487.293 57.2854L487.219 56.8511L489.812 56.4061L489.914 57.0012L488.015 58.5027L488.02 58.5061C488.148 58.4552 488.286 58.4149 488.443 58.388L490.091 58.1051L490.166 58.5394Z" fill="#FF8158"/>
<path d="M515.63 50.0527L515.248 50.1182L515.058 49.0124L514.426 49.0423C514.53 49.1444 514.595 49.2822 514.625 49.4552C514.667 49.7005 514.618 49.92 514.481 50.1132C514.345 50.3104 514.151 50.4307 513.897 50.4742C513.652 50.5163 513.428 50.4637 513.22 50.3171C513.014 50.1746 512.889 49.9766 512.847 49.7313C512.776 49.3212 512.894 48.9946 513.199 48.7476L513.494 49.0407C513.285 49.1966 513.202 49.3929 513.243 49.6301C513.291 49.9076 513.519 50.0796 513.809 50.0299C514.098 49.9802 514.271 49.7312 514.217 49.4216C514.184 49.2285 514.086 49.0922 513.919 49.0091L514.061 48.6784L515.381 48.605L515.63 50.0527ZM516.304 54.0543L513.71 54.4994L513.612 53.9284L515.523 52.4L515.519 52.3966C515.391 52.4475 515.253 52.4878 515.096 52.5147L513.431 52.8004L513.357 52.3661L515.95 51.921L516.052 52.5161L514.153 54.0177L514.158 54.021C514.286 53.9701 514.424 53.9299 514.581 53.9029L516.229 53.62L516.304 54.0543Z" fill="#FF8158"/>
<path d="M463.618 58.5552L461.024 59.0003L460.947 58.5499L463.139 58.1738L463.021 57.4902L463.443 57.5338L463.618 58.5552ZM463.977 60.3597C464.019 60.601 463.981 60.8145 463.868 61.0035C463.756 61.1925 463.609 61.3006 463.42 61.333C463.166 61.3765 462.968 61.303 462.816 61.1179C462.763 61.363 462.529 61.5687 462.235 61.619C462.014 61.657 461.81 61.601 461.627 61.4543C461.449 61.3069 461.335 61.0988 461.289 60.8334C461.206 60.3509 461.432 60.0017 461.751 59.8103L462.011 60.1425C461.751 60.2906 461.644 60.491 461.688 60.7443C461.738 61.0379 461.923 61.1966 462.192 61.1504C462.445 61.1069 462.553 60.8898 462.513 60.5861L462.482 60.4051L462.852 60.3417C462.867 60.4261 462.878 60.4904 462.889 60.534C462.953 60.8087 463.094 60.9294 463.315 60.8915C463.512 60.8577 463.615 60.662 463.574 60.4207C463.532 60.1754 463.344 60.0254 463.11 59.9869L463.234 59.5973C463.596 59.6553 463.905 59.9415 463.977 60.3597ZM464.742 65.1779L462.148 65.623L462.05 65.052L463.961 63.5235L463.957 63.5202C463.829 63.5711 463.691 63.6114 463.534 63.6383L461.869 63.9239L461.795 63.4897L464.388 63.0446L464.49 63.6397L462.591 65.1413L462.596 65.1446C462.724 65.0937 462.862 65.0534 463.019 65.0265L464.667 64.7436L464.742 65.1779Z" fill="#FF8158"/>
<path d="M437.146 63.0982L434.552 63.5433L434.475 63.0929L436.666 62.7168L436.549 62.0332L436.97 62.0768L437.146 63.0982ZM437.604 65.7716L437.244 65.8665L434.826 65.259L434.739 64.7523L437.126 65.3942L436.921 64.1999L437.323 64.1309L437.604 65.7716ZM438.263 69.6816L435.669 70.1267L435.571 69.5557L437.482 68.0272L437.478 68.0239C437.35 68.0748 437.212 68.1151 437.055 68.142L435.39 68.4277L435.316 67.9934L437.909 67.5483L438.011 68.1434L436.112 69.645L436.117 69.6483C436.245 69.5974 436.383 69.5571 436.54 69.5302L438.188 69.2473L438.263 69.6816Z" fill="#FF8158"/>
<path d="M528.608 46.9934C528.65 47.2347 528.612 47.4482 528.499 47.6372C528.387 47.8262 528.24 47.9343 528.051 47.9667C527.798 48.0102 527.599 47.9366 527.447 47.7516C527.394 47.9966 527.16 48.2024 526.866 48.2528C526.645 48.2907 526.441 48.2346 526.259 48.0879C526.08 47.9406 525.966 47.7325 525.92 47.4671C525.837 46.9846 526.063 46.6354 526.382 46.444L526.642 46.7761C526.382 46.9243 526.275 47.1247 526.319 47.378C526.369 47.6715 526.554 47.8303 526.823 47.7841C527.077 47.7406 527.184 47.5234 527.144 47.2198L527.113 47.0388L527.483 46.9753C527.498 47.0598 527.509 47.1241 527.521 47.1677C527.584 47.4424 527.725 47.5631 527.946 47.5251C528.143 47.4913 528.246 47.2956 528.205 47.0544C528.163 46.8091 527.976 46.6591 527.741 46.6206L527.865 46.231C528.227 46.2889 528.537 46.5752 528.608 46.9934ZM529.373 51.8116L526.779 52.2567L526.681 51.6857L528.592 50.1572L528.588 50.1539C528.46 50.2048 528.322 50.2451 528.165 50.272L526.5 50.5577L526.426 50.1234L529.019 49.6783L529.121 50.2734L527.222 51.775L527.227 51.7783C527.355 51.7274 527.493 51.6871 527.65 51.6602L529.299 51.3773L529.373 51.8116Z" fill="#FF8158"/>
<path d="M476.687 56.3126L474.093 56.7576L474.016 56.3073L476.207 55.9312L476.09 55.2476L476.511 55.2912L476.687 56.3126ZM477.066 58.5235L474.472 58.9685L474.395 58.5182L476.587 58.1421L476.469 57.4585L476.891 57.5021L477.066 58.5235ZM477.811 62.9352L475.217 63.3803L475.119 62.8093L477.03 61.2809L477.025 61.2775C476.898 61.3285 476.76 61.3687 476.603 61.3956L474.938 61.6813L474.863 61.247L477.457 60.8019L477.559 61.3971L475.66 62.8986L475.665 62.9019C475.793 62.851 475.931 62.8108 476.088 62.7839L477.736 62.5009L477.811 62.9352Z" fill="#FF8158"/>
<path d="M502.57 52.3477L502.209 52.4426L499.791 51.8351L499.704 51.3284L502.091 51.9703L501.886 50.776L502.288 50.707L502.57 52.3477ZM503.228 56.2578L500.634 56.7028L500.536 56.1318L502.447 54.6034L502.443 54.6001C502.315 54.651 502.177 54.6912 502.02 54.7181L500.355 55.0038L500.281 54.5695L502.874 54.1244L502.977 54.7196L501.077 56.2211L501.082 56.2244C501.21 56.1735 501.348 56.1333 501.505 56.1064L503.154 55.8235L503.228 56.2578Z" fill="#FF8158"/>
<path d="M450.55 60.7979L447.956 61.243L447.879 60.7926L450.071 60.4165L449.953 59.7329L450.375 59.7765L450.55 60.7979ZM451 63.419L450.618 63.4845L450.428 62.3787L449.796 62.4086C449.9 62.5107 449.965 62.6485 449.995 62.8215C450.037 63.0668 449.988 63.2863 449.851 63.4795C449.715 63.6767 449.521 63.797 449.267 63.8405C449.022 63.8826 448.798 63.83 448.59 63.6834C448.384 63.5409 448.259 63.3429 448.217 63.0976C448.146 62.6875 448.264 62.3609 448.569 62.1139L448.864 62.407C448.655 62.5629 448.572 62.7592 448.613 62.9964C448.661 63.2739 448.889 63.4459 449.179 63.3962C449.468 63.3465 449.641 63.0975 449.587 62.7879C449.554 62.5948 449.456 62.4585 449.289 62.3754L449.431 62.0447L450.751 61.9713L451 63.419ZM451.674 67.4206L449.08 67.8657L448.982 67.2947L450.893 65.7662L450.889 65.7629C450.761 65.8138 450.623 65.8541 450.466 65.881L448.801 66.1666L448.727 65.7323L451.32 65.2873L451.422 65.8824L449.523 67.384L449.528 67.3873C449.656 67.3364 449.794 67.2961 449.951 67.2692L451.6 66.9863L451.674 67.4206Z" fill="#FF8158"/>
<path d="M424.075 65.3409L421.481 65.7859L421.404 65.3356L423.596 64.9595L423.478 64.2759L423.9 64.3195L424.075 65.3409ZM423.676 68.2484C423.446 68.2877 423.169 68.2401 422.849 68.1088L421.805 67.6751L421.711 67.1242L422.684 67.5824L422.687 67.5777C422.658 67.5288 422.634 67.4626 422.62 67.3781C422.579 67.1409 422.628 66.9173 422.766 66.7114C422.905 66.5095 423.099 66.3851 423.349 66.3423C423.602 66.2989 423.835 66.3541 424.048 66.508C424.261 66.6659 424.388 66.876 424.434 67.1454C424.481 67.4148 424.43 67.6511 424.28 67.8632C424.13 68.0752 423.929 68.2049 423.676 68.2484ZM423.009 67.3816C423.035 67.5304 423.105 67.6468 423.221 67.722C423.338 67.8013 423.471 67.8281 423.612 67.804C423.757 67.7791 423.873 67.7095 423.957 67.5957C424.041 67.482 424.072 67.3524 424.047 67.2036C424.021 67.0548 423.948 66.9431 423.831 66.8639C423.714 66.7846 423.581 66.7577 423.436 66.7826C423.147 66.8323 422.959 67.0881 423.009 67.3816ZM425.199 71.9635L422.605 72.4086L422.507 71.8376L424.418 70.3092L424.414 70.3058C424.286 70.3568 424.148 70.397 423.991 70.4239L422.326 70.7096L422.252 70.2753L424.845 69.8302L424.947 70.4254L423.048 71.9269L423.053 71.9302C423.181 71.8793 423.319 71.8391 423.476 71.8122L425.124 71.5293L425.199 71.9635Z" fill="#FF8158"/>
<path d="M534.974 45.8966C535.017 46.1499 534.981 46.3755 534.861 46.5699C534.742 46.7643 534.571 46.8805 534.35 46.9185C534.137 46.9551 533.922 46.9091 533.713 46.7793C533.575 46.6955 533.449 46.6136 533.339 46.5289L532.691 46.0316L532.884 47.1576L532.482 47.2266L532.189 45.5216L532.581 45.4419C533.007 45.7746 533.307 46.0005 533.476 46.1204C533.632 46.2304 533.776 46.3216 533.912 46.3934C534.036 46.4632 534.163 46.4827 534.291 46.4566C534.488 46.4188 534.616 46.223 534.569 45.9536C534.527 45.7083 534.341 45.5415 534.101 45.5165L534.22 45.1235C534.594 45.1794 534.902 45.4784 534.974 45.8966ZM535.739 50.7188L533.145 51.1639L533.047 50.5929L534.958 49.0645L534.954 49.0611C534.826 49.1121 534.688 49.1523 534.531 49.1792L532.866 49.4649L532.792 49.0306L535.385 48.5855L535.487 49.1806L533.588 50.6822L533.593 50.6855C533.721 50.6346 533.859 50.5944 534.016 50.5675L535.664 50.2845L535.739 50.7188Z" fill="#FF8158"/>
<path d="M483.055 55.2202L480.461 55.6653L480.384 55.2149L482.575 54.8389L482.458 54.1553L482.879 54.1988L483.055 55.2202ZM482.245 58.2686C481.839 58.3383 481.497 58.3017 481.221 58.1628C480.948 58.0233 480.787 57.8067 480.736 57.5091C480.686 57.2156 480.765 56.9536 480.975 56.7313C481.189 56.5082 481.5 56.3639 481.906 56.2942C482.312 56.2245 482.653 56.257 482.925 56.3966C483.198 56.5361 483.359 56.7527 483.41 57.0503C483.461 57.3478 483.381 57.6058 483.167 57.8288C482.957 58.0512 482.651 58.1989 482.245 58.2686ZM483.008 57.1193C482.952 56.7936 482.573 56.6351 481.982 56.7365C481.391 56.8379 481.082 57.1144 481.138 57.4401C481.195 57.7739 481.574 57.9284 482.169 57.8262C482.76 57.7248 483.065 57.453 483.008 57.1193ZM484.179 61.8429L481.585 62.288L481.487 61.717L483.398 60.1886L483.393 60.1852C483.266 60.2361 483.128 60.2764 482.971 60.3033L481.306 60.589L481.231 60.1547L483.825 59.7096L483.927 60.3047L482.028 61.8063L482.033 61.8096C482.161 61.7587 482.299 61.7185 482.456 61.6915L484.104 61.4086L484.179 61.8429Z" fill="#FF8158"/>
<path d="M508.877 50.9168L507.905 50.4587L507.901 50.4634C507.93 50.5122 507.954 50.5785 507.969 50.6629C508.009 50.9002 507.961 51.1238 507.821 51.3257C507.683 51.5316 507.489 51.656 507.24 51.6988C506.986 51.7422 506.753 51.687 506.54 51.529C506.327 51.3751 506.2 51.1651 506.154 50.8957C506.108 50.6262 506.158 50.3859 506.307 50.1739C506.457 49.9619 506.659 49.8361 506.913 49.7927C507.142 49.7533 507.419 49.801 507.74 49.9322L508.783 50.3659L508.877 50.9168ZM507.579 50.6594C507.553 50.5106 507.48 50.395 507.363 50.3157C507.246 50.2405 507.117 50.2129 506.976 50.2371C506.832 50.2619 506.715 50.3316 506.631 50.4453C506.547 50.5591 506.516 50.6887 506.541 50.8375C506.567 50.9863 506.64 51.0979 506.757 51.1772C506.874 51.2564 507.007 51.2833 507.152 51.2585C507.441 51.2088 507.629 50.953 507.579 50.6594ZM509.601 55.204L507.007 55.649L506.909 55.078L508.82 53.5496L508.815 53.5463C508.687 53.5972 508.549 53.6374 508.393 53.6643L506.728 53.95L506.653 53.5157L509.247 53.0707L509.349 53.6658L507.45 55.1673L507.455 55.1707C507.583 55.1197 507.72 55.0795 507.877 55.0526L509.526 54.7697L509.601 55.204Z" fill="#FF8158"/>
<path d="M456.916 59.7056L454.322 60.1506L454.245 59.7003L456.436 59.3242L456.319 58.6406L456.741 58.6842L456.916 59.7056ZM457.341 62.1114L455.785 62.3785L455.847 62.7404L455.445 62.8094L455.383 62.4475L454.735 62.5586L454.659 62.1162L455.307 62.0051L455.116 60.8953L455.526 60.8001L457.233 61.4841L457.341 62.1114ZM456.895 61.7326L455.588 61.2284L455.709 61.9361L456.895 61.7326ZM458.04 66.3282L455.446 66.7733L455.348 66.2023L457.259 64.6739L457.255 64.6705C457.127 64.7215 456.989 64.7617 456.832 64.7886L455.167 65.0743L455.093 64.64L457.686 64.1949L457.788 64.7901L455.889 66.2916L455.894 66.2949C456.022 66.244 456.16 66.2038 456.317 66.1769L457.965 65.8939L458.04 66.3282Z" fill="#FF8158"/>
<path d="M430.442 64.2481L427.848 64.6932L427.771 64.2428L429.962 63.8667L429.845 63.1831L430.267 63.2267L430.442 64.2481ZM430.244 67.0011C430.039 67.0363 429.855 66.9808 429.702 66.8373C429.6 67.1074 429.4 67.2701 429.106 67.3204C428.861 67.3625 428.649 67.3079 428.462 67.1578C428.274 67.0078 428.161 66.8038 428.116 66.5424C428.071 66.281 428.109 66.0468 428.236 65.8429C428.362 65.6391 428.544 65.5168 428.79 65.4747C429.091 65.4229 429.333 65.5056 429.507 65.7241C429.601 65.5466 429.756 65.4372 429.969 65.4006C430.166 65.3668 430.344 65.4149 430.508 65.5483C430.675 65.681 430.776 65.8582 430.814 66.0794C430.852 66.3006 430.816 66.5013 430.702 66.6823C430.592 66.8626 430.441 66.9673 430.244 67.0011ZM430.039 65.8316C429.834 65.8668 429.707 66.0418 429.744 66.2629C429.781 66.4761 429.96 66.6027 430.165 66.5675C430.362 66.5336 430.483 66.3473 430.448 66.1422C430.413 65.9371 430.236 65.7978 430.039 65.8316ZM428.865 65.917C428.741 65.9384 428.64 66.0013 428.567 66.1089C428.495 66.2166 428.47 66.3408 428.494 66.4775C428.517 66.6102 428.58 66.7152 428.685 66.7926C428.789 66.8699 428.906 66.8995 429.03 66.8781C429.288 66.8339 429.458 66.5937 429.411 66.3202C429.364 66.0468 429.123 65.8729 428.865 65.917ZM431.566 70.8708L428.972 71.3159L428.874 70.7448L430.785 69.2164L430.781 69.2131C430.653 69.264 430.515 69.3042 430.358 69.3312L428.693 69.6168L428.619 69.1825L431.212 68.7375L431.314 69.3326L429.415 70.8341L429.42 70.8375C429.548 70.7866 429.686 70.7463 429.843 70.7194L431.491 70.4365L431.566 70.8708Z" fill="#FF8158"/>
<path d="M522.307 48.6873L520.75 48.9544L520.812 49.3163L520.41 49.3853L520.348 49.0234L519.701 49.1345L519.625 48.6921L520.272 48.581L520.082 47.4712L520.492 47.376L522.199 48.06L522.307 48.6873ZM521.861 48.3085L520.553 47.8043L520.674 48.512L521.861 48.3085ZM523.005 52.9042L520.412 53.3492L520.314 52.7782L522.225 51.2498L522.22 51.2465C522.092 51.2974 521.954 51.3376 521.797 51.3645L520.132 51.6502L520.058 51.2159L522.652 50.7708L522.754 51.366L520.855 52.8675L520.859 52.8709C520.987 52.8199 521.125 52.7797 521.282 52.7528L522.931 52.4699L523.005 52.9042Z" fill="#FF8158"/>
<path d="M470.319 57.4053L467.725 57.8504L467.648 57.4L469.84 57.0239L469.722 56.3403L470.144 56.3839L470.319 57.4053ZM470.678 59.2058C470.721 59.4592 470.685 59.6847 470.566 59.8791C470.446 60.0735 470.275 60.1897 470.054 60.2277C469.841 60.2643 469.626 60.2183 469.418 60.0885C469.279 60.0047 469.153 59.9228 469.043 59.8381L468.395 59.3408L468.588 60.4668L468.186 60.5358L467.894 58.8308L468.286 58.7511C468.711 59.0838 469.011 59.3097 469.18 59.4296C469.336 59.5396 469.48 59.6308 469.616 59.7026C469.74 59.7724 469.868 59.7919 469.996 59.7658C470.192 59.728 470.32 59.5322 470.274 59.2628C470.231 59.0175 470.046 58.8507 469.805 58.8257L469.924 58.4327C470.298 58.4886 470.606 58.7876 470.678 59.2058ZM471.443 64.028L468.849 64.4731L468.751 63.9021L470.662 62.3736L470.658 62.3703C470.53 62.4212 470.392 62.4615 470.235 62.4884L468.57 62.774L468.496 62.3398L471.089 61.8947L471.192 62.4898L469.293 63.9914L469.297 63.9947C469.425 63.9438 469.563 63.9035 469.72 63.8766L471.369 63.5937L471.443 64.028Z" fill="#FF8158"/>
<path d="M495.21 53.5768C495.005 53.612 494.822 53.5565 494.669 53.413C494.566 53.6832 494.366 53.8458 494.073 53.8962C493.828 53.9382 493.615 53.8835 493.428 53.7335C493.241 53.5834 493.127 53.3795 493.082 53.1181C493.038 52.8568 493.076 52.6225 493.203 52.4186C493.329 52.2148 493.511 52.0925 493.756 52.0504C494.058 51.9987 494.3 52.0813 494.474 52.2998C494.567 52.1223 494.723 52.0129 494.936 51.9763C495.133 51.9425 495.311 51.9906 495.474 52.124C495.642 52.2567 495.743 52.4339 495.781 52.6551C495.819 52.8763 495.783 53.077 495.669 53.258C495.559 53.4383 495.407 53.543 495.21 53.5768ZM495.005 52.4073C494.8 52.4425 494.673 52.6175 494.711 52.8387C494.748 53.0518 494.927 53.1784 495.132 53.1432C495.329 53.1094 495.45 52.923 495.415 52.7179C495.38 52.5128 495.202 52.3735 495.005 52.4073ZM493.832 52.4927C493.707 52.5141 493.606 52.577 493.534 52.6847C493.461 52.7923 493.437 52.9165 493.46 53.0533C493.483 53.186 493.547 53.291 493.651 53.3683C493.755 53.4456 493.872 53.4752 493.997 53.4538C494.254 53.4097 494.424 53.1693 494.377 52.8959C494.33 52.6224 494.089 52.4486 493.832 52.4927ZM496.533 57.4465L493.939 57.8916L493.841 57.3206L495.752 55.7922L495.747 55.7888C495.619 55.8398 495.481 55.88 495.324 55.9069L493.66 56.1926L493.585 55.7582L496.179 55.3132L496.281 55.9084L494.382 57.4099L494.387 57.4132C494.514 57.3623 494.652 57.3221 494.809 57.2952L496.458 57.0122L496.533 57.4465Z" fill="#FF8158"/>
<path d="M443.847 61.9478L441.253 62.3929L441.176 61.9425L443.367 61.5664L443.25 60.8828L443.672 60.9264L443.847 61.9478ZM444.248 64.2834L443.275 63.8252L443.272 63.8299C443.301 63.8788 443.324 63.945 443.339 64.0295C443.38 64.2667 443.331 64.4903 443.192 64.6922C443.053 64.8981 442.859 65.0225 442.61 65.0653C442.357 65.1088 442.124 65.0535 441.91 64.8956C441.698 64.7417 441.571 64.5316 441.524 64.2622C441.478 63.9928 441.528 63.7524 441.678 63.5404C441.828 63.3284 442.03 63.2027 442.283 63.1592C442.512 63.1199 442.789 63.1675 443.11 63.2988L444.153 63.7325L444.248 64.2834ZM442.949 64.026C442.924 63.8772 442.85 63.7615 442.733 63.6823C442.616 63.607 442.488 63.5795 442.347 63.6036C442.202 63.6285 442.086 63.6981 442.002 63.8119C441.918 63.9256 441.886 64.0552 441.912 64.204C441.937 64.3528 442.01 64.4645 442.127 64.5437C442.244 64.623 442.377 64.6499 442.522 64.625C442.812 64.5753 443 64.3195 442.949 64.026ZM444.971 68.5705L442.377 69.0156L442.279 68.4446L444.19 66.9161L444.186 66.9128C444.058 66.9637 443.92 67.004 443.763 67.0309L442.098 67.3165L442.024 66.8823L444.617 66.4372L444.719 67.0323L442.82 68.5339L442.825 68.5372C442.953 68.4863 443.091 68.446 443.248 68.4191L444.896 68.1362L444.971 68.5705Z" fill="#FF8158"/>
<path d="M418.692 65.8503C418.736 66.1037 418.7 66.3292 418.58 66.5236C418.46 66.7181 418.29 66.8341 418.069 66.8721C417.856 66.9087 417.641 66.8627 417.432 66.7329C417.294 66.6491 417.168 66.5673 417.058 66.4826L416.41 65.9854L416.603 67.1113L416.201 67.1803L415.908 65.4753L416.3 65.3956C416.726 65.7283 417.025 65.9542 417.195 66.0742C417.35 66.1841 417.494 66.2753 417.631 66.3471C417.755 66.4169 417.882 66.4363 418.01 66.4102C418.207 66.3724 418.334 66.1766 418.288 65.9072C418.246 65.6619 418.06 65.4952 417.82 65.4702L417.939 65.0771C418.313 65.133 418.621 65.4321 418.692 65.8503ZM417.903 69.3091C417.497 69.3788 417.155 69.3421 416.879 69.2032C416.607 69.0637 416.445 68.8472 416.394 68.5496C416.344 68.2561 416.423 67.9941 416.633 67.7717C416.848 67.5487 417.158 67.4042 417.564 67.3345C417.971 67.2649 418.311 67.2974 418.584 67.437C418.856 67.5765 419.017 67.7932 419.069 68.0908C419.12 68.3883 419.04 68.6462 418.825 68.8692C418.615 69.0916 418.309 69.2394 417.903 69.3091ZM418.666 68.1598C418.61 67.834 418.231 67.6754 417.64 67.7769C417.049 67.8783 416.741 68.1549 416.797 68.4806C416.854 68.8144 417.232 68.9689 417.827 68.8667C418.418 68.7653 418.724 68.4935 418.666 68.1598ZM419.837 72.8834L417.243 73.3285L417.145 72.7575L419.056 71.229L419.052 71.2256C418.924 71.2765 418.786 71.3168 418.629 71.3438L416.964 71.6294L416.89 71.1952L419.483 70.7501L419.586 71.3452L417.686 72.8467L417.691 72.8501C417.819 72.7992 417.957 72.7588 418.114 72.7319L419.763 72.4491L419.837 72.8834Z" fill="#FF8158"/>
<path d="M537.372 63.9488L490.042 71.9387C485.685 72.6742 482.749 76.8021 483.485 81.1588L485.482 92.9913C486.218 97.3484 490.346 100.283 494.702 99.5484L542.033 91.5581C546.389 90.8227 549.325 86.6947 548.589 82.3381L546.592 70.5055C545.857 66.1488 541.729 63.2133 537.372 63.9488Z" fill="white" stroke="#E8EAEF"/>
<path d="M510.161 86.8483C509.319 86.9991 508.557 86.9247 507.876 86.625C507.197 86.3247 506.624 85.8148 506.155 85.0953C505.69 84.3753 505.358 83.4673 505.161 82.3712C504.961 81.2791 504.952 80.3188 505.134 79.4902C505.319 78.6611 505.676 77.9908 506.206 77.4794C506.738 76.964 507.423 76.6296 508.261 76.4762C509.099 76.3227 509.856 76.3928 510.533 76.6866C511.214 76.9798 511.788 77.4812 512.255 78.1909C512.721 78.8973 513.053 79.7969 513.249 80.8897C513.451 81.9883 513.46 82.9571 513.276 83.796C513.096 84.6343 512.742 85.3141 512.214 85.8353C511.686 86.3566 511.002 86.6943 510.161 86.8483ZM509.839 85.0927C510.413 84.9876 510.818 84.6152 511.055 83.9755C511.291 83.3357 511.302 82.4391 511.088 81.2856C510.949 80.526 510.755 79.9078 510.506 79.4312C510.26 78.9539 509.972 78.6141 509.642 78.4118C509.315 78.2088 508.96 78.1423 508.579 78.2122C508.008 78.3167 507.604 78.6856 507.366 79.3188C507.129 79.952 507.112 80.8378 507.317 81.9762C507.458 82.7456 507.653 83.3738 507.9 83.8609C508.15 84.344 508.441 84.6884 508.772 84.894C509.102 85.0964 509.458 85.1626 509.839 85.0927ZM525.463 73.4667L527.297 83.4819L525.469 83.8169L519.957 78.3115L519.883 78.325L521.038 84.6285L518.921 85.0163L517.086 75.0012L518.944 74.6608L524.421 80.1675L524.509 80.1514L523.355 73.8528L525.463 73.4667Z" fill="#171923"/>
<path d="M183.451 189.113L375.305 159.113V17.7471L329.171 0.771484L139 30.7715V172.137L183.451 189.113Z" fill="#F1A558"/>
<path d="M375.305 17.7471L183.451 47.7471M139 30.7715V172.137L183.451 189.113L375.305 159.113V17.7471L329.171 0.771484L139 30.7715ZM183.451 47.7471V189.113M183.451 47.7471L139 30.7715" stroke="#5C3A18" stroke-width="1.5"/>
<defs>
<linearGradient id="paint0_linear_2093_786" x1="631.25" y1="100.521" x2="791.25" y2="240.521" gradientUnits="userSpaceOnUse">
<stop stop-color="#6B737D"/>
<stop offset="1" stop-color="#4F575F"/>
</linearGradient>
<linearGradient id="paint1_linear_2093_786" x1="11.25" y1="60.5215" x2="711.25" y2="200.521" gradientUnits="userSpaceOnUse">
<stop stop-color="#C8CDD4"/>
<stop offset="0.45" stop-color="#A8B0BA"/>
<stop offset="1" stop-color="#8E96A1"/>
</linearGradient>
<linearGradient id="paint2_linear_2093_786" x1="-8.75" y1="200.521" x2="631.25" y2="260.521" gradientUnits="userSpaceOnUse">
<stop stop-color="#7A828C"/>
<stop offset="1" stop-color="#5E666F"/>
</linearGradient>
<linearGradient id="paint3_linear_2093_786" x1="-8.75001" y1="200.521" x2="631.25" y2="260.521" gradientUnits="userSpaceOnUse">
<stop stop-color="#7A828C"/>
<stop offset="1" stop-color="#5E666F"/>
</linearGradient>
</defs>
</svg>