<svg width="763" height="208" viewBox="0 0 763 208" fill="none" xmlns="http://www.w3.org/2000/svg">
<path d="M551.25 1.37842L761.25 81.3784V126.378L551.25 46.3784V1.37842Z" fill="url(#paint0_linear_2093_787)" stroke="#3E4650" stroke-width="2.5" stroke-linejoin="round"/>
<path d="M1.25 81.3784L551.25 1.37842L761.25 81.3784L211.25 161.378L1.25 81.3784Z" fill="url(#paint1_linear_2093_787)" stroke="#3E4650" stroke-width="2.5" stroke-linejoin="round"/>
<path d="M1.25 81.3784L211.25 161.378V206.378L1.25 126.378V81.3784Z" fill="url(#paint2_linear_2093_787)" stroke="#3E4650" stroke-width="2.5" stroke-linejoin="round"/>
<path d="M211.25 161.378L761.25 81.3784V126.378L211.25 206.378V161.378Z" fill="url(#paint3_linear_2093_787)" stroke="#3E4650" stroke-width="2.5" stroke-linejoin="round"/>
<path d="M612.81 17.4316C611.437 6.28312 600.367 1.62842 600.367 1.62842L441.299 29.2694C441.299 29.2694 432.01 35.0029 435.361 48.2267C438.711 61.4505 445.646 64.0551 445.646 64.0551L608.505 36.4536C608.505 36.4536 614.182 28.5801 612.81 17.4316Z" fill="white"/>
<path d="M442.616 64.4975C440.334 64.889 437.188 57.6551 435.59 48.3396C433.991 39.0247 434.546 31.1553 436.827 30.7637C439.109 30.3721 442.256 37.6065 443.854 46.9214C445.453 56.2369 444.898 64.1059 442.616 64.4975Z" stroke="#9C9B9B" stroke-width="3.59788" stroke-linecap="round" stroke-linejoin="round"/>
<path d="M574.268 38.129C572.482 38.4353 570.021 32.7749 568.77 25.4854C567.519 18.1965 567.953 12.0385 569.738 11.7321C571.524 11.4256 573.986 17.0868 575.236 24.3757C576.487 31.6652 576.054 37.8225 574.268 38.129Z" fill="#EF3A50"/>
<path d="M573.676 24.377L430.685 48.9141" stroke="#565655" stroke-width="2.39859" stroke-linecap="round" stroke-linejoin="round"/>
<path d="M430.173 49.0023C429.741 46.4876 427.353 44.7983 424.838 45.2299C422.324 45.6614 420.635 48.0502 421.067 50.5649C421.498 53.0796 423.887 54.7676 426.401 54.3361" stroke="#565655" stroke-width="2.39859" stroke-linecap="round" stroke-linejoin="round"/>
<path d="M572.161 25.8525C572.034 25.8743 571.788 25.4383 571.665 24.7226C571.529 23.9318 571.629 23.5132 571.756 23.4914C571.883 23.4696 572.077 23.9802 572.189 24.6327C572.301 25.284 572.288 25.8307 572.161 25.8525Z" fill="#565655"/>
<path d="M574.267 38.1287C572.481 38.4351 570.019 32.7748 568.768 25.4853C567.517 18.1963 567.952 12.0382 569.737 11.7319" fill="#EF3A50"/>
<path d="M574.124 37.2825C572.338 37.5889 569.941 32.3074 568.77 25.486C567.599 18.6646 568.099 12.8865 569.885 12.5801" stroke="#813A50" stroke-width="1.79894" stroke-miterlimit="10" stroke-linecap="round"/>
<path d="M442.617 64.4974C440.335 64.889 437.189 57.6551 435.59 48.3396C433.992 39.0247 434.546 31.1552 436.828 30.7637" stroke="#1D1D1B" stroke-width="3.59788" stroke-linecap="round" stroke-linejoin="round"/>
<path d="M611.313 35.5483L443.957 64.2665" stroke="#1D1D1B" stroke-width="3.59788" stroke-linecap="round" stroke-linejoin="round"/>
<path d="M628.641 16.1382L613.561 18.7259" stroke="black" stroke-width="0.68"/>
<path d="M632.536 10.1257C629.628 10.6248 627.674 13.387 628.173 16.2959C628.673 19.2043 631.435 21.1578 634.344 20.6587C637.252 20.1596 639.205 17.3968 638.706 14.4885C638.207 11.5795 635.445 9.62667 632.536 10.1257Z" stroke="#F19100" stroke-width="1.79894" stroke-miterlimit="10" stroke-linecap="round"/>
<path d="M600.392 6.2207C599.539 6.367 604.139 33.1717 603.286 33.318C602.434 33.4642 597.834 6.6595 596.982 6.8059C596.129 6.9522 600.729 33.7568 599.877 33.9031C599.024 34.0493 594.424 7.2447 593.572 7.3909C592.72 7.5372 597.319 34.3419 596.467 34.4881C595.615 34.6344 591.015 7.8297 590.163 7.976C589.31 8.1223 593.909 34.927 593.057 35.0734C592.204 35.2196 587.605 8.4149 586.752 8.5612C585.9 8.7075 590.499 35.5122 589.647 35.6584C588.794 35.8047 584.195 9.0001 583.342 9.1464C582.489 9.2927 587.089 36.0974 586.237 36.2436C585.384 36.3899 580.785 9.5852 579.932 9.7316C579.079 9.8779 583.679 36.6825 582.826 36.8289C581.973 36.9752 577.374 10.1706 576.521 10.3169C575.668 10.4633 580.268 37.2679 579.415 37.4143" stroke="#858585" stroke-width="2.39859" stroke-linecap="round" stroke-linejoin="round"/>
<path d="M576.522 10.3169C575.67 10.4633 580.269 37.268 579.416 37.4143C579.041 37.4787 577.948 32.3348 576.757 26.567C576.206 23.9017 575.622 24.0019 573.813 24.3124" stroke="#565655" stroke-width="2.39859" stroke-linecap="round" stroke-linejoin="round"/>
<path d="M579.933 9.73145C579.08 9.87775 583.679 36.6824 582.827 36.8287" stroke="#565655" stroke-width="2.39859" stroke-linecap="round" stroke-linejoin="round"/>
<path d="M607.215 5.05029C606.362 5.19659 610.962 32.0012 610.109 32.1476C609.257 32.2938 604.657 5.48919 603.805 5.63549C602.952 5.78179 607.552 32.5864 606.7 32.7327C605.847 32.879 601.247 6.07439 600.394 6.22069C599.542 6.36699 604.142 33.1716 603.289 33.318C602.436 33.4642 597.837 6.65959 596.985 6.80579C596.132 6.95219 600.731 33.7568 599.879 33.9032C599.026 34.0495 594.426 7.24479 593.574 7.39119C592.721 7.53749 597.32 34.3421 596.467 34.4885" stroke="#858585" stroke-width="2.39859" stroke-linecap="round" stroke-linejoin="round"/>
<path d="M583.343 9.14648C582.49 9.29288 587.09 36.0975 586.237 36.2437" stroke="#565655" stroke-width="2.39859" stroke-linecap="round" stroke-linejoin="round"/>
<path d="M586.753 8.56152C585.9 8.70772 590.5 35.5124 589.647 35.6587" stroke="#565655" stroke-width="2.39859" stroke-linecap="round" stroke-linejoin="round"/>
<path d="M590.164 7.97607C589.311 8.12247 593.911 34.9271 593.058 35.0734" stroke="#565655" stroke-width="2.39859" stroke-linecap="round" stroke-linejoin="round"/>
<path d="M593.574 7.39111C592.722 7.53741 597.322 34.342 596.469 34.4883" stroke="#565655" stroke-width="2.39859" stroke-linecap="round" stroke-linejoin="round"/>
<path d="M596.982 6.80615C596.13 6.95245 600.73 33.7571 599.877 33.9034" stroke="#565655" stroke-width="2.39859" stroke-linecap="round" stroke-linejoin="round"/>
<path d="M600.393 6.2207C599.541 6.3671 604.14 33.1717 603.288 33.318" stroke="#565655" stroke-width="2.39859" stroke-linecap="round" stroke-linejoin="round"/>
<path d="M603.804 5.63574C602.951 5.78204 607.551 32.5866 606.698 32.733" stroke="#565655" stroke-width="2.39859" stroke-linecap="round" stroke-linejoin="round"/>
<path d="M610.108 32.1482C610.961 32.0019 606.361 5.19722 607.213 5.05102C608.175 4.88592 611.386 14.0951 612.058 18.0159" stroke="#565655" stroke-width="2.39859" stroke-linecap="round" stroke-linejoin="round"/>
<path d="M605.525 1.81597C607.807 1.42427 610.953 8.65817 612.551 17.9731C614.15 27.2886 613.596 35.1574 611.313 35.5491" stroke="#1D1D1B" stroke-width="3.59788" stroke-linecap="round" stroke-linejoin="round"/>
<path d="M503.225 33.3185C502.278 25.5297 502.949 19.4234 504.953 19.0796" stroke="#FF8158" stroke-width="1.1993" stroke-linecap="round" stroke-linejoin="round"/>
<path d="M510.009 32.0757C509.076 24.3235 509.75 18.2563 511.747 17.9136" stroke="#FF8158" stroke-width="1.1993" stroke-linecap="round" stroke-linejoin="round"/>
<path d="M516.336 30.9901C515.402 23.2379 516.076 17.1707 518.073 16.8281" stroke="#FF8158" stroke-width="1.1993" stroke-linecap="round" stroke-linejoin="round"/>
<path d="M523.131 29.8242C522.197 22.072 522.871 16.0049 524.868 15.6621" stroke="#FF8158" stroke-width="1.1993" stroke-linecap="round" stroke-linejoin="round"/>
<path d="M529.468 28.8156C528.52 21.0268 529.192 14.9205 531.195 14.5767" stroke="#FF8158" stroke-width="1.1993" stroke-linecap="round" stroke-linejoin="round"/>
<path d="M536.252 27.5726C535.318 19.8204 535.992 13.7532 537.989 13.4106" stroke="#FF8158" stroke-width="1.1993" stroke-linecap="round" stroke-linejoin="round"/>
<path d="M542.576 26.4818C541.642 18.7296 542.317 12.6624 544.313 12.3198" stroke="#FF8158" stroke-width="1.1993" stroke-linecap="round" stroke-linejoin="round"/>
<path d="M549.343 25.1444C548.409 17.3922 549.083 11.325 551.08 10.9824" stroke="#FF8158" stroke-width="1.1993" stroke-linecap="round" stroke-linejoin="round"/>
<path d="M555.699 24.2352C554.765 16.483 555.439 10.4159 557.436 10.0732" stroke="#FF8158" stroke-width="1.1993" stroke-linecap="round" stroke-linejoin="round"/>
<path d="M562.025 23.1498C561.091 15.3977 561.765 9.33049 563.763 8.98779" stroke="#FF8158" stroke-width="1.1993" stroke-linecap="round" stroke-linejoin="round"/>
<path d="M568.392 22.057C567.459 14.3048 568.133 8.23772 570.13 7.89502" stroke="#FF8158" stroke-width="1.1993" stroke-linecap="round" stroke-linejoin="round"/>
<path d="M438.216 44.4741C437.268 36.6854 437.94 30.5792 439.943 30.2354" stroke="#FF8158" stroke-width="1.1993" stroke-linecap="round" stroke-linejoin="round"/>
<path d="M444.999 43.2313C444.066 35.4791 444.74 29.412 446.737 29.0693" stroke="#FF8158" stroke-width="1.1993" stroke-linecap="round" stroke-linejoin="round"/>
<path d="M451.326 42.1459C450.392 34.3937 451.067 28.3266 453.063 27.9839" stroke="#FF8158" stroke-width="1.1993" stroke-linecap="round" stroke-linejoin="round"/>
<path d="M458.121 40.9799C457.187 33.2277 457.861 27.1606 459.858 26.8179" stroke="#FF8158" stroke-width="1.1993" stroke-linecap="round" stroke-linejoin="round"/>
<path d="M464.458 39.9712C463.51 32.1824 464.182 26.0762 466.185 25.7324" stroke="#FF8158" stroke-width="1.1993" stroke-linecap="round" stroke-linejoin="round"/>
<path d="M471.242 38.728C470.308 30.9758 470.983 24.9086 472.979 24.5659" stroke="#FF8158" stroke-width="1.1993" stroke-linecap="round" stroke-linejoin="round"/>
<path d="M477.567 37.6372C476.634 29.8849 477.308 23.8178 479.305 23.4751" stroke="#FF8158" stroke-width="1.1993" stroke-linecap="round" stroke-linejoin="round"/>
<path d="M484.332 36.2998C483.398 28.5476 484.072 22.4804 486.069 22.1377" stroke="#FF8158" stroke-width="1.1993" stroke-linecap="round" stroke-linejoin="round"/>
<path d="M490.689 35.3911C489.756 27.6389 490.429 21.5718 492.427 21.229" stroke="#FF8158" stroke-width="1.1993" stroke-linecap="round" stroke-linejoin="round"/>
<path d="M497.015 34.3056C496.082 26.5535 496.756 20.4863 498.753 20.1436" stroke="#FF8158" stroke-width="1.1993" stroke-linecap="round" stroke-linejoin="round"/>
<path d="M605.524 1.81543L436.492 30.8212" stroke="#1D1D1B" stroke-width="3.59788" stroke-linecap="round" stroke-linejoin="round"/>
<path d="M564.361 30.0713L561.768 30.5164L561.691 30.066L563.882 29.6899L563.765 29.0063L564.186 29.0499L564.361 30.0713ZM565.106 34.4831L562.512 34.9282L562.414 34.3572L564.325 32.8288L564.321 32.8254C564.193 32.8764 564.055 32.9166 563.898 32.9435L562.233 33.2292L562.159 32.7949L564.752 32.3498L564.855 32.9449L562.956 34.4465L562.96 34.4498C563.088 34.3989 563.226 34.3587 563.383 34.3318L565.032 34.0488L565.106 34.4831Z" fill="#FF8158"/>
<path d="M569.874 29.7594C569.468 29.8291 569.126 29.7925 568.85 29.6536C568.577 29.5141 568.416 29.2974 568.365 28.9999C568.315 28.7063 568.394 28.4444 568.604 28.2221C568.818 27.999 569.129 27.8546 569.535 27.7849C569.941 27.7152 570.282 27.7478 570.554 27.8873C570.827 28.0269 570.988 28.2434 571.039 28.541C571.09 28.8386 571.01 29.0966 570.796 29.3197C570.586 29.542 570.28 29.6897 569.874 29.7594ZM570.637 28.61C570.581 28.2843 570.202 28.1259 569.611 28.2273C569.02 28.3288 568.711 28.6051 568.767 28.9309C568.824 29.2646 569.203 29.4191 569.798 29.317C570.389 29.2155 570.694 28.9438 570.637 28.61ZM571.808 33.3337L569.214 33.7788L569.116 33.2077L571.027 31.6793L571.022 31.676C570.894 31.7269 570.756 31.7671 570.6 31.7941L568.935 32.0797L568.86 31.6454L571.454 31.2004L571.556 31.7955L569.657 33.297L569.662 33.3005C569.79 33.2496 569.928 33.2092 570.084 33.1823L571.733 32.8994L571.808 33.3337Z" fill="#FF8158"/>
<path d="M511.642 39.6812C511.413 39.7205 511.136 39.6729 510.815 39.5416L509.772 39.1079L509.678 38.557L510.651 39.0152L510.654 39.0105C510.625 38.9617 510.601 38.8954 510.587 38.8109C510.546 38.5737 510.594 38.3501 510.733 38.1442C510.872 37.9423 511.066 37.8179 511.315 37.7751C511.569 37.7317 511.802 37.7869 512.014 37.9408C512.228 38.0988 512.355 38.3088 512.401 38.5782C512.447 38.8476 512.397 39.084 512.247 39.296C512.097 39.508 511.896 39.6377 511.642 39.6812ZM510.976 38.8144C511.002 38.9632 511.071 39.0796 511.188 39.1548C511.305 39.2341 511.438 39.2609 511.579 39.2368C511.723 39.212 511.84 39.1423 511.924 39.0285C512.008 38.9148 512.039 38.7852 512.014 38.6364C511.988 38.4876 511.915 38.3759 511.798 38.2967C511.681 38.2174 511.548 38.1906 511.403 38.2154C511.114 38.2651 510.926 38.5209 510.976 38.8144ZM513.166 43.3964L510.572 43.8415L510.474 43.2704L512.385 41.742L512.381 41.7387C512.253 41.7896 512.115 41.8298 511.958 41.8568L510.293 42.1424L510.219 41.7081L512.812 41.2631L512.914 41.8582L511.015 43.3597L511.02 43.3631C511.148 43.3122 511.286 43.2719 511.443 43.245L513.091 42.9621L513.166 43.3964Z" fill="#FF8158"/>
<path d="M538.63 34.9096L538.248 34.9751L538.058 33.8693L537.426 33.8992C537.53 34.0013 537.595 34.1391 537.625 34.3121C537.667 34.5574 537.618 34.7769 537.481 34.9701C537.345 35.1673 537.151 35.2876 536.897 35.3311C536.652 35.3732 536.428 35.3206 536.22 35.174C536.014 35.0315 535.889 34.8335 535.847 34.5882C535.776 34.1781 535.894 33.8515 536.199 33.6045L536.494 33.8976C536.285 34.0535 536.202 34.2498 536.243 34.487C536.291 34.7645 536.519 34.9365 536.809 34.8868C537.098 34.8371 537.271 34.5881 537.217 34.2785C537.184 34.0854 537.086 33.9491 536.919 33.866L537.061 33.5353L538.381 33.4619L538.63 34.9096ZM539.304 38.9112L536.71 39.3563L536.612 38.7853L538.523 37.2569L538.519 37.2535C538.391 37.3044 538.253 37.3447 538.096 37.3716L536.431 37.6573L536.357 37.223L538.95 36.7779L539.052 37.373L537.153 38.8746L537.158 38.8779C537.286 38.827 537.424 38.7868 537.581 38.7598L539.229 38.4769L539.304 38.9112Z" fill="#FF8158"/>
<path d="M486.618 43.4122L484.024 43.8573L483.947 43.4069L486.139 43.0308L486.021 42.3472L486.443 42.3908L486.618 43.4122ZM486.977 45.2167C487.019 45.458 486.981 45.6715 486.868 45.8605C486.756 46.0495 486.609 46.1576 486.42 46.19C486.166 46.2335 485.968 46.16 485.816 45.9749C485.763 46.22 485.529 46.4257 485.235 46.476C485.014 46.514 484.81 46.458 484.627 46.3113C484.449 46.1639 484.335 45.9558 484.289 45.6904C484.206 45.2079 484.432 44.8587 484.751 44.6673L485.011 44.9995C484.751 45.1476 484.644 45.348 484.688 45.6013C484.738 45.8949 484.923 46.0536 485.192 46.0074C485.445 45.9639 485.553 45.7468 485.513 45.4431L485.482 45.2621L485.852 45.1987C485.867 45.2831 485.878 45.3474 485.889 45.391C485.953 45.6657 486.094 45.7864 486.315 45.7485C486.512 45.7147 486.615 45.519 486.574 45.2777C486.532 45.0324 486.344 44.8824 486.11 44.8439L486.234 44.4543C486.596 44.5123 486.905 44.7985 486.977 45.2167ZM487.742 50.0349L485.148 50.48L485.05 49.909L486.961 48.3805L486.957 48.3772C486.829 48.4281 486.691 48.4684 486.534 48.4953L484.869 48.7809L484.795 48.3467L487.388 47.9016L487.49 48.4967L485.591 49.9983L485.596 50.0016C485.724 49.9507 485.862 49.9104 486.019 49.8835L487.667 49.6006L487.742 50.0349Z" fill="#FF8158"/>
<path d="M460.146 47.9551L457.552 48.4002L457.475 47.9498L459.666 47.5737L459.549 46.8901L459.97 46.9337L460.146 47.9551ZM460.604 50.6285L460.244 50.7234L457.826 50.1159L457.739 49.6092L460.126 50.2511L459.921 49.0568L460.323 48.9878L460.604 50.6285ZM461.263 54.5385L458.669 54.9836L458.571 54.4126L460.482 52.8841L460.478 52.8808C460.35 52.9317 460.212 52.972 460.055 52.9989L458.39 53.2846L458.316 52.8503L460.909 52.4052L461.011 53.0003L459.112 54.5019L459.117 54.5052C459.245 54.4543 459.383 54.414 459.54 54.3871L461.188 54.1042L461.263 54.5385Z" fill="#FF8158"/>
<path d="M551.608 31.8503C551.65 32.0916 551.612 32.3051 551.499 32.4941C551.387 32.6831 551.24 32.7912 551.051 32.8236C550.798 32.8671 550.599 32.7935 550.447 32.6085C550.394 32.8535 550.16 33.0593 549.866 33.1097C549.645 33.1476 549.441 33.0915 549.259 32.9448C549.08 32.7975 548.966 32.5894 548.92 32.324C548.837 31.8415 549.063 31.4923 549.382 31.3009L549.642 31.633C549.382 31.7812 549.275 31.9816 549.319 32.2349C549.369 32.5284 549.554 32.6872 549.823 32.641C550.077 32.5975 550.184 32.3803 550.144 32.0767L550.113 31.8957L550.483 31.8322C550.498 31.9167 550.509 31.981 550.521 32.0246C550.584 32.2993 550.725 32.42 550.946 32.382C551.143 32.3482 551.246 32.1525 551.205 31.9113C551.163 31.666 550.976 31.516 550.741 31.4775L550.865 31.0879C551.227 31.1458 551.537 31.4321 551.608 31.8503ZM552.373 36.6685L549.779 37.1136L549.681 36.5426L551.592 35.0141L551.588 35.0108C551.46 35.0617 551.322 35.102 551.165 35.1289L549.5 35.4146L549.426 34.9803L552.019 34.5352L552.121 35.1303L550.222 36.6319L550.227 36.6352C550.355 36.5843 550.493 36.544 550.65 36.5171L552.299 36.2342L552.373 36.6685Z" fill="#FF8158"/>
<path d="M499.687 41.1695L497.093 41.6145L497.016 41.1642L499.207 40.7881L499.09 40.1045L499.511 40.1481L499.687 41.1695ZM500.066 43.3804L497.472 43.8254L497.395 43.3751L499.587 42.999L499.469 42.3154L499.891 42.359L500.066 43.3804ZM500.811 47.7921L498.217 48.2372L498.119 47.6662L500.03 46.1378L500.025 46.1344C499.898 46.1854 499.76 46.2256 499.603 46.2525L497.938 46.5382L497.863 46.1039L500.457 45.6588L500.559 46.254L498.66 47.7555L498.665 47.7588C498.793 47.7079 498.931 47.6677 499.088 47.6408L500.736 47.3578L500.811 47.7921Z" fill="#FF8158"/>
<path d="M525.57 37.2047L525.209 37.2996L522.791 36.6921L522.704 36.1854L525.091 36.8273L524.886 35.633L525.288 35.564L525.57 37.2047ZM526.228 41.1148L523.634 41.5598L523.536 40.9888L525.447 39.4604L525.443 39.4571C525.315 39.508 525.177 39.5482 525.02 39.5751L523.355 39.8608L523.281 39.4265L525.874 38.9814L525.977 39.5766L524.077 41.0781L524.082 41.0814C524.21 41.0305 524.348 40.9903 524.505 40.9634L526.154 40.6805L526.228 41.1148Z" fill="#FF8158"/>
<path d="M473.55 45.6548L470.956 46.0999L470.879 45.6495L473.071 45.2734L472.953 44.5898L473.375 44.6334L473.55 45.6548ZM474 48.2759L473.618 48.3414L473.428 47.2356L472.796 47.2655C472.9 47.3676 472.965 47.5054 472.995 47.6784C473.037 47.9237 472.988 48.1432 472.851 48.3364C472.715 48.5336 472.521 48.6539 472.267 48.6974C472.022 48.7395 471.798 48.6869 471.59 48.5403C471.384 48.3978 471.259 48.1998 471.217 47.9545C471.146 47.5444 471.264 47.2178 471.569 46.9708L471.864 47.2639C471.655 47.4198 471.572 47.6161 471.613 47.8533C471.661 48.1308 471.889 48.3028 472.179 48.2531C472.468 48.2034 472.641 47.9544 472.587 47.6448C472.554 47.4517 472.456 47.3154 472.289 47.2323L472.431 46.9016L473.751 46.8282L474 48.2759ZM474.674 52.2775L472.08 52.7226L471.982 52.1516L473.893 50.6231L473.889 50.6199C473.761 50.6708 473.623 50.711 473.466 50.7379L471.801 51.0235L471.727 50.5892L474.32 50.1442L474.422 50.7393L472.523 52.2409L472.528 52.2442C472.656 52.1933 472.794 52.153 472.951 52.1261L474.6 51.8432L474.674 52.2775Z" fill="#FF8158"/>
<path d="M447.075 50.1978L444.481 50.6428L444.404 50.1925L446.596 49.8164L446.478 49.1328L446.9 49.1764L447.075 50.1978ZM446.676 53.1053C446.446 53.1446 446.169 53.097 445.849 52.9657L444.805 52.532L444.711 51.9811L445.684 52.4393L445.687 52.4346C445.658 52.3857 445.634 52.3195 445.62 52.235C445.579 51.9978 445.628 51.7742 445.766 51.5683C445.905 51.3664 446.099 51.242 446.349 51.1992C446.602 51.1558 446.835 51.211 447.048 51.3649C447.261 51.5228 447.388 51.7329 447.434 52.0023C447.481 52.2717 447.43 52.508 447.28 52.7201C447.13 52.9321 446.929 53.0618 446.676 53.1053ZM446.009 52.2385C446.035 52.3873 446.105 52.5037 446.221 52.5789C446.338 52.6582 446.471 52.685 446.612 52.6609C446.757 52.636 446.873 52.5664 446.957 52.4526C447.041 52.3389 447.072 52.2093 447.047 52.0605C447.021 51.9117 446.948 51.8 446.831 51.7208C446.714 51.6415 446.581 51.6146 446.436 51.6395C446.147 51.6892 445.959 51.945 446.009 52.2385ZM448.199 56.8204L445.605 57.2655L445.507 56.6945L447.418 55.1661L447.414 55.1627C447.286 55.2137 447.148 55.2539 446.991 55.2808L445.326 55.5665L445.252 55.1322L447.845 54.6871L447.947 55.2823L446.048 56.7838L446.053 56.7871C446.181 56.7362 446.319 56.696 446.476 56.6691L448.124 56.3862L448.199 56.8204Z" fill="#FF8158"/>
<path d="M557.974 30.7536C558.017 31.0069 557.981 31.2325 557.861 31.4269C557.742 31.6213 557.571 31.7375 557.35 31.7755C557.137 31.8121 556.922 31.7661 556.713 31.6363C556.575 31.5525 556.449 31.4706 556.339 31.3859L555.691 30.8886L555.884 32.0146L555.482 32.0836L555.189 30.3786L555.581 30.2989C556.007 30.6316 556.307 30.8575 556.476 30.9774C556.632 31.0874 556.776 31.1786 556.912 31.2504C557.036 31.3202 557.163 31.3397 557.291 31.3136C557.488 31.2758 557.616 31.08 557.569 30.8106C557.527 30.5653 557.341 30.3985 557.101 30.3735L557.22 29.9805C557.594 30.0364 557.902 30.3354 557.974 30.7536ZM558.739 35.5758L556.145 36.0209L556.047 35.4499L557.958 33.9215L557.954 33.9181C557.826 33.9691 557.688 34.0093 557.531 34.0362L555.866 34.3219L555.792 33.8876L558.385 33.4425L558.487 34.0376L556.588 35.5392L556.593 35.5425C556.721 35.4916 556.859 35.4514 557.016 35.4245L558.664 35.1415L558.739 35.5758Z" fill="#FF8158"/>
<path d="M506.055 40.0771L503.461 40.5222L503.384 40.0718L505.575 39.6958L505.458 39.0122L505.879 39.0557L506.055 40.0771ZM505.245 43.1255C504.839 43.1952 504.497 43.1586 504.221 43.0197C503.948 42.8802 503.787 42.6636 503.736 42.366C503.686 42.0725 503.765 41.8105 503.975 41.5882C504.189 41.3651 504.5 41.2208 504.906 41.1511C505.312 41.0814 505.653 41.1139 505.925 41.2535C506.198 41.393 506.359 41.6096 506.41 41.9072C506.461 42.2047 506.381 42.4627 506.167 42.6857C505.957 42.9081 505.651 43.0558 505.245 43.1255ZM506.008 41.9762C505.952 41.6505 505.573 41.492 504.982 41.5934C504.391 41.6948 504.082 41.9713 504.138 42.297C504.195 42.6308 504.574 42.7853 505.169 42.6831C505.76 42.5817 506.065 42.3099 506.008 41.9762ZM507.179 46.6998L504.585 47.1449L504.487 46.5739L506.398 45.0455L506.393 45.0421C506.266 45.093 506.128 45.1333 505.971 45.1602L504.306 45.4459L504.231 45.0116L506.825 44.5665L506.927 45.1616L505.028 46.6632L505.033 46.6665C505.161 46.6156 505.299 46.5754 505.456 46.5484L507.104 46.2655L507.179 46.6998Z" fill="#FF8158"/>
<path d="M531.877 35.7737L530.905 35.3156L530.901 35.3203C530.93 35.3691 530.954 35.4354 530.969 35.5198C531.009 35.7571 530.961 35.9807 530.821 36.1826C530.683 36.3885 530.489 36.5129 530.24 36.5557C529.986 36.5991 529.753 36.5439 529.54 36.3859C529.327 36.232 529.2 36.022 529.154 35.7526C529.108 35.4831 529.158 35.2428 529.307 35.0308C529.457 34.8188 529.659 34.693 529.913 34.6496C530.142 34.6102 530.419 34.6579 530.74 34.7891L531.783 35.2228L531.877 35.7737ZM530.579 35.5163C530.553 35.3675 530.48 35.2519 530.363 35.1726C530.246 35.0974 530.117 35.0698 529.976 35.094C529.832 35.1188 529.715 35.1885 529.631 35.3022C529.547 35.416 529.516 35.5456 529.541 35.6944C529.567 35.8432 529.64 35.9548 529.757 36.0341C529.874 36.1133 530.007 36.1402 530.152 36.1154C530.441 36.0657 530.629 35.8099 530.579 35.5163ZM532.601 40.0609L530.007 40.5059L529.909 39.9349L531.82 38.4065L531.815 38.4032C531.687 38.4541 531.549 38.4943 531.393 38.5212L529.728 38.8069L529.653 38.3726L532.247 37.9276L532.349 38.5227L530.45 40.0242L530.455 40.0276C530.583 39.9766 530.72 39.9364 530.877 39.9095L532.526 39.6266L532.601 40.0609Z" fill="#FF8158"/>
<path d="M479.916 44.5626L477.322 45.0076L477.245 44.5573L479.436 44.1812L479.319 43.4976L479.741 43.5412L479.916 44.5626ZM480.341 46.9684L478.785 47.2355L478.847 47.5974L478.445 47.6664L478.383 47.3045L477.735 47.4156L477.659 46.9732L478.307 46.8621L478.116 45.7523L478.526 45.6571L480.233 46.3411L480.341 46.9684ZM479.895 46.5896L478.588 46.0854L478.709 46.7931L479.895 46.5896ZM481.04 51.1852L478.446 51.6303L478.348 51.0593L480.259 49.5309L480.255 49.5275C480.127 49.5785 479.989 49.6187 479.832 49.6456L478.167 49.9313L478.093 49.497L480.686 49.0519L480.788 49.6471L478.889 51.1486L478.894 51.1519C479.022 51.101 479.16 51.0608 479.317 51.0339L480.965 50.7509L481.04 51.1852Z" fill="#FF8158"/>
<path d="M453.442 49.105L450.848 49.5501L450.771 49.0997L452.962 48.7236L452.845 48.04L453.267 48.0836L453.442 49.105ZM453.244 51.858C453.039 51.8932 452.855 51.8377 452.702 51.6942C452.6 51.9643 452.4 52.127 452.106 52.1773C451.861 52.2194 451.649 52.1648 451.462 52.0147C451.274 51.8647 451.161 51.6607 451.116 51.3993C451.071 51.1379 451.109 50.9037 451.236 50.6998C451.362 50.496 451.544 50.3737 451.79 50.3316C452.091 50.2798 452.333 50.3625 452.507 50.581C452.601 50.4035 452.756 50.2941 452.969 50.2575C453.166 50.2237 453.344 50.2718 453.508 50.4052C453.675 50.5379 453.776 50.7151 453.814 50.9363C453.852 51.1575 453.816 51.3582 453.702 51.5392C453.592 51.7195 453.441 51.8242 453.244 51.858ZM453.039 50.6885C452.834 50.7237 452.707 50.8987 452.744 51.1198C452.781 51.333 452.96 51.4596 453.165 51.4244C453.362 51.3905 453.483 51.2042 453.448 50.9991C453.413 50.794 453.236 50.6547 453.039 50.6885ZM451.865 50.7739C451.741 50.7953 451.64 50.8582 451.567 50.9658C451.495 51.0735 451.47 51.1977 451.494 51.3344C451.517 51.4671 451.58 51.5721 451.685 51.6495C451.789 51.7268 451.906 51.7564 452.03 51.735C452.288 51.6908 452.458 51.4506 452.411 51.1771C452.364 50.9037 452.123 50.7298 451.865 50.7739ZM454.566 55.7277L451.972 56.1728L451.874 55.6017L453.785 54.0733L453.781 54.07C453.653 54.1209 453.515 54.1611 453.358 54.1881L451.693 54.4737L451.619 54.0394L454.212 53.5944L454.314 54.1895L452.415 55.691L452.42 55.6944C452.548 55.6435 452.686 55.6032 452.843 55.5763L454.491 55.2934L454.566 55.7277Z" fill="#FF8158"/>
<path d="M545.307 33.5442L543.75 33.8113L543.812 34.1732L543.41 34.2422L543.348 33.8803L542.701 33.9914L542.625 33.549L543.272 33.4379L543.082 32.3281L543.492 32.2329L545.199 32.9169L545.307 33.5442ZM544.861 33.1654L543.553 32.6612L543.674 33.3689L544.861 33.1654ZM546.005 37.7611L543.412 38.2061L543.314 37.6351L545.225 36.1067L545.22 36.1034C545.092 36.1543 544.954 36.1945 544.797 36.2214L543.132 36.5071L543.058 36.0728L545.652 35.6277L545.754 36.2229L543.855 37.7244L543.859 37.7278C543.987 37.6768 544.125 37.6366 544.282 37.6097L545.931 37.3268L546.005 37.7611Z" fill="#FF8158"/>
<path d="M493.319 42.2623L490.725 42.7074L490.648 42.257L492.84 41.8809L492.722 41.1973L493.144 41.2409L493.319 42.2623ZM493.678 44.0628C493.721 44.3162 493.685 44.5417 493.566 44.7361C493.446 44.9305 493.275 45.0467 493.054 45.0847C492.841 45.1213 492.626 45.0753 492.418 44.9455C492.279 44.8617 492.153 44.7798 492.043 44.6951L491.395 44.1978L491.588 45.3238L491.186 45.3928L490.894 43.6878L491.286 43.6081C491.711 43.9408 492.011 44.1667 492.18 44.2866C492.336 44.3966 492.48 44.4878 492.616 44.5596C492.74 44.6294 492.868 44.6489 492.996 44.6228C493.192 44.585 493.32 44.3892 493.274 44.1198C493.231 43.8745 493.046 43.7077 492.805 43.6827L492.924 43.2897C493.298 43.3456 493.606 43.6446 493.678 44.0628ZM494.443 48.885L491.849 49.3301L491.751 48.7591L493.662 47.2306L493.658 47.2273C493.53 47.2782 493.392 47.3185 493.235 47.3454L491.57 47.631L491.496 47.1968L494.089 46.7517L494.192 47.3468L492.293 48.8484L492.297 48.8517C492.425 48.8008 492.563 48.7605 492.72 48.7336L494.369 48.4507L494.443 48.885Z" fill="#FF8158"/>
<path d="M518.21 38.4337C518.005 38.4689 517.822 38.4134 517.669 38.2699C517.566 38.5401 517.366 38.7027 517.073 38.7531C516.828 38.7951 516.615 38.7405 516.428 38.5905C516.241 38.4404 516.127 38.2364 516.082 37.975C516.038 37.7137 516.076 37.4794 516.203 37.2755C516.329 37.0717 516.511 36.9494 516.756 36.9073C517.058 36.8556 517.3 36.9382 517.474 37.1567C517.567 36.9792 517.723 36.8698 517.936 36.8332C518.133 36.7994 518.311 36.8475 518.474 36.9809C518.642 37.1136 518.743 37.2908 518.781 37.512C518.819 37.7332 518.783 37.9339 518.669 38.1149C518.559 38.2952 518.407 38.3999 518.21 38.4337ZM518.005 37.2642C517.8 37.2994 517.673 37.4744 517.711 37.6956C517.748 37.9087 517.927 38.0353 518.132 38.0001C518.329 37.9663 518.45 37.7799 518.415 37.5748C518.38 37.3697 518.202 37.2304 518.005 37.2642ZM516.832 37.3496C516.707 37.371 516.606 37.4339 516.534 37.5416C516.461 37.6492 516.437 37.7734 516.46 37.9102C516.483 38.0429 516.547 38.1479 516.651 38.2252C516.755 38.3025 516.872 38.3321 516.997 38.3107C517.254 38.2666 517.424 38.0263 517.377 37.7528C517.33 37.4794 517.089 37.3055 516.832 37.3496ZM519.533 42.3034L516.939 42.7485L516.841 42.1775L518.752 40.6491L518.747 40.6457C518.619 40.6967 518.481 40.7369 518.324 40.7638L516.66 41.0495L516.585 40.6152L519.179 40.1701L519.281 40.7653L517.382 42.2668L517.387 42.2701C517.514 42.2192 517.652 42.179 517.809 42.1521L519.458 41.8691L519.533 42.3034Z" fill="#FF8158"/>
<path d="M466.847 46.8047L464.253 47.2498L464.176 46.7994L466.367 46.4233L466.25 45.7397L466.672 45.7833L466.847 46.8047ZM467.248 49.1404L466.275 48.6821L466.272 48.6868C466.301 48.7357 466.324 48.8019 466.339 48.8864C466.38 49.1236 466.331 49.3472 466.192 49.5491C466.053 49.755 465.859 49.8794 465.61 49.9222C465.357 49.9657 465.124 49.9104 464.91 49.7525C464.698 49.5986 464.571 49.3885 464.524 49.1191C464.478 48.8497 464.528 48.6093 464.678 48.3973C464.828 48.1853 465.03 48.0596 465.283 48.0161C465.512 47.9768 465.789 48.0244 466.11 48.1557L467.153 48.5894L467.248 49.1404ZM465.949 48.8829C465.924 48.7341 465.85 48.6184 465.733 48.5392C465.616 48.4639 465.488 48.4364 465.347 48.4605C465.202 48.4854 465.086 48.555 465.002 48.6688C464.918 48.7825 464.886 48.9121 464.912 49.0609C464.937 49.2097 465.01 49.3215 465.127 49.4007C465.244 49.48 465.377 49.5068 465.522 49.4819C465.812 49.4322 466 49.1764 465.949 48.8829ZM467.971 53.4274L465.377 53.8725L465.279 53.3015L467.19 51.773L467.186 51.7697C467.058 51.8206 466.92 51.8609 466.763 51.8878L465.098 52.1734L465.024 51.7393L467.617 51.2941L467.719 51.8892L465.82 53.3908L465.825 53.3941C465.953 53.3432 466.091 53.3029 466.248 53.276L467.896 52.9931L467.971 53.4274Z" fill="#FF8158"/>
<path d="M441.692 50.7072C441.736 50.9606 441.7 51.1861 441.58 51.3805C441.46 51.575 441.29 51.6911 441.069 51.7291C440.856 51.7657 440.641 51.7197 440.432 51.5899C440.294 51.5061 440.168 51.4242 440.058 51.3395L439.41 50.8423L439.603 51.9682L439.201 52.0372L438.908 50.3322L439.3 50.2525C439.726 50.5852 440.025 50.8111 440.195 50.9311C440.35 51.041 440.494 51.1322 440.631 51.204C440.755 51.2738 440.882 51.2933 441.01 51.2672C441.207 51.2294 441.334 51.0336 441.288 50.7642C441.246 50.5189 441.06 50.3521 440.82 50.3271L440.939 49.9341C441.313 49.99 441.621 50.289 441.692 50.7072ZM440.903 54.166C440.497 54.2357 440.155 54.1991 439.879 54.0602C439.607 53.9207 439.445 53.7041 439.394 53.4065C439.344 53.113 439.423 52.851 439.633 52.6286C439.848 52.4056 440.158 52.2612 440.564 52.1915C440.971 52.1219 441.311 52.1544 441.584 52.294C441.856 52.4335 442.017 52.6501 442.069 52.9477C442.12 53.2452 442.04 53.5032 441.825 53.7262C441.615 53.9486 441.309 54.0963 440.903 54.166ZM441.666 53.0167C441.61 52.6909 441.231 52.5324 440.64 52.6339C440.049 52.7353 439.741 53.0118 439.797 53.3375C439.854 53.6713 440.232 53.8258 440.827 53.7236C441.418 53.6222 441.724 53.3504 441.666 53.0167ZM442.837 57.7403L440.243 58.1854L440.145 57.6144L442.056 56.0859L442.052 56.0826C441.924 56.1335 441.786 56.1738 441.629 56.2007L439.964 56.4864L439.89 56.0521L442.483 55.607L442.586 56.2021L440.686 57.7037L440.691 57.707C440.819 57.6561 440.957 57.6158 441.114 57.5889L442.763 57.306L442.837 57.7403Z" fill="#FF8158"/>
<path d="M560.372 48.8058L513.042 56.7957C508.685 57.5312 505.749 61.6591 506.485 66.0158L508.482 77.8483C509.218 82.2054 513.346 85.1404 517.702 84.4054L565.033 76.4151C569.389 75.6797 572.325 71.5517 571.589 67.1951L569.592 55.3625C568.857 51.0058 564.729 48.0703 560.372 48.8058Z" fill="white" stroke="#E8EAEF"/>
<path d="M533.161 71.7053C532.319 71.8561 531.557 71.7817 530.876 71.482C530.197 71.1817 529.624 70.6718 529.155 69.9523C528.69 69.2323 528.358 68.3242 528.161 67.2282C527.961 66.1361 527.952 65.1757 528.133 64.3472C528.319 63.5181 528.676 62.8478 529.206 62.3363C529.738 61.821 530.423 61.4866 531.261 61.3331C532.099 61.1797 532.856 61.2498 533.533 61.5436C534.214 61.8368 534.788 62.3383 535.255 63.0479C535.721 63.7544 536.052 64.6539 536.249 65.7467C536.45 66.8454 536.459 67.8142 536.276 68.653C536.096 69.4913 535.742 70.1711 535.214 70.6924C534.686 71.2136 534.002 71.5513 533.161 71.7053ZM532.839 69.9497C533.413 69.8446 533.818 69.4722 534.055 68.8325C534.291 68.1927 534.302 67.2961 534.088 66.1426C533.949 65.383 533.755 64.7648 533.505 64.2882C533.26 63.8109 532.972 63.4711 532.641 63.2688C532.315 63.0658 531.96 62.9993 531.579 63.0692C531.008 63.1737 530.604 63.5425 530.366 64.1758C530.129 64.809 530.112 65.6948 530.317 66.8332C530.458 67.6026 530.653 68.2308 530.9 68.7179C531.15 69.201 531.441 69.5454 531.772 69.751C532.102 69.9534 532.458 70.0196 532.839 69.9497ZM548.463 58.3239L550.297 68.3391L548.468 68.6741L542.957 63.1686L542.883 63.1821L544.038 69.4856L541.92 69.8734L540.086 59.8582L541.944 59.5179L547.421 65.0247L547.509 65.0086L546.355 58.7099L548.463 58.3239Z" fill="#171923"/>
<path d="M421.5 49.6284L395 56.1284" stroke="black"/>
<path d="M408.25 113.378L217.75 143.378L112 100.378V46.6284L301.75 16.6284L408.25 59.6284V113.378Z" fill="#F1A558"/>
<path d="M112 46.6284L301.75 16.6284L408.25 59.6284V113.378L217.75 143.378L112 100.378V46.6284ZM217.75 143.378V89.6284M217.75 89.6284L408.25 59.6284M217.75 89.6284L112 46.6284" stroke="#5C3A18" stroke-width="1.5"/>
<defs>
<linearGradient id="paint0_linear_2093_787" x1="631.25" y1="41.3784" x2="791.25" y2="181.378" gradientUnits="userSpaceOnUse">
<stop stop-color="#6B737D"/>
<stop offset="1" stop-color="#4F575F"/>
</linearGradient>
<linearGradient id="paint1_linear_2093_787" x1="11.25" y1="1.37843" x2="711.25" y2="141.378" gradientUnits="userSpaceOnUse">
<stop stop-color="#C8CDD4"/>
<stop offset="0.45" stop-color="#A8B0BA"/>
<stop offset="1" stop-color="#8E96A1"/>
</linearGradient>
<linearGradient id="paint2_linear_2093_787" x1="-8.75" y1="141.378" x2="631.25" y2="201.378" gradientUnits="userSpaceOnUse">
<stop stop-color="#7A828C"/>
<stop offset="1" stop-color="#5E666F"/>
</linearGradient>
<linearGradient id="paint3_linear_2093_787" x1="-8.75001" y1="141.378" x2="631.25" y2="201.378" gradientUnits="userSpaceOnUse">
<stop stop-color="#7A828C"/>
<stop offset="1" stop-color="#5E666F"/>
</linearGradient>
</defs>
</svg>
