<svg width="768" height="224" viewBox="0 0 768 224" fill="none" xmlns="http://www.w3.org/2000/svg">
<path d="M556.25 16.7734L766.25 96.7734V141.773L556.25 61.7734V16.7734Z" fill="url(#paint0_linear_2105_1728)" stroke="#3E4650" stroke-width="2.5" stroke-linejoin="round"/>
<path d="M6.25 96.7734L556.25 16.7734L766.25 96.7734L216.25 176.773L6.25 96.7734Z" fill="url(#paint1_linear_2105_1728)" stroke="#3E4650" stroke-width="2.5" stroke-linejoin="round"/>
<path d="M6.25 96.7734L216.25 176.773V221.773L6.25 141.773V96.7734Z" fill="url(#paint2_linear_2105_1728)" stroke="#3E4650" stroke-width="2.5" stroke-linejoin="round"/>
<path d="M216.25 176.773L766.25 96.7734V141.773L216.25 221.773V176.773Z" fill="url(#paint3_linear_2105_1728)" stroke="#3E4650" stroke-width="2.5" stroke-linejoin="round"/>
<path d="M655.5 97.5234L465 127.523L359.25 84.5234V30.7734L549 0.773438L655.5 43.7734V97.5234Z" fill="#F1A558"/>
<path d="M465 127.523L655.5 97.5234V43.7734L549 0.773438L359.25 30.7734V84.5234L465 127.523ZM359.25 30.7734L465 73.7734M655.5 43.7734L465 73.7734M465 127.523V73.7734" stroke="#5C3A18" stroke-width="1.5"/>
<path d="M404.75 79.7734L378.25 86.2734" stroke="black"/>
<path d="M404.75 79.7734L364.604 87.5095" stroke="black"/>
<path d="M28.695 146.947C30.068 158.095 41.1391 162.749 41.1391 162.749L200.206 135.1C200.206 135.1 209.494 129.366 206.143 116.143C202.791 102.919 195.857 100.315 195.857 100.315L32.9987 127.925C32.9987 127.925 27.322 135.798 28.695 146.947Z" fill="white"/>
<path d="M198.886 99.8722C201.168 99.4805 204.314 106.714 205.913 116.03C207.512 125.344 206.958 133.214 204.676 133.606C202.394 133.997 199.248 126.763 197.649 117.448C196.05 108.133 196.604 100.264 198.886 99.8722Z" stroke="#9C9B9B" stroke-width="3.59788" stroke-linecap="round" stroke-linejoin="round"/>
<path d="M214.234 99.7994C216.019 99.4929 218.481 105.153 219.732 112.443C220.984 119.732 220.55 125.889 218.765 126.196C216.979 126.503 214.517 120.842 213.266 113.553C212.014 106.263 212.448 100.106 214.234 99.7994Z" fill="#EF3A50"/>
<path d="M214.826 113.551L357.816 89.0069" stroke="#565655" stroke-width="2.39859" stroke-linecap="round" stroke-linejoin="round"/>
<path d="M358.328 88.918C358.759 91.4327 361.147 93.1218 363.662 92.6902C366.177 92.2585 367.865 89.8696 367.434 87.3549C367.002 84.8402 364.614 83.1523 362.099 83.584" stroke="#565655" stroke-width="2.39859" stroke-linecap="round" stroke-linejoin="round"/>
<path d="M216.342 112.075C216.469 112.053 216.715 112.489 216.838 113.205C216.973 113.996 216.874 114.414 216.747 114.436C216.62 114.458 216.426 113.947 216.314 113.295C216.202 112.643 216.215 112.097 216.342 112.075Z" fill="#565655"/>
<path d="M214.234 99.7992C216.019 99.4927 218.482 105.153 219.733 112.442C220.984 119.731 220.55 125.889 218.765 126.196" fill="#EF3A50"/>
<path d="M214.379 100.645C216.164 100.339 218.562 105.62 219.733 112.442C220.904 119.263 220.405 125.041 218.619 125.348" stroke="#813A50" stroke-width="1.79894" stroke-miterlimit="10" stroke-linecap="round"/>
<path d="M198.886 99.8721C201.168 99.4804 204.315 106.714 205.914 116.03C207.513 125.344 206.958 133.214 204.677 133.605" stroke="#1D1D1B" stroke-width="3.59788" stroke-linecap="round" stroke-linejoin="round"/>
<path d="M30.1914 128.83L197.547 100.103" stroke="#1D1D1B" stroke-width="3.59788" stroke-linecap="round" stroke-linejoin="round"/>
<path d="M12.8652 148.241L27.9447 145.652" stroke="black" stroke-width="0.68"/>
<path d="M8.96957 154.253C11.8779 153.754 13.8313 150.992 13.332 148.083C12.8328 145.174 10.0699 143.221 7.16159 143.72C4.25325 144.22 2.29991 146.982 2.79913 149.891C3.29845 152.8 6.06123 154.752 8.96957 154.253Z" stroke="#F19100" stroke-width="1.79894" stroke-miterlimit="10" stroke-linecap="round"/>
<path d="M44.5098 157.574C45.6711 157.374 41.0705 130.57 42.2327 130.37C43.3935 130.171 47.9946 156.976 49.1568 156.776C50.3185 156.577 45.7175 129.772 46.8788 129.573C48.0405 129.373 52.6416 156.178 53.8029 155.979C54.9646 155.779 50.3636 128.975 51.5253 128.775C52.6866 128.576 57.2876 155.38 58.4489 155.181C59.6111 154.982 55.0106 128.177 56.1728 127.978C57.3341 127.778 61.9351 154.583 63.0969 154.383C64.2586 154.184 59.6576 127.379 60.8189 127.18C61.9811 126.981 66.5821 153.785 67.7439 153.586C68.9061 153.386 64.305 126.582 65.4663 126.382C66.6281 126.183 71.2291 152.987 72.3913 152.788C73.5531 152.588 68.952 125.784 70.1142 125.584C71.2764 125.385 75.8775 152.189 77.0397 151.99C78.2019 151.79 73.6009 124.986 74.7631 124.787" stroke="#858585" stroke-width="2.39859" stroke-linecap="round" stroke-linejoin="round"/>
<path d="M77.04 151.99C78.2022 151.79 73.6017 124.986 74.7639 124.786C75.2749 124.699 76.4429 129.83 77.7049 135.585C78.2884 138.245 79.0839 138.108 81.5503 137.685" stroke="#565655" stroke-width="2.39859" stroke-linecap="round" stroke-linejoin="round"/>
<path d="M72.3916 152.788C73.5538 152.588 68.9528 125.784 70.1145 125.584" stroke="#565655" stroke-width="2.39859" stroke-linecap="round" stroke-linejoin="round"/>
<path d="M35.2158 159.169C36.3774 158.97 31.7764 132.165 32.9385 131.966C34.1001 131.766 38.7011 158.571 39.8627 158.371C41.0245 158.172 36.4235 131.367 37.5852 131.168C38.747 130.969 43.3484 157.773 44.5106 157.573C45.6719 157.374 41.0709 130.57 42.2331 130.37C43.3949 130.171 47.9959 156.975 49.1572 156.776C50.3194 156.576 45.7184 129.772 46.8806 129.572C48.0423 129.373 52.6434 156.177 53.8056 155.978C54.9678 155.778 50.3667 128.974 51.5289 128.775" stroke="#858585" stroke-width="2.39859" stroke-linecap="round" stroke-linejoin="round"/>
<path d="M67.7441 153.585C68.9063 153.386 64.3053 126.582 65.4666 126.382" stroke="#565655" stroke-width="2.39859" stroke-linecap="round" stroke-linejoin="round"/>
<path d="M63.0977 154.383C64.2594 154.183 59.6584 127.379 60.8201 127.18" stroke="#565655" stroke-width="2.39859" stroke-linecap="round" stroke-linejoin="round"/>
<path d="M58.4502 155.181C59.6124 154.981 55.0114 128.177 56.1731 127.977" stroke="#565655" stroke-width="2.39859" stroke-linecap="round" stroke-linejoin="round"/>
<path d="M53.8037 155.979C54.965 155.779 50.364 128.975 51.5257 128.775" stroke="#565655" stroke-width="2.39859" stroke-linecap="round" stroke-linejoin="round"/>
<path d="M49.1572 156.776C50.319 156.576 45.718 129.772 46.8797 129.573" stroke="#565655" stroke-width="2.39859" stroke-linecap="round" stroke-linejoin="round"/>
<path d="M44.5098 157.574C45.672 157.374 41.0709 130.57 42.2327 130.37" stroke="#565655" stroke-width="2.39859" stroke-linecap="round" stroke-linejoin="round"/>
<path d="M39.8623 158.371C41.0241 158.172 36.423 131.367 37.5852 131.168" stroke="#565655" stroke-width="2.39859" stroke-linecap="round" stroke-linejoin="round"/>
<path d="M32.9385 131.965C31.7764 132.164 36.3774 158.969 35.2158 159.168C33.9049 159.393 30.1197 150.283 29.4467 146.362" stroke="#565655" stroke-width="2.39859" stroke-linecap="round" stroke-linejoin="round"/>
<path d="M35.9809 162.562C33.6985 162.954 30.5524 155.72 28.9535 146.405C27.3545 137.09 27.9082 129.221 30.1906 128.829" stroke="#1D1D1B" stroke-width="3.59788" stroke-linecap="round" stroke-linejoin="round"/>
<path d="M138.28 131.055C139.227 138.843 138.556 144.95 136.553 145.293" stroke="#FF8158" stroke-width="1.1993" stroke-linecap="round" stroke-linejoin="round"/>
<path d="M131.495 132.298C132.429 140.05 131.755 146.117 129.758 146.46" stroke="#FF8158" stroke-width="1.1993" stroke-linecap="round" stroke-linejoin="round"/>
<path d="M125.168 133.383C126.102 141.135 125.428 147.203 123.432 147.545" stroke="#FF8158" stroke-width="1.1993" stroke-linecap="round" stroke-linejoin="round"/>
<path d="M118.373 134.55C119.307 142.302 118.634 148.369 116.637 148.712" stroke="#FF8158" stroke-width="1.1993" stroke-linecap="round" stroke-linejoin="round"/>
<path d="M112.037 135.559C112.985 143.348 112.314 149.454 110.311 149.798" stroke="#FF8158" stroke-width="1.1993" stroke-linecap="round" stroke-linejoin="round"/>
<path d="M105.252 136.802C106.186 144.554 105.512 150.622 103.516 150.964" stroke="#FF8158" stroke-width="1.1993" stroke-linecap="round" stroke-linejoin="round"/>
<path d="M98.9271 137.893C99.8611 145.645 99.1873 151.712 97.1904 152.055" stroke="#FF8158" stroke-width="1.1993" stroke-linecap="round" stroke-linejoin="round"/>
<path d="M92.1615 139.231C93.0954 146.983 92.4217 153.05 90.4248 153.393" stroke="#FF8158" stroke-width="1.1993" stroke-linecap="round" stroke-linejoin="round"/>
<path d="M85.805 140.14C86.739 147.892 86.0656 153.959 84.0684 154.302" stroke="#FF8158" stroke-width="1.1993" stroke-linecap="round" stroke-linejoin="round"/>
<path d="M79.4788 141.226C80.4131 148.978 79.7394 155.045 77.7422 155.388" stroke="#FF8158" stroke-width="1.1993" stroke-linecap="round" stroke-linejoin="round"/>
<path d="M73.1117 142.319C74.0459 150.071 73.3722 156.138 71.375 156.481" stroke="#FF8158" stroke-width="1.1993" stroke-linecap="round" stroke-linejoin="round"/>
<path d="M203.289 119.895C204.237 127.684 203.566 133.79 201.562 134.134" stroke="#FF8158" stroke-width="1.1993" stroke-linecap="round" stroke-linejoin="round"/>
<path d="M196.504 121.139C197.438 128.891 196.764 134.958 194.767 135.301" stroke="#FF8158" stroke-width="1.1993" stroke-linecap="round" stroke-linejoin="round"/>
<path d="M190.177 122.225C191.111 129.977 190.437 136.044 188.44 136.387" stroke="#FF8158" stroke-width="1.1993" stroke-linecap="round" stroke-linejoin="round"/>
<path d="M183.383 123.391C184.317 131.143 183.644 137.21 181.646 137.553" stroke="#FF8158" stroke-width="1.1993" stroke-linecap="round" stroke-linejoin="round"/>
<path d="M177.047 124.4C177.995 132.188 177.324 138.295 175.32 138.639" stroke="#FF8158" stroke-width="1.1993" stroke-linecap="round" stroke-linejoin="round"/>
<path d="M170.261 125.643C171.195 133.395 170.521 139.462 168.524 139.805" stroke="#FF8158" stroke-width="1.1993" stroke-linecap="round" stroke-linejoin="round"/>
<path d="M163.936 126.734C164.87 134.487 164.196 140.554 162.199 140.896" stroke="#FF8158" stroke-width="1.1993" stroke-linecap="round" stroke-linejoin="round"/>
<path d="M157.17 128.072C158.104 135.824 157.43 141.892 155.434 142.234" stroke="#FF8158" stroke-width="1.1993" stroke-linecap="round" stroke-linejoin="round"/>
<path d="M150.814 128.981C151.748 136.734 151.074 142.801 149.077 143.144" stroke="#FF8158" stroke-width="1.1993" stroke-linecap="round" stroke-linejoin="round"/>
<path d="M144.488 130.067C145.422 137.819 144.748 143.887 142.751 144.229" stroke="#FF8158" stroke-width="1.1993" stroke-linecap="round" stroke-linejoin="round"/>
<path d="M35.9814 162.562L205.012 133.548" stroke="#1D1D1B" stroke-width="3.59788" stroke-linecap="round" stroke-linejoin="round"/>
<path d="M77.1423 134.305L79.7359 133.859L79.8132 134.31L77.6217 134.686L77.739 135.369L77.3176 135.326L77.1423 134.305ZM76.3974 129.893L78.9911 129.448L79.0891 130.019L77.1781 131.547L77.1828 131.55C77.3107 131.499 77.4487 131.459 77.6055 131.432L79.2703 131.147L79.3448 131.581L76.7512 132.026L76.649 131.431L78.548 129.929L78.5433 129.926C78.4154 129.977 78.2775 130.017 78.1206 130.044L76.4719 130.327L76.3974 129.893Z" fill="#FF8158"/>
<path d="M71.6299 134.617C72.0361 134.548 72.3776 134.584 72.654 134.723C72.9263 134.862 73.0877 135.079 73.1388 135.377C73.1892 135.67 73.1099 135.932 72.8997 136.154C72.6855 136.378 72.375 136.522 71.9688 136.592C71.5627 136.661 71.2218 136.629 70.9495 136.489C70.6771 136.35 70.5158 136.133 70.4647 135.836C70.4136 135.538 70.4935 135.28 70.7077 135.057C70.918 134.835 71.2238 134.687 71.6299 134.617ZM70.8668 135.767C70.9227 136.092 71.3018 136.251 71.8929 136.149C72.484 136.048 72.7926 135.771 72.7367 135.446C72.6794 135.112 72.301 134.957 71.7058 135.06C71.1147 135.161 70.8095 135.433 70.8668 135.767ZM69.6958 131.043L72.2895 130.598L72.3875 131.169L70.4766 132.697L70.4813 132.701C70.6091 132.65 70.7471 132.609 70.9039 132.583L72.5687 132.297L72.6433 132.731L70.0496 133.176L69.9474 132.581L71.8465 131.079L71.8417 131.076C71.7139 131.127 71.5759 131.167 71.4191 131.194L69.7704 131.477L69.6958 131.043Z" fill="#FF8158"/>
<path d="M129.861 124.692C130.09 124.653 130.368 124.7 130.688 124.832L131.731 125.265L131.826 125.816L130.853 125.358L130.85 125.363C130.879 125.412 130.903 125.478 130.917 125.562C130.958 125.8 130.909 126.023 130.771 126.229C130.632 126.431 130.438 126.555 130.188 126.598C129.935 126.642 129.702 126.587 129.489 126.433C129.276 126.275 129.149 126.065 129.103 125.795C129.056 125.526 129.107 125.29 129.257 125.077C129.407 124.865 129.608 124.736 129.861 124.692ZM130.527 125.559C130.502 125.41 130.432 125.294 130.316 125.219C130.199 125.139 130.066 125.112 129.925 125.137C129.78 125.161 129.664 125.231 129.58 125.345C129.496 125.459 129.464 125.588 129.49 125.737C129.516 125.886 129.589 125.998 129.706 126.077C129.823 126.156 129.956 126.183 130.1 126.158C130.39 126.108 130.578 125.853 130.527 125.559ZM128.338 120.977L130.931 120.532L131.029 121.103L129.118 122.631L129.123 122.635C129.251 122.584 129.389 122.544 129.546 122.517L131.211 122.231L131.285 122.665L128.691 123.11L128.589 122.515L130.488 121.014L130.484 121.01C130.356 121.061 130.218 121.101 130.061 121.128L128.412 121.411L128.338 120.977Z" fill="#FF8158"/>
<path d="M102.874 129.465L103.256 129.399L103.446 130.505L104.078 130.475C103.974 130.373 103.909 130.235 103.879 130.062C103.837 129.817 103.886 129.597 104.023 129.404C104.159 129.207 104.353 129.087 104.607 129.043C104.852 129.001 105.076 129.054 105.283 129.2C105.49 129.343 105.615 129.541 105.657 129.786C105.728 130.196 105.61 130.523 105.304 130.77L105.01 130.477C105.219 130.321 105.301 130.125 105.261 129.887C105.213 129.61 104.985 129.438 104.695 129.488C104.406 129.537 104.233 129.786 104.286 130.096C104.319 130.289 104.417 130.425 104.585 130.508L104.443 130.839L103.122 130.913L102.874 129.465ZM102.2 125.463L104.793 125.018L104.891 125.589L102.98 127.118L102.985 127.121C103.113 127.07 103.251 127.03 103.408 127.003L105.072 126.717L105.147 127.151L102.553 127.597L102.451 127.001L104.35 125.5L104.345 125.496C104.218 125.547 104.08 125.588 103.923 125.615L102.274 125.898L102.2 125.463Z" fill="#FF8158"/>
<path d="M154.885 120.96L157.479 120.515L157.556 120.965L155.364 121.341L155.482 122.025L155.06 121.981L154.885 120.96ZM154.525 119.155C154.484 118.914 154.522 118.701 154.634 118.512C154.747 118.322 154.894 118.214 155.083 118.182C155.336 118.139 155.535 118.212 155.687 118.397C155.74 118.152 155.974 117.946 156.267 117.896C156.488 117.858 156.693 117.914 156.875 118.061C157.054 118.208 157.168 118.416 157.214 118.681C157.296 119.164 157.071 119.513 156.752 119.705L156.492 119.372C156.752 119.224 156.858 119.024 156.815 118.771C156.764 118.477 156.58 118.318 156.311 118.365C156.057 118.408 155.95 118.625 155.989 118.929L156.02 119.11L155.65 119.173C155.636 119.089 155.625 119.025 155.613 118.981C155.55 118.706 155.409 118.586 155.188 118.624C154.991 118.657 154.888 118.853 154.929 119.094C154.971 119.34 155.158 119.49 155.393 119.528L155.269 119.918C154.907 119.86 154.597 119.573 154.525 119.155ZM153.76 114.337L156.354 113.892L156.452 114.463L154.541 115.991L154.546 115.995C154.674 115.944 154.812 115.904 154.969 115.877L156.633 115.591L156.708 116.025L154.114 116.47L154.012 115.875L155.911 114.374L155.906 114.37C155.779 114.421 155.641 114.462 155.484 114.488L153.835 114.771L153.76 114.337Z" fill="#FF8158"/>
<path d="M181.358 116.415L183.952 115.97L184.029 116.421L181.838 116.797L181.955 117.48L181.533 117.437L181.358 116.415ZM180.899 113.742L181.26 113.647L183.678 114.254L183.765 114.761L181.378 114.119L181.583 115.314L181.181 115.383L180.899 113.742ZM180.24 109.832L182.834 109.387L182.932 109.958L181.021 111.486L181.026 111.49C181.154 111.439 181.292 111.398 181.449 111.372L183.113 111.086L183.188 111.52L180.594 111.965L180.492 111.37L182.391 109.869L182.386 109.865C182.258 109.916 182.121 109.956 181.964 109.983L180.315 110.266L180.24 109.832Z" fill="#FF8158"/>
<path d="M89.8965 132.525C89.855 132.284 89.8929 132.07 90.0054 131.881C90.1178 131.692 90.2648 131.584 90.4538 131.552C90.7072 131.508 90.9061 131.582 91.0579 131.767C91.111 131.522 91.3448 131.316 91.6383 131.265C91.8595 131.228 92.0637 131.284 92.2462 131.43C92.4246 131.578 92.539 131.786 92.5846 132.051C92.6674 132.534 92.4417 132.883 92.1227 133.074L91.8628 132.742C92.123 132.594 92.2294 132.394 92.1859 132.14C92.1355 131.847 91.9509 131.688 91.6815 131.734C91.4282 131.778 91.3206 131.995 91.3603 132.298L91.3914 132.479L91.0214 132.543C91.0069 132.458 90.9959 132.394 90.9843 132.351C90.9205 132.076 90.7798 131.955 90.5586 131.993C90.3616 132.027 90.2585 132.223 90.3 132.464C90.3421 132.709 90.5293 132.859 90.7635 132.898L90.64 133.287C90.2782 133.229 89.9682 132.943 89.8965 132.525ZM89.1315 127.707L91.7252 127.262L91.8232 127.833L89.9122 129.361L89.9169 129.364C90.0448 129.313 90.1828 129.273 90.3396 129.246L92.0044 128.961L92.0789 129.395L89.4853 129.84L89.3831 129.245L91.2821 127.743L91.2774 127.74C91.1495 127.791 91.0116 127.831 90.8547 127.858L89.206 128.141L89.1315 127.707Z" fill="#FF8158"/>
<path d="M141.816 123.203L144.41 122.758L144.487 123.208L142.296 123.584L142.413 124.268L141.991 124.224L141.816 123.203ZM141.437 120.992L144.03 120.547L144.108 120.997L141.916 121.373L142.033 122.057L141.612 122.013L141.437 120.992ZM140.692 116.58L143.285 116.135L143.383 116.706L141.472 118.235L141.477 118.238C141.605 118.187 141.743 118.147 141.9 118.12L143.565 117.834L143.639 118.268L141.045 118.714L140.943 118.118L142.842 116.617L142.838 116.614C142.71 116.664 142.572 116.705 142.415 116.732L140.766 117.015L140.692 116.58Z" fill="#FF8158"/>
<path d="M115.934 127.169L116.295 127.074L118.713 127.682L118.8 128.188L116.413 127.547L116.618 128.741L116.216 128.81L115.934 127.169ZM115.275 123.259L117.869 122.814L117.967 123.385L116.056 124.914L116.061 124.917C116.189 124.866 116.327 124.826 116.484 124.799L118.148 124.513L118.223 124.947L115.629 125.393L115.527 124.798L117.426 123.296L117.421 123.293C117.293 123.343 117.156 123.384 116.999 123.411L115.35 123.694L115.275 123.259Z" fill="#FF8158"/>
<path d="M167.954 118.716L170.547 118.271L170.625 118.721L168.433 119.097L168.551 119.781L168.129 119.738L167.954 118.716ZM167.504 116.095L167.886 116.03L168.076 117.135L168.708 117.105C168.604 117.003 168.539 116.865 168.509 116.693C168.467 116.447 168.516 116.228 168.653 116.035C168.788 115.837 168.983 115.717 169.236 115.673C169.482 115.631 169.706 115.684 169.913 115.831C170.12 115.973 170.245 116.171 170.287 116.416C170.357 116.826 170.24 117.153 169.934 117.4L169.64 117.107C169.849 116.951 169.931 116.755 169.89 116.517C169.843 116.24 169.615 116.068 169.325 116.118C169.036 116.167 168.863 116.416 168.916 116.726C168.949 116.919 169.047 117.055 169.215 117.139L169.073 117.469L167.752 117.543L167.504 116.095ZM166.829 112.093L169.423 111.648L169.521 112.219L167.61 113.748L167.615 113.751C167.743 113.7 167.881 113.66 168.038 113.633L169.702 113.347L169.777 113.782L167.183 114.227L167.081 113.632L168.98 112.13L168.975 112.127C168.847 112.178 168.709 112.218 168.553 112.245L166.904 112.528L166.829 112.093Z" fill="#FF8158"/>
<path d="M194.427 114.172L197.021 113.727L197.098 114.177L194.906 114.554L195.024 115.237L194.602 115.194L194.427 114.172ZM194.826 111.265C195.055 111.225 195.333 111.273 195.653 111.404L196.696 111.838L196.791 112.389L195.818 111.931L195.815 111.935C195.844 111.984 195.868 112.05 195.882 112.135C195.923 112.372 195.874 112.596 195.736 112.802C195.596 113.004 195.403 113.128 195.153 113.171C194.9 113.214 194.667 113.159 194.454 113.005C194.241 112.847 194.114 112.637 194.067 112.368C194.021 112.098 194.072 111.862 194.222 111.65C194.371 111.438 194.573 111.308 194.826 111.265ZM195.492 112.131C195.467 111.983 195.397 111.866 195.281 111.791C195.164 111.712 195.031 111.685 194.89 111.709C194.745 111.734 194.629 111.804 194.545 111.917C194.461 112.031 194.429 112.161 194.455 112.309C194.48 112.458 194.553 112.57 194.67 112.649C194.788 112.728 194.92 112.755 195.065 112.73C195.355 112.681 195.543 112.425 195.492 112.131ZM193.302 107.55L195.896 107.104L195.994 107.675L194.083 109.204L194.088 109.207C194.216 109.156 194.354 109.116 194.511 109.089L196.175 108.803L196.25 109.238L193.656 109.683L193.554 109.088L195.453 107.586L195.448 107.583C195.321 107.634 195.183 107.674 195.026 107.701L193.377 107.984L193.302 107.55Z" fill="#FF8158"/>
<path d="M83.5302 133.622C83.4867 133.369 83.5225 133.143 83.6423 132.949C83.7621 132.754 83.9326 132.638 84.1537 132.6C84.3669 132.563 84.5817 132.609 84.7903 132.739C84.9289 132.823 85.0547 132.905 85.1644 132.99L85.8128 133.487L85.6195 132.361L86.0216 132.292L86.3143 133.997L85.9223 134.076C85.4968 133.744 85.1972 133.518 85.0276 133.398C84.8721 133.288 84.7281 133.197 84.5916 133.125C84.4678 133.055 84.3403 133.036 84.2123 133.062C84.016 133.1 83.8881 133.296 83.9344 133.565C83.9765 133.81 84.1624 133.977 84.4027 134.002L84.2838 134.395C83.91 134.339 83.602 134.04 83.5302 133.622ZM82.7646 128.8L85.3582 128.355L85.4562 128.926L83.5453 130.454L83.55 130.457C83.6779 130.406 83.8158 130.366 83.9727 130.339L85.6374 130.054L85.712 130.488L83.1183 130.933L83.0162 130.338L84.9152 128.836L84.9105 128.833C84.7826 128.884 84.6446 128.924 84.4878 128.951L82.8391 129.234L82.7646 128.8Z" fill="#FF8158"/>
<path d="M135.45 124.296L138.044 123.85L138.121 124.301L135.929 124.677L136.047 125.361L135.625 125.317L135.45 124.296ZM136.26 121.247C136.666 121.178 137.007 121.214 137.284 121.353C137.556 121.493 137.718 121.709 137.769 122.007C137.819 122.3 137.74 122.562 137.53 122.785C137.315 123.008 137.005 123.152 136.599 123.222C136.193 123.291 135.852 123.259 135.579 123.119C135.307 122.98 135.146 122.763 135.095 122.466C135.043 122.168 135.123 121.91 135.338 121.687C135.548 121.465 135.854 121.317 136.26 121.247ZM135.497 122.397C135.553 122.722 135.932 122.881 136.523 122.779C137.114 122.678 137.422 122.401 137.367 122.076C137.309 121.742 136.931 121.587 136.336 121.69C135.745 121.791 135.439 122.063 135.497 122.397ZM134.326 117.673L136.919 117.228L137.017 117.799L135.106 119.327L135.111 119.331C135.239 119.28 135.377 119.24 135.534 119.213L137.199 118.927L137.273 119.361L134.679 119.806L134.577 119.211L136.476 117.71L136.472 117.706C136.344 117.757 136.206 117.797 136.049 117.824L134.4 118.107L134.326 117.673Z" fill="#FF8158"/>
<path d="M109.625 128.6L110.598 129.058L110.602 129.053C110.573 129.005 110.549 128.938 110.534 128.854C110.494 128.617 110.542 128.393 110.681 128.191C110.82 127.985 111.014 127.861 111.263 127.818C111.516 127.775 111.749 127.83 111.963 127.988C112.175 128.142 112.303 128.352 112.349 128.621C112.395 128.89 112.345 129.131 112.195 129.343C112.045 129.555 111.844 129.681 111.59 129.724C111.361 129.763 111.084 129.716 110.763 129.585L109.72 129.151L109.625 128.6ZM110.924 128.857C110.95 129.006 111.023 129.122 111.14 129.201C111.257 129.276 111.386 129.304 111.526 129.28C111.671 129.255 111.787 129.185 111.871 129.071C111.955 128.958 111.987 128.828 111.961 128.679C111.936 128.53 111.863 128.419 111.746 128.34C111.629 128.26 111.496 128.233 111.351 128.258C111.061 128.308 110.874 128.564 110.924 128.857ZM108.902 124.313L111.496 123.868L111.594 124.439L109.683 125.967L109.687 125.971C109.815 125.92 109.953 125.879 110.11 125.852L111.775 125.567L111.849 126.001L109.256 126.446L109.154 125.851L111.053 124.349L111.048 124.346C110.92 124.397 110.782 124.437 110.625 124.464L108.977 124.747L108.902 124.313Z" fill="#FF8158"/>
<path d="M161.587 119.809L164.181 119.364L164.258 119.814L162.066 120.191L162.184 120.874L161.762 120.831L161.587 119.809ZM161.162 117.403L162.718 117.136L162.656 116.774L163.058 116.705L163.12 117.067L163.767 116.956L163.843 117.398L163.196 117.51L163.386 118.619L162.976 118.715L161.269 118.031L161.162 117.403ZM161.607 117.782L162.915 118.286L162.794 117.579L161.607 117.782ZM160.463 113.187L163.056 112.741L163.154 113.312L161.243 114.841L161.248 114.844C161.376 114.793 161.514 114.753 161.671 114.726L163.335 114.44L163.41 114.875L160.816 115.32L160.714 114.725L162.613 113.223L162.608 113.22C162.481 113.271 162.343 113.311 162.186 113.338L160.537 113.621L160.463 113.187Z" fill="#FF8158"/>
<path d="M188.06 115.265L190.654 114.82L190.731 115.27L188.539 115.646L188.657 116.33L188.235 116.286L188.06 115.265ZM188.258 112.512C188.463 112.477 188.646 112.532 188.799 112.676C188.902 112.406 189.102 112.243 189.395 112.193C189.641 112.151 189.853 112.205 190.04 112.355C190.227 112.505 190.341 112.709 190.386 112.971C190.431 113.232 190.392 113.466 190.266 113.67C190.139 113.874 189.957 113.996 189.712 114.038C189.411 114.09 189.169 114.007 188.995 113.789C188.901 113.967 188.746 114.076 188.533 114.113C188.336 114.146 188.158 114.098 187.994 113.965C187.826 113.832 187.726 113.655 187.688 113.434C187.65 113.213 187.686 113.012 187.799 112.831C187.909 112.651 188.061 112.546 188.258 112.512ZM188.463 113.682C188.668 113.646 188.795 113.471 188.757 113.25C188.721 113.037 188.542 112.91 188.337 112.946C188.14 112.98 188.018 113.166 188.054 113.371C188.089 113.576 188.266 113.715 188.463 113.682ZM189.636 113.596C189.761 113.575 189.862 113.512 189.934 113.404C190.007 113.296 190.031 113.172 190.008 113.036C189.985 112.903 189.921 112.798 189.817 112.721C189.713 112.643 189.596 112.614 189.471 112.635C189.214 112.679 189.044 112.919 189.091 113.193C189.138 113.466 189.379 113.64 189.636 113.596ZM186.936 108.642L189.529 108.197L189.627 108.768L187.716 110.297L187.721 110.3C187.849 110.249 187.987 110.209 188.144 110.182L189.808 109.896L189.883 110.331L187.289 110.776L187.187 110.181L189.086 108.679L189.081 108.676C188.954 108.727 188.816 108.767 188.659 108.794L187.01 109.077L186.936 108.642Z" fill="#FF8158"/>
<path d="M96.1972 130.831L97.7534 130.564L97.6913 130.202L98.0934 130.133L98.1555 130.495L98.8029 130.384L98.8789 130.826L98.2314 130.937L98.4219 132.047L98.0119 132.142L96.3049 131.458L96.1972 130.831ZM96.6431 131.21L97.9508 131.714L97.8293 131.006L96.6431 131.21ZM95.4982 126.614L98.0919 126.169L98.1899 126.74L96.2789 128.268L96.2837 128.272C96.4115 128.221 96.5495 128.181 96.7063 128.154L98.3711 127.868L98.4456 128.302L95.852 128.747L95.7498 128.152L97.6488 126.651L97.6441 126.647C97.5163 126.698 97.3783 126.738 97.2214 126.765L95.5728 127.048L95.4982 126.614Z" fill="#FF8158"/>
<path d="M148.184 122.11L150.777 121.665L150.855 122.115L148.663 122.492L148.78 123.175L148.359 123.132L148.184 122.11ZM147.825 120.31C147.781 120.056 147.817 119.831 147.937 119.636C148.057 119.442 148.227 119.326 148.449 119.288C148.662 119.251 148.876 119.297 149.085 119.427C149.224 119.511 149.349 119.593 149.459 119.677L150.108 120.175L149.914 119.049L150.316 118.98L150.609 120.685L150.217 120.764C149.792 120.432 149.492 120.206 149.322 120.086C149.167 119.976 149.023 119.885 148.886 119.813C148.763 119.743 148.635 119.724 148.507 119.75C148.311 119.788 148.183 119.983 148.229 120.253C148.271 120.498 148.457 120.665 148.697 120.69L148.579 121.083C148.205 121.027 147.897 120.728 147.825 120.31ZM147.059 115.488L149.653 115.042L149.751 115.613L147.84 117.142L147.845 117.145C147.973 117.094 148.111 117.054 148.267 117.027L149.932 116.741L150.007 117.176L147.413 117.621L147.311 117.026L149.21 115.524L149.205 115.521C149.077 115.572 148.939 115.612 148.783 115.639L147.134 115.922L147.059 115.488Z" fill="#FF8158"/>
<path d="M123.293 125.94C123.499 125.904 123.682 125.96 123.835 126.103C123.938 125.833 124.137 125.671 124.431 125.62C124.676 125.578 124.888 125.633 125.076 125.783C125.263 125.933 125.376 126.137 125.421 126.398C125.466 126.659 125.428 126.894 125.301 127.098C125.175 127.301 124.993 127.424 124.748 127.466C124.446 127.518 124.204 127.435 124.03 127.216C123.936 127.394 123.781 127.503 123.568 127.54C123.371 127.574 123.193 127.526 123.03 127.392C122.862 127.26 122.761 127.082 122.723 126.861C122.685 126.64 122.721 126.439 122.835 126.258C122.945 126.078 123.096 125.973 123.293 125.94ZM123.498 127.109C123.703 127.074 123.831 126.899 123.793 126.678C123.756 126.465 123.577 126.338 123.372 126.373C123.175 126.407 123.054 126.593 123.089 126.798C123.124 127.004 123.301 127.143 123.498 127.109ZM124.672 127.024C124.796 127.002 124.897 126.939 124.97 126.832C125.043 126.724 125.067 126.6 125.043 126.463C125.021 126.33 124.957 126.225 124.853 126.148C124.748 126.071 124.631 126.041 124.507 126.062C124.249 126.107 124.08 126.347 124.126 126.62C124.173 126.894 124.414 127.068 124.672 127.024ZM121.971 122.07L124.565 121.625L124.663 122.196L122.752 123.724L122.756 123.728C122.884 123.677 123.022 123.636 123.179 123.609L124.844 123.324L124.918 123.758L122.325 124.203L122.223 123.608L124.122 122.106L124.117 122.103C123.989 122.154 123.851 122.194 123.694 122.221L122.046 122.504L121.971 122.07Z" fill="#FF8158"/>
<path d="M174.656 117.566L177.25 117.121L177.327 117.571L175.135 117.947L175.253 118.631L174.831 118.587L174.656 117.566ZM174.255 115.23L175.228 115.688L175.231 115.684C175.202 115.635 175.178 115.568 175.164 115.484C175.123 115.247 175.172 115.023 175.311 114.821C175.449 114.615 175.643 114.491 175.893 114.448C176.146 114.405 176.379 114.46 176.592 114.618C176.805 114.772 176.932 114.982 176.978 115.251C177.025 115.521 176.975 115.761 176.825 115.973C176.675 116.185 176.473 116.311 176.22 116.354C175.991 116.394 175.713 116.346 175.393 116.215L174.35 115.781L174.255 115.23ZM175.554 115.488C175.579 115.636 175.653 115.752 175.77 115.831C175.886 115.906 176.015 115.934 176.156 115.91C176.301 115.885 176.417 115.815 176.501 115.702C176.585 115.588 176.617 115.458 176.591 115.309C176.565 115.161 176.492 115.049 176.375 114.97C176.258 114.89 176.125 114.864 175.981 114.888C175.691 114.938 175.503 115.194 175.554 115.488ZM173.532 110.943L176.125 110.498L176.223 111.069L174.312 112.597L174.317 112.601C174.445 112.55 174.583 112.51 174.74 112.483L176.404 112.197L176.479 112.631L173.885 113.076L173.783 112.481L175.682 110.98L175.677 110.976C175.55 111.027 175.412 111.067 175.255 111.094L173.606 111.377L173.532 110.943Z" fill="#FF8158"/>
<path d="M199.809 113.662C199.766 113.409 199.802 113.184 199.922 112.989C200.041 112.795 200.212 112.679 200.433 112.641C200.646 112.604 200.861 112.65 201.07 112.78C201.208 112.864 201.334 112.945 201.444 113.03L202.092 113.527L201.899 112.401L202.301 112.332L202.594 114.037L202.202 114.117C201.776 113.784 201.476 113.558 201.307 113.439C201.151 113.329 201.007 113.237 200.871 113.166C200.747 113.096 200.62 113.076 200.492 113.102C200.295 113.14 200.167 113.336 200.214 113.605C200.256 113.851 200.442 114.018 200.682 114.043L200.563 114.436C200.189 114.38 199.881 114.081 199.809 113.662ZM200.598 110.204C201.005 110.134 201.346 110.171 201.622 110.309C201.895 110.449 202.056 110.665 202.107 110.963C202.158 111.257 202.078 111.519 201.868 111.741C201.654 111.964 201.343 112.108 200.937 112.178C200.531 112.248 200.19 112.215 199.918 112.076C199.646 111.936 199.484 111.72 199.433 111.422C199.382 111.124 199.462 110.867 199.676 110.643C199.886 110.421 200.192 110.273 200.598 110.204ZM199.835 111.353C199.891 111.679 200.27 111.837 200.861 111.736C201.453 111.634 201.761 111.358 201.705 111.032C201.648 110.698 201.269 110.544 200.674 110.646C200.083 110.747 199.778 111.019 199.835 111.353ZM198.664 106.629L201.258 106.184L201.356 106.755L199.445 108.284L199.45 108.287C199.578 108.236 199.716 108.196 199.872 108.169L201.537 107.883L201.612 108.318L199.018 108.763L198.916 108.168L200.815 106.666L200.81 106.663C200.682 106.714 200.544 106.754 200.388 106.781L198.739 107.064L198.664 106.629Z" fill="#FF8158"/>
<defs>
<linearGradient id="paint0_linear_2105_1728" x1="636.25" y1="56.7734" x2="796.25" y2="196.773" gradientUnits="userSpaceOnUse">
<stop stop-color="#7A828C"/>
<stop offset="1" stop-color="#454C54"/>
</linearGradient>
<linearGradient id="paint1_linear_2105_1728" x1="16.25" y1="16.7734" x2="716.25" y2="156.773" gradientUnits="userSpaceOnUse">
<stop stop-color="#D5DAE0"/>
<stop offset="0.35" stop-color="#ADB5BF"/>
<stop offset="0.7" stop-color="#8E96A1"/>
<stop offset="1" stop-color="#6F7782"/>
</linearGradient>
<linearGradient id="paint2_linear_2105_1728" x1="-3.75" y1="156.773" x2="636.25" y2="216.773" gradientUnits="userSpaceOnUse">
<stop stop-color="#6B737D"/>
<stop offset="1" stop-color="#3E4650"/>
</linearGradient>
<linearGradient id="paint3_linear_2105_1728" x1="-3.75001" y1="156.773" x2="636.25" y2="216.773" gradientUnits="userSpaceOnUse">
<stop stop-color="#747C86"/>
<stop offset="1" stop-color="#454C54"/>
</linearGradient>
</defs>
</svg>