<svg width="763" height="208" viewBox="0 0 763 208" fill="none" xmlns="http://www.w3.org/2000/svg">
<path d="M551.25 1.25L761.25 81.25V126.25L551.25 46.25V1.25Z" fill="url(#paint0_linear_2079_269)" stroke="#3E4650" stroke-width="2.5" stroke-linejoin="round"/>
<path d="M1.25 81.25L551.25 1.25L761.25 81.25L211.25 161.25L1.25 81.25Z" fill="url(#paint1_linear_2079_269)" stroke="#3E4650" stroke-width="2.5" stroke-linejoin="round"/>
<path d="M1.25 81.25L211.25 161.25V206.25L1.25 126.25V81.25Z" fill="url(#paint2_linear_2079_269)" stroke="#3E4650" stroke-width="2.5" stroke-linejoin="round"/>
<path d="M211.25 161.25L761.25 81.25V126.25L211.25 206.25V161.25Z" fill="url(#paint3_linear_2079_269)" stroke="#3E4650" stroke-width="2.5" stroke-linejoin="round"/>
<path d="M369.25 72.25L347.25 76.25" stroke="black"/>
<path d="M318.48 54.8096L365.912 81.7913L366.082 106.991L318.649 80.009L318.48 54.8096Z" fill="url(#paint4_linear_2079_269)" stroke="#5C3A18" stroke-width="2.31" stroke-linejoin="round"/>
<path d="M140.168 83.3091L318.48 54.8096L365.913 81.7913L187.6 110.291L140.168 83.3091Z" fill="url(#paint5_linear_2079_269)" stroke="#5C3A18" stroke-width="2.31" stroke-linejoin="round"/>
<path d="M140.168 83.3091L187.6 110.291L187.77 135.49L140.337 108.509L140.168 83.3091Z" fill="url(#paint6_linear_2079_269)" stroke="#5C3A18" stroke-width="2.31" stroke-linejoin="round"/>
<path d="M187.6 110.291L365.912 81.7913L366.082 106.991L187.769 135.49L187.6 110.291Z" fill="url(#paint7_linear_2079_269)" stroke="#5C3A18" stroke-width="2.31" stroke-linejoin="round"/>
<g opacity="0.28">
<path d="M161.181 85.2678C203.124 76.5856 255.58 69.9328 302.787 63.3153" stroke="#8B5A2B" stroke-width="1.365" stroke-linecap="round"/>
<path d="M169.637 93.6111C213.68 84.9148 264.036 78.2761 313.343 71.6444" stroke="#8B5A2B" stroke-width="1.365" stroke-linecap="round"/>
<path d="M178.094 101.955C224.236 93.2442 272.493 86.6196 323.899 79.9738" stroke="#8B5A2B" stroke-width="1.365" stroke-linecap="round"/>
</g>
<g opacity="0.35">
<path d="M346.918 94.85C352.421 93.021 354.806 85.2928 352.245 77.5886C349.685 69.8844 343.148 65.1217 337.645 66.9507C332.142 68.7797 329.756 76.5079 332.317 84.2121C334.878 91.9163 341.415 96.6791 346.918 94.85Z" stroke="#6B4018" stroke-width="1.26"/>
<path d="M344.93 88.8716C347.682 87.9571 348.726 83.6469 347.263 79.2445C345.8 74.8421 342.383 72.0146 339.631 72.9291C336.88 73.8436 335.836 78.1538 337.299 82.5562C338.762 86.9586 342.179 89.7861 344.93 88.8716Z" stroke="#6B4018" stroke-width="1.26"/>
</g>
<path d="M601.444 31.0773C600.071 19.9289 589 15.2747 589 15.2747L429.933 42.9238C429.933 42.9238 420.645 48.6578 423.996 61.8815C427.348 75.1051 434.282 77.7093 434.282 77.7093L597.14 50.0994C597.14 50.0994 602.817 42.2257 601.444 31.0773Z" fill="white"/>
<path d="M431.253 78.1517C428.971 78.5434 425.824 71.3097 424.225 61.9943C422.626 52.6795 423.181 44.81 425.462 44.4183C427.744 44.0266 430.891 51.2608 432.49 60.5757C434.089 69.8911 433.535 77.76 431.253 78.1517Z" stroke="#9C9B9B" stroke-width="3.59788" stroke-linecap="round" stroke-linejoin="round"/>
<path d="M523.48 58.5434C521.694 58.8499 519.232 53.1896 517.981 45.9001C516.73 38.6113 517.163 32.4533 518.949 32.1468C520.735 31.8402 523.196 37.5012 524.448 44.7901C525.699 52.0796 525.266 58.2368 523.48 58.5434Z" fill="#EF3A50"/>
<path d="M522.887 44.7917L379.898 69.3361" stroke="#565655" stroke-width="2.39859" stroke-linecap="round" stroke-linejoin="round"/>
<path d="M379.386 69.4245C378.954 66.9098 376.566 65.2207 374.051 65.6524C371.536 66.084 369.848 68.4729 370.28 70.9876C370.711 73.5023 373.1 75.1902 375.614 74.7586" stroke="#565655" stroke-width="2.39859" stroke-linecap="round" stroke-linejoin="round"/>
<path d="M521.372 46.2676C521.245 46.2894 520.999 45.8534 520.876 45.1377C520.74 44.3469 520.84 43.9283 520.967 43.9065C521.094 43.8847 521.288 44.3953 521.4 45.0478C521.512 45.6991 521.499 46.2458 521.372 46.2676Z" fill="#565655"/>
<path d="M523.48 58.5433C521.694 58.8498 519.231 53.1896 517.98 45.9002C516.729 38.6113 517.163 32.4532 518.949 32.1467" fill="#EF3A50"/>
<path d="M523.335 57.6973C521.549 58.0038 519.152 52.7224 517.981 45.9011C516.81 39.0797 517.309 33.3016 519.095 32.9951" stroke="#813A50" stroke-width="1.79894" stroke-miterlimit="10" stroke-linecap="round"/>
<path d="M431.253 78.1519C428.971 78.5435 425.824 71.3098 424.225 61.9944C422.627 52.6796 423.181 44.8101 425.462 44.4185" stroke="#1D1D1B" stroke-width="3.59788" stroke-linecap="round" stroke-linejoin="round"/>
<path d="M599.948 49.1941L432.593 77.9209" stroke="#1D1D1B" stroke-width="3.59788" stroke-linecap="round" stroke-linejoin="round"/>
<path d="M617.274 29.783L602.194 32.3714" stroke="black" stroke-width="0.68"/>
<path d="M621.17 23.7707C618.261 24.2699 616.308 27.0322 616.807 29.9411C617.306 32.8495 620.069 34.8028 622.978 34.3036C625.886 33.8043 627.839 31.0415 627.34 28.1332C626.841 25.2242 624.078 23.2715 621.17 23.7707Z" stroke="#F19100" stroke-width="1.79894" stroke-miterlimit="10" stroke-linecap="round"/>
<path d="M579.269 21.542C577.529 21.8407 582.129 48.6452 580.388 48.9441C578.649 49.2426 574.048 22.4382 572.307 22.7371C570.566 23.0359 575.167 49.8403 573.427 50.139C571.686 50.4378 567.085 23.6333 565.345 23.932C563.605 24.2308 568.206 51.0352 566.465 51.334C564.725 51.6326 560.124 24.8282 558.384 25.1269C556.643 25.4258 561.243 52.2303 559.502 52.5292C557.762 52.8279 553.161 26.0235 551.42 26.3223C549.68 26.621 554.281 53.4255 552.541 53.7241C550.8 54.023 546.199 27.2186 544.458 27.5174C542.717 27.8163 547.318 54.6207 545.578 54.9194C543.837 55.2181 539.236 28.4137 537.495 28.7126C535.754 29.0114 540.355 55.8158 538.614 56.1147C536.872 56.4136 532.271 29.6092 530.53 29.9081C528.789 30.207 533.39 57.0114 531.649 57.3103" stroke="#858585" stroke-width="2.39859" stroke-linecap="round" stroke-linejoin="round"/>
<path d="M530.531 29.908C528.789 30.2069 533.39 57.0114 531.648 57.3103C530.883 57.4417 529.576 52.3345 528.181 46.6017C527.536 43.9526 526.344 44.1572 522.649 44.7915" stroke="#565655" stroke-width="2.39859" stroke-linecap="round" stroke-linejoin="round"/>
<path d="M537.495 28.7126C535.753 29.0115 540.354 55.816 538.614 56.1147" stroke="#565655" stroke-width="2.39859" stroke-linecap="round" stroke-linejoin="round"/>
<path d="M593.195 19.1516C591.454 19.4503 596.056 46.2548 594.314 46.5536C592.574 46.8524 587.973 20.048 586.233 20.3467C584.492 20.6455 589.093 47.4499 587.352 47.7487C585.612 48.0475 581.01 21.2432 579.269 21.5421C577.529 21.8407 582.13 48.6451 580.388 48.944C578.648 49.2428 574.047 22.4384 572.307 22.7371C570.565 23.036 575.166 49.8404 573.425 50.1393C571.685 50.4381 567.084 23.6337 565.342 23.9326C563.601 24.2315 568.202 51.0359 566.461 51.3348" stroke="#858585" stroke-width="2.39859" stroke-linecap="round" stroke-linejoin="round"/>
<path d="M544.458 27.5173C542.717 27.8162 547.318 54.6206 545.578 54.9193" stroke="#565655" stroke-width="2.39859" stroke-linecap="round" stroke-linejoin="round"/>
<path d="M551.42 26.3223C549.68 26.621 554.281 53.4255 552.54 53.7242" stroke="#565655" stroke-width="2.39859" stroke-linecap="round" stroke-linejoin="round"/>
<path d="M558.384 25.127C556.642 25.4259 561.243 52.2303 559.503 52.529" stroke="#565655" stroke-width="2.39859" stroke-linecap="round" stroke-linejoin="round"/>
<path d="M565.346 23.9321C563.606 24.2308 568.207 51.0352 566.466 51.334" stroke="#565655" stroke-width="2.39859" stroke-linecap="round" stroke-linejoin="round"/>
<path d="M572.306 22.7373C570.566 23.0361 575.167 49.8405 573.426 50.1393" stroke="#565655" stroke-width="2.39859" stroke-linecap="round" stroke-linejoin="round"/>
<path d="M579.271 21.5417C577.529 21.8406 582.13 48.6451 580.39 48.9438" stroke="#565655" stroke-width="2.39859" stroke-linecap="round" stroke-linejoin="round"/>
<path d="M586.233 20.3467C584.492 20.6455 589.093 47.4499 587.352 47.7488" stroke="#565655" stroke-width="2.39859" stroke-linecap="round" stroke-linejoin="round"/>
<path d="M594.314 46.5541C596.056 46.2552 591.455 19.4508 593.195 19.1521C595.159 18.815 600.019 27.7409 600.692 31.6616" stroke="#565655" stroke-width="2.39859" stroke-linecap="round" stroke-linejoin="round"/>
<path d="M594.158 15.462C596.441 15.0702 599.587 22.3039 601.186 31.6188C602.785 40.9342 602.231 48.8031 599.949 49.1949" stroke="#1D1D1B" stroke-width="3.59788" stroke-linecap="round" stroke-linejoin="round"/>
<path d="M491.859 46.9697C490.911 39.1809 491.582 33.0746 493.586 32.7307" stroke="#FF8158" stroke-width="1.1993" stroke-linecap="round" stroke-linejoin="round"/>
<path d="M498.644 45.7264C497.71 37.9742 498.384 31.907 500.381 31.5642" stroke="#FF8158" stroke-width="1.1993" stroke-linecap="round" stroke-linejoin="round"/>
<path d="M504.971 44.6406C504.037 36.8885 504.711 30.8213 506.708 30.4785" stroke="#FF8158" stroke-width="1.1993" stroke-linecap="round" stroke-linejoin="round"/>
<path d="M511.766 43.4741C510.832 35.722 511.505 29.6548 513.502 29.312" stroke="#FF8158" stroke-width="1.1993" stroke-linecap="round" stroke-linejoin="round"/>
<path d="M518.101 42.4653C517.153 34.6765 517.825 28.5702 519.828 28.2263" stroke="#FF8158" stroke-width="1.1993" stroke-linecap="round" stroke-linejoin="round"/>
<path d="M524.887 41.2219C523.953 33.4698 524.627 27.4026 526.624 27.0598" stroke="#FF8158" stroke-width="1.1993" stroke-linecap="round" stroke-linejoin="round"/>
<path d="M531.212 40.1309C530.278 32.3787 530.952 26.3115 532.949 25.9688" stroke="#FF8158" stroke-width="1.1993" stroke-linecap="round" stroke-linejoin="round"/>
<path d="M537.978 38.793C537.044 31.0408 537.717 24.9736 539.714 24.6309" stroke="#FF8158" stroke-width="1.1993" stroke-linecap="round" stroke-linejoin="round"/>
<path d="M544.334 37.8838C543.4 30.1316 544.074 24.0645 546.071 23.7217" stroke="#FF8158" stroke-width="1.1993" stroke-linecap="round" stroke-linejoin="round"/>
<path d="M550.66 36.7978C549.726 29.0458 550.4 22.9786 552.397 22.6357" stroke="#FF8158" stroke-width="1.1993" stroke-linecap="round" stroke-linejoin="round"/>
<path d="M557.027 35.7051C556.093 27.953 556.766 21.8858 558.764 21.543" stroke="#FF8158" stroke-width="1.1993" stroke-linecap="round" stroke-linejoin="round"/>
<path d="M426.85 58.1286C425.902 50.3399 426.573 44.2336 428.577 43.8896" stroke="#FF8158" stroke-width="1.1993" stroke-linecap="round" stroke-linejoin="round"/>
<path d="M433.635 56.8853C432.701 49.1332 433.375 43.066 435.372 42.7231" stroke="#FF8158" stroke-width="1.1993" stroke-linecap="round" stroke-linejoin="round"/>
<path d="M439.962 55.7996C439.028 48.0474 439.701 41.9802 441.698 41.6375" stroke="#FF8158" stroke-width="1.1993" stroke-linecap="round" stroke-linejoin="round"/>
<path d="M446.756 54.6333C445.822 46.8811 446.495 40.814 448.493 40.4712" stroke="#FF8158" stroke-width="1.1993" stroke-linecap="round" stroke-linejoin="round"/>
<path d="M453.092 53.6242C452.144 45.8355 452.815 39.7292 454.819 39.3853" stroke="#FF8158" stroke-width="1.1993" stroke-linecap="round" stroke-linejoin="round"/>
<path d="M459.878 52.3809C458.944 44.6287 459.617 38.5615 461.614 38.2188" stroke="#FF8158" stroke-width="1.1993" stroke-linecap="round" stroke-linejoin="round"/>
<path d="M466.203 51.2898C465.269 43.5376 465.943 37.4704 467.939 37.1277" stroke="#FF8158" stroke-width="1.1993" stroke-linecap="round" stroke-linejoin="round"/>
<path d="M472.968 49.9519C472.034 42.1998 472.708 36.1326 474.705 35.7898" stroke="#FF8158" stroke-width="1.1993" stroke-linecap="round" stroke-linejoin="round"/>
<path d="M479.325 49.0427C478.391 41.2906 479.064 35.2234 481.062 34.8806" stroke="#FF8158" stroke-width="1.1993" stroke-linecap="round" stroke-linejoin="round"/>
<path d="M485.651 47.9568C484.717 40.2047 485.391 34.1375 487.388 33.7947" stroke="#FF8158" stroke-width="1.1993" stroke-linecap="round" stroke-linejoin="round"/>
<path d="M594.158 15.4614L425.127 44.4759" stroke="#1D1D1B" stroke-width="3.59788" stroke-linecap="round" stroke-linejoin="round"/>
<path d="M552.996 43.7197L550.403 44.1649L550.325 43.7145L552.517 43.3383L552.4 42.6547L552.821 42.6983L552.996 43.7197ZM553.741 48.1314L551.148 48.5766L551.05 48.0056L552.961 46.4771L552.956 46.4738C552.828 46.5247 552.69 46.565 552.533 46.5919L550.868 46.8776L550.794 46.4433L553.388 45.9981L553.49 46.5933L551.591 48.0949L551.595 48.0982C551.723 48.0473 551.861 48.0071 552.018 47.9802L553.667 47.6972L553.741 48.1314Z" fill="#FF8158"/>
<path d="M558.509 43.4067C558.103 43.4764 557.762 43.4398 557.485 43.301C557.213 43.1614 557.051 42.9449 557 42.6473C556.95 42.3538 557.029 42.0918 557.239 41.8694C557.454 41.6464 557.764 41.502 558.17 41.4323C558.576 41.3626 558.917 41.3951 559.19 41.5347C559.462 41.6742 559.623 41.8907 559.674 42.1883C559.726 42.4859 559.646 42.7438 559.431 42.9669C559.221 43.1893 558.915 43.337 558.509 43.4067ZM559.272 42.2573C559.216 41.9316 558.837 41.7732 558.246 41.8746C557.655 41.9761 557.347 42.2526 557.403 42.5783C557.46 42.9121 557.838 43.0665 558.433 42.9644C559.024 42.8629 559.33 42.5911 559.272 42.2573ZM560.443 46.981L557.85 47.4262L557.752 46.8552L559.663 45.3266L559.658 45.3233C559.53 45.3742 559.392 45.4145 559.235 45.4414L557.57 45.7272L557.496 45.2929L560.09 44.8477L560.192 45.4428L558.293 46.9444L558.297 46.9478C558.425 46.8968 558.563 46.8566 558.72 46.8297L560.369 46.5467L560.443 46.981Z" fill="#FF8158"/>
<path d="M500.277 53.3319C500.048 53.3713 499.771 53.3237 499.45 53.1924L498.407 52.7588L498.313 52.2079L499.285 52.666L499.289 52.6613C499.26 52.6124 499.236 52.5462 499.221 52.4617C499.181 52.2245 499.229 52.0009 499.368 51.7949C499.507 51.593 499.701 51.4687 499.95 51.4259C500.204 51.3824 500.437 51.4376 500.649 51.5915C500.863 51.7495 500.99 51.9595 501.036 52.2289C501.082 52.4983 501.032 52.7347 500.882 52.9467C500.732 53.1587 500.531 53.2884 500.277 53.3319ZM499.611 52.4652C499.637 52.614 499.706 52.7303 499.823 52.8056C499.94 52.8848 500.073 52.9117 500.214 52.8875C500.358 52.8627 500.475 52.793 500.559 52.6793C500.643 52.5655 500.674 52.4359 500.649 52.2871C500.623 52.1383 500.55 52.0267 500.433 51.9474C500.316 51.8682 500.183 51.8413 500.038 51.8661C499.749 51.9158 499.561 52.1716 499.611 52.4652ZM501.801 57.047L499.207 57.4922L499.109 56.9212L501.02 55.3927L501.016 55.3894C500.888 55.4403 500.75 55.4806 500.593 55.5075L498.928 55.7932L498.854 55.3589L501.447 54.9137L501.549 55.5089L499.65 57.0105L499.655 57.0138C499.783 56.9629 499.921 56.9227 500.078 56.8958L501.726 56.6128L501.801 57.047Z" fill="#FF8158"/>
<path d="M527.264 48.559L526.882 48.6246L526.692 47.5188L526.06 47.5487C526.164 47.6508 526.23 47.7887 526.259 47.9616C526.301 48.2069 526.252 48.4264 526.115 48.6196C525.98 48.8168 525.785 48.9371 525.532 48.9806C525.286 49.0227 525.062 48.9702 524.855 48.8236C524.648 48.6811 524.523 48.4831 524.481 48.2378C524.411 47.8277 524.528 47.5011 524.834 47.2541L525.128 47.5472C524.919 47.7031 524.837 47.8994 524.878 48.1366C524.925 48.4141 525.153 48.586 525.443 48.5363C525.733 48.4867 525.905 48.2376 525.852 47.928C525.819 47.735 525.721 47.5986 525.553 47.5156L525.695 47.1849L527.016 47.1114L527.264 48.559ZM527.939 52.5607L525.345 53.0059L525.247 52.4349L527.158 50.9063L527.153 50.903C527.025 50.9539 526.887 50.9942 526.731 51.0211L525.066 51.3069L524.991 50.8726L527.585 50.4274L527.687 51.0225L525.788 52.5241L525.793 52.5275C525.921 52.4765 526.059 52.4363 526.215 52.4094L527.864 52.1264L527.939 52.5607Z" fill="#FF8158"/>
<path d="M475.254 57.0644L472.66 57.5096L472.583 57.0592L474.774 56.683L474.657 55.9994L475.078 56.043L475.254 57.0644ZM475.613 58.8689C475.655 59.1102 475.617 59.3236 475.504 59.5127C475.392 59.7017 475.245 59.8097 475.056 59.8422C474.803 59.8857 474.604 59.8122 474.452 59.6271C474.399 59.8722 474.165 60.0779 473.871 60.1283C473.65 60.1662 473.446 60.1102 473.264 59.9635C473.085 59.8162 472.971 59.6081 472.925 59.3427C472.842 58.8602 473.068 58.511 473.387 58.3196L473.647 58.6517C473.387 58.7999 473.28 59.0003 473.324 59.2536C473.374 59.5471 473.559 59.7059 473.828 59.6596C474.082 59.6161 474.189 59.399 474.149 59.0953L474.118 58.9144L474.488 58.8509C474.503 58.9353 474.514 58.9996 474.525 59.0432C474.589 59.3179 474.73 59.4386 474.951 59.4006C475.148 59.3668 475.251 59.1711 475.21 58.9299C475.168 58.6846 474.98 58.5346 474.746 58.4961L474.87 58.1065C475.232 58.1644 475.541 58.4507 475.613 58.8689ZM476.378 63.687L473.785 64.1322L473.686 63.5612L475.597 62.0327L475.593 62.0293C475.465 62.0803 475.327 62.1205 475.17 62.1474L473.505 62.4332L473.431 61.9989L476.024 61.5537L476.127 62.1488L474.228 63.6505L474.232 63.6538C474.36 63.6029 474.498 63.5626 474.655 63.5357L476.304 63.2527L476.378 63.687Z" fill="#FF8158"/>
<path d="M448.781 61.6086L446.187 62.0538L446.11 61.6034L448.301 61.2272L448.184 60.5436L448.605 60.5872L448.781 61.6086ZM449.239 64.2819L448.879 64.3769L446.461 63.7695L446.374 63.2628L448.761 63.9046L448.556 62.7103L448.958 62.6413L449.239 64.2819ZM449.898 68.1919L447.305 68.6371L447.207 68.0661L449.117 66.5376L449.113 66.5343C448.985 66.5852 448.847 66.6254 448.69 66.6524L447.025 66.9381L446.951 66.5038L449.544 66.0586L449.647 66.6538L447.748 68.1554L447.752 68.1587C447.88 68.1078 448.018 68.0676 448.175 68.0406L449.824 67.7576L449.898 68.1919Z" fill="#FF8158"/>
<path d="M540.243 45.499C540.284 45.7403 540.246 45.9538 540.134 46.1428C540.021 46.3318 539.874 46.4399 539.685 46.4723C539.432 46.5158 539.233 46.4423 539.081 46.2572C539.028 46.5023 538.794 46.7081 538.501 46.7584C538.28 46.7964 538.075 46.7403 537.893 46.5937C537.715 46.4463 537.6 46.2382 537.555 45.9728C537.472 45.4903 537.697 45.1411 538.016 44.9497L538.276 45.2818C538.016 45.43 537.91 45.6304 537.953 45.8837C538.004 46.1773 538.188 46.336 538.458 46.2898C538.711 46.2463 538.819 46.0291 538.779 45.7254L538.748 45.5445L539.118 45.481C539.132 45.5654 539.143 45.6298 539.155 45.6733C539.219 45.948 539.359 46.0687 539.581 46.0308C539.778 45.9969 539.881 45.8013 539.839 45.56C539.797 45.3147 539.61 45.1647 539.376 45.1262L539.499 44.7366C539.861 44.7945 540.171 45.0808 540.243 45.499ZM541.008 50.3172L538.414 50.7624L538.316 50.1914L540.227 48.6628L540.222 48.6595C540.094 48.7104 539.956 48.7507 539.8 48.7776L538.135 49.0634L538.06 48.6291L540.654 48.1839L540.756 48.779L538.857 50.2806L538.862 50.284C538.99 50.233 539.128 50.1928 539.284 50.1659L540.933 49.8829L541.008 50.3172Z" fill="#FF8158"/>
<path d="M488.323 54.8212L485.729 55.2664L485.652 54.8161L487.843 54.4399L487.726 53.7563L488.147 53.7998L488.323 54.8212ZM488.702 57.0321L486.108 57.4773L486.031 57.0269L488.223 56.6508L488.105 55.9672L488.527 56.0107L488.702 57.0321ZM489.447 61.4439L486.853 61.8891L486.755 61.3181L488.666 59.7895L488.662 59.7862C488.534 59.8371 488.396 59.8774 488.239 59.9043L486.574 60.19L486.5 59.7558L489.093 59.3106L489.195 59.9057L487.296 61.4073L487.301 61.4107C487.429 61.3597 487.567 61.3195 487.724 61.2926L489.372 61.0096L489.447 61.4439Z" fill="#FF8158"/>
<path d="M514.204 50.8545L513.844 50.9495L511.426 50.3421L511.339 49.8354L513.726 50.4772L513.521 49.2829L513.923 49.2139L514.204 50.8545ZM514.863 54.7646L512.27 55.2098L512.172 54.6388L514.082 53.1102L514.078 53.1069C513.95 53.1578 513.812 53.1981 513.655 53.225L511.99 53.5108L511.916 53.0765L514.509 52.6313L514.612 53.2264L512.713 54.728L512.717 54.7314C512.845 54.6804 512.983 54.6402 513.14 54.6133L514.789 54.3303L514.863 54.7646Z" fill="#FF8158"/>
<path d="M462.185 59.3078L459.591 59.753L459.514 59.3026L461.705 58.9265L461.588 58.2429L462.01 58.2864L462.185 59.3078ZM462.635 61.9288L462.253 61.9944L462.063 60.8886L461.431 60.9185C461.535 61.0206 461.6 61.1585 461.63 61.3314C461.672 61.5767 461.623 61.7962 461.486 61.9894C461.35 62.1866 461.156 62.3069 460.902 62.3504C460.657 62.3925 460.433 62.34 460.225 62.1934C460.019 62.0509 459.894 61.8529 459.852 61.6076C459.781 61.1975 459.899 60.8709 460.204 60.6239L460.499 60.917C460.29 61.0729 460.207 61.2692 460.248 61.5064C460.296 61.7839 460.524 61.9558 460.814 61.9061C461.103 61.8565 461.276 61.6074 461.222 61.2978C461.189 61.1048 461.091 60.9684 460.924 60.8854L461.066 60.5547L462.386 60.4812L462.635 61.9288ZM463.309 65.9304L460.716 66.3756L460.618 65.8046L462.529 64.2761L462.524 64.2728C462.396 64.3237 462.258 64.3639 462.101 64.3909L460.436 64.6766L460.362 64.2423L462.955 63.7971L463.058 64.3923L461.159 65.8939L461.163 65.8972C461.291 65.8463 461.429 65.8061 461.586 65.7791L463.235 65.4961L463.309 65.9304Z" fill="#FF8158"/>
<path d="M435.712 63.8517L433.118 64.2969L433.041 63.8466L435.232 63.4704L435.115 62.7868L435.537 62.8303L435.712 63.8517ZM435.313 66.7593C435.083 66.7986 434.806 66.751 434.486 66.6197L433.442 66.1861L433.348 65.6352L434.321 66.0933L434.324 66.0886C434.295 66.0398 434.271 65.9735 434.257 65.8891C434.216 65.6518 434.264 65.4282 434.403 65.2223C434.542 65.0204 434.736 64.896 434.985 64.8532C435.239 64.8097 435.472 64.865 435.685 65.0189C435.898 65.1768 436.025 65.3868 436.071 65.6562C436.117 65.9257 436.067 66.162 435.917 66.374C435.767 66.586 435.566 66.7158 435.313 66.7593ZM434.646 65.8925C434.672 66.0413 434.742 66.1577 434.858 66.2329C434.975 66.3122 435.108 66.339 435.249 66.3149C435.394 66.29 435.51 66.2204 435.594 66.1066C435.678 65.9928 435.709 65.8632 435.684 65.7145C435.658 65.5657 435.585 65.454 435.468 65.3748C435.351 65.2955 435.218 65.2686 435.073 65.2935C434.784 65.3432 434.596 65.599 434.646 65.8925ZM436.836 70.4744L434.243 70.9196L434.145 70.3486L436.055 68.82L436.051 68.8167C435.923 68.8676 435.785 68.9079 435.628 68.9348L433.963 69.2205L433.889 68.7863L436.482 68.3411L436.585 68.9362L434.686 70.4378L434.69 70.4412C434.818 70.3902 434.956 70.35 435.113 70.3231L436.762 70.0401L436.836 70.4744Z" fill="#FF8158"/>
<path d="M546.609 44.402C546.652 44.6553 546.617 44.8809 546.497 45.0753C546.377 45.2698 546.207 45.3859 545.985 45.4239C545.772 45.4605 545.557 45.4146 545.349 45.2848C545.21 45.201 545.084 45.1191 544.975 45.0344L544.326 44.5372L544.52 45.6631L544.118 45.7321L543.825 44.0271L544.217 43.9474C544.642 44.2801 544.942 44.506 545.112 44.6259C545.267 44.7358 545.411 44.827 545.548 44.8988C545.671 44.9686 545.799 44.9882 545.927 44.962C546.123 44.9242 546.251 44.7284 546.205 44.459C546.163 44.2137 545.977 44.0469 545.736 44.0219L545.855 43.6289C546.229 43.6848 546.537 43.9838 546.609 44.402ZM547.375 49.2242L544.781 49.6694L544.683 49.0984L546.594 47.5699L546.589 47.5665C546.461 47.6175 546.323 47.6577 546.166 47.6846L544.502 47.9704L544.427 47.5361L547.021 47.0909L547.123 47.686L545.224 49.1877L545.229 49.191C545.357 49.1401 545.495 49.0998 545.651 49.0729L547.3 48.7899L547.375 49.2242Z" fill="#FF8158"/>
<path d="M494.69 53.7283L492.096 54.1735L492.019 53.7231L494.21 53.3469L494.093 52.6633L494.514 52.7069L494.69 53.7283ZM493.88 56.7767C493.474 56.8464 493.132 56.8098 492.856 56.671C492.583 56.5314 492.422 56.3149 492.371 56.0173C492.321 55.7238 492.4 55.4618 492.61 55.2394C492.824 55.0163 493.135 54.872 493.541 54.8023C493.947 54.7325 494.288 54.7651 494.56 54.9046C494.833 55.0442 494.994 55.2607 495.045 55.5583C495.096 55.8559 495.016 56.1138 494.802 56.3369C494.592 56.5592 494.286 56.7069 493.88 56.7767ZM494.643 55.6273C494.587 55.3016 494.208 55.1431 493.617 55.2446C493.026 55.3461 492.717 55.6226 492.773 55.9483C492.83 56.282 493.209 56.4365 493.804 56.3343C494.395 56.2329 494.7 55.9611 494.643 55.6273ZM495.814 60.3509L493.22 60.7961L493.122 60.2251L495.033 58.6966L495.029 58.6932C494.901 58.7442 494.763 58.7844 494.606 58.8113L492.941 59.0971L492.867 58.6628L495.46 58.2176L495.562 58.8127L493.663 60.3144L493.668 60.3177C493.796 60.2668 493.934 60.2265 494.091 60.1996L495.739 59.9166L495.814 60.3509Z" fill="#FF8158"/>
<path d="M520.513 49.4239L519.54 48.9658L519.537 48.9705C519.566 49.0193 519.59 49.0856 519.604 49.17C519.645 49.4073 519.597 49.6309 519.457 49.8328C519.319 50.0387 519.125 50.1631 518.876 50.2059C518.622 50.2494 518.389 50.1941 518.176 50.0362C517.963 49.8823 517.836 49.6723 517.79 49.4029C517.744 49.1334 517.793 48.8931 517.943 48.6811C518.093 48.469 518.295 48.3433 518.548 48.2998C518.778 48.2605 519.055 48.3081 519.376 48.4394L520.419 48.873L520.513 49.4239ZM519.215 49.1666C519.189 49.0178 519.115 48.9021 518.998 48.8228C518.882 48.7476 518.753 48.7201 518.612 48.7442C518.468 48.7691 518.351 48.8387 518.267 48.9525C518.183 49.0663 518.152 49.1959 518.177 49.3446C518.203 49.4934 518.276 49.6051 518.393 49.6843C518.51 49.7636 518.643 49.7905 518.788 49.7656C519.077 49.7159 519.265 49.4601 519.215 49.1666ZM521.237 53.711L518.643 54.1562L518.545 53.5852L520.456 52.0567L520.451 52.0533C520.323 52.1043 520.185 52.1445 520.029 52.1714L518.364 52.4572L518.289 52.0229L520.883 51.5777L520.985 52.1728L519.086 53.6745L519.091 53.6778C519.219 53.6269 519.357 53.5866 519.513 53.5597L521.162 53.2767L521.237 53.711Z" fill="#FF8158"/>
<path d="M468.552 58.2149L465.958 58.6601L465.881 58.2097L468.072 57.8336L467.955 57.15L468.376 57.1935L468.552 58.2149ZM468.977 60.6208L467.421 60.8879L467.483 61.2498L467.081 61.3188L467.019 60.9569L466.371 61.068L466.295 60.6257L466.943 60.5146L466.752 59.4047L467.162 59.3095L468.869 59.9934L468.977 60.6208ZM468.531 60.2419L467.223 59.7378L467.345 60.4455L468.531 60.2419ZM469.676 64.8375L467.082 65.2827L466.984 64.7117L468.895 63.1832L468.891 63.1799C468.763 63.2308 468.625 63.271 468.468 63.298L466.803 63.5837L466.729 63.1494L469.322 62.7042L469.424 63.2994L467.525 64.801L467.53 64.8043C467.658 64.7534 467.796 64.7132 467.953 64.6862L469.602 64.4032L469.676 64.8375Z" fill="#FF8158"/>
<path d="M442.079 62.7589L439.485 63.2041L439.408 62.7537L441.599 62.3775L441.482 61.6939L441.903 61.7375L442.079 62.7589ZM441.881 65.5118C441.676 65.547 441.492 65.4916 441.339 65.3481C441.237 65.6183 441.037 65.7809 440.743 65.8313C440.498 65.8734 440.286 65.8187 440.099 65.6687C439.911 65.5187 439.798 65.3147 439.753 65.0533C439.708 64.7919 439.746 64.5576 439.873 64.3538C439.999 64.1499 440.181 64.0277 440.426 63.9855C440.728 63.9338 440.97 64.0164 441.144 64.2349C441.238 64.0574 441.393 63.948 441.606 63.9114C441.803 63.8776 441.981 63.9257 442.145 64.059C442.312 64.1917 442.413 64.369 442.451 64.5901C442.489 64.8113 442.453 65.012 442.339 65.193C442.229 65.3733 442.078 65.478 441.881 65.5118ZM441.676 64.3424C441.471 64.3776 441.343 64.5526 441.381 64.7737C441.418 64.9869 441.597 65.1134 441.802 65.0782C441.999 65.0444 442.12 64.858 442.085 64.653C442.05 64.4479 441.873 64.3085 441.676 64.3424ZM440.502 64.4279C440.378 64.4493 440.277 64.5121 440.204 64.6198C440.132 64.7275 440.107 64.8517 440.131 64.9884C440.154 65.1211 440.217 65.2261 440.322 65.3034C440.426 65.3807 440.543 65.4103 440.667 65.3889C440.925 65.3448 441.095 65.1045 441.048 64.831C441.001 64.5576 440.76 64.3837 440.502 64.4279ZM443.203 69.3815L440.609 69.8267L440.511 69.2557L442.422 67.7272L442.418 67.7238C442.29 67.7748 442.152 67.815 441.995 67.8419L440.33 68.1277L440.256 67.6934L442.849 67.2482L442.952 67.8433L441.053 69.345L441.057 69.3483C441.185 69.2974 441.323 69.2571 441.48 69.2302L443.129 68.9472L443.203 69.3815Z" fill="#FF8158"/>
<path d="M533.942 47.1933L532.386 47.4604L532.448 47.8223L532.046 47.8913L531.984 47.5294L531.336 47.6405L531.26 47.1982L531.908 47.0871L531.717 45.9772L532.127 45.882L533.834 46.5659L533.942 47.1933ZM533.496 46.8144L532.188 46.3103L532.31 47.018L533.496 46.8144ZM534.641 51.4101L532.047 51.8553L531.949 51.2843L533.86 49.7557L533.856 49.7524C533.728 49.8033 533.59 49.8436 533.433 49.8705L531.768 50.1563L531.694 49.722L534.287 49.2768L534.389 49.8719L532.49 51.3735L532.495 51.3769C532.623 51.3259 532.761 51.2857 532.918 51.2588L534.566 50.9758L534.641 51.4101Z" fill="#FF8158"/>
<path d="M481.955 55.914L479.362 56.3592L479.285 55.9088L481.476 55.5326L481.359 54.849L481.78 54.8926L481.955 55.914ZM482.314 57.7145C482.358 57.9678 482.322 58.1933 482.202 58.3878C482.082 58.5822 481.912 58.6984 481.691 58.7364C481.478 58.773 481.263 58.727 481.054 58.5973C480.916 58.5134 480.79 58.4315 480.68 58.3469L480.032 57.8496L480.225 58.9756L479.823 59.0446L479.53 57.3396L479.922 57.2599C480.348 57.5925 480.647 57.8185 480.817 57.9384C480.972 58.0483 481.116 58.1395 481.253 58.2113C481.377 58.2811 481.504 58.3006 481.632 58.2745C481.828 58.2367 481.956 58.0408 481.91 57.7714C481.868 57.5261 481.682 57.3593 481.442 57.3344L481.561 56.9414C481.934 56.9973 482.242 57.2963 482.314 57.7145ZM483.08 62.5366L480.486 62.9818L480.388 62.4108L482.299 60.8823L482.294 60.879C482.167 60.9299 482.029 60.9701 481.872 60.997L480.207 61.2828L480.132 60.8485L482.726 60.4033L482.828 60.9984L480.929 62.5001L480.934 62.5034C481.062 62.4525 481.2 62.4122 481.357 62.3853L483.005 62.1023L483.08 62.5366Z" fill="#FF8158"/>
<path d="M506.846 52.0846C506.641 52.1198 506.457 52.0644 506.304 51.9209C506.202 52.1911 506.002 52.3536 505.708 52.404C505.463 52.4461 505.251 52.3915 505.064 52.2415C504.876 52.0915 504.763 51.8874 504.718 51.6261C504.673 51.3647 504.711 51.1304 504.838 50.9266C504.964 50.7227 505.146 50.6004 505.391 50.5583C505.693 50.5065 505.935 50.5892 506.109 50.8077C506.203 50.6302 506.358 50.5208 506.571 50.4842C506.768 50.4504 506.946 50.4985 507.11 50.6318C507.277 50.7645 507.378 50.9417 507.416 51.1629C507.454 51.3841 507.418 51.5848 507.304 51.7658C507.195 51.9461 507.043 52.0508 506.846 52.0846ZM506.641 50.9151C506.436 50.9503 506.308 51.1254 506.346 51.3465C506.383 51.5596 506.562 51.6862 506.767 51.651C506.964 51.6172 507.085 51.4308 507.05 51.2257C507.015 51.0206 506.838 50.8813 506.641 50.9151ZM505.467 51.0006C505.343 51.022 505.242 51.0849 505.169 51.1926C505.097 51.3003 505.072 51.4245 505.096 51.5612C505.119 51.6939 505.182 51.7989 505.287 51.8762C505.391 51.9535 505.508 51.9831 505.632 51.9617C505.89 51.9175 506.06 51.6772 506.013 51.4038C505.966 51.1304 505.725 50.9565 505.467 51.0006ZM508.168 55.9543L505.574 56.3995L505.476 55.8285L507.387 54.3L507.383 54.2966C507.255 54.3476 507.117 54.3878 506.96 54.4147L505.295 54.7005L505.221 54.2662L507.814 53.821L507.917 54.4161L506.018 55.9178L506.022 55.9211C506.15 55.8702 506.288 55.8299 506.445 55.803L508.094 55.52L508.168 55.9543Z" fill="#FF8158"/>
<path d="M455.483 60.4582L452.889 60.9034L452.812 60.453L455.003 60.0768L454.886 59.3932L455.307 59.4368L455.483 60.4582ZM455.884 62.7937L454.911 62.3356L454.907 62.3403C454.937 62.3892 454.96 62.4555 454.975 62.5399C455.016 62.7771 454.967 63.0007 454.828 63.2026C454.689 63.4086 454.495 63.5329 454.246 63.5757C453.993 63.6192 453.76 63.564 453.546 63.4061C453.334 63.2521 453.207 63.0421 453.16 62.7727C453.114 62.5033 453.164 62.2629 453.314 62.0509C453.464 61.8389 453.666 61.7132 453.919 61.6697C454.148 61.6303 454.425 61.678 454.746 61.8092L455.789 62.2428L455.884 62.7937ZM454.585 62.5364C454.56 62.3876 454.486 62.272 454.369 62.1927C454.252 62.1175 454.124 62.0899 453.983 62.1141C453.838 62.1389 453.722 62.2086 453.638 62.3223C453.554 62.4361 453.522 62.5657 453.548 62.7145C453.573 62.8633 453.646 62.9749 453.763 63.0542C453.88 63.1335 454.013 63.1603 454.158 63.1355C454.448 63.0858 454.636 62.83 454.585 62.5364ZM456.607 67.0808L454.013 67.526L453.915 66.955L455.826 65.4265L455.822 65.4232C455.694 65.4741 455.556 65.5143 455.399 65.5412L453.734 65.827L453.66 65.3927L456.253 64.9475L456.355 65.5427L454.456 67.0443L454.461 67.0476C454.589 66.9967 454.727 66.9564 454.884 66.9295L456.533 66.6465L456.607 67.0808Z" fill="#FF8158"/>
<path d="M430.33 64.3617C430.373 64.6151 430.337 64.8406 430.218 65.035C430.098 65.2295 429.927 65.3457 429.706 65.3836C429.493 65.4202 429.278 65.3743 429.07 65.2445C428.931 65.1607 428.805 65.0788 428.695 64.9941L428.047 64.4969L428.24 65.6228L427.838 65.6918L427.546 63.9869L427.938 63.9071C428.363 64.2398 428.663 64.4657 428.832 64.5856C428.988 64.6956 429.132 64.7868 429.268 64.8585C429.392 64.9284 429.52 64.9479 429.648 64.9218C429.844 64.8839 429.972 64.6881 429.925 64.4187C429.883 64.1734 429.697 64.0066 429.457 63.9816L429.576 63.5886C429.95 63.6445 430.258 63.9435 430.33 64.3617ZM429.541 67.8205C429.135 67.8902 428.793 67.8536 428.517 67.7148C428.244 67.5753 428.083 67.3587 428.032 67.0612C427.981 66.7676 428.061 66.5056 428.271 66.2833C428.485 66.0602 428.796 65.9158 429.202 65.8461C429.608 65.7764 429.949 65.809 430.221 65.9485C430.494 66.088 430.655 66.3046 430.706 66.6021C430.757 66.8997 430.677 67.1577 430.463 67.3807C430.253 67.6031 429.947 67.7508 429.541 67.8205ZM430.304 66.6712C430.248 66.3454 429.869 66.187 429.278 66.2884C428.687 66.3899 428.378 66.6664 428.434 66.9921C428.491 67.3259 428.87 67.4803 429.465 67.3782C430.056 67.2767 430.361 67.0049 430.304 66.6712ZM431.475 71.3948L428.881 71.84L428.783 71.2689L430.694 69.7404L430.689 69.7371C430.562 69.788 430.424 69.8283 430.267 69.8552L428.602 70.1409L428.527 69.7067L431.121 69.2615L431.223 69.8566L429.324 71.3582L429.329 71.3616C429.457 71.3106 429.595 71.2704 429.752 71.2435L431.4 70.9605L431.475 71.3948Z" fill="#FF8158"/>
<path d="M508.584 70.4504L461.254 78.4403C456.897 79.1758 453.961 83.3037 454.697 87.6604L456.694 99.4929C457.43 103.85 461.558 106.785 465.914 106.05L513.245 98.0597C517.601 97.3243 520.537 93.1963 519.801 88.8397L517.804 77.0071C517.069 72.6504 512.941 69.7149 508.584 70.4504Z" fill="white" stroke="#E8EAEF"/>
<path d="M482.035 94.3421C481.518 94.426 481.005 94.4235 480.496 94.3347C479.99 94.2453 479.515 94.0414 479.072 93.723C478.628 93.4047 478.242 92.9489 477.913 92.3556C477.588 91.7618 477.348 91.0058 477.193 90.0874C477.053 89.2437 477.023 88.4741 477.1 87.7787C477.181 87.0794 477.36 86.4677 477.637 85.9435C477.919 85.4187 478.289 84.9932 478.748 84.6669C479.207 84.3374 479.746 84.1202 480.367 84.0154C481.037 83.9023 481.651 83.9332 482.208 84.108C482.765 84.2796 483.236 84.5614 483.622 84.9535C484.01 85.345 484.284 85.8113 484.443 86.3526L482.349 86.706C482.209 86.3701 481.991 86.1245 481.696 85.9693C481.4 85.8141 481.06 85.769 480.674 85.8341C480.021 85.9445 479.572 86.3127 479.328 86.9387C479.088 87.5642 479.046 88.3661 479.205 89.3444L479.273 89.3328C479.374 89.01 479.533 88.7225 479.753 88.4703C479.975 88.2143 480.241 88.0031 480.549 87.8369C480.859 87.6667 481.198 87.5508 481.564 87.489C482.159 87.3886 482.712 87.4397 483.223 87.6425C483.734 87.8419 484.165 88.1625 484.515 88.6042C484.865 89.0459 485.093 89.5805 485.199 90.208C485.314 90.8878 485.258 91.5192 485.03 92.1021C484.806 92.6845 484.436 93.1738 483.921 93.5699C483.41 93.9622 482.781 94.2196 482.035 94.3421ZM481.744 92.677C482.071 92.6218 482.35 92.494 482.582 92.2936C482.813 92.0931 482.98 91.8465 483.082 91.5537C483.184 91.2609 483.207 90.9478 483.15 90.6144C483.094 90.2811 482.97 89.9944 482.778 89.7545C482.59 89.5141 482.355 89.337 482.073 89.2231C481.792 89.1093 481.488 89.08 481.161 89.1351C480.916 89.1765 480.697 89.2606 480.503 89.3874C480.312 89.5137 480.153 89.6718 480.023 89.8616C479.897 90.051 479.808 90.261 479.756 90.4915C479.704 90.7189 479.698 90.9535 479.739 91.1953C479.794 91.5188 479.917 91.8022 480.11 92.0454C480.305 92.288 480.544 92.4678 480.826 92.5849C481.111 92.7015 481.417 92.7322 481.744 92.677ZM497.229 81.3102L498.923 91.35L497.09 91.6595L491.655 86.0779L491.582 86.0903L492.649 92.4093L490.526 92.7676L488.831 82.7278L490.694 82.4134L496.093 87.9959L496.182 87.981L495.116 81.6669L497.229 81.3102Z" fill="#171923"/>
<defs>
<linearGradient id="paint0_linear_2079_269" x1="631.25" y1="41.25" x2="791.25" y2="181.25" gradientUnits="userSpaceOnUse">
<stop stop-color="#6B737D"/>
<stop offset="1" stop-color="#4F575F"/>
</linearGradient>
<linearGradient id="paint1_linear_2079_269" x1="11.25" y1="1.25001" x2="711.25" y2="141.25" gradientUnits="userSpaceOnUse">
<stop stop-color="#C8CDD4"/>
<stop offset="0.45" stop-color="#A8B0BA"/>
<stop offset="1" stop-color="#8E96A1"/>
</linearGradient>
<linearGradient id="paint2_linear_2079_269" x1="-8.75" y1="141.25" x2="631.25" y2="201.25" gradientUnits="userSpaceOnUse">
<stop stop-color="#7A828C"/>
<stop offset="1" stop-color="#5E666F"/>
</linearGradient>
<linearGradient id="paint3_linear_2079_269" x1="-8.75001" y1="141.25" x2="631.25" y2="201.25" gradientUnits="userSpaceOnUse">
<stop stop-color="#7A828C"/>
<stop offset="1" stop-color="#5E666F"/>
</linearGradient>
<linearGradient id="paint4_linear_2079_269" x1="318.536" y1="63.2094" x2="371.459" y2="125.855" gradientUnits="userSpaceOnUse">
<stop stop-color="#A06C35"/>
<stop offset="1" stop-color="#7A4F24"/>
</linearGradient>
<linearGradient id="paint5_linear_2079_269" x1="150.47" y1="53.8392" x2="339.819" y2="105.067" gradientUnits="userSpaceOnUse">
<stop stop-color="#E8C48A"/>
<stop offset="0.5" stop-color="#D4A86A"/>
<stop offset="1" stop-color="#C49252"/>
</linearGradient>
<linearGradient id="paint6_linear_2079_269" x1="161.252" y1="95.7676" x2="319.031" y2="136.708" gradientUnits="userSpaceOnUse">
<stop stop-color="#B07A3E"/>
<stop offset="1" stop-color="#8F5F2E"/>
</linearGradient>
<linearGradient id="paint7_linear_2079_269" x1="161.252" y1="95.7677" x2="319.031" y2="136.708" gradientUnits="userSpaceOnUse">
<stop stop-color="#B07A3E"/>
<stop offset="1" stop-color="#8F5F2E"/>
</linearGradient>
</defs>
</svg>
