<svg width="355" height="95" viewBox="0 0 355 95" fill="none" xmlns="http://www.w3.org/2000/svg">
<path d="M 28.69460000000001 73.1648 C 30.0676 84.3133 41.1386 88.9674 41.1386 88.9674 L 200.205 61.318299999999994 C 200.205 61.318299999999994 209.49299999999997 55.5844 206.14199999999997 42.36070000000001 C 202.79099999999997 29.137 195.85600000000002 26.53280000000001 195.85600000000002 26.53280000000001 L 32.9983 54.14269999999999 C 32.9983 54.14269999999999 27.32159999999999 62.016400000000004 28.69460000000001 73.1648 Z" fill="white"/>
<path d="M 198.886 26.090599999999995 C 201.167 25.698999999999998 204.314 32.9327 205.91300000000004 42.248099999999994 C 207.51199999999997 51.5629 206.958 59.4324 204.67599999999996 59.8241 C 202.39400000000003 60.2158 199.24699999999999 52.9815 197.648 43.66669999999999 C 196.049 34.35130000000001 196.604 26.4824 198.886 26.090599999999995 Z" stroke="#9C9B9B" stroke-width="3.59788" stroke-linecap="round" stroke-linejoin="round"/>
<path d="M 198.237 30.0188 C 200.02199999999996 29.7123 202.48500000000004 35.372600000000006 203.73600000000002 42.66210000000001 C 204.987 49.95089999999999 204.554 56.108900000000006 202.768 56.415400000000005 C 200.982 56.72200000000001 198.52 51.06100000000001 197.26900000000003 43.772099999999995 C 196.018 36.482699999999994 196.451 30.325400000000002 198.237 30.0188 Z" fill="#EF3A50"/>
<path d="M 198.83 43.770700000000005 L 341.81899999999996 19.226299999999995" stroke="#565655" stroke-width="2.39859" stroke-linecap="round" stroke-linejoin="round"/>
<path d="M 342.331 19.1374 C 342.7629999999999 21.652100000000004 345.15099999999995 23.341300000000004 347.66599999999994 22.909599999999998 C 350.17999999999995 22.47800000000001 351.869 20.089100000000002 351.437 17.574399999999997 C 351.006 15.059600000000003 348.61699999999996 13.3718 346.10299999999995 13.803399999999996" stroke="#565655" stroke-width="2.39859" stroke-linecap="round" stroke-linejoin="round"/>
<path d="M 200.345 42.294399999999996 C 200.472 42.2726 200.718 42.70859999999999 200.84100000000004 43.4243 C 200.977 44.21510000000001 200.87799999999996 44.6336 200.751 44.6554 C 200.624 44.6772 200.429 44.16669999999999 200.31700000000004 43.5142 C 200.206 42.862899999999996 200.218 42.31620000000001 200.345 42.294399999999996 Z" fill="#565655"/>
<path d="M 198.237 30.018599999999992 C 200.023 29.712199999999996 202.48500000000004 35.372299999999996 203.737 42.6618 C 204.98799999999997 49.9507 204.554 56.1088 202.768 56.4152" fill="#EF3A50"/>
<path d="M 198.38199999999998 30.864900000000006 C 200.16800000000003 30.558400000000006 202.566 35.8398 203.737 42.661100000000005 C 204.908 49.4825 204.408 55.2606 202.62299999999996 55.56710000000001" stroke="#813A50" stroke-width="1.79894" stroke-miterlimit="10" stroke-linecap="round"/>
<path d="M 198.88500000000002 26.09049999999999 C 201.167 25.698899999999995 204.31300000000002 32.93260000000001 205.912 42.24799999999999 C 207.511 51.56280000000001 206.95700000000002 59.4323 204.67499999999998 59.82390000000001" stroke="#1D1D1B" stroke-width="3.59788" stroke-linecap="round" stroke-linejoin="round"/>
<path d="M 30.189999999999998 55.048 L 197.545 26.321200000000005" stroke="#1D1D1B" stroke-width="3.59788" stroke-linecap="round" stroke-linejoin="round"/>
<path d="M 12.863799999999998 74.4592 L 27.943299999999994 71.8708" stroke="black" stroke-width="0.68"/>
<path d="M 8.968170000000015 80.4712 C 11.876499999999993 79.972 13.82990000000001 77.2097 13.330600000000004 74.3008 C 12.831400000000002 71.3924 10.0685 69.4391 7.16019 69.9383 C 4.25184999999999 70.4376 2.298509999999993 73.2004 2.7977300000000014 76.1087 C 3.297050000000013 79.0177 6.059830000000005 80.9704 8.968170000000015 80.4712 Z" stroke="#F19100" stroke-width="1.79894" stroke-miterlimit="10" stroke-linecap="round"/>
<path d="M 73.04650000000001 78.8938 C 76.80429999999998 78.2487 72.2048 51.444 75.9656 50.79849999999999 C 79.72200000000001 50.1537 84.32300000000001 76.9581 88.0839 76.3126 C 91.8432 75.6673 87.2422 48.86279999999999 91 48.2178 C 94.7594 47.57249999999999 99.3604 74.3769 103.118 73.7319 C 106.87800000000001 73.0866 102.27700000000002 46.2822 106.03599999999997 45.6369 C 109.79400000000001 44.9918 114.39500000000001 71.7962 118.15299999999999 71.1512 C 121.91400000000002 70.5056 117.314 43.70099999999999 121.07500000000002 43.05539999999999 C 124.833 42.41040000000001 129.434 69.2148 133.193 68.5695 C 136.95200000000003 67.9242 132.35100000000003 41.1198 136.109 40.4747 C 139.87000000000003 39.8292 144.47100000000003 66.6336 148.23 65.9883 C 151.991 65.3427 147.39000000000001 38.53829999999999 151.148 37.89330000000001 C 154.908 37.24799999999999 159.509 64.0524 163.26900000000003 63.406800000000004 C 167.02900000000002 62.7615 162.42800000000003 35.9571 166.189 35.3116 C 169.94899999999998 34.666 174.54999999999998 61.4704 178.311 60.8249 C 182.07200000000003 60.1793 177.47100000000003 33.3749 181.232 32.7294" stroke="#858585" stroke-width="2.39859" stroke-linecap="round" stroke-linejoin="round"/>
<path d="M 178.31200000000004 60.8244 C 182.073 60.1789 177.47299999999998 33.3742 181.234 32.7286 C 182.888 32.4448 184.67999999999998 37.4688 186.537 43.12219999999999 C 187.396 45.7345 189.97 45.29259999999999 197.95200000000003 43.9226" stroke="#565655" stroke-width="2.39859" stroke-linecap="round" stroke-linejoin="round"/>
<path d="M 163.27 63.40639999999999 C 167.03099999999998 62.76089999999999 162.42999999999998 35.956500000000005 166.189 35.3112" stroke="#565655" stroke-width="2.39859" stroke-linecap="round" stroke-linejoin="round"/>
<path d="M 42.971300000000014 84.05590000000001 C 46.72999999999999 83.41070000000002 42.12899999999999 56.606300000000005 45.889700000000005 55.9607 C 49.64840000000001 55.3155 54.24949999999998 82.1199 58.008200000000016 81.4747 C 61.76769999999999 80.8294 57.16669999999999 54.025000000000006 60.926000000000016 53.3797 C 64.68539999999999 52.734399999999994 69.28790000000001 79.5386 73.0487 78.893 C 76.8066 78.248 72.2056 51.4436 75.9664 50.798 C 79.72569999999999 50.15270000000001 84.32680000000002 76.9571 88.0846 76.3121 C 91.84549999999999 75.6665 87.24440000000001 48.8621 91.0053 48.2166 C 94.7646 47.57130000000001 99.3657 74.3757 103.126 73.7301 C 106.88699999999997 73.0846 102.286 46.280100000000004 106.047 45.634600000000006" stroke="#858585" stroke-width="2.39859" stroke-linecap="round" stroke-linejoin="round"/>
<path d="M 148.23100000000002 65.988 C 151.992 65.3424 147.391 38.538 151.14900000000003 37.893" stroke="#565655" stroke-width="2.39859" stroke-linecap="round" stroke-linejoin="round"/>
<path d="M 133.19499999999996 68.569 C 136.95399999999998 67.9237 132.35299999999998 41.11930000000001 136.11299999999997 40.47399999999999" stroke="#565655" stroke-width="2.39859" stroke-linecap="round" stroke-linejoin="round"/>
<path d="M 118.15700000000001 71.1506 C 121.91800000000003 70.505 117.31699999999998 43.70060000000001 121.076 43.0553" stroke="#565655" stroke-width="2.39859" stroke-linecap="round" stroke-linejoin="round"/>
<path d="M 103.12100000000001 73.7316 C 106.87899999999999 73.0866 102.27799999999999 46.2822 106.037 45.6369" stroke="#565655" stroke-width="2.39859" stroke-linecap="round" stroke-linejoin="round"/>
<path d="M 88.08450000000002 76.3122 C 91.84389999999999 75.6669 87.24289999999999 48.8625 91.00219999999999 48.21719999999999" stroke="#565655" stroke-width="2.39859" stroke-linecap="round" stroke-linejoin="round"/>
<path d="M 73.04650000000001 78.8938 C 76.8073 78.2482 72.2063 51.44380000000001 75.9656 50.79849999999999" stroke="#565655" stroke-width="2.39859" stroke-linecap="round" stroke-linejoin="round"/>
<path d="M 58.00739999999999 81.4748 C 61.766699999999986 80.8295 57.16569999999999 54.02510000000001 60.926500000000004 53.37950000000001" stroke="#565655" stroke-width="2.39859" stroke-linecap="round" stroke-linejoin="round"/>
<path d="M 45.88980000000001 55.96029999999999 C 42.129099999999994 56.6058 46.73009999999999 83.4102 42.97139999999999 84.05540000000002 C 38.72919999999999 84.7836 30.119200000000006 76.5013 29.446200000000005 72.5805" stroke="#565655" stroke-width="2.39859" stroke-linecap="round" stroke-linejoin="round"/>
<path d="M 35.980500000000006 88.7801 C 33.69809999999998 89.1719 30.551999999999992 81.9382 28.953100000000006 72.6234 C 27.35409999999999 63.30799999999999 27.90780000000001 55.439099999999996 30.190200000000004 55.04730000000001" stroke="#1D1D1B" stroke-width="3.59788" stroke-linecap="round" stroke-linejoin="round"/>
<path d="M 138.27900000000002 57.27250000000001 C 139.227 65.0612 138.556 71.1675 136.552 71.5114" stroke="#FF8158" stroke-width="1.1993" stroke-linecap="round" stroke-linejoin="round"/>
<path d="M 131.49299999999997 58.5158 C 132.427 66.2679 131.754 72.3351 129.756 72.6779" stroke="#FF8158" stroke-width="1.1993" stroke-linecap="round" stroke-linejoin="round"/>
<path d="M 125.167 59.6018 C 126.10100000000003 67.3539 125.42699999999999 73.4211 123.42999999999998 73.7639" stroke="#FF8158" stroke-width="1.1993" stroke-linecap="round" stroke-linejoin="round"/>
<path d="M 118.37199999999999 60.76830000000001 C 119.30600000000001 68.5204 118.63300000000001 74.5875 116.63500000000002 74.9304" stroke="#FF8158" stroke-width="1.1993" stroke-linecap="round" stroke-linejoin="round"/>
<path d="M 112.03599999999997 61.7769 C 112.98400000000001 69.5656 112.31300000000002 75.6719 110.309 76.0158" stroke="#FF8158" stroke-width="1.1993" stroke-linecap="round" stroke-linejoin="round"/>
<path d="M 105.251 63.0202 C 106.18499999999997 70.7724 105.511 76.8396 103.51399999999998 77.1823" stroke="#FF8158" stroke-width="1.1993" stroke-linecap="round" stroke-linejoin="round"/>
<path d="M 98.9257 64.1115 C 99.8597 71.8637 99.1859 77.9309 97.189 78.2736" stroke="#FF8158" stroke-width="1.1993" stroke-linecap="round" stroke-linejoin="round"/>
<path d="M 92.1601 65.4494 C 93.094 73.2016 92.4203 79.2688 90.42339999999999 79.6115" stroke="#FF8158" stroke-width="1.1993" stroke-linecap="round" stroke-linejoin="round"/>
<path d="M 85.80359999999999 66.3586 C 86.73760000000001 74.1107 86.0642 80.1779 84.06699999999998 80.5207" stroke="#FF8158" stroke-width="1.1993" stroke-linecap="round" stroke-linejoin="round"/>
<path d="M 79.47749999999999 67.4445 C 80.4117 75.1966 79.738 81.2638 77.74080000000001 81.6066" stroke="#FF8158" stroke-width="1.1993" stroke-linecap="round" stroke-linejoin="round"/>
<path d="M 73.1112 68.5373 C 74.0455 76.2894 73.37179999999998 82.35660000000001 71.37460000000002 82.6994" stroke="#FF8158" stroke-width="1.1993" stroke-linecap="round" stroke-linejoin="round"/>
<path d="M 203.28800000000004 46.1138 C 204.23600000000002 53.9025 203.56499999999997 60.00880000000001 201.561 60.3527" stroke="#FF8158" stroke-width="1.1993" stroke-linecap="round" stroke-linejoin="round"/>
<path d="M 196.50299999999996 47.3571 C 197.43700000000004 55.1092 196.763 61.1764 194.766 61.5192" stroke="#FF8158" stroke-width="1.1993" stroke-linecap="round" stroke-linejoin="round"/>
<path d="M 190.177 48.4426 C 191.11100000000002 56.1947 190.43700000000004 62.2619 188.43999999999997 62.60470000000001" stroke="#FF8158" stroke-width="1.1993" stroke-linecap="round" stroke-linejoin="round"/>
<path d="M 183.38199999999998 49.6091 C 184.316 57.3612 183.64199999999997 63.42840000000001 181.645 63.77119999999999" stroke="#FF8158" stroke-width="1.1993" stroke-linecap="round" stroke-linejoin="round"/>
<path d="M 177.04599999999996 50.6182 C 177.994 58.40690000000001 177.32200000000003 64.5132 175.319 64.8571" stroke="#FF8158" stroke-width="1.1993" stroke-linecap="round" stroke-linejoin="round"/>
<path d="M 170.261 51.86150000000001 C 171.19499999999996 59.613699999999994 170.521 65.6809 168.52400000000003 66.0236" stroke="#FF8158" stroke-width="1.1993" stroke-linecap="round" stroke-linejoin="round"/>
<path d="M 163.93499999999997 52.95230000000001 C 164.869 60.704499999999996 164.196 66.7717 162.19899999999998 67.1145" stroke="#FF8158" stroke-width="1.1993" stroke-linecap="round" stroke-linejoin="round"/>
<path d="M 157.17 54.2902 C 158.104 62.0424 157.42999999999998 68.1096 155.43300000000002 68.4523" stroke="#FF8158" stroke-width="1.1993" stroke-linecap="round" stroke-linejoin="round"/>
<path d="M 150.81300000000002 55.1994 C 151.74699999999999 62.9516 151.07399999999998 69.0187 149.07700000000003 69.3615" stroke="#FF8158" stroke-width="1.1993" stroke-linecap="round" stroke-linejoin="round"/>
<path d="M 144.487 56.28540000000001 C 145.422 64.0374 144.74799999999996 70.1046 142.751 70.4475" stroke="#FF8158" stroke-width="1.1993" stroke-linecap="round" stroke-linejoin="round"/>
<path d="M 35.97999999999999 88.781 L 205.011 59.76650000000001" stroke="#1D1D1B" stroke-width="3.59788" stroke-linecap="round" stroke-linejoin="round"/>
<path d="M 77.14090000000002 60.52250000000001 L 79.7345 60.07730000000001 L 79.8118 60.52760000000001 L 77.62030000000001 60.90379999999999 L 77.73760000000001 61.5874 L 77.31620000000001 61.54390000000001 L 77.14090000000002 60.52250000000001 ZM 76.39599999999999 56.11070000000001 L 78.9897 55.66550000000001 L 79.08770000000001 56.23650000000001 L 77.17670000000001 57.765 L 77.1814 57.7684 C 77.30929999999998 57.7174 77.44730000000001 57.6772 77.60409999999999 57.6503 L 79.2689 57.36449999999999 L 79.3434 57.7988 L 76.7498 58.244 L 76.64759999999998 57.6489 L 78.54659999999998 56.1472 L 78.5419 56.1439 C 78.41400000000002 56.1948 78.27610000000001 56.2351 78.1192 56.262 L 76.47049999999999 56.545 L 76.39599999999999 56.11070000000001 Z" fill="#FF8158"/>
<path d="M 71.6285 60.8357 C 72.03470000000002 60.76599999999999 72.37629999999999 60.8026 72.6526 60.9414 C 72.92490000000001 61.0809 73.0863 61.2975 73.13739999999999 61.5951 C 73.18780000000001 61.8886 73.10850000000002 62.1506 72.8983 62.3729 C 72.6841 62.596000000000004 72.37359999999998 62.740399999999994 71.9674 62.810100000000006 C 71.56129999999999 62.8798 71.22040000000001 62.84729999999999 70.94809999999998 62.7077 C 70.6757 62.56819999999999 70.5144 62.35159999999999 70.4633 62.054100000000005 C 70.41220000000001 61.7565 70.4921 61.49850000000001 70.7063 61.275499999999994 C 70.91659999999999 61.0531 71.2224 60.9054 71.6285 60.8357 ZM 70.8654 61.985 C 70.9213 62.3108 71.3004 62.4692 71.89149999999998 62.3678 C 72.48260000000002 62.2663 72.7912 61.9898 72.7353 61.66409999999999 C 72.678 61.330299999999994 72.2996 61.1759 71.70439999999999 61.27799999999999 C 71.11330000000001 61.37950000000001 70.8081 61.65129999999999 70.8654 61.985 ZM 69.6944 57.26140000000001 L 72.28810000000001 56.81620000000001 L 72.3861 57.38720000000001 L 70.4752 58.9157 L 70.47990000000001 58.9191 C 70.6077 58.8681 70.7457 58.8279 70.9025 58.801 L 72.56730000000002 58.51519999999999 L 72.64189999999999 58.9495 L 70.04819999999998 59.3947 L 69.946 58.7996 L 71.8451 57.2979 L 71.84029999999998 57.2946 C 71.7125 57.3455 71.5745 57.3858 71.4177 57.4127 L 69.769 57.6957 L 69.6944 57.26140000000001 Z" fill="#FF8158"/>
<path d="M 129.86000000000004 50.9102 C 130.08899999999997 50.870900000000006 130.366 50.918499999999995 130.68700000000004 51.0497 L 131.73 51.4834 L 131.82499999999996 52.0343 L 130.852 51.5762 L 130.84799999999998 51.5809 C 130.87799999999996 51.6297 130.90099999999998 51.696 130.91599999999997 51.7804 C 130.95700000000002 52.01769999999999 130.908 52.241299999999995 130.76900000000003 52.44720000000001 C 130.631 52.649100000000004 130.436 52.7735 130.18700000000004 52.81620000000001 C 129.934 52.859700000000004 129.701 52.80449999999999 129.48799999999997 52.6506 C 129.275 52.4927 129.14699999999996 52.282700000000006 129.10100000000003 52.0133 C 129.05499999999998 51.74379999999999 129.105 51.50749999999999 129.25500000000002 51.295500000000004 C 129.405 51.0834 129.607 50.9537 129.86000000000004 50.9102 ZM 130.52599999999998 51.7769 C 130.501 51.62819999999999 130.431 51.511799999999994 130.31499999999997 51.4366 C 130.19700000000003 51.35730000000001 130.064 51.3304 129.924 51.354600000000005 C 129.77900000000002 51.37950000000001 129.66300000000004 51.4491 129.57899999999998 51.5629 C 129.49500000000003 51.67660000000001 129.463 51.80619999999999 129.489 51.955 C 129.51400000000004 52.10380000000001 129.58700000000002 52.21549999999999 129.70399999999998 52.294700000000006 C 129.821 52.373999999999995 129.95399999999998 52.400800000000004 130.09899999999996 52.376000000000005 C 130.38900000000004 52.3263 130.576 52.07050000000001 130.52599999999998 51.7769 ZM 128.33600000000004 47.1951 L 130.92999999999998 46.7499 L 131.028 47.320899999999995 L 129.117 48.8494 L 129.12199999999999 48.8528 C 129.251 48.8018 129.388 48.7616 129.544 48.734700000000004 L 131.20899999999997 48.44890000000001 L 131.28400000000002 48.8832 L 128.68999999999997 49.3284 L 128.588 48.7333 L 130.487 47.2316 L 130.482 47.22829999999999 C 130.354 47.2792 130.21600000000004 47.319500000000005 130.059 47.3464 L 128.41099999999997 47.629400000000004 L 128.33600000000004 47.1951 Z" fill="#FF8158"/>
<path d="M 102.874 55.6833 L 103.256 55.6178 L 103.445 56.723600000000005 L 104.078 56.69370000000001 C 103.97299999999998 56.5916 103.90799999999999 56.4537 103.87899999999999 56.2808 C 103.83599999999998 56.0355 103.886 55.8159 104.02200000000002 55.6228 C 104.15799999999999 55.4256 104.35299999999998 55.3052 104.60600000000002 55.261799999999994 C 104.85100000000003 55.2197 105.076 55.2722 105.28299999999999 55.418800000000005 C 105.48999999999998 55.5613 105.61499999999998 55.759299999999996 105.65700000000001 56.00460000000001 C 105.727 56.41470000000001 105.60900000000001 56.741299999999995 105.304 56.98830000000001 L 105.00899999999999 56.6952 C 105.21899999999997 56.5393 105.30100000000002 56.343 105.26000000000002 56.1057 C 105.213 55.8283 104.98400000000001 55.6563 104.69499999999996 55.706 C 104.405 55.75569999999999 104.23299999999998 56.0048 104.28599999999997 56.314400000000006 C 104.31899999999999 56.50739999999999 104.417 56.6438 104.58399999999997 56.7268 L 104.44199999999998 57.057500000000005 L 103.12199999999999 57.131 L 102.874 55.6833 ZM 102.19899999999998 51.681700000000006 L 104.79300000000003 51.23650000000001 L 104.89099999999999 51.807500000000005 L 102.97999999999999 53.3361 L 102.98499999999999 53.3394 C 103.112 53.2885 103.25 53.2482 103.40700000000001 53.2213 L 105.07200000000003 52.93549999999999 L 105.14700000000002 53.3698 L 102.553 53.815 L 102.451 53.219899999999996 L 104.35 51.7183 L 104.345 51.7149 C 104.21700000000001 51.7658 104.07899999999998 51.8061 103.922 51.833 L 102.274 52.116 L 102.19899999999998 51.681700000000006 Z" fill="#FF8158"/>
<path d="M 154.884 47.17779999999999 L 157.47799999999998 46.73259999999999 L 157.55499999999998 47.18289999999999 L 155.364 47.5591 L 155.48100000000002 48.2427 L 155.05999999999997 48.1991 L 154.884 47.17779999999999 ZM 154.525 45.3733 C 154.484 45.132000000000005 154.521 44.918499999999995 154.634 44.7295 C 154.746 44.540400000000005 154.893 44.4324 155.08200000000002 44.400000000000006 C 155.33600000000004 44.3565 155.535 44.43000000000001 155.686 44.61500000000001 C 155.74000000000004 44.370000000000005 155.97299999999998 44.164199999999994 156.26699999999997 44.1139 C 156.48799999999997 44.07589999999999 156.69200000000004 44.1319 156.87500000000003 44.2786 C 157.05300000000003 44.426 157.16800000000003 44.634 157.213 44.8994 C 157.29599999999996 45.382000000000005 157.06999999999996 45.7312 156.751 45.9226 L 156.491 45.5904 C 156.75199999999998 45.4423 156.85799999999998 45.2419 156.814 44.98859999999999 C 156.76400000000004 44.69499999999999 156.58 44.5363 156.30999999999997 44.58250000000001 C 156.057 44.626000000000005 155.94899999999998 44.843199999999996 155.989 45.1468 L 156.02 45.327799999999996 L 155.65 45.3913 C 155.63500000000002 45.30680000000001 155.624 45.24250000000001 155.61299999999997 45.199 C 155.549 44.9243 155.408 44.8035 155.18700000000004 44.841499999999996 C 154.99000000000004 44.87530000000001 154.88699999999997 45.071 154.929 45.31229999999999 C 154.97100000000003 45.55760000000001 155.158 45.7076 155.39199999999997 45.74600000000001 L 155.26900000000003 46.1357 C 154.907 46.07769999999999 154.597 45.7915 154.525 45.3733 ZM 153.76000000000002 40.55510000000001 L 156.354 40.10990000000001 L 156.45200000000003 40.68090000000001 L 154.54099999999997 42.20949999999999 L 154.54599999999996 42.2128 C 154.67300000000003 42.1619 154.811 42.1216 154.968 42.0947 L 156.633 41.808899999999994 L 156.708 42.2432 L 154.114 42.6884 L 154.01199999999997 42.0933 L 155.91099999999997 40.5917 L 155.90599999999998 40.588300000000004 C 155.778 40.63929999999999 155.64000000000001 40.67949999999999 155.48299999999998 40.7064 L 153.835 40.9894 L 153.76000000000002 40.55510000000001 Z" fill="#FF8158"/>
<path d="M 181.35799999999998 42.63380000000001 L 183.951 42.18860000000001 L 184.02900000000002 42.63900000000001 L 181.83700000000002 43.01509999999999 L 181.95399999999998 43.6987 L 181.533 43.65520000000001 L 181.35799999999998 42.63380000000001 ZM 180.89900000000003 39.960499999999996 L 181.259 39.8655 L 183.67800000000003 40.47290000000001 L 183.76400000000004 40.979600000000005 L 181.37799999999996 40.3378 L 181.583 41.5321 L 181.17999999999998 41.6011 L 180.89900000000003 39.960499999999996 ZM 180.24000000000004 36.050399999999996 L 182.83399999999997 35.605199999999996 L 182.932 36.176199999999994 L 181.021 37.704800000000006 L 181.025 37.7081 C 181.153 37.6572 181.29099999999997 37.6169 181.448 37.59 L 183.11299999999997 37.3043 L 183.18700000000004 37.7385 L 180.59399999999997 38.18379999999999 L 180.492 37.5886 L 182.391 36.087 L 182.386 36.08359999999999 C 182.258 36.134600000000006 182.12000000000003 36.174800000000005 181.963 36.2017 L 180.31499999999997 36.484700000000004 L 180.24000000000004 36.050399999999996 Z" fill="#FF8158"/>
<path d="M 89.89509999999999 58.74340000000001 C 89.8536 58.5021 89.89149999999998 58.2886 90.00399999999999 58.09960000000001 C 90.1164 57.9106 90.26340000000002 57.80250000000001 90.45239999999998 57.7701 C 90.70579999999998 57.72659999999999 90.90470000000002 57.8001 91.0565 57.98519999999999 C 91.1096 57.7401 91.3434 57.5343 91.6369 57.483900000000006 C 91.85810000000001 57.446 92.0623 57.50200000000001 92.2448 57.64869999999999 C 92.42319999999998 57.796099999999996 92.5376 58.004099999999994 92.5832 58.269499999999994 C 92.666 58.7521 92.44030000000001 59.10130000000001 92.12129999999999 59.292699999999996 L 91.8614 58.9606 C 92.1216 58.8124 92.22799999999998 58.611999999999995 92.18449999999999 58.3587 C 92.13410000000002 58.0651 91.9495 57.90639999999999 91.68010000000001 57.95259999999999 C 91.42679999999999 57.9961 91.3192 58.213300000000004 91.3589 58.51689999999999 L 91.39000000000001 58.697900000000004 L 91.02000000000001 58.76140000000001 C 91.00550000000001 58.67699999999999 90.99449999999999 58.6126 90.9829 58.56909999999999 C 90.91909999999999 58.294399999999996 90.7784 58.17359999999999 90.5572 58.211600000000004 C 90.36019999999999 58.24539999999999 90.25710000000001 58.441100000000006 90.2986 58.6824 C 90.3407 58.9277 90.52790000000002 59.07769999999999 90.7621 59.1161 L 90.6386 59.505799999999994 C 90.27680000000001 59.4478 89.9668 59.16159999999999 89.89509999999999 58.74340000000001 ZM 89.1301 53.92519999999999 L 91.72380000000001 53.47999999999999 L 91.8218 54.051 L 89.9108 55.579499999999996 L 89.91560000000001 55.582899999999995 C 90.04339999999999 55.532 90.1814 55.49170000000001 90.3382 55.4648 L 92.00300000000001 55.179 L 92.07750000000001 55.61330000000001 L 89.4839 56.05850000000001 L 89.3817 55.46340000000001 L 91.2807 53.9618 L 91.27599999999998 53.9584 C 91.1481 54.009299999999996 91.0102 54.0496 90.85330000000002 54.07650000000001 L 89.2046 54.3595 L 89.1301 53.92519999999999 Z" fill="#FF8158"/>
<path d="M 141.816 49.4209 L 144.40900000000002 48.9757 L 144.487 49.42609999999999 L 142.295 49.8023 L 142.412 50.4859 L 141.991 50.4423 L 141.816 49.4209 ZM 141.436 47.21000000000001 L 144.03 46.76480000000001 L 144.107 47.21520000000001 L 141.91599999999997 47.59139999999999 L 142.033 48.275000000000006 L 141.61100000000002 48.23140000000001 L 141.436 47.21000000000001 ZM 140.691 42.7983 L 143.285 42.3531 L 143.383 42.92410000000001 L 141.472 44.45259999999999 L 141.477 44.4559 C 141.605 44.405 141.74299999999997 44.3648 141.89900000000003 44.33789999999999 L 143.564 44.052099999999996 L 143.63900000000004 44.4864 L 141.045 44.9316 L 140.943 44.3364 L 142.842 42.8348 L 142.83700000000002 42.831500000000005 C 142.70899999999997 42.88239999999999 142.571 42.92269999999999 142.415 42.949600000000004 L 140.766 43.23259999999999 L 140.691 42.7983 Z" fill="#FF8158"/>
<path d="M 115.934 53.3879 L 116.29400000000001 53.2929 L 118.713 53.9003 L 118.799 54.40690000000001 L 116.41299999999998 53.76519999999999 L 116.61799999999997 54.95949999999999 L 116.215 55.02850000000001 L 115.934 53.3879 ZM 115.275 49.4778 L 117.869 49.0326 L 117.96700000000001 49.6036 L 116.05600000000001 51.13210000000001 L 116.05999999999997 51.13550000000001 C 116.18800000000002 51.08449999999999 116.326 51.04429999999999 116.48299999999998 51.01740000000001 L 118.148 50.7316 L 118.22200000000001 51.16589999999999 L 115.62899999999999 51.61109999999999 L 115.52700000000002 51.01599999999999 L 117.42600000000002 49.51429999999999 L 117.42100000000002 49.510999999999996 C 117.29300000000003 49.56190000000001 117.155 49.60220000000001 116.99800000000002 49.629099999999994 L 115.35 49.91210000000001 L 115.275 49.4778 Z" fill="#FF8158"/>
<path d="M 167.953 44.9346 L 170.547 44.4894 L 170.624 44.9397 L 168.43300000000002 45.3159 L 168.54999999999998 45.9995 L 168.129 45.956 L 167.953 44.9346 ZM 167.50299999999996 42.313500000000005 L 167.88500000000002 42.24799999999999 L 168.07499999999996 43.35380000000001 L 168.708 43.32390000000001 C 168.60299999999998 43.2218 168.53800000000004 43.0839 168.508 42.911 C 168.46600000000004 42.6657 168.516 42.4461 168.65199999999996 42.253 C 168.78800000000004 42.055800000000005 168.98299999999998 41.9354 169.23600000000002 41.891999999999996 C 169.48100000000002 41.8498 169.706 41.9024 169.91300000000004 42.04900000000001 C 170.119 42.19149999999999 170.24500000000003 42.3895 170.287 42.6348 C 170.357 43.0449 170.239 43.3715 169.934 43.61840000000001 L 169.63900000000004 43.3254 C 169.84899999999996 43.1695 169.931 42.97319999999999 169.89000000000001 42.7359 C 169.842 42.4585 169.614 42.28649999999999 169.32499999999996 42.33619999999999 C 169.035 42.38589999999999 168.86299999999997 42.6349 168.91599999999997 42.94460000000001 C 168.94899999999998 43.13759999999999 169.047 43.274 169.21399999999997 43.357 L 169.07200000000003 43.68770000000001 L 167.75199999999998 43.7612 L 167.50299999999996 42.313500000000005 ZM 166.82899999999998 38.312 L 169.42300000000003 37.86670000000001 L 169.521 38.43780000000001 L 167.61000000000004 39.96629999999999 L 167.614 39.9696 C 167.742 39.9187 167.88000000000002 39.8784 168.037 39.8515 L 169.70200000000003 39.565799999999996 L 169.77599999999998 40.0001 L 167.18300000000002 40.4453 L 167.081 39.8501 L 168.98 38.3485 L 168.975 38.345200000000006 C 168.847 38.39609999999999 168.70899999999997 38.4363 168.552 38.4632 L 166.90400000000002 38.7462 L 166.82899999999998 38.312 Z" fill="#FF8158"/>
<path d="M 194.42599999999996 40.39019999999999 L 197.02 39.94499999999999 L 197.097 40.39529999999999 L 194.90599999999998 40.7715 L 195.023 41.4551 L 194.602 41.41149999999999 L 194.42599999999996 40.39019999999999 ZM 194.826 37.48259999999999 C 195.05499999999998 37.443299999999994 195.33200000000002 37.49090000000001 195.653 37.6221 L 196.696 38.055800000000005 L 196.79 38.60669999999999 L 195.818 38.1486 L 195.814 38.1533 C 195.843 38.2021 195.867 38.2684 195.88199999999998 38.3528 C 195.922 38.59010000000001 195.874 38.8137 195.73500000000004 39.0196 C 195.59600000000003 39.22149999999999 195.40199999999996 39.3459 195.153 39.3887 C 194.89900000000003 39.43209999999999 194.66599999999997 39.376900000000006 194.45399999999998 39.223 C 194.24000000000004 39.0651 194.11299999999997 38.85509999999999 194.06700000000004 38.5857 C 194.021 38.31620000000001 194.071 38.07990000000001 194.22100000000003 37.86789999999999 C 194.371 37.6559 194.57200000000003 37.5261 194.826 37.48259999999999 ZM 195.492 38.3494 C 195.46600000000004 38.20060000000001 195.39699999999996 38.08420000000001 195.28 38.009 C 195.16300000000004 37.9297 195.03 37.9029 194.89000000000001 37.92699999999999 C 194.74500000000003 37.951899999999995 194.62799999999996 38.0215 194.544 38.1353 C 194.46 38.248999999999995 194.429 38.37870000000001 194.45399999999998 38.5274 C 194.48 38.676199999999994 194.55300000000003 38.78790000000001 194.67 38.86709999999999 C 194.787 38.9464 194.92 38.973299999999995 195.06499999999997 38.94839999999999 C 195.354 38.89869999999999 195.542 38.6429 195.492 38.3494 ZM 193.302 33.7675 L 195.896 33.3223 L 195.994 33.89330000000001 L 194.083 35.421899999999994 L 194.08700000000002 35.42519999999999 C 194.215 35.374300000000005 194.35299999999998 35.334 194.51000000000002 35.30709999999999 L 196.17499999999998 35.0213 L 196.249 35.455600000000004 L 193.65599999999998 35.900800000000004 L 193.554 35.3057 L 195.453 33.804100000000005 L 195.448 33.800700000000006 C 195.31999999999996 33.851699999999994 195.182 33.89189999999999 195.025 33.918800000000005 L 193.37699999999998 34.20179999999999 L 193.302 33.7675 Z" fill="#FF8158"/>
<path d="M 83.52880000000002 59.8404 C 83.4853 59.587 83.52110000000002 59.36150000000001 83.64090000000002 59.167100000000005 C 83.76070000000001 58.9726 83.93120000000002 58.85640000000001 84.1523 58.8185 C 84.3655 58.78190000000001 84.5803 58.827799999999996 84.78889999999998 58.9576 C 84.92749999999998 59.04140000000001 85.05330000000001 59.1233 85.16299999999998 59.208 L 85.81140000000002 59.70519999999999 L 85.6181 58.5793 L 86.02020000000002 58.5103 L 86.31289999999998 60.21520000000001 L 85.92089999999999 60.295 C 85.49539999999999 59.9623 85.19579999999999 59.7364 85.02619999999999 59.6165 C 84.8707 59.5065 84.7267 59.4153 84.59020000000001 59.34360000000001 C 84.4664 59.27369999999999 84.3389 59.2542 84.21090000000001 59.2803 C 84.0146 59.31819999999999 83.88669999999999 59.51400000000001 83.93300000000002 59.7834 C 83.9751 60.0287 84.161 60.19550000000001 84.40130000000002 60.2205 L 84.2824 60.6135 C 83.9086 60.55760000000001 83.60060000000001 60.2586 83.52880000000002 59.8404 ZM 82.76320000000001 55.01820000000001 L 85.35679999999999 54.57300000000001 L 85.4548 55.144000000000005 L 83.54389999999998 56.6725 L 83.5486 56.6759 C 83.6765 56.6249 83.8144 56.5847 83.97130000000001 56.5578 L 85.636 56.27199999999999 L 85.7106 56.7063 L 83.11690000000002 57.1515 L 83.01480000000001 56.5564 L 84.91380000000001 55.0547 L 84.9091 55.0514 C 84.78119999999998 55.1023 84.64320000000001 55.1426 84.4864 55.1695 L 82.83770000000001 55.4525 L 82.76320000000001 55.01820000000001 Z" fill="#FF8158"/>
<path d="M 135.44899999999998 50.5141 L 138.042 50.0689 L 138.12000000000003 50.5193 L 135.92800000000003 50.8955 L 136.045 51.5791 L 135.624 51.5355 L 135.44899999999998 50.5141 ZM 136.258 47.4657 C 136.665 47.396 137.006 47.43260000000001 137.282 47.5714 C 137.55499999999998 47.711 137.71600000000004 47.92750000000001 137.76699999999997 48.2251 C 137.818 48.51859999999999 137.73799999999997 48.78059999999999 137.528 49.003 C 137.314 49.226 137.00299999999996 49.37039999999999 136.597 49.4401 C 136.191 49.5098 135.85 49.4773 135.578 49.3377 C 135.306 49.1982 135.14400000000003 48.98169999999999 135.093 48.6841 C 135.042 48.3865 135.12199999999999 48.128600000000006 135.33600000000004 47.9055 C 135.54599999999996 47.683099999999996 135.852 47.53540000000001 136.258 47.4657 ZM 135.49500000000003 48.6151 C 135.55099999999996 48.940799999999996 135.92999999999998 49.0993 136.521 48.9978 C 137.112 48.8963 137.42099999999996 48.6198 137.36500000000004 48.2941 C 137.30800000000002 47.96029999999999 136.929 47.80590000000001 136.33399999999997 47.90809999999999 C 135.74299999999997 48.0095 135.43800000000002 48.2813 135.49500000000003 48.6151 ZM 134.32399999999998 43.89150000000001 L 136.91800000000003 43.44630000000001 L 137.016 44.017300000000006 L 135.105 45.5458 L 135.11000000000004 45.54910000000001 C 135.23799999999997 45.4982 135.376 45.458 135.532 45.431 L 137.19700000000003 45.14529999999999 L 137.27199999999996 45.5796 L 134.67800000000003 46.0248 L 134.576 45.42959999999999 L 136.475 43.928 L 136.47 43.9247 C 136.342 43.9756 136.20399999999998 44.0158 136.04800000000003 44.0428 L 134.39900000000003 44.3258 L 134.32399999999998 43.89150000000001 Z" fill="#FF8158"/>
<path d="M 109.624 54.8185 L 110.59700000000001 55.2766 L 110.6 55.2719 C 110.571 55.2231 110.547 55.156800000000004 110.53299999999999 55.0723 C 110.49199999999999 54.8351 110.54099999999997 54.61150000000001 110.67999999999998 54.4096 C 110.81800000000001 54.2037 111.01199999999997 54.0793 111.26199999999997 54.03649999999999 C 111.51500000000001 53.992999999999995 111.74800000000002 54.04820000000001 111.96099999999998 54.206199999999995 C 112.174 54.3601 112.30100000000002 54.5701 112.34700000000001 54.8395 C 112.39400000000003 55.108900000000006 112.34399999999997 55.3493 112.19399999999999 55.5613 C 112.04400000000001 55.773300000000006 111.84200000000001 55.899100000000004 111.58899999999997 55.9426 C 111.35999999999999 55.981899999999996 111.08200000000002 55.93430000000001 110.76199999999997 55.803 L 109.71899999999997 55.3694 L 109.624 54.8185 ZM 110.92300000000003 55.0758 C 110.94800000000001 55.22460000000001 111.02200000000002 55.3403 111.13899999999998 55.4195 C 111.25500000000002 55.4948 111.38399999999999 55.5223 111.525 55.4982 C 111.66999999999999 55.473299999999995 111.78599999999997 55.4037 111.87000000000003 55.2899 C 111.95399999999998 55.17609999999999 111.98600000000002 55.04650000000001 111.96000000000001 54.8977 C 111.934 54.748999999999995 111.862 54.63730000000001 111.744 54.55799999999999 C 111.62699999999998 54.47880000000001 111.494 54.451899999999995 111.35 54.4768 C 111.05999999999997 54.5265 110.87199999999999 54.78229999999999 110.92300000000003 55.0758 ZM 108.90099999999998 50.53139999999999 L 111.494 50.08619999999999 L 111.59200000000001 50.6572 L 109.68100000000001 52.1857 L 109.686 52.18899999999999 C 109.814 52.13810000000001 109.95200000000003 52.09790000000001 110.10900000000001 52.071 L 111.773 51.7852 L 111.84799999999998 52.2195 L 109.25399999999999 52.66470000000001 L 109.15200000000002 52.06960000000001 L 111.05100000000002 50.56790000000001 L 111.047 50.5646 C 110.91900000000001 50.6155 110.78099999999998 50.6558 110.624 50.6827 L 108.975 50.9657 L 108.90099999999998 50.53139999999999 Z" fill="#FF8158"/>
<path d="M 161.58700000000002 46.02719999999999 L 164.17999999999998 45.581999999999994 L 164.25699999999998 46.032399999999996 L 162.066 46.40860000000001 L 162.18300000000002 47.09219999999999 L 161.76199999999997 47.04859999999999 L 161.58700000000002 46.02719999999999 ZM 161.16099999999997 43.621399999999994 L 162.717 43.354299999999995 L 162.655 42.9924 L 163.057 42.9233 L 163.119 43.2852 L 163.76699999999997 43.17410000000001 L 163.843 43.6164 L 163.19499999999996 43.727599999999995 L 163.386 44.8374 L 162.97600000000003 44.93260000000001 L 161.26900000000003 44.2487 L 161.16099999999997 43.621399999999994 ZM 161.607 44.00020000000001 L 162.915 44.5043 L 162.79300000000003 43.7966 L 161.607 44.00020000000001 ZM 160.46200000000002 39.4046 L 163.056 38.9594 L 163.15400000000002 39.5304 L 161.24299999999997 41.058899999999994 L 161.24799999999996 41.06229999999999 C 161.37500000000003 41.011300000000006 161.513 40.97110000000001 161.67 40.944199999999995 L 163.335 40.6584 L 163.41 41.09270000000001 L 160.816 41.53790000000001 L 160.71399999999997 40.942800000000005 L 162.61299999999997 39.441100000000006 L 162.60799999999998 39.43780000000001 C 162.48 39.488699999999994 162.342 39.528999999999996 162.18499999999997 39.55590000000001 L 160.537 39.838899999999995 L 160.46200000000002 39.4046 Z" fill="#FF8158"/>
<path d="M 188.059 41.48349999999999 L 190.653 41.03829999999999 L 190.73 41.488699999999994 L 188.53900000000002 41.864900000000006 L 188.65599999999998 42.54849999999999 L 188.23500000000004 42.50489999999999 L 188.059 41.48349999999999 ZM 188.258 38.730500000000006 C 188.463 38.6953 188.646 38.7508 188.799 38.8943 C 188.90199999999996 38.6241 189.10100000000003 38.4615 189.395 38.411100000000005 C 189.64000000000001 38.369 189.852 38.4237 190.04 38.5737 C 190.227 38.72370000000001 190.34100000000004 38.9277 190.38500000000002 39.189099999999996 C 190.42999999999998 39.450500000000005 190.39199999999997 39.68469999999999 190.26500000000001 39.8886 C 190.13900000000004 40.0924 189.95700000000002 40.21469999999999 189.71200000000002 40.2568 C 189.41 40.3086 189.16800000000003 40.225899999999996 188.994 40.00739999999999 C 188.9 40.185 188.74500000000003 40.294399999999996 188.532 40.331 C 188.335 40.3648 188.157 40.3167 187.994 40.1833 C 187.826 40.050700000000006 187.725 39.873400000000004 187.68700000000004 39.65219999999999 C 187.64900000000003 39.4311 187.68499999999997 39.2303 187.799 39.04939999999999 C 187.90900000000002 38.8691 188.061 38.764399999999995 188.258 38.730500000000006 ZM 188.46200000000002 39.900000000000006 C 188.66800000000003 39.8648 188.795 39.68979999999999 188.75699999999998 39.46860000000001 C 188.72 39.2555 188.54099999999997 39.1289 188.33600000000004 39.16409999999999 C 188.13900000000004 39.19800000000001 188.018 39.384299999999996 188.05300000000003 39.5894 C 188.088 39.7945 188.26500000000001 39.93379999999999 188.46200000000002 39.900000000000006 ZM 189.636 39.81450000000001 C 189.761 39.79310000000001 189.86100000000002 39.730199999999996 189.934 39.622600000000006 C 190.00699999999998 39.5149 190.03099999999998 39.39070000000001 190.00699999999998 39.25399999999999 C 189.98500000000004 39.12129999999999 189.92099999999996 39.0163 189.81700000000004 38.93899999999999 C 189.71200000000002 38.8617 189.59600000000003 38.831999999999994 189.47100000000003 38.85339999999999 C 189.21399999999997 38.8976 189.044 39.1379 189.09100000000004 39.4113 C 189.138 39.684799999999996 189.37799999999996 39.8587 189.636 39.81450000000001 ZM 186.93499999999997 34.8609 L 189.52900000000002 34.4157 L 189.62699999999998 34.9867 L 187.71600000000004 36.51519999999999 L 187.72100000000003 36.5185 C 187.84799999999998 36.467600000000004 187.98600000000002 36.427400000000006 188.143 36.400499999999994 L 189.80800000000002 36.1147 L 189.883 36.54900000000001 L 187.28900000000002 36.994200000000006 L 187.18700000000004 36.399 L 189.08600000000004 34.897400000000005 L 189.081 34.89410000000001 C 188.953 34.94499999999999 188.81499999999997 34.985299999999995 188.658 35.01220000000001 L 187.01000000000002 35.295199999999994 L 186.93499999999997 34.8609 Z" fill="#FF8158"/>
<path d="M 96.19579999999999 57.0489 L 97.75199999999998 56.781800000000004 L 97.6899 56.4199 L 98.09200000000001 56.35079999999999 L 98.1541 56.7127 L 98.8015 56.60159999999999 L 98.8775 57.04390000000001 L 98.22999999999999 57.155100000000004 L 98.4205 58.2649 L 98.01050000000001 58.3601 L 96.30350000000001 57.676199999999994 L 96.19579999999999 57.0489 ZM 96.64169999999999 57.4277 L 97.9494 57.93180000000001 L 97.8279 57.22409999999999 L 96.64169999999999 57.4277 ZM 95.49679999999998 52.8321 L 98.09049999999999 52.3869 L 98.1885 52.957899999999995 L 96.2775 54.4864 L 96.28229999999999 54.4897 C 96.4101 54.4388 96.5481 54.3986 96.70489999999998 54.3716 L 98.3697 54.08590000000001 L 98.4442 54.5202 L 95.85060000000001 54.9654 L 95.7484 54.3702 L 97.6474 52.8686 L 97.64270000000002 52.86529999999999 C 97.51489999999998 52.9162 97.3769 52.956500000000005 97.22 52.9834 L 95.57140000000001 53.266400000000004 L 95.49679999999998 52.8321 Z" fill="#FF8158"/>
<path d="M 148.182 48.32820000000001 L 150.77599999999998 47.88290000000001 L 150.85299999999998 48.33330000000001 L 148.662 48.70949999999999 L 148.77900000000002 49.393100000000004 L 148.35799999999998 49.349500000000006 L 148.182 48.32820000000001 ZM 147.82399999999998 46.52770000000001 C 147.78 46.2743 147.816 46.0488 147.936 45.8544 C 148.05499999999998 45.65989999999999 148.22600000000003 45.5437 148.44700000000003 45.505799999999994 C 148.66 45.4692 148.87500000000003 45.51509999999999 149.08399999999997 45.64490000000001 C 149.222 45.7287 149.34799999999998 45.810599999999994 149.458 45.89529999999999 L 150.10600000000002 46.3925 L 149.91300000000004 45.2666 L 150.31499999999997 45.197599999999994 L 150.60799999999998 46.9025 L 150.21600000000004 46.98230000000001 C 149.79 46.64959999999999 149.491 46.4237 149.321 46.303799999999995 C 149.165 46.19380000000001 149.021 46.102599999999995 148.88500000000002 46.0309 C 148.761 45.961 148.634 45.94149999999999 148.506 45.967600000000004 C 148.309 46.0055 148.182 46.2013 148.22799999999998 46.470699999999994 C 148.271 46.71600000000001 148.456 46.8828 148.696 46.90780000000001 L 148.57700000000003 47.30080000000001 C 148.203 47.2449 147.895 46.945899999999995 147.82399999999998 46.52770000000001 ZM 147.05800000000002 41.7055 L 149.65199999999996 41.2603 L 149.75000000000003 41.8313 L 147.83899999999997 43.35990000000001 L 147.843 43.363200000000006 C 147.97100000000003 43.31229999999999 148.109 43.27199999999999 148.266 43.24510000000001 L 149.931 42.9593 L 150.00500000000002 43.39359999999999 L 147.412 43.83879999999999 L 147.30999999999997 43.24369999999999 L 149.20899999999997 41.74209999999999 L 149.20399999999998 41.738699999999994 C 149.076 41.78970000000001 148.93800000000002 41.82990000000001 148.78099999999998 41.85679999999999 L 147.13199999999998 42.13980000000001 L 147.05800000000002 41.7055 Z" fill="#FF8158"/>
<path d="M 123.292 52.1575 C 123.49699999999999 52.122299999999996 123.68100000000001 52.17779999999999 123.833 52.32130000000001 C 123.936 52.05109999999999 124.136 51.88849999999999 124.429 51.8381 C 124.67499999999998 51.79599999999999 124.88699999999997 51.8506 125.07399999999998 52.000699999999995 C 125.261 52.1507 125.37500000000003 52.35470000000001 125.41999999999999 52.6161 C 125.465 52.8775 125.42600000000002 53.1117 125.29999999999998 53.3156 C 125.17300000000003 53.51939999999999 124.99199999999999 53.6417 124.74600000000001 53.68379999999999 C 124.44499999999996 53.735600000000005 124.203 53.6529 124.02900000000002 53.4344 C 123.93499999999997 53.611999999999995 123.78 53.7214 123.56699999999998 53.75800000000001 C 123.37000000000003 53.791799999999995 123.19199999999998 53.74369999999999 123.02799999999999 53.610299999999995 C 122.85999999999999 53.4777 122.76000000000002 53.300399999999996 122.72200000000001 53.0792 C 122.684 52.85810000000001 122.72 52.65729999999999 122.833 52.47630000000001 C 122.94300000000001 52.296099999999996 123.095 52.1913 123.292 52.1575 ZM 123.49699999999999 53.327 C 123.70200000000003 53.291799999999995 123.82899999999998 53.1168 123.79099999999997 52.8956 C 123.75500000000002 52.682500000000005 123.576 52.55590000000001 123.37100000000001 52.5911 C 123.174 52.6249 123.05199999999999 52.8113 123.088 53.016400000000004 C 123.12300000000002 53.22149999999999 123.29999999999998 53.3608 123.49699999999999 53.327 ZM 124.66999999999999 53.2415 C 124.79499999999999 53.2201 124.89599999999999 53.1572 124.96899999999997 53.0496 C 125.04099999999997 52.941900000000004 125.06499999999997 52.8177 125.042 52.681 C 125.01900000000003 52.5483 124.95599999999999 52.443299999999994 124.85100000000003 52.366 C 124.74699999999999 52.288700000000006 124.63000000000002 52.259 124.50500000000002 52.2804 C 124.24800000000002 52.324600000000004 124.078 52.564899999999994 124.12500000000003 52.838300000000004 C 124.172 53.1118 124.41299999999998 53.28569999999999 124.66999999999999 53.2415 ZM 121.97 48.287800000000004 L 124.56300000000002 47.842600000000004 L 124.66099999999997 48.4136 L 122.75000000000003 49.9422 L 122.75500000000002 49.94550000000001 C 122.88300000000001 49.8946 123.02099999999999 49.854299999999995 123.17800000000003 49.8274 L 124.84200000000001 49.5416 L 124.917 49.975899999999996 L 122.32300000000001 50.421099999999996 L 122.22100000000003 49.82599999999999 L 124.12000000000003 48.3244 L 124.11600000000001 48.321 C 123.98799999999997 48.372 123.85 48.4122 123.69300000000001 48.439099999999996 L 122.04400000000001 48.7221 L 121.97 48.287800000000004 Z" fill="#FF8158"/>
<path d="M 174.65599999999998 43.7842 L 177.249 43.339 L 177.326 43.7894 L 175.13500000000002 44.16550000000001 L 175.25199999999998 44.84909999999999 L 174.831 44.8056 L 174.65599999999998 43.7842 ZM 174.25500000000002 41.4486 L 175.227 41.906800000000004 L 175.23100000000002 41.902 C 175.20200000000003 41.8532 175.17800000000003 41.7869 175.16300000000004 41.7025 C 175.12299999999996 41.46520000000001 175.17099999999996 41.241600000000005 175.30999999999997 41.03970000000001 C 175.44899999999998 40.8338 175.643 40.70949999999999 175.89199999999997 40.66669999999999 C 176.145 40.6232 176.379 40.67840000000001 176.592 40.836299999999994 C 176.80499999999998 40.9902 176.932 41.200199999999995 176.97799999999998 41.4697 C 177.02400000000003 41.73910000000001 176.97399999999996 41.9794 176.82499999999996 42.19149999999999 C 176.67499999999998 42.40350000000001 176.47299999999998 42.5292 176.21899999999997 42.5727 C 175.99000000000004 42.611999999999995 175.713 42.564400000000006 175.39199999999997 42.4332 L 174.34899999999996 41.9996 L 174.25500000000002 41.4486 ZM 175.55300000000003 41.706 C 175.57899999999998 41.85470000000001 175.65199999999996 41.9704 175.76900000000003 42.0497 C 175.886 42.1249 176.01500000000001 42.1525 176.155 42.128299999999996 C 176.29999999999998 42.1035 176.417 42.0338 176.501 41.92 C 176.585 41.80629999999999 176.616 41.6767 176.59100000000004 41.5279 C 176.56499999999997 41.379099999999994 176.492 41.26740000000001 176.37500000000003 41.188199999999995 C 176.258 41.108900000000006 176.12500000000003 41.0821 175.98 41.106899999999996 C 175.691 41.1566 175.50299999999996 41.41239999999999 175.55300000000003 41.706 ZM 173.53099999999998 37.16159999999999 L 176.12500000000003 36.71639999999999 L 176.22299999999998 37.28739999999999 L 174.31200000000004 38.8159 L 174.31700000000004 38.819199999999995 C 174.444 38.76830000000001 174.58200000000002 38.7281 174.739 38.7011 L 176.40400000000002 38.415400000000005 L 176.479 38.8497 L 173.88500000000002 39.2949 L 173.783 38.69970000000001 L 175.682 37.1981 L 175.677 37.1948 C 175.549 37.2457 175.41099999999997 37.2859 175.254 37.3129 L 173.60600000000002 37.5959 L 173.53099999999998 37.16159999999999 Z" fill="#FF8158"/>
<path d="M 199.80800000000002 39.88040000000001 C 199.76500000000001 39.6271 199.79999999999998 39.4015 199.92 39.2071 C 200.04 39.012699999999995 200.21 38.8965 200.432 38.85849999999999 C 200.645 38.8219 200.86000000000004 38.8678 201.068 38.997600000000006 C 201.20700000000002 39.081500000000005 201.333 39.163399999999996 201.44200000000004 39.24799999999999 L 202.09100000000004 39.7453 L 201.89699999999996 38.61930000000001 L 202.29999999999998 38.55029999999999 L 202.592 40.255300000000005 L 202.19999999999996 40.33500000000001 C 201.775 40.002399999999994 201.475 39.776399999999995 201.30499999999998 39.656499999999994 C 201.15 39.5466 201.006 39.4554 200.869 39.3836 C 200.746 39.3138 200.61799999999997 39.29429999999999 200.49000000000004 39.32040000000001 C 200.294 39.3582 200.16599999999997 39.554 200.21200000000002 39.823499999999996 C 200.254 40.06870000000001 200.43999999999997 40.2355 200.681 40.26050000000001 L 200.56200000000004 40.65350000000001 C 200.18800000000002 40.5976 199.88000000000002 40.29859999999999 199.80800000000002 39.88040000000001 ZM 200.597 36.4216 C 201.00299999999996 36.3519 201.345 36.38849999999999 201.621 36.5273 C 201.893 36.6669 202.05499999999998 36.883399999999995 202.10600000000002 37.181 C 202.15599999999998 37.474500000000006 202.07700000000003 37.73650000000001 201.867 37.9589 C 201.653 38.1819 201.342 38.3263 200.936 38.396 C 200.53 38.4657 200.189 38.4332 199.917 38.2936 C 199.64400000000003 38.1541 199.48299999999998 37.9376 199.432 37.64 C 199.381 37.3424 199.46100000000004 37.08449999999999 199.67499999999998 36.8614 C 199.88500000000002 36.63900000000001 200.191 36.491299999999995 200.597 36.4216 ZM 199.83399999999997 37.571 C 199.89000000000001 37.89670000000001 200.26900000000003 38.0552 200.86000000000004 37.9537 C 201.451 37.85220000000001 201.76000000000002 37.5757 201.70399999999998 37.25 C 201.646 36.91630000000001 201.268 36.761799999999994 200.67300000000003 36.864000000000004 C 200.08200000000002 36.9654 199.77699999999996 37.2372 199.83399999999997 37.571 ZM 198.66300000000004 32.84739999999999 L 201.25699999999998 32.40219999999999 L 201.355 32.97319999999999 L 199.444 34.5017 L 199.448 34.504999999999995 C 199.576 34.4541 199.71399999999997 34.4139 199.871 34.387 L 201.53599999999997 34.101200000000006 L 201.61000000000004 34.5355 L 199.01699999999997 34.9807 L 198.915 34.3856 L 200.814 32.8839 L 200.809 32.8806 C 200.681 32.9315 200.54300000000003 32.9718 200.386 32.9987 L 198.73799999999997 33.2817 L 198.66300000000004 32.84739999999999 Z" fill="#FF8158"/>
</svg>
