<svg width="112" height="656" viewBox="0 0 112 656" fill="none" xmlns="http://www.w3.org/2000/svg">
<path d="M54.1834 79.1774C21.1834 77.6102 2.18335 107.387 2.18335 107.387L3.18338 582.244C3.18338 582.244 15.1834 612.021 55.1834 608.887C95.1834 605.752 106.183 586.946 106.183 586.946L107.183 101.118C107.183 101.118 87.1834 80.7446 54.1834 79.1774Z" fill="white"/>
<path d="M105.958 595.948C105.958 602.757 83.4234 608.279 55.6244 608.279C27.8272 608.279 5.29102 602.757 5.29102 595.948C5.29102 589.138 27.8272 583.616 55.6244 583.616C83.4234 583.616 105.958 589.138 105.958 595.948Z" stroke="#9C9B9B" stroke-width="10.582" stroke-linecap="round" stroke-linejoin="round"/>
<path d="M105.958 92.5279C105.958 99.3374 83.4234 104.859 55.6244 104.859C27.8272 104.859 5.29102 99.3374 5.29102 92.5279C5.29102 85.7166 27.8272 80.1963 55.6244 80.1963C83.4234 80.1963 105.958 85.7166 105.958 92.5279Z" stroke="#9C9B9B" stroke-width="10.582" stroke-linecap="round" stroke-linejoin="round"/>
<path d="M95.0086 201.198C95.0086 206.526 77.3755 210.847 55.6224 210.847C33.871 210.847 16.2361 206.526 16.2361 201.198C16.2361 195.868 33.871 191.549 55.6224 191.549C77.3755 191.549 95.0086 195.868 95.0086 201.198Z" fill="#EF3A50"/>
<path d="M54.8501 196.074V622.782" stroke="#565655" stroke-width="7.05468" stroke-linecap="round" stroke-linejoin="round"/>
<path d="M54.8518 624.31C47.3474 624.31 41.2627 630.392 41.2627 637.897C41.2627 645.401 47.3474 651.484 54.8518 651.484C62.3562 651.484 68.4373 645.401 68.4373 637.897" stroke="#565655" stroke-width="7.05468" stroke-linecap="round" stroke-linejoin="round"/>
<path d="M95.0086 201.198C95.0086 206.526 77.3755 210.849 55.6224 210.849C33.871 210.849 16.2361 206.526 16.2361 201.198" fill="#EF3A50"/>
<path d="M58.3737 201.2C58.3737 201.579 56.9875 202.075 54.8517 202.075C52.4919 202.075 51.3279 201.579 51.3279 201.2C51.3279 200.821 52.9046 200.512 54.8517 200.512C56.7953 200.512 58.3737 200.821 58.3737 201.2Z" fill="#565655"/>
<path d="M92.4832 201.198C92.4832 206.526 75.9805 210.849 55.6243 210.849C35.268 210.849 18.7671 206.526 18.7671 201.198" stroke="#813A50" stroke-width="5.29101" stroke-miterlimit="10" stroke-linecap="round"/>
<path d="M105.958 595.948C105.958 602.757 83.4234 608.279 55.6244 608.279C27.8272 608.279 5.29102 602.757 5.29102 595.948" stroke="#1D1D1B" stroke-width="10.582" stroke-linecap="round" stroke-linejoin="round"/>
<path d="M105.956 92.5278V591.948" stroke="#1D1D1B" stroke-width="10.582" stroke-linecap="round" stroke-linejoin="round"/>
<path d="M64.6622 45.3536L52.9373 52.0003C52.7176 52.1236 52.449 52.1236 52.232 51.995L51.0763 51.3145C50.8566 51.1859 50.8511 50.8724 51.0682 50.7385L60.4872 44.7937C60.7883 44.6035 61.1274 44.4856 61.4828 44.4535C61.7215 44.432 61.9494 44.4213 62.1664 44.4213C62.9504 44.4213 63.767 44.5633 64.6134 44.8446C64.8467 44.9223 64.8766 45.2358 64.6622 45.3563V45.3536ZM47.3244 55.2044C47.1617 55.2982 46.9935 55.3866 46.8226 55.4723C45.8432 55.9144 45.3549 56.4395 45.3549 57.0503C45.3549 57.1441 45.363 57.2834 45.382 57.4709L45.3956 57.7629C45.4282 58.1621 45.4471 58.3952 45.4471 58.4621C45.4471 59.3944 45.0511 60.2142 44.2616 60.9161C43.4613 61.6207 42.5335 61.9717 41.4783 61.9717C40.7404 61.9717 40.111 61.7332 39.5901 61.2591C39.072 60.7849 38.8115 60.2035 38.8115 59.5177C38.8115 58.2291 39.8207 57.1467 41.8391 56.2734L44.5194 55.116C45.5231 54.6847 46.1118 54.2132 46.2827 53.7042L46.885 53.3479C47.1074 53.2166 47.3868 53.2166 47.6093 53.3479L48.5669 53.9239C48.7894 54.0578 48.7867 54.3793 48.5588 54.5079L47.3244 55.2018V55.2044ZM43.4858 56.844C43.1331 56.844 42.6746 56.9753 42.1076 57.2378L41.4755 57.5432C40.3497 58.1112 39.7881 58.7568 39.7881 59.4775C39.7881 59.9115 39.9536 60.2839 40.2846 60.5973C40.6156 60.9108 41.0089 61.0688 41.462 61.0688C42.227 61.0688 42.9242 60.7768 43.5617 60.1901C44.1965 59.6061 44.5139 58.9658 44.5139 58.2693C44.5139 57.3209 44.1694 56.844 43.483 56.844H43.4858Z" fill="#DE006E"/>
<path d="M58.3086 32.6455V77.6455" stroke="black" stroke-width="2"/>
<path d="M64.6132 60.364C63.642 60.6881 62.6627 60.8516 61.6752 60.8516H61.667C61.2547 60.8516 60.8505 60.7283 60.4978 60.5113L46.6569 51.984C46.5158 51.8982 46.4344 51.7428 46.4344 51.5794C46.4344 51.1401 45.9868 50.6444 45.0943 50.0952L41.0114 47.585C39.5438 46.6741 38.8086 45.849 38.8086 45.1096C38.8086 44.5389 39.0446 44.0701 39.5166 43.7004C39.9887 43.3307 40.5936 43.1458 41.3315 43.1458C42.7911 43.1458 44.1827 43.6924 45.5039 44.7854C46.8251 45.8704 47.4571 46.9902 47.3975 48.1422L47.3595 48.7664L47.3324 49.0852V49.2004C47.3324 49.905 47.7013 50.3926 48.4392 50.6632L48.7213 50.765C48.9004 50.832 49.2314 51.0061 49.7142 51.2874L64.6647 59.8523C64.8791 59.9755 64.8465 60.2863 64.6132 60.3667V60.364ZM44.7741 45.3855C43.6836 44.5121 42.5713 44.0755 41.4373 44.0755C40.8866 44.0755 40.4743 44.1612 40.2003 44.33C39.9263 44.5014 39.7879 44.7559 39.7879 45.0962C39.7879 45.5141 40.2383 46.0044 41.1416 46.567L44.0905 48.3753C44.7687 48.7718 45.2706 48.9701 45.5988 48.9701C46.1387 48.9701 46.41 48.6646 46.41 48.0538C46.41 47.1456 45.8647 46.2562 44.7741 45.3828V45.3855ZM49.7142 52C49.4023 52 49.1473 52.2519 49.1473 52.56C49.1473 52.868 49.4023 53.1199 49.7142 53.1199C50.0262 53.1199 50.2812 52.868 50.2812 52.56C50.2812 52.2519 50.0262 52 49.7142 52Z" fill="#DE006E"/>
<path d="M42.8181 18.3616C42.8181 27.0406 49.8534 34.0776 58.5342 34.0776C67.2132 34.0776 74.2502 27.0406 74.2502 18.3616C74.2502 9.68255 67.2132 2.64551 58.5342 2.64551C49.8534 2.64551 42.8181 9.68255 42.8181 18.3616Z" stroke="#F19100" stroke-width="5.29101" stroke-miterlimit="10" stroke-linecap="round"/>
<path d="M15.5085 109.595C15.5085 112.138 95.498 112.139 95.498 114.684C95.498 117.226 15.5085 117.226 15.5085 119.771C15.5085 122.315 95.498 122.315 95.498 124.858C95.498 127.402 15.5085 127.402 15.5085 129.945C15.5085 132.489 95.498 132.489 95.498 135.033C95.498 137.576 15.5085 137.576 15.5085 140.119C15.5085 142.664 95.498 142.665 95.498 145.21C95.498 147.753 15.5085 147.753 15.5085 150.297C15.5085 152.841 95.498 152.841 95.498 155.384C95.498 157.929 15.5085 157.929 15.5085 160.473C15.5085 163.018 95.498 163.018 95.498 165.561C95.498 168.105 15.5085 168.105 15.5085 170.65C15.5085 173.194 95.498 173.194 95.498 175.739C95.498 178.284 15.5085 178.284 15.5085 180.829C15.5085 183.374 95.498 183.374 95.498 185.919" stroke="#858585" stroke-width="7.05468" stroke-linecap="round" stroke-linejoin="round"/>
<path d="M15.5085 180.828C15.5085 183.373 95.498 183.374 95.498 185.919C95.498 187.038 80.043 187.649 62.7308 188.232C54.7308 188.502 54.7308 190.244 54.7308 195.645" stroke="#565655" stroke-width="7.05468" stroke-linecap="round" stroke-linejoin="round"/>
<path d="M15.5085 170.65C15.5085 173.195 95.498 173.195 95.498 175.739" stroke="#565655" stroke-width="7.05468" stroke-linecap="round" stroke-linejoin="round"/>
<path d="M15.5085 89.2412C15.5085 91.7848 95.498 91.7848 95.498 94.3297C95.498 96.8733 15.5085 96.8733 15.5085 99.4169C15.5085 101.961 95.498 101.961 95.498 104.505C95.498 107.049 15.5085 107.05 15.5085 109.595C15.5085 112.138 95.498 112.138 95.498 114.683C95.498 117.227 15.5085 117.227 15.5085 119.77C15.5085 122.315 95.498 122.315 95.498 124.86C95.498 127.404 15.5085 127.404 15.5085 129.949C15.5085 132.494 95.498 132.494 95.498 135.039" stroke="#858585" stroke-width="7.05468" stroke-linecap="round" stroke-linejoin="round"/>
<path d="M15.5085 160.473C15.5085 163.018 95.498 163.018 95.498 165.561" stroke="#565655" stroke-width="7.05468" stroke-linecap="round" stroke-linejoin="round"/>
<path d="M15.5085 150.297C15.5085 152.841 95.498 152.841 95.498 155.385" stroke="#565655" stroke-width="7.05468" stroke-linecap="round" stroke-linejoin="round"/>
<path d="M15.5085 140.12C15.5085 142.665 95.498 142.665 95.498 145.209" stroke="#565655" stroke-width="7.05468" stroke-linecap="round" stroke-linejoin="round"/>
<path d="M15.5085 129.945C15.5085 132.488 95.498 132.488 95.498 135.032" stroke="#565655" stroke-width="7.05468" stroke-linecap="round" stroke-linejoin="round"/>
<path d="M15.5085 119.771C15.5085 122.315 95.498 122.315 95.498 124.859" stroke="#565655" stroke-width="7.05468" stroke-linecap="round" stroke-linejoin="round"/>
<path d="M15.5085 109.593C15.5085 112.138 95.498 112.138 95.498 114.682" stroke="#565655" stroke-width="7.05468" stroke-linecap="round" stroke-linejoin="round"/>
<path d="M15.5085 99.417C15.5085 101.961 95.498 101.961 95.498 104.506" stroke="#565655" stroke-width="7.05468" stroke-linecap="round" stroke-linejoin="round"/>
<path d="M95.4997 94.3299C95.4997 91.785 15.5103 91.785 15.5103 89.2414C15.5103 86.3707 43.803 81.6455 55.5032 81.6455" stroke="#565655" stroke-width="7.05468" stroke-linecap="round" stroke-linejoin="round"/>
<path d="M5.29272 92.5279C5.29272 85.7166 27.8271 80.1963 55.6243 80.1963C83.4233 80.1963 105.958 85.7166 105.958 92.5279" stroke="#1D1D1B" stroke-width="10.582" stroke-linecap="round" stroke-linejoin="round"/>
<path d="M45.7249 404.748C22.6755 403.62 5.30859 398.636 5.30859 392.657" stroke="#FF8158" stroke-width="3.52734" stroke-linecap="round" stroke-linejoin="round"/>
<path d="M45.4973 384.46C22.5608 383.31 5.30859 378.338 5.30859 372.378" stroke="#FF8158" stroke-width="3.52734" stroke-linecap="round" stroke-linejoin="round"/>
<path d="M45.4973 365.581C22.5608 364.431 5.30859 359.459 5.30859 353.5" stroke="#FF8158" stroke-width="3.52734" stroke-linecap="round" stroke-linejoin="round"/>
<path d="M45.4973 345.304C22.5608 344.154 5.30859 339.183 5.30859 333.223" stroke="#FF8158" stroke-width="3.52734" stroke-linecap="round" stroke-linejoin="round"/>
<path d="M45.7249 326.436C22.6755 325.308 5.30859 320.324 5.30859 314.345" stroke="#FF8158" stroke-width="3.52734" stroke-linecap="round" stroke-linejoin="round"/>
<path d="M45.4973 306.147C22.5608 304.997 5.30859 300.025 5.30859 294.066" stroke="#FF8158" stroke-width="3.52734" stroke-linecap="round" stroke-linejoin="round"/>
<path d="M45.4815 287.269C22.5449 286.119 5.29272 281.147 5.29272 275.188" stroke="#FF8158" stroke-width="3.52734" stroke-linecap="round" stroke-linejoin="round"/>
<path d="M44.97 266.992C22.0335 265.842 4.78125 260.87 4.78125 254.911" stroke="#FF8158" stroke-width="3.52734" stroke-linecap="round" stroke-linejoin="round"/>
<path d="M45.4973 248.113C22.5608 246.963 5.30859 241.992 5.30859 236.032" stroke="#FF8158" stroke-width="3.52734" stroke-linecap="round" stroke-linejoin="round"/>
<path d="M45.4973 229.235C22.5608 228.086 5.30859 223.114 5.30859 217.154" stroke="#FF8158" stroke-width="3.52734" stroke-linecap="round" stroke-linejoin="round"/>
<path d="M45.4973 210.235C22.5608 209.086 5.30859 204.114 5.30859 198.154" stroke="#FF8158" stroke-width="3.52734" stroke-linecap="round" stroke-linejoin="round"/>
<path d="M45.7249 598.748C22.6755 597.62 5.30859 592.636 5.30859 586.657" stroke="#FF8158" stroke-width="3.52734" stroke-linecap="round" stroke-linejoin="round"/>
<path d="M45.4973 578.46C22.5608 577.31 5.30859 572.338 5.30859 566.378" stroke="#FF8158" stroke-width="3.52734" stroke-linecap="round" stroke-linejoin="round"/>
<path d="M45.4973 559.581C22.5608 558.431 5.30859 553.459 5.30859 547.5" stroke="#FF8158" stroke-width="3.52734" stroke-linecap="round" stroke-linejoin="round"/>
<path d="M45.4973 539.304C22.5608 538.154 5.30859 533.183 5.30859 527.223" stroke="#FF8158" stroke-width="3.52734" stroke-linecap="round" stroke-linejoin="round"/>
<path d="M45.7249 520.436C22.6755 519.308 5.30859 514.324 5.30859 508.345" stroke="#FF8158" stroke-width="3.52734" stroke-linecap="round" stroke-linejoin="round"/>
<path d="M45.4973 500.147C22.5608 498.997 5.30859 494.025 5.30859 488.066" stroke="#FF8158" stroke-width="3.52734" stroke-linecap="round" stroke-linejoin="round"/>
<path d="M45.4815 481.269C22.5449 480.119 5.29272 475.147 5.29272 469.188" stroke="#FF8158" stroke-width="3.52734" stroke-linecap="round" stroke-linejoin="round"/>
<path d="M44.97 460.992C22.0335 459.842 4.78125 454.87 4.78125 448.911" stroke="#FF8158" stroke-width="3.52734" stroke-linecap="round" stroke-linejoin="round"/>
<path d="M45.4973 442.113C22.5608 440.963 5.30859 435.992 5.30859 430.032" stroke="#FF8158" stroke-width="3.52734" stroke-linecap="round" stroke-linejoin="round"/>
<path d="M45.4973 423.235C22.5608 422.086 5.30859 417.114 5.30859 411.154" stroke="#FF8158" stroke-width="3.52734" stroke-linecap="round" stroke-linejoin="round"/>
<path d="M5.29102 92.5278V596.948" stroke="#1D1D1B" stroke-width="10.582" stroke-linecap="round" stroke-linejoin="round"/>
<path d="M66.7243 225.906V233.646H65.3803V227.106H63.3403L63.6763 225.906H66.7243ZM79.8837 225.942V233.682H78.1797L74.6997 227.382L74.6877 227.394C74.7717 227.79 74.8197 228.21 74.8197 228.678V233.646H73.5237V225.906H75.2997L78.7077 232.158L78.7197 232.146C78.6357 231.75 78.5877 231.33 78.5877 230.862V225.942H79.8837Z" fill="#FF8158"/>
<path d="M68.5603 209.77C68.5603 210.982 68.2843 211.954 67.7443 212.686C67.2043 213.406 66.4963 213.766 65.6083 213.766C64.7323 213.766 64.0123 213.406 63.4723 212.686C62.9323 211.954 62.6683 210.982 62.6683 209.77C62.6683 208.558 62.9323 207.586 63.4723 206.866C64.0123 206.146 64.7203 205.786 65.6083 205.786C66.4963 205.786 67.2043 206.146 67.7443 206.878C68.2843 207.598 68.5603 208.558 68.5603 209.77ZM65.6083 206.986C64.6363 206.986 63.9883 208.006 63.9883 209.77C63.9883 211.534 64.6363 212.566 65.6083 212.566C66.6043 212.566 67.2403 211.546 67.2403 209.77C67.2403 208.006 66.6043 206.986 65.6083 206.986ZM79.8837 205.942V213.682H78.1797L74.6997 207.382L74.6877 207.394C74.7717 207.79 74.8197 208.21 74.8197 208.678V213.646H73.5237V205.906H75.2997L78.7077 212.158L78.7197 212.146C78.6357 211.75 78.5877 211.33 78.5877 210.862V205.942H79.8837Z" fill="#FF8158"/>
<path d="M68.3563 383.51C68.3563 384.194 68.0804 384.974 67.5403 385.838L65.7643 388.646H64.1203L65.9323 386.054L65.9203 386.042C65.7643 386.102 65.5603 386.138 65.3083 386.138C64.6003 386.138 63.9763 385.886 63.4483 385.382C62.9323 384.878 62.6683 384.254 62.6683 383.51C62.6683 382.754 62.9443 382.106 63.4963 381.566C64.0603 381.026 64.7323 380.762 65.5363 380.762C66.3403 380.762 67.0003 381.026 67.5403 381.566C68.0804 382.106 68.3563 382.754 68.3563 383.51ZM65.5123 385.01C65.9563 385.01 66.3283 384.866 66.6043 384.566C66.8923 384.266 67.0363 383.894 67.0363 383.474C67.0363 383.042 66.8923 382.67 66.6043 382.37C66.3163 382.07 65.9563 381.914 65.5123 381.914C65.0683 381.914 64.7083 382.07 64.4203 382.37C64.1323 382.67 63.9883 383.042 63.9883 383.474C63.9883 384.338 64.6363 385.01 65.5123 385.01ZM79.8837 380.942V388.682H78.1797L74.6997 382.382L74.6877 382.394C74.7717 382.79 74.8197 383.21 74.8197 383.678V388.646H73.5237V380.906H75.2997L78.7077 387.158L78.7197 387.146C78.6357 386.75 78.5877 386.33 78.5877 385.862V380.942H79.8837Z" fill="#FF8158"/>
<path d="M67.9483 302.906V304.046H64.6483L64.4203 305.894C64.7683 305.642 65.2003 305.522 65.7163 305.522C66.4483 305.522 67.0603 305.774 67.5523 306.266C68.0563 306.758 68.3083 307.382 68.3083 308.138C68.3083 308.87 68.0443 309.494 67.5163 310.022C67.0003 310.55 66.3643 310.814 65.6323 310.814C64.4083 310.814 63.5203 310.31 62.9563 309.302L63.9523 308.594C64.3003 309.278 64.8283 309.614 65.5363 309.614C66.3643 309.614 66.9763 309.038 66.9763 308.174C66.9763 307.31 66.3403 306.686 65.4163 306.686C64.8403 306.686 64.3963 306.902 64.0723 307.346L63.1843 306.77L63.6283 302.906H67.9483ZM79.8837 302.942V310.682H78.1797L74.6997 304.382L74.6877 304.394C74.7717 304.79 74.8197 305.21 74.8197 305.678V310.646H73.5237V302.906H75.2997L78.7077 309.158L78.7197 309.146C78.6357 308.75 78.5877 308.33 78.5877 307.862V302.942H79.8837Z" fill="#FF8158"/>
<path d="M66.7243 457.906V465.646H65.3803V459.106H63.3403L63.6763 457.906H66.7243ZM72.134 457.762C72.854 457.762 73.454 457.978 73.946 458.398C74.438 458.818 74.678 459.298 74.678 459.862C74.678 460.618 74.366 461.158 73.754 461.506C74.438 461.782 74.918 462.562 74.918 463.438C74.918 464.098 74.654 464.662 74.138 465.118C73.622 465.562 72.962 465.79 72.17 465.79C70.73 465.79 69.83 464.962 69.434 463.942L70.526 463.354C70.826 464.182 71.354 464.59 72.11 464.59C72.986 464.59 73.538 464.134 73.538 463.33C73.538 462.574 72.962 462.154 72.062 462.118H71.522V461.014C71.774 461.014 71.966 461.014 72.098 461.002C72.926 460.954 73.346 460.606 73.346 459.946C73.346 459.358 72.83 458.962 72.11 458.962C71.378 458.962 70.85 459.43 70.622 460.09L69.554 459.538C69.902 458.518 70.886 457.762 72.134 457.762ZM86.4813 457.942V465.682H84.7773L81.2973 459.382L81.2853 459.394C81.3693 459.79 81.4173 460.21 81.4173 460.678V465.646H80.1213V457.906H81.8973L85.3053 464.158L85.3173 464.146C85.2333 463.75 85.1853 463.33 85.1853 462.862V457.942H86.4813Z" fill="#FF8158"/>
<path d="M66.7243 536.906V544.646H65.3803V538.106H63.3403L63.6763 536.906H66.7243ZM74.702 536.906L74.798 537.998L71.834 544.706H70.322L73.37 538.106H69.806V536.906H74.702ZM86.3641 536.942V544.682H84.6601L81.1801 538.382L81.1681 538.394C81.2521 538.79 81.3001 539.21 81.3001 539.678V544.646H80.0041V536.906H81.7801L85.1881 543.158L85.2001 543.146C85.1161 542.75 85.0681 542.33 85.0681 541.862V536.942H86.3641Z" fill="#FF8158"/>
<path d="M65.5363 263.762C66.2563 263.762 66.8563 263.978 67.3483 264.398C67.8403 264.818 68.0804 265.298 68.0804 265.862C68.0804 266.618 67.7683 267.158 67.1563 267.506C67.8403 267.782 68.3204 268.562 68.3204 269.438C68.3204 270.098 68.0563 270.662 67.5403 271.118C67.0243 271.562 66.3643 271.79 65.5723 271.79C64.1323 271.79 63.2323 270.962 62.8363 269.942L63.9283 269.354C64.2283 270.182 64.7563 270.59 65.5123 270.59C66.3883 270.59 66.9403 270.134 66.9403 269.33C66.9403 268.574 66.3643 268.154 65.4643 268.118H64.9243V267.014C65.1763 267.014 65.3683 267.014 65.5003 267.002C66.3283 266.954 66.7483 266.606 66.7483 265.946C66.7483 265.358 66.2323 264.962 65.5123 264.962C64.7803 264.962 64.2523 265.43 64.0243 266.09L62.9563 265.538C63.3043 264.518 64.2883 263.762 65.5363 263.762ZM79.8837 263.942V271.682H78.1797L74.6997 265.382L74.6877 265.394C74.7717 265.79 74.8197 266.21 74.8197 266.678V271.646H73.5237V263.906H75.2997L78.7077 270.158L78.7197 270.146C78.6357 269.75 78.5877 269.33 78.5877 268.862V263.942H79.8837Z" fill="#FF8158"/>
<path d="M66.7243 418.906V426.646H65.3803V420.106H63.3403L63.6763 418.906H66.7243ZM73.322 418.906V426.646H71.978V420.106H69.938L70.274 418.906H73.322ZM86.4813 418.942V426.682H84.7773L81.2973 420.382L81.2853 420.394C81.3693 420.79 81.4173 421.21 81.4173 421.678V426.646H80.1213V418.906H81.8973L85.3053 425.158L85.3173 425.146C85.2333 424.75 85.1853 424.33 85.1853 423.862V418.942H86.4813Z" fill="#FF8158"/>
<path d="M68.1043 341.906L68.2003 342.998L65.2363 349.706H63.7243L66.7723 343.106H63.2083V341.906H68.1043ZM79.7665 341.942V349.682H78.0625L74.5825 343.382L74.5705 343.394C74.6545 343.79 74.7025 344.21 74.7025 344.678V349.646H73.4065V341.906H75.1825L78.5905 348.158L78.6025 348.146C78.5185 347.75 78.4705 347.33 78.4705 346.862V341.942H79.7665Z" fill="#FF8158"/>
<path d="M66.7243 496.906V504.646H65.3803V498.106H63.3403L63.6763 496.906H66.7243ZM74.546 496.906V498.046H71.246L71.018 499.894C71.366 499.642 71.798 499.522 72.314 499.522C73.046 499.522 73.658 499.774 74.15 500.266C74.654 500.758 74.906 501.382 74.906 502.138C74.906 502.87 74.642 503.494 74.114 504.022C73.598 504.55 72.962 504.814 72.23 504.814C71.006 504.814 70.118 504.31 69.554 503.302L70.55 502.594C70.898 503.278 71.426 503.614 72.134 503.614C72.962 503.614 73.574 503.038 73.574 502.174C73.574 501.31 72.938 500.686 72.014 500.686C71.438 500.686 70.994 500.902 70.67 501.346L69.782 500.77L70.226 496.906H74.546ZM86.4813 496.942V504.682H84.7773L81.2973 498.382L81.2853 498.394C81.3693 498.79 81.4173 499.21 81.4173 499.678V504.646H80.1213V496.906H81.8973L85.3053 503.158L85.3173 503.146C85.2333 502.75 85.1853 502.33 85.1853 501.862V496.942H86.4813Z" fill="#FF8158"/>
<path d="M66.7243 575.906V583.646H65.3803V577.106H63.3403L63.6763 575.906H66.7243ZM74.954 578.51C74.954 579.194 74.678 579.974 74.138 580.838L72.362 583.646H70.718L72.53 581.054L72.518 581.042C72.362 581.102 72.158 581.138 71.906 581.138C71.198 581.138 70.574 580.886 70.046 580.382C69.53 579.878 69.266 579.254 69.266 578.51C69.266 577.754 69.542 577.106 70.094 576.566C70.658 576.026 71.33 575.762 72.134 575.762C72.938 575.762 73.598 576.026 74.138 576.566C74.678 577.106 74.954 577.754 74.954 578.51ZM72.11 580.01C72.554 580.01 72.926 579.866 73.202 579.566C73.49 579.266 73.634 578.894 73.634 578.474C73.634 578.042 73.49 577.67 73.202 577.37C72.914 577.07 72.554 576.914 72.11 576.914C71.666 576.914 71.306 577.07 71.018 577.37C70.73 577.67 70.586 578.042 70.586 578.474C70.586 579.338 71.234 580.01 72.11 580.01ZM86.4813 575.942V583.682H84.7773L81.2973 577.382L81.2853 577.394C81.3693 577.79 81.4173 578.21 81.4173 578.678V583.646H80.1213V575.906H81.8973L85.3053 582.158L85.3173 582.146C85.2333 581.75 85.1853 581.33 85.1853 580.862V575.942H86.4813Z" fill="#FF8158"/>
<path d="M65.5243 244.762C66.2803 244.762 66.9163 244.978 67.4203 245.422C67.9243 245.866 68.1763 246.418 68.1763 247.078C68.1763 247.714 67.9363 248.314 67.4563 248.854C67.1443 249.214 66.8443 249.538 66.5443 249.814L64.7803 251.446H68.1403V252.646H63.0523L63.0163 251.47C64.1923 250.402 64.9963 249.646 65.4283 249.214C65.8243 248.818 66.1603 248.446 66.4363 248.086C66.7003 247.762 66.8203 247.402 66.8083 247.018C66.7963 246.43 66.2923 245.962 65.4883 245.962C64.7563 245.962 64.1803 246.418 63.9883 247.102L62.9083 246.562C63.2563 245.506 64.2763 244.762 65.5243 244.762ZM79.8837 244.942V252.682H78.1797L74.6997 246.382L74.6877 246.394C74.7717 246.79 74.8197 247.21 74.8197 247.678V252.646H73.5237V244.906H75.2997L78.7077 251.158L78.7197 251.146C78.6357 250.75 78.5877 250.33 78.5877 249.862V244.942H79.8837Z" fill="#FF8158"/>
<path d="M66.7243 399.906V407.646H65.3803V401.106H63.3403L63.6763 399.906H66.7243ZM75.158 403.77C75.158 404.982 74.882 405.954 74.342 406.686C73.802 407.406 73.094 407.766 72.206 407.766C71.33 407.766 70.61 407.406 70.07 406.686C69.53 405.954 69.266 404.982 69.266 403.77C69.266 402.558 69.53 401.586 70.07 400.866C70.61 400.146 71.318 399.786 72.206 399.786C73.094 399.786 73.802 400.146 74.342 400.878C74.882 401.598 75.158 402.558 75.158 403.77ZM72.206 400.986C71.234 400.986 70.586 402.006 70.586 403.77C70.586 405.534 71.234 406.566 72.206 406.566C73.202 406.566 73.838 405.546 73.838 403.77C73.838 402.006 73.202 400.986 72.206 400.986ZM86.4813 399.942V407.682H84.7773L81.2973 401.382L81.2853 401.394C81.3693 401.79 81.4173 402.21 81.4173 402.678V407.646H80.1213V399.906H81.8973L85.3053 406.158L85.3173 406.146C85.2333 405.75 85.1853 405.33 85.1853 404.862V399.942H86.4813Z" fill="#FF8158"/>
<path d="M67.0963 322.906L65.2843 325.498L65.2963 325.51C65.4523 325.45 65.6563 325.414 65.9083 325.414C66.6163 325.414 67.2403 325.666 67.7563 326.17C68.2843 326.674 68.5484 327.298 68.5484 328.042C68.5484 328.798 68.2723 329.446 67.7083 329.986C67.1563 330.526 66.4843 330.79 65.6803 330.79C64.8763 330.79 64.2043 330.526 63.6643 329.986C63.1243 329.446 62.8603 328.798 62.8603 328.042C62.8603 327.358 63.1363 326.578 63.6763 325.714L65.4523 322.906H67.0963ZM65.7043 326.542C65.2603 326.542 64.8883 326.698 64.6003 326.998C64.3243 327.298 64.1803 327.658 64.1803 328.078C64.1803 328.51 64.3243 328.882 64.6123 329.182C64.9003 329.482 65.2603 329.638 65.7043 329.638C66.1483 329.638 66.5083 329.482 66.7963 329.182C67.0843 328.882 67.2283 328.51 67.2283 328.078C67.2283 327.214 66.5803 326.542 65.7043 326.542ZM79.8837 322.942V330.682H78.1797L74.6997 324.382L74.6877 324.394C74.7717 324.79 74.8197 325.21 74.8197 325.678V330.646H73.5237V322.906H75.2997L78.7077 329.158L78.7197 329.146C78.6357 328.75 78.5877 328.33 78.5877 327.862V322.942H79.8837Z" fill="#FF8158"/>
<path d="M66.7243 477.906V485.646H65.3803V479.106H63.3403L63.6763 477.906H66.7243ZM73.91 477.87V482.514H74.99V483.714H73.91V485.646H72.59V483.714H69.278L69.206 482.478L72.038 477.87H73.91ZM72.59 478.974L70.478 482.514H72.59V478.974ZM86.4813 477.942V485.682H84.7773L81.2973 479.382L81.2853 479.394C81.3693 479.79 81.4173 480.21 81.4173 480.678V485.646H80.1213V477.906H81.8973L85.3053 484.158L85.3173 484.146C85.2333 483.75 85.1853 483.33 85.1853 482.862V477.942H86.4813Z" fill="#FF8158"/>
<path d="M66.7243 556.906V564.646H65.3803V558.106H63.3403L63.6763 556.906H66.7243ZM74.606 558.85C74.606 559.462 74.354 559.966 73.862 560.338C74.594 560.77 74.966 561.43 74.966 562.306C74.966 563.038 74.702 563.626 74.174 564.094C73.646 564.562 72.998 564.79 72.218 564.79C71.438 564.79 70.778 564.562 70.25 564.094C69.722 563.626 69.458 563.038 69.458 562.306C69.458 561.406 69.818 560.746 70.538 560.35C70.07 559.99 69.83 559.486 69.83 558.85C69.83 558.262 70.058 557.77 70.526 557.362C70.994 556.942 71.558 556.738 72.218 556.738C72.878 556.738 73.442 556.942 73.91 557.362C74.378 557.77 74.606 558.262 74.606 558.85ZM71.114 558.862C71.114 559.474 71.558 559.93 72.218 559.93C72.854 559.93 73.31 559.474 73.31 558.862C73.31 558.274 72.83 557.83 72.218 557.83C71.606 557.83 71.114 558.274 71.114 558.862ZM70.778 562.306C70.778 562.678 70.91 563.002 71.186 563.266C71.462 563.53 71.81 563.662 72.218 563.662C72.614 563.662 72.95 563.53 73.226 563.266C73.502 563.002 73.646 562.678 73.646 562.306C73.646 561.538 73.034 560.926 72.218 560.926C71.402 560.926 70.778 561.538 70.778 562.306ZM86.4813 556.942V564.682H84.7773L81.2973 558.382L81.2853 558.394C81.3693 558.79 81.4173 559.21 81.4173 559.678V564.646H80.1213V556.906H81.8973L85.3053 563.158L85.3173 563.146C85.2333 562.75 85.1853 562.33 85.1853 561.862V556.942H86.4813Z" fill="#FF8158"/>
<path d="M67.3123 282.87V287.514H68.3923V288.714H67.3123V290.646H65.9923V288.714H62.6803L62.6083 287.478L65.4403 282.87H67.3123ZM65.9923 283.974L63.8803 287.514H65.9923V283.974ZM79.8837 282.942V290.682H78.1797L74.6997 284.382L74.6877 284.394C74.7717 284.79 74.8197 285.21 74.8197 285.678V290.646H73.5237V282.906H75.2997L78.7077 289.158L78.7197 289.146C78.6357 288.75 78.5877 288.33 78.5877 287.862V282.942H79.8837Z" fill="#FF8158"/>
<path d="M66.7243 437.906V445.646H65.3803V439.106H63.3403L63.6763 437.906H66.7243ZM72.122 437.762C72.878 437.762 73.514 437.978 74.018 438.422C74.522 438.866 74.774 439.418 74.774 440.078C74.774 440.714 74.534 441.314 74.054 441.854C73.742 442.214 73.442 442.538 73.142 442.814L71.378 444.446H74.738V445.646H69.65L69.614 444.47C70.79 443.402 71.594 442.646 72.026 442.214C72.422 441.818 72.758 441.446 73.034 441.086C73.298 440.762 73.418 440.402 73.406 440.018C73.394 439.43 72.89 438.962 72.086 438.962C71.354 438.962 70.778 439.418 70.586 440.102L69.506 439.562C69.854 438.506 70.874 437.762 72.122 437.762ZM86.4813 437.942V445.682H84.7773L81.2973 439.382L81.2853 439.394C81.3693 439.79 81.4173 440.21 81.4173 440.678V445.646H80.1213V437.906H81.8973L85.3053 444.158L85.3173 444.146C85.2333 443.75 85.1853 443.33 85.1853 442.862V437.942H86.4813Z" fill="#FF8158"/>
<path d="M68.0083 363.85C68.0083 364.462 67.7563 364.966 67.2643 365.338C67.9964 365.77 68.3683 366.43 68.3683 367.306C68.3683 368.038 68.1043 368.626 67.5763 369.094C67.0483 369.562 66.4003 369.79 65.6203 369.79C64.8403 369.79 64.1803 369.562 63.6523 369.094C63.1243 368.626 62.8603 368.038 62.8603 367.306C62.8603 366.406 63.2203 365.746 63.9403 365.35C63.4723 364.99 63.2323 364.486 63.2323 363.85C63.2323 363.262 63.4603 362.77 63.9283 362.362C64.3963 361.942 64.9603 361.738 65.6203 361.738C66.2803 361.738 66.8443 361.942 67.3123 362.362C67.7803 362.77 68.0083 363.262 68.0083 363.85ZM64.5163 363.862C64.5163 364.474 64.9603 364.93 65.6203 364.93C66.2563 364.93 66.7123 364.474 66.7123 363.862C66.7123 363.274 66.2323 362.83 65.6203 362.83C65.0083 362.83 64.5163 363.274 64.5163 363.862ZM64.1803 367.306C64.1803 367.678 64.3123 368.002 64.5883 368.266C64.8643 368.53 65.2123 368.662 65.6203 368.662C66.0163 368.662 66.3523 368.53 66.6283 368.266C66.9043 368.002 67.0483 367.678 67.0483 367.306C67.0483 366.538 66.4363 365.926 65.6203 365.926C64.8043 365.926 64.1803 366.538 64.1803 367.306ZM79.8837 361.942V369.682H78.1797L74.6997 363.382L74.6877 363.394C74.7717 363.79 74.8197 364.21 74.8197 364.678V369.646H73.5237V361.906H75.2997L78.7077 368.158L78.7197 368.146C78.6357 367.75 78.5877 367.33 78.5877 366.862V361.942H79.8837Z" fill="#FF8158"/>
<path d="M66.7243 516.906V524.646H65.3803V518.106H63.3403L63.6763 516.906H66.7243ZM73.694 516.906L71.882 519.498L71.894 519.51C72.05 519.45 72.254 519.414 72.506 519.414C73.214 519.414 73.838 519.666 74.354 520.17C74.882 520.674 75.146 521.298 75.146 522.042C75.146 522.798 74.87 523.446 74.306 523.986C73.754 524.526 73.082 524.79 72.278 524.79C71.474 524.79 70.802 524.526 70.262 523.986C69.722 523.446 69.458 522.798 69.458 522.042C69.458 521.358 69.734 520.578 70.274 519.714L72.05 516.906H73.694ZM72.302 520.542C71.858 520.542 71.486 520.698 71.198 520.998C70.922 521.298 70.778 521.658 70.778 522.078C70.778 522.51 70.922 522.882 71.21 523.182C71.498 523.482 71.858 523.638 72.302 523.638C72.746 523.638 73.106 523.482 73.394 523.182C73.682 522.882 73.826 522.51 73.826 522.078C73.826 521.214 73.178 520.542 72.302 520.542ZM86.4813 516.942V524.682H84.7773L81.2973 518.382L81.2853 518.394C81.3693 518.79 81.4173 519.21 81.4173 519.678V524.646H80.1213V516.906H81.8973L85.3053 523.158L85.3173 523.146C85.2333 522.75 85.1853 522.33 85.1853 521.862V516.942H86.4813Z" fill="#FF8158"/>
<path d="M65.5243 591.762C66.2803 591.762 66.9163 591.978 67.4203 592.422C67.9243 592.866 68.1763 593.418 68.1763 594.078C68.1763 594.714 67.9363 595.314 67.4563 595.854C67.1443 596.214 66.8443 596.538 66.5443 596.814L64.7803 598.446H68.1403V599.646H63.0523L63.0163 598.47C64.1923 597.402 64.9963 596.646 65.4283 596.214C65.8243 595.818 66.1603 595.446 66.4363 595.086C66.7003 594.762 66.8203 594.402 66.8083 594.018C66.7963 593.43 66.2923 592.962 65.4883 592.962C64.7563 592.962 64.1803 593.418 63.9883 594.102L62.9083 593.562C63.2563 592.506 64.2763 591.762 65.5243 591.762ZM75.158 595.77C75.158 596.982 74.882 597.954 74.342 598.686C73.802 599.406 73.094 599.766 72.206 599.766C71.33 599.766 70.61 599.406 70.07 598.686C69.53 597.954 69.266 596.982 69.266 595.77C69.266 594.558 69.53 593.586 70.07 592.866C70.61 592.146 71.318 591.786 72.206 591.786C73.094 591.786 73.802 592.146 74.342 592.878C74.882 593.598 75.158 594.558 75.158 595.77ZM72.206 592.986C71.234 592.986 70.586 594.006 70.586 595.77C70.586 597.534 71.234 598.566 72.206 598.566C73.202 598.566 73.838 597.546 73.838 595.77C73.838 594.006 73.202 592.986 72.206 592.986ZM86.4813 591.942V599.682H84.7773L81.2973 593.382L81.2853 593.394C81.3693 593.79 81.4173 594.21 81.4173 594.678V599.646H80.1213V591.906H81.8973L85.3053 598.158L85.3173 598.146C85.2333 597.75 85.1853 597.33 85.1853 596.862V591.942H86.4813Z" fill="#FF8158"/>
</svg>
